<svg xmlns="http://www.w3.org/2000/svg" viewBox="0 0 398 130.19"><defs><style>.cls-1{fill:#fff;}</style></defs><title>Asset 20</title><g id="Layer_2" data-name="Layer 2"><g id="Layer_1-2" data-name="Layer 1"><path d="M17.6,0H380.4A17.59,17.59,0,0,1,398,17.59v95a17.59,17.59,0,0,1-17.59,17.59H17.59A17.59,17.59,0,0,1,0,112.6v-95A17.6,17.6,0,0,1,17.6,0Z"/><path class="cls-1" d="M103.79,86.05A65,65,0,0,1,98,96.94c-3.79,5.76-9.12,12.93-15.73,13-5.88,0-7.38-3.83-15.36-3.78S57.24,110,51.36,110c-6.61-.06-11.66-6.54-15.45-12.3-10.58-16.12-11.69-35-5.16-45.08,4.64-7.14,12-11.32,18.84-11.32S61,45.09,66.79,45.09c5.62,0,9-3.85,17.14-3.85,6.13,0,12.61,3.33,17.24,9.1C86,58.64,88.48,80.27,103.79,86.05Z"/><path class="cls-1" d="M77.79,34.8C80.73,31,83,25.69,82.16,20.24c-4.81.33-10.43,3.39-13.72,7.38-3,3.62-5.44,9-4.48,14.2C69.21,42,74.64,38.85,77.79,34.8Z"/><path class="cls-1" d="M136,52.33,120.87,97h6.94l4.53-13.7H147L151.68,97h7.13L143.58,52.33Zm3.6,7.34c.51,2,1.06,4.06,1.77,6.29l4.09,11.84H133.86l4-11.91C138.5,64,139.09,61.87,139.63,59.67Z"/><path class="cls-1" d="M178.43,63.9a12.61,12.61,0,0,0-10.73,5.15l-.27-4.44h-6.18l0,.57c.18,2.76.25,5.81.25,10.18v34.4h6.76V93.7a11.84,11.84,0,0,0,9.23,4,13.94,13.94,0,0,0,10.23-4.35c3-3.13,4.52-7.62,4.52-13a18,18,0,0,0-3.93-11.86A12.82,12.82,0,0,0,178.43,63.9Zm-1.68,5.59c6,0,8.71,5.58,8.71,11.1,0,7.13-3.44,11.55-9,11.55a8.19,8.19,0,0,1-8-6.26,8.45,8.45,0,0,1-.24-2.19V78.26a10.46,10.46,0,0,1,.21-1.66c0-.19.07-.37.1-.55A8.55,8.55,0,0,1,176.75,69.49Z"/><path class="cls-1" d="M213.2,63.9a12.61,12.61,0,0,0-10.73,5.15l-.27-4.44H196l0,.57c.18,2.77.26,5.81.26,10.18v34.4h6.75V93.7a11.86,11.86,0,0,0,9.23,4,13.94,13.94,0,0,0,10.23-4.35c3-3.13,4.52-7.62,4.52-13a18,18,0,0,0-3.93-11.86A12.82,12.82,0,0,0,213.2,63.9Zm-1.68,5.59c6,0,8.71,5.58,8.71,11.1,0,7.13-3.44,11.55-9,11.55a8.19,8.19,0,0,1-7.95-6.26,8.45,8.45,0,0,1-.24-2.19V78.26a9.72,9.72,0,0,1,.22-1.67l.09-.54A8.55,8.55,0,0,1,211.52,69.49Z"/><path class="cls-1" d="M256.76,71.24c-6.3-2.44-8.32-4.36-8.32-7.91,0-3,2.38-6,7.68-6a15.3,15.3,0,0,1,7.92,2l.58.35,1.9-5.64-.37-.22c-1.14-.66-4.36-2.2-9.84-2.2-8.61,0-14.62,5.08-14.62,12.36,0,5.87,3.76,10,11.85,12.91,5.73,2.14,7.86,4.33,7.86,8.1,0,4.25-3.29,6.89-8.58,6.89a18.48,18.48,0,0,1-9.73-2.75l-.59-.38-1.81,5.77.33.22c2.55,1.7,7.35,2.93,11.41,2.93,11.61,0,15.72-7.08,15.72-13.14C268.15,78.29,264.86,74.43,256.76,71.24Z"/><path class="cls-1" d="M280.31,56.92,273.69,59v5.61h-4.85V70h4.85V86.54c0,4,.76,6.79,2.33,8.56a8.65,8.65,0,0,0,6.54,2.57,15.69,15.69,0,0,0,5.22-.81l.38-.13-.33-5.41-.65.2a10.24,10.24,0,0,1-3.14.36c-2.61,0-3.73-1.65-3.73-5.54V70h8.15v-5.4h-8.15Z"/><path class="cls-1" d="M305.19,63.9c-9.45,0-16.05,7.05-16.05,17.14,0,9.79,6.39,16.63,15.53,16.63h.06c7.73,0,16-5.39,16-17.21a17.06,17.06,0,0,0-4.3-11.94A15,15,0,0,0,305.19,63.9Zm-.2,5.33c6.08,0,8.84,5.92,8.84,11.43,0,6.77-3.77,11.68-9,11.68h-.07c-5.12,0-8.84-4.83-8.84-11.49C296,75.07,298.76,69.23,305,69.23Z"/><path class="cls-1" d="M341.46,64.21l-.4-.1a6.45,6.45,0,0,0-1.68-.21,9.65,9.65,0,0,0-8.47,5.43l-.2-4.72h-6.06l0,.57c.18,2.67.26,5.67.26,9.72L324.89,97h6.75V79.75a17.78,17.78,0,0,1,.18-2.62c.77-4.13,3.55-6.8,7.11-6.8a16.45,16.45,0,0,1,1.81.11l.72.08Z"/><path class="cls-1" d="M356.64,63.83c-9,0-15.26,7.19-15.26,17.47,0,9.9,6.24,16.31,15.91,16.31A25.8,25.8,0,0,0,368,95.55l.41-.18-1.3-5-.56.23a20.92,20.92,0,0,1-8.46,1.51c-2.94,0-9.7-1-10.12-9.79l21.8.06.09-.43a15.62,15.62,0,0,0,.2-2.81C370,72.06,366.53,63.83,356.64,63.83ZM356.19,69a6.68,6.68,0,0,1,5,1.89,9.68,9.68,0,0,1,2.33,6.29h-15.4C348.7,73.25,351.14,69,356.19,69Z"/><path class="cls-1" d="M120.87,21.84a49.16,49.16,0,0,1,6.48-.44c4.35,0,7.45.88,9.5,2.6a9.24,9.24,0,0,1,3.35,7.62,10.68,10.68,0,0,1-3.38,8.21c-2.23,2-5.85,3-10.41,3a46.69,46.69,0,0,1-5.54-.25Zm3.06,18.71a21.13,21.13,0,0,0,3.07.13c6.48,0,10-3.26,10-9,0-5-3.1-8.15-9.5-8.15a18.8,18.8,0,0,0-3.56.29Z"/><path class="cls-1" d="M151.06,43c-4.53,0-8.08-3-8.08-7.81,0-5.07,3.73-8,8.36-8,4.84,0,8.11,3.16,8.11,7.77,0,5.64-4.35,8.09-8.36,8.09Zm.1-2.07c2.93,0,5.12-2.48,5.12-5.93,0-2.56-1.43-5.79-5.05-5.79s-5.15,3-5.15,5.89c0,3.32,2.09,5.83,5,5.83Z"/><path class="cls-1" d="M164.3,27.51l2.26,7.68c.45,1.69.91,3.29,1.22,4.86h.1c.39-1.54.94-3.17,1.5-4.83l2.75-7.71h2.58l2.61,7.59c.63,1.78,1.12,3.41,1.5,4.95h.1a43.55,43.55,0,0,1,1.29-4.92l2.4-7.62h3l-5.44,15.17h-2.78l-2.58-7.24a50.66,50.66,0,0,1-1.5-5h-.07a42.47,42.47,0,0,1-1.53,5L169,42.68h-2.78l-5.09-15.17Z"/><path class="cls-1" d="M188.71,31.62c0-1.6,0-2.85-.14-4.11h2.72l.17,2.48h.07a6.4,6.4,0,0,1,5.57-2.82c2.34,0,6,1.25,6,6.46v9H200V33.94c0-2.45-1-4.51-3.9-4.51A4.38,4.38,0,0,0,192,32.25a3.91,3.91,0,0,0-.2,1.28v9.15h-3.07Z"/><path class="cls-1" d="M208,20.43h3.06V42.68H208Z"/><path class="cls-1" d="M223.05,43c-4.53,0-8.08-3-8.08-7.81,0-5.07,3.72-8,8.36-8,4.84,0,8.11,3.16,8.11,7.77,0,5.64-4.35,8.09-8.36,8.09Zm.1-2.07c2.93,0,5.12-2.48,5.12-5.93,0-2.56-1.43-5.79-5.05-5.79s-5.15,3-5.15,5.89c0,3.32,2.09,5.83,5.05,5.83Z"/><path class="cls-1" d="M247.18,39.05a22.17,22.17,0,0,0,.25,3.63h-2.76l-.28-1.91h-.1A6.47,6.47,0,0,1,239.14,43c-3.41,0-5.16-2.17-5.16-4.36C234,35,237.61,33,244.12,33v-.31c0-1.26-.39-3.54-3.83-3.51a8.83,8.83,0,0,0-4.43,1.12l-.69-1.84a11.75,11.75,0,0,1,5.57-1.32c5.19,0,6.44,3.16,6.44,6.2Zm-3-4.11c-3.35-.06-7.14.47-7.14,3.42A2.56,2.56,0,0,0,239.9,41a4.25,4.25,0,0,0,4.15-2.54,2.66,2.66,0,0,0,.14-.88Z"/><path class="cls-1" d="M266.65,20.43V38.76c0,1.35,0,2.89.14,3.92H264l-.14-2.63h-.07a6.31,6.31,0,0,1-5.71,3c-4.08,0-7.25-3.11-7.25-7.71,0-5.08,3.49-8.15,7.56-8.15,2.61,0,4.35,1.1,5.09,2.29h.06v-9Zm-3.07,13.26a4.35,4.35,0,0,0-.14-1.19A4.42,4.42,0,0,0,259,29.33c-3.17,0-5,2.51-5,5.83,0,3.1,1.71,5.64,5,5.64a4.55,4.55,0,0,0,4.49-3.29,4.09,4.09,0,0,0,.14-1.19Z"/><path class="cls-1" d="M286,43c-4.53,0-8.08-3-8.08-7.81,0-5.07,3.72-8,8.35-8,4.85,0,8.12,3.16,8.12,7.77C294.37,40.58,290,43,286,43Zm.1-2.07c2.93,0,5.12-2.48,5.12-5.93,0-2.56-1.43-5.79-5.05-5.79s-5.15,3-5.15,5.89c0,3.32,2.09,5.83,5.05,5.83Z"/><path class="cls-1" d="M298.24,31.62c0-1.6,0-2.85-.14-4.11h2.71L301,30h.07a6.37,6.37,0,0,1,5.57-2.82c2.33,0,5.95,1.25,5.95,6.46v9h-3.06V33.94c0-2.45-1-4.51-3.9-4.51a4.37,4.37,0,0,0-4.11,2.82,3.66,3.66,0,0,0-.21,1.28v9.15h-3.06Z"/><path class="cls-1" d="M328.64,23.88v3.63H333v2.1h-4.38v8.18c0,1.88.59,3,2.3,3a6.11,6.11,0,0,0,1.77-.19l.14,2.1a9.08,9.08,0,0,1-2.71.38,4.64,4.64,0,0,1-3.31-1.16,5.5,5.5,0,0,1-1.19-4V29.61H323v-2.1h2.61V24.72Z"/><path class="cls-1" d="M336.47,20.43h3.07V29.9h.07A5.15,5.15,0,0,1,341.8,28a6.52,6.52,0,0,1,3.14-.78c2.26,0,5.88,1.25,5.88,6.49v9h-3.06V34c0-2.48-1-4.51-3.9-4.51a4.4,4.4,0,0,0-4.11,2.75,3,3,0,0,0-.21,1.32v9.15h-3.07Z"/><path class="cls-1" d="M357.54,35.57c.07,3.73,2.69,5.26,5.75,5.26a12.77,12.77,0,0,0,4.67-.75l.55,1.94a15,15,0,0,1-5.64,1c-5.15,0-8.29-3.11-8.29-7.65s3-8.21,7.94-8.21c5.51,0,6.93,4.35,6.93,7.14a6.41,6.41,0,0,1-.1,1.32Zm8.95-2c0-1.72-.8-4.48-4.21-4.48a4.76,4.76,0,0,0-4.7,4.48Z"/></g></g></svg>