<svg width="16" height="15" viewBox="0 0 16 15" fill="none" xmlns="http://www.w3.org/2000/svg">
<path d="M4.82191 11.1917L4.8068 11.1993L10.0662 6.57668L10.1663 10.0248C10.1709 10.1934 10.2425 10.3644 10.3642 10.5028C10.4859 10.6413 10.6455 10.7333 10.8122 10.7598L11.3419 10.8436C11.5084 10.8698 11.6635 10.829 11.7785 10.7279C11.8935 10.6268 11.9544 10.4785 11.9496 10.31L11.785 4.40707C11.7803 4.23791 11.7102 4.06862 11.5881 3.93035C11.466 3.79074 11.307 3.69945 11.14 3.6732L5.30671 2.75199C5.14027 2.72577 4.98541 2.76697 4.87032 2.86812C4.75536 2.96916 4.69469 3.11753 4.69927 3.28588L4.71437 3.82188C4.71888 3.99029 4.78861 4.15918 4.91032 4.29767C5.03197 4.43607 5.1845 4.52005 5.351 4.54622L8.78626 5.08276L3.51457 9.71616C3.27769 9.92436 3.29468 10.3451 3.54521 10.6302L3.93044 11.0684C4.18096 11.3535 4.58503 11.3999 4.82191 11.1917Z" fill="#7E7F9A"/>
</svg>
