<svg width="222" height="155" viewBox="0 0 222 155" fill="none" xmlns="http://www.w3.org/2000/svg">
<path d="M0 5C0 2.23858 2.23858 0 5 0H217C219.761 0 222 2.23858 222 5V155H0V5Z" fill="#42BEFE"/>
<path d="M10.63 139.7C10.63 143.462 13.384 146.108 17.002 146.108C19.792 146.108 22.06 144.632 22.906 142.04H20.008C19.414 143.264 18.334 143.858 16.984 143.858C14.788 143.858 13.222 142.238 13.222 139.7C13.222 137.144 14.788 135.542 16.984 135.542C18.334 135.542 19.414 136.136 20.008 137.342H22.906C22.06 134.768 19.792 133.274 17.002 133.274C13.384 133.274 10.63 135.938 10.63 139.7ZM24.4104 140.978C24.4104 144.092 26.4264 146.162 28.9464 146.162C30.5304 146.162 31.6644 145.406 32.2584 144.542V146H34.7964V136.028H32.2584V137.45C31.6644 136.622 30.5664 135.866 28.9644 135.866C26.4264 135.866 24.4104 137.864 24.4104 140.978ZM32.2584 141.014C32.2584 142.904 30.9984 143.948 29.6124 143.948C28.2624 143.948 26.9844 142.868 26.9844 140.978C26.9844 139.088 28.2624 138.08 29.6124 138.08C30.9984 138.08 32.2584 139.124 32.2584 141.014ZM37.2576 146H39.7776V132.68H37.2576V146ZM42.2674 146H44.7874V132.68H42.2674V146ZM55.0172 143.156C54.9452 139.502 49.4192 140.636 49.4192 138.818C49.4192 138.242 49.9052 137.864 50.8412 137.864C51.8312 137.864 52.4432 138.386 52.5152 139.16H54.9272C54.7832 137.18 53.3252 135.866 50.9132 135.866C48.4472 135.866 46.9712 137.198 46.9712 138.854C46.9712 142.508 52.6052 141.374 52.6052 143.156C52.6052 143.732 52.0652 144.182 51.0752 144.182C50.0672 144.182 49.3652 143.606 49.2752 142.85H46.7372C46.8452 144.704 48.5912 146.162 51.0932 146.162C53.5232 146.162 55.0172 144.866 55.0172 143.156Z" fill="white"/>
<path d="M86.6955 39.1989C86.5815 39.4913 86.1603 39.737 85.9088 39.9066C85.5959 40.1143 85.2712 40.3015 84.9495 40.4916C84.4669 40.784 84.9056 41.5445 85.3911 41.2491C86.1545 40.787 87.2015 40.3102 87.5437 39.427C87.7455 38.9064 86.9003 38.6783 86.6955 39.1989Z" fill="white"/>
<path d="M69.9599 35.3981C69.6294 35.8163 69.3749 36.3486 69.6674 36.8604C69.9599 37.3722 70.4044 37.343 70.8929 37.3781C70.8461 37.8343 70.5126 38.3111 70.4659 38.7498C70.4353 38.944 70.4521 39.1427 70.5147 39.329C70.5773 39.5153 70.684 39.6838 70.8256 39.8202C71.2146 40.2326 71.8346 39.6096 71.4485 39.2002C71.1181 38.8521 71.5714 38.1648 71.6767 37.8109C71.7762 37.5102 71.7963 37.1888 71.7352 36.878C71.7152 36.8084 71.6779 36.7451 71.6267 36.6939C71.5755 36.6428 71.5122 36.6055 71.4427 36.5855C71.0449 36.5007 70.3167 36.682 70.6092 36.0357C70.7759 35.6642 71.6123 34.9711 72.0101 35.3484C72.4078 35.7256 73.0425 35.1173 72.633 34.7283C71.7205 33.8772 70.5975 34.5909 69.9599 35.3981Z" fill="white"/>
<path d="M140.791 36.1816C140.25 36.3893 139.446 36.79 138.744 36.9157C139.294 36.3308 140.115 35.7839 140.668 35.6464C141.221 35.509 140.984 34.6637 140.434 34.8012C139.732 34.9767 139.241 35.4563 138.679 35.8804C138.191 36.1873 137.789 36.613 137.509 37.1175C137.476 37.1755 137.457 37.2403 137.452 37.307C137.448 37.3737 137.458 37.4405 137.483 37.5024C137.508 37.5644 137.547 37.6199 137.597 37.6646C137.646 37.7094 137.706 37.7424 137.77 37.761C138.475 37.9423 139.255 37.723 139.984 37.448C139.742 37.6735 139.524 37.9223 139.332 38.1909C139.039 38.6939 138.747 39.3111 138.747 39.9018C138.747 40.4926 139.647 40.4692 139.624 39.9018C139.568 38.4892 141.379 37.8984 141.352 36.6028C141.352 36.5349 141.336 36.468 141.305 36.4074C141.274 36.3468 141.23 36.2941 141.176 36.2534C141.122 36.2126 141.059 36.185 140.992 36.1725C140.925 36.1601 140.856 36.1632 140.791 36.1816V36.1816Z" fill="white"/>
<path d="M147.416 52.5766V50.4299C147.416 50.3136 147.37 50.202 147.288 50.1197C147.206 50.0374 147.094 49.9912 146.978 49.9912C146.861 49.9912 146.75 50.0374 146.668 50.1197C146.585 50.202 146.539 50.3136 146.539 50.4299V52.5766C146.539 52.693 146.585 52.8046 146.668 52.8868C146.75 52.9691 146.861 53.0153 146.978 53.0153C147.094 53.0153 147.206 52.9691 147.288 52.8868C147.37 52.8046 147.416 52.693 147.416 52.5766Z" fill="white"/>
<path d="M150.294 59.7422C150.161 59.7415 150.029 59.7699 149.908 59.8255C149.788 59.8811 149.681 59.9625 149.595 60.0639C149.515 60.1481 149.471 60.2595 149.471 60.3754C149.471 60.4912 149.515 60.6027 149.595 60.6869C149.678 60.7676 149.789 60.8128 149.905 60.8128C150.02 60.8128 150.132 60.7676 150.215 60.6869C150.232 60.6641 150.25 60.6426 150.27 60.6225H150.294C150.41 60.6225 150.522 60.5763 150.604 60.494C150.686 60.4118 150.732 60.3002 150.732 60.1838C150.732 60.0675 150.686 59.9559 150.604 59.8736C150.522 59.7913 150.41 59.7451 150.294 59.7451V59.7422Z" fill="white"/>
<path d="M68.5357 66.2144C68.4359 66.0016 68.2624 65.8323 68.0472 65.7377C67.7987 65.6496 67.5404 65.5916 67.278 65.5651C66.943 65.4809 66.6016 65.4242 66.2573 65.3955C65.6929 65.3955 65.6929 66.2729 66.2573 66.2729C66.6058 66.3108 66.9516 66.3704 67.2927 66.4513C67.5296 66.4864 67.8191 66.4747 67.7723 66.7847C67.7167 67.1591 68.1964 67.5978 68.5064 67.2117C68.6046 67.0909 68.6964 66.9649 68.7813 66.8345C68.8168 66.7797 68.8386 66.7172 68.8451 66.6523C68.8515 66.5873 68.8423 66.5218 68.8183 66.4611C68.7942 66.4005 68.756 66.3464 68.7069 66.3035C68.6577 66.2606 68.599 66.23 68.5357 66.2144V66.2144Z" fill="white"/>
<path d="M83.8833 55.9698L83.4943 56.3617C83.4128 56.4443 83.3672 56.5557 83.3672 56.6717C83.3672 56.7877 83.4128 56.8991 83.4943 56.9817C83.5776 57.0618 83.6887 57.1065 83.8043 57.1065C83.9199 57.1065 84.031 57.0618 84.1143 56.9817C84.243 56.8501 84.3746 56.7214 84.5033 56.5927C84.5442 56.552 84.5767 56.5037 84.5989 56.4504C84.6211 56.3971 84.6326 56.34 84.6328 56.2823C84.6329 56.2246 84.6217 56.1674 84.5997 56.114C84.5777 56.0607 84.5455 56.0121 84.5048 55.9712C84.4641 55.9303 84.4157 55.8979 84.3624 55.8756C84.3092 55.8534 84.252 55.8419 84.1943 55.8418C84.1366 55.8417 84.0794 55.8529 84.0261 55.8749C83.9727 55.8968 83.9242 55.9291 83.8833 55.9698V55.9698Z" fill="white"/>
<path d="M164.163 33.4784C164.062 33.4207 163.943 33.4049 163.83 33.4345C163.718 33.464 163.622 33.5366 163.563 33.6364L163.37 34.0253C163.313 34.1264 163.298 34.2454 163.327 34.3576C163.356 34.4698 163.427 34.5666 163.525 34.6278C163.626 34.6857 163.746 34.7015 163.858 34.672C163.971 34.6425 164.068 34.5699 164.127 34.4699L164.32 34.078C164.377 33.9772 164.393 33.8581 164.363 33.7461C164.334 33.6342 164.262 33.5381 164.163 33.4784V33.4784Z" fill="white"/>
<path d="M160.433 59.7422C160.316 59.7422 160.205 59.7884 160.123 59.8707C160.04 59.953 159.994 60.0645 159.994 60.1809C159.994 60.2972 160.04 60.4088 160.123 60.4911C160.205 60.5734 160.316 60.6196 160.433 60.6196C160.549 60.6196 160.661 60.5734 160.743 60.4911C160.825 60.4088 160.872 60.2972 160.872 60.1809C160.872 60.0645 160.825 59.953 160.743 59.8707C160.661 59.7884 160.549 59.7422 160.433 59.7422Z" fill="white"/>
<path d="M156.122 78.0015C156.057 78.3671 156.037 78.7385 155.984 79.107C155.94 79.4258 155.908 79.9201 155.648 80.1482C155.227 80.5255 155.85 81.1426 156.271 80.7682C156.935 80.1833 156.827 79.031 156.967 78.2354C157.055 77.6827 156.209 77.4458 156.122 78.0015Z" fill="white"/>
<path d="M139.629 73.7109C139.494 73.6729 139.359 73.6232 139.222 73.591C139.198 73.585 139.175 73.5751 139.155 73.5618C139.225 73.629 138.953 73.6232 139.155 73.5618C139.131 73.5441 139.105 73.5284 139.079 73.515C139.107 73.5267 139.133 73.5414 139.158 73.5588C139.293 73.469 139.423 73.3713 139.547 73.2664C139.691 73.1809 139.842 73.1056 139.997 73.0412C140.515 72.8189 140.067 72.0643 139.553 72.2837C138.968 72.5352 137.856 73.1611 138.336 73.9625C138.569 74.2591 138.905 74.4566 139.278 74.5152C139.596 74.6059 139.974 74.603 139.921 75.0007C139.851 75.5593 140.728 75.5564 140.798 75.0007C140.886 74.2198 140.281 73.8806 139.629 73.7109Z" fill="white"/>
<path d="M78.0338 87.9485C77.7969 88.165 77.2705 88.0217 76.978 88.0129C76.4136 88.0129 76.4136 88.8903 76.978 88.8903C77.5425 88.8903 78.1742 89.0102 78.6539 88.5686C79.075 88.1854 78.4521 87.5654 78.0338 87.9485Z" fill="white"/>
<path d="M112.721 75.5767H116.491L122.992 12H106.219L112.721 75.5767Z" fill="url(#paint0_linear)"/>
<path d="M116.491 90.9951H112.721L106.219 154.572H122.992L116.491 90.9951Z" fill="url(#paint1_linear)"/>
<path d="M108.563 55.5515C108.563 55.5515 107.153 53.0363 105.392 54.1125C102.529 55.8674 103.444 59.8157 103.444 59.8157L104.103 58.0609C104.103 58.0609 103.225 60.8393 104.614 62.7404L104.468 60.9124C104.468 60.9124 105.565 63.5446 107.539 63.8371C109.513 64.1296 109.806 64.1296 110.025 65.2995C110.244 66.4693 108.639 67.2473 109.148 67.1654C110.938 66.8729 110.756 64.6063 110.756 64.6063L111.049 66.25C111.049 66.25 113.315 61.863 113.169 59.8157C113.086 58.5985 112.71 57.4194 112.072 56.3792L113.242 56.8179C113.242 56.8179 109.733 51.2376 108.563 55.5515Z" fill="#333333"/>
<path d="M106.836 61.6519C105.897 59.9556 104.469 58.0604 107.807 56.3056C108.345 56.0131 109.617 56.2412 110.123 56.2208C110.474 56.2208 110.515 56.5776 110.831 56.6273C112.258 56.8833 113.543 57.6545 114.44 58.7945C114.44 58.7945 112.325 62.0116 118.607 66.1237C119.341 66.6034 114.1 74.813 113.583 71.7742C111.828 61.4267 107.4 62.6697 106.836 61.6519Z" fill="#935C3B"/>
<path d="M112.291 57.3325C112.291 57.3325 111.267 57.04 110.127 58.5462C110.099 58.5796 110.081 58.6191 110.072 58.6614C110.064 58.7037 110.066 58.7475 110.078 58.7888C110.091 58.8301 110.113 58.8677 110.143 58.8983C110.174 58.929 110.211 58.9517 110.252 58.9644C110.976 59.1957 111.752 59.2089 112.484 59.0025C113.97 58.4731 112.291 57.3325 112.291 57.3325Z" fill="#D84744"/>
<path d="M110.254 58.9499C110.254 58.9499 110.254 58.9499 110.236 58.9499C110.452 58.7946 110.711 58.7117 110.976 58.713C111.152 58.7109 111.326 58.7467 111.486 58.8178C111.647 58.889 111.79 58.9939 111.906 59.1254C111.349 59.1731 110.788 59.1135 110.254 58.9499V58.9499Z" fill="#822A2A"/>
<path d="M110.343 58.7687C110.343 58.7687 111.343 57.7948 112.413 57.6954C112.413 57.6954 111.44 57.9878 112.463 58.0142C112.463 58.0142 112.756 57.8679 112.609 57.6223C112.518 57.5346 112.42 57.4535 112.317 57.3795C112.252 57.3298 112.17 57.3068 112.089 57.3152C111.683 57.3473 111.298 57.5043 110.985 57.7646C110.672 58.0249 110.448 58.3757 110.343 58.7687V58.7687Z" fill="#EEF9F9"/>
<path d="M112.969 58.7013C112.829 58.8299 112.662 58.9249 112.48 58.9792C112.29 59.0419 112.094 59.0841 111.895 59.1049V59.1049C111.895 59.1049 111.732 58.9587 111.933 58.7744C112.087 58.6787 112.262 58.6219 112.442 58.6092C112.622 58.5965 112.803 58.6281 112.969 58.7013Z" fill="#EEF9F9"/>
<path d="M112.479 58.9883C112.033 59.13 111.562 59.1729 111.098 59.114C111.381 58.972 111.694 58.8998 112.011 58.9035C112.188 58.9034 112.365 58.925 112.537 58.9678L112.479 58.9883Z" fill="#FFABAB"/>
<path d="M114.573 62.0793C114.324 64.4805 115.678 69.7595 116 70.9704L115.871 71.1195L113.163 69.704C111.929 64.5858 109.946 63.0971 108.51 62.4566C109.054 62.208 109.612 61.9448 110.171 61.6699C113.534 60.0116 114.438 58.7803 114.438 58.7803C114.438 58.7803 113.59 60.0818 114.573 62.0793Z" fill="#7E4929"/>
<path d="M106.809 61.1584C106.809 61.1584 106.101 61.328 106.636 62.0592C107.171 62.7903 108.83 62.8137 108.417 61.8895C108.005 60.9653 106.809 61.1584 106.809 61.1584Z" fill="#935C3B"/>
<path d="M109.002 57.5496C109.002 57.5496 107.613 56.8915 107.209 58.6463C107.34 58.288 107.589 57.9846 107.914 57.7855C108.24 57.5864 108.623 57.5032 109.002 57.5496Z" fill="#3F2C2C"/>
<path d="M108.418 57.11C108.418 57.11 106.467 56.5982 106.663 58.4027C106.757 58.0154 106.985 57.6736 107.305 57.4373C107.626 57.2009 108.02 57.085 108.418 57.11V57.11Z" fill="#333333"/>
<path d="M110.33 56.1981C110.33 56.1981 109.233 56.2449 109.16 56.8561C109.169 56.8561 109.002 55.578 110.33 56.1981Z" fill="#333333"/>
<path d="M109.686 57.0405C109.686 57.0405 109.537 56.242 110.926 56.7305C110.926 56.748 110.037 56.5755 109.686 57.0405Z" fill="#3F2C2C"/>
<path d="M110.517 57.075L110.748 56.8615C110.748 56.8615 110.646 56.5983 110.026 56.8381C109.697 56.9819 109.33 57.0138 108.982 56.9288L110.116 57.7506L110.517 57.075Z" fill="#935C3B"/>
<path d="M111.102 57.1658L110.748 56.8734C110.715 56.8451 110.676 56.8255 110.634 56.8164C110.592 56.8072 110.549 56.8089 110.508 56.8211C110.466 56.8334 110.429 56.8559 110.399 56.8865C110.369 56.9171 110.347 56.9549 110.335 56.9962L110.116 57.7625C110.372 57.4632 110.718 57.2541 111.102 57.1658V57.1658Z" fill="#7E4929"/>
<path d="M106.956 61.4795C106.956 61.4795 106.844 62.1551 107.795 62.1551C107.795 62.1551 107.339 61.9562 107.429 61.772C107.52 61.5877 107.777 61.6082 107.777 61.6082C107.777 61.6082 107.301 61.5702 107.266 61.6813C107.243 61.7641 107.237 61.8506 107.248 61.9357L106.956 61.4795Z" fill="#7E4929"/>
<path d="M108.16 60.986C108.16 60.986 106.698 60.8047 106.552 59.781C106.165 59.6511 105.812 59.4385 105.516 59.1581C105.063 58.7281 106.297 61.5358 106.297 61.5358C106.297 61.5358 106.59 61.024 107.906 61.6089L108.16 60.986Z" fill="#333333"/>
<path d="M105.875 26.9151C105.503 27.6375 104.456 27.5 103.751 26.9678C103.447 26.731 103.215 26.4138 103.082 26.0519C102.948 25.6901 102.919 25.2981 102.997 24.9205C103.289 23.0809 105.451 22.2883 107.457 23.2154C110.019 24.4174 110.654 26.88 110.724 29.0648C110.759 30.141 110.294 32.1064 111.935 32.6036C112.97 32.9166 113.491 32.0655 113.716 31.3782C113.865 30.9161 113.844 30.2083 113.113 30.0328C112.382 29.8573 111.894 30.6558 112.771 30.6382C112.727 30.8927 112.686 31.1471 112.642 31.4016L112.49 31.3226C111.905 31.0301 112.429 30.3487 112.999 30.6412L113.151 30.7201C113.232 30.7568 113.297 30.8189 113.339 30.8968C113.38 30.9748 113.395 31.0642 113.38 31.1512C113.365 31.2382 113.322 31.3179 113.258 31.378C113.193 31.4381 113.11 31.4751 113.023 31.4835C112.335 31.4835 111.426 31.3168 111.215 30.6061C111.019 29.9392 111.677 29.3075 112.356 29.17C112.761 29.1053 113.176 29.1554 113.554 29.3147C113.932 29.4739 114.257 29.7359 114.494 30.0708C115.041 30.8751 114.71 31.7964 114.269 32.4866C114.057 32.8645 113.731 33.1655 113.337 33.3463C112.943 33.527 112.503 33.5783 112.078 33.4927C111.624 33.4298 111.193 33.2545 110.823 32.9828C110.454 32.7111 110.159 32.3516 109.963 31.9368C109.548 30.9804 109.75 29.9275 109.721 28.9653C109.68 27.658 109.516 26.1898 108.504 25.0492C107.574 23.9992 105.755 23.0809 104.55 24.0489C104.356 24.215 104.2 24.4214 104.094 24.6537C103.988 24.8861 103.934 25.1388 103.936 25.3943C103.921 25.644 103.981 25.8923 104.108 26.1079C104.178 26.2073 104.851 26.6928 104.907 26.5963C105.149 26.1196 106.106 26.4355 105.86 26.9151H105.875Z" fill="#E5A920"/>
<path d="M97.5306 37.0114L99.1889 32.0686L99.7182 30.4893L101.365 25.5437C101.441 25.4031 101.565 25.294 101.714 25.2355C101.863 25.1771 102.028 25.1729 102.18 25.2239C102.332 25.2748 102.461 25.3776 102.544 25.5142C102.628 25.6507 102.661 25.8123 102.637 25.9707L102.62 26.0292C103.797 26.4049 104.818 27.1584 105.524 28.173C106.015 28.8894 106.346 29.7034 106.495 30.5595C106.697 31.8259 107.703 32.9636 109.127 33.4374L109.218 33.4696C110.109 33.7789 111.081 33.7706 111.967 33.4462L112.914 33.0777C113.349 32.9223 113.825 32.9223 114.26 33.0777L113.567 35.1425L113.037 36.7218L112.347 38.7866C111.908 38.6447 111.53 38.3554 111.28 37.9677L110.744 37.0903C110.233 36.2973 109.463 35.7053 108.565 35.4145L108.475 35.3852C107.059 34.9114 105.571 35.2127 104.646 36.1018C104.012 36.6939 103.258 37.1437 102.435 37.4208C101.259 37.8034 99.9903 37.789 98.8233 37.3799V37.3799L98.8028 37.4384C98.7262 37.5789 98.6025 37.688 98.4534 37.7465C98.3044 37.805 98.1395 37.8091 97.9877 37.7581C97.8359 37.7072 97.7069 37.6044 97.6233 37.4679C97.5398 37.3313 97.5069 37.1697 97.5306 37.0114V37.0114Z" fill="#E5A920"/>
<path d="M106.477 32.8057C105.992 32.3143 105.17 31.1912 104.702 30.6531C103.985 29.8694 103.092 29.2678 102.096 28.8983C101.97 28.8486 98.9227 37.5056 98.7911 37.4618L101.716 28.7579L101.73 28.714C101.804 28.4918 101.581 28.2168 101.227 28.0998C100.873 27.9829 100.534 28.0647 100.458 28.287L101.365 25.5437C101.441 25.4031 101.565 25.294 101.714 25.2355C101.863 25.1771 102.028 25.1729 102.18 25.2239C102.332 25.2748 102.461 25.3776 102.544 25.5142C102.628 25.6507 102.661 25.8123 102.637 25.9707L102.62 26.0292C103.797 26.4049 104.818 27.1584 105.524 28.173C106.015 28.8894 106.346 29.7034 106.495 30.5595C106.697 31.8259 107.703 32.9636 109.127 33.4374L109.218 33.4696C110.109 33.7789 111.081 33.7706 111.967 33.4462L112.914 33.0777C113.349 32.9223 113.825 32.9223 114.26 33.0777L113.572 35.1249C112.875 34.96 112.168 34.8389 111.455 34.7623C111.455 34.7623 107.279 33.6187 106.477 32.8057Z" fill="#C68D1A"/>
<path d="M101.949 38.6294C102.089 37.831 101.162 37.3192 100.287 37.3075C99.8987 37.311 99.5189 37.4244 99.1918 37.6345C98.8648 37.8446 98.6038 38.1429 98.439 38.4949C97.5616 40.1415 98.7987 42.0835 100.969 42.5427C103.741 43.1276 105.73 41.5424 107.111 39.8403C107.798 39.0038 108.599 37.1525 110.208 37.7374C111.223 38.1118 111.126 39.1062 110.892 39.7847C110.734 40.2439 110.307 40.7849 109.6 40.4983C108.892 40.2117 109.015 39.2699 109.705 39.8139L110.062 39.1296L109.892 39.0974C109.257 38.9892 109.257 39.8373 109.892 39.9485L110.062 39.9777C110.148 39.9969 110.238 39.987 110.318 39.9497C110.398 39.9123 110.464 39.8496 110.504 39.7712C110.545 39.6928 110.559 39.6032 110.543 39.5162C110.528 39.4293 110.484 39.3499 110.418 39.2904C109.88 38.8663 109.044 38.4598 108.447 38.9014C107.851 39.3431 108.032 40.2175 108.494 40.7352C108.777 41.0311 109.138 41.2414 109.535 41.3422C109.932 41.443 110.35 41.4303 110.74 41.3055C111.664 40.9926 111.954 40.0567 112.018 39.2407C112.077 38.8113 111.998 38.3744 111.792 37.9928C111.587 37.6112 111.266 37.3047 110.875 37.1174C110.473 36.8936 110.022 36.7734 109.563 36.7678C109.103 36.7622 108.649 36.8713 108.242 37.0852C107.336 37.597 106.862 38.5475 106.26 39.308C105.438 40.3287 104.423 41.402 102.928 41.7004C101.554 41.9928 99.5503 41.6155 99.1731 40.1181C99.116 39.8687 99.1149 39.6097 99.1701 39.3599C99.2252 39.11 99.3351 38.8755 99.4918 38.6733C99.6315 38.4662 99.8287 38.3045 100.059 38.2083C100.173 38.1703 101.01 38.179 100.989 38.2989C100.899 38.8254 101.849 39.15 101.943 38.6177L101.949 38.6294Z" fill="#E5A920"/>
<path d="M104.4 30.5982C104.4 30.5982 104.599 30.2852 104.418 30.0512C104.237 29.8173 103.698 29.867 103.701 29.8787C103.987 30.0611 104.226 30.3074 104.4 30.5982V30.5982Z" fill="#EFB135"/>
<path d="M103.804 30.3936C103.984 30.4981 104.183 30.5676 104.389 30.5984C104.219 30.3093 103.985 30.0631 103.704 29.8789C103.704 29.8789 103.599 30.2269 103.804 30.3936Z" fill="#FCC34F"/>
<path d="M104.385 30.6475C104.361 30.8348 104.266 31.0056 104.119 31.1242C103.958 31.1938 103.78 31.2171 103.607 31.1915C103.827 30.9596 104.091 30.7746 104.385 30.6475V30.6475Z" fill="#FCC34F"/>
<path d="M103.774 30.668C103.865 30.6129 103.97 30.5821 104.076 30.5785C104.183 30.5749 104.29 30.5987 104.385 30.6476C104.091 30.7747 103.827 30.9597 103.607 31.1916C103.595 31.0974 103.604 31.0019 103.633 30.9115C103.661 30.8211 103.709 30.738 103.774 30.668V30.668Z" fill="#EFB135"/>
<path d="M103.618 30.5132C103.618 30.5132 103.735 30.1535 103.493 30.0131C103.25 29.8727 102.709 30.1418 102.718 30.1535C103.045 30.1888 103.357 30.3132 103.618 30.5132V30.5132Z" fill="#EFB135"/>
<path d="M102.959 30.5715C103.18 30.5888 103.403 30.569 103.617 30.5131C103.355 30.313 103.044 30.1886 102.716 30.1533C102.716 30.1533 102.705 30.5072 102.959 30.5715Z" fill="#FCC34F"/>
<path d="M103.615 30.5654C103.639 30.7548 103.588 30.9459 103.472 31.0977C103.328 31.2241 103.157 31.3161 102.972 31.3668C103.139 31.0645 103.356 30.7934 103.615 30.5654V30.5654Z" fill="#FCC34F"/>
<path d="M103.001 30.8292C103.077 30.7425 103.172 30.6739 103.278 30.6283C103.385 30.5828 103.5 30.5615 103.615 30.566C103.356 30.794 103.138 31.0651 102.972 31.3674C102.933 31.2819 102.916 31.1884 102.921 31.0947C102.926 31.0011 102.953 30.91 103.001 30.8292V30.8292Z" fill="#EFB135"/>
<path d="M102.798 30.7558C102.798 30.7558 102.822 30.3844 102.532 30.3639C102.243 30.3434 101.751 30.8377 101.76 30.8494C102.091 30.7234 102.45 30.691 102.798 30.7558V30.7558Z" fill="#EFB135"/>
<path d="M102.129 31.1042C102.366 31.017 102.591 30.9 102.799 30.7562C102.451 30.6914 102.091 30.7238 101.761 30.8497C101.776 30.9321 101.824 31.0049 101.893 31.0526C101.962 31.1002 102.047 31.1187 102.129 31.1042V31.1042Z" fill="#FCC34F"/>
<path d="M102.81 30.8027C102.849 30.8871 102.869 30.9789 102.869 31.0718C102.869 31.1647 102.849 31.2565 102.81 31.3409C102.688 31.5232 102.535 31.6835 102.359 31.8147C102.456 31.4558 102.608 31.1143 102.81 30.8027V30.8027Z" fill="#FCC34F"/>
<path d="M102.243 31.3175C102.362 31.0816 102.564 30.8982 102.811 30.8027C102.607 31.1141 102.454 31.4556 102.357 31.8147C102.291 31.7526 102.245 31.6721 102.224 31.5835C102.204 31.4949 102.21 31.4023 102.243 31.3175V31.3175Z" fill="#EFB135"/>
<path d="M105.885 32.5984C105.982 32.5922 106.073 32.5523 106.144 32.4855C106.215 32.4187 106.259 32.3293 106.271 32.2328C106.305 31.9142 106.235 31.5931 106.072 31.3174C106.074 31.7514 106.011 32.1832 105.885 32.5984V32.5984Z" fill="#EFB135"/>
<path d="M105.751 31.7795C105.76 32.0561 105.801 32.3308 105.871 32.5984C105.998 32.1832 106.061 31.7514 106.059 31.3174C105.971 31.3607 105.897 31.4263 105.843 31.5074C105.789 31.5885 105.758 31.6823 105.751 31.7795Z" fill="#FCC34F"/>
<path d="M105.842 32.6163C105.842 32.6163 105.579 32.7977 105.4 32.6368C105.277 32.4822 105.185 32.3055 105.128 32.1162C105.411 32.2065 105.66 32.381 105.842 32.6163Z" fill="#FCC34F"/>
<path d="M105.561 31.9344C105.795 32.0426 105.854 32.6129 105.854 32.6158C105.672 32.3805 105.423 32.206 105.14 32.1157C105.14 32.1157 105.342 31.8232 105.561 31.9344Z" fill="#EFB135"/>
<path d="M105.598 31.6621C105.688 31.6195 105.763 31.5518 105.815 31.4672C105.867 31.3825 105.893 31.2846 105.89 31.1853C105.845 30.9048 105.69 30.6536 105.46 30.4863C105.573 30.8676 105.619 31.2652 105.598 31.6621V31.6621Z" fill="#EFB135"/>
<path d="M105.275 31.0108C105.352 31.2392 105.46 31.4558 105.597 31.6542C105.617 31.2593 105.571 30.8638 105.459 30.4844C105.39 30.5515 105.336 30.6341 105.304 30.7256C105.272 30.8171 105.262 30.9148 105.275 31.0108V31.0108Z" fill="#FCC34F"/>
<path d="M105.562 31.695C105.562 31.695 105.349 31.967 105.133 31.9114C104.916 31.8558 104.741 31.5955 104.735 31.5955C105.015 31.5487 105.302 31.5832 105.562 31.695Z" fill="#FCC34F"/>
<path d="M105.117 31.2412C105.374 31.2412 105.573 31.6916 105.564 31.6946C105.305 31.5788 105.017 31.5402 104.736 31.5834C104.736 31.5834 104.877 31.2383 105.117 31.2412Z" fill="#EFB135"/>
<path d="M105.083 30.9863C105.155 30.9188 105.208 30.8334 105.236 30.7389C105.265 30.6444 105.267 30.5441 105.244 30.4481C105.139 30.1264 104.645 29.986 104.645 29.9977C104.854 30.2956 105.003 30.6314 105.083 30.9863V30.9863Z" fill="#EFB135"/>
<path d="M104.601 30.5518C104.734 30.7258 104.897 30.8736 105.084 30.9876C105.003 30.6326 104.854 30.2968 104.645 29.999C104.595 30.0811 104.564 30.174 104.557 30.2701C104.549 30.3662 104.564 30.4628 104.601 30.5518V30.5518Z" fill="#FCC34F"/>
<path d="M105.053 31.0312C105.053 31.0312 104.912 31.3588 104.687 31.3998C104.519 31.4046 104.353 31.3598 104.21 31.2711C104.468 31.1258 104.757 31.0436 105.053 31.0312Z" fill="#FCC34F"/>
<path d="M104.499 30.8114C104.753 30.7091 105.066 31.0249 105.054 31.0308C104.759 31.0431 104.47 31.1253 104.212 31.2706C104.212 31.2706 104.256 30.9079 104.499 30.8114Z" fill="#EFB135"/>
<path d="M102.992 34.8125C102.992 34.8125 102.96 35.181 102.676 35.26C102.393 35.3389 101.992 34.9675 102.001 34.9675C102.339 34.9942 102.678 34.9411 102.992 34.8125V34.8125Z" fill="#EFB135"/>
<path d="M102.393 34.6074C102.603 34.6334 102.807 34.7 102.992 34.8034C102.678 34.931 102.339 34.9831 102.001 34.9555C102.001 34.9555 102.129 34.6191 102.393 34.6074Z" fill="#FCC34F"/>
<path d="M103.008 34.7543C103.1 34.5896 103.125 34.3959 103.079 34.2132C102.993 34.0605 102.867 33.9348 102.713 33.8506C102.75 34.1686 102.85 34.476 103.008 34.7543V34.7543Z" fill="#FCC34F"/>
<path d="M102.535 34.3683C102.599 34.6607 103.012 34.766 103.012 34.7543C102.855 34.4757 102.755 34.1684 102.719 33.8506C102.653 33.9183 102.602 33.9997 102.57 34.0891C102.538 34.1785 102.526 34.2738 102.535 34.3683Z" fill="#EFB135"/>
<path d="M102.316 34.3999C102.316 34.3999 102.191 34.7568 101.913 34.7217C101.635 34.6866 101.366 34.1367 101.378 34.1367C101.662 34.3057 101.986 34.3965 102.316 34.3999V34.3999Z" fill="#EFB135"/>
<path d="M101.825 33.9555C102.013 34.0742 102.18 34.2246 102.316 34.4001C101.986 34.3985 101.662 34.3097 101.378 34.1427C101.378 34.1427 101.582 33.8561 101.825 33.9555Z" fill="#FCC34F"/>
<path d="M102.345 34.3557C102.476 34.2174 102.551 34.0346 102.553 33.8438C102.512 33.6562 102.431 33.4796 102.316 33.3262C102.265 33.6684 102.275 34.0169 102.345 34.3557Z" fill="#FCC34F"/>
<path d="M102.01 33.7746C102.018 33.8909 102.052 34.0039 102.11 34.1052C102.168 34.2065 102.248 34.2934 102.344 34.3596C102.273 34.0208 102.263 33.6723 102.315 33.3301C102.232 33.3744 102.161 33.4379 102.108 33.5153C102.055 33.5926 102.022 33.6816 102.01 33.7746Z" fill="#EFB135"/>
<path d="M101.807 33.7127C101.807 33.7127 101.602 34.0227 101.359 33.8648C101.116 33.7068 101.02 33.0137 101.035 33.0107C101.223 33.3107 101.49 33.5534 101.807 33.7127V33.7127Z" fill="#EFB135"/>
<path d="M101.482 33.0313C101.618 33.244 101.727 33.4729 101.807 33.7128C101.49 33.5535 101.223 33.3108 101.035 33.0109C101.065 32.9827 101.101 32.9609 101.14 32.9467C101.179 32.9325 101.221 32.9262 101.263 32.9281C101.304 32.93 101.345 32.9401 101.383 32.9578C101.42 32.9755 101.454 33.0005 101.482 33.0313V33.0313Z" fill="#FCC34F"/>
<path d="M101.845 33.6808C101.928 33.6376 102 33.5767 102.056 33.5023C102.112 33.428 102.151 33.3421 102.17 33.2508C102.18 33.0317 102.154 32.8125 102.094 32.6016C101.954 32.9458 101.87 33.3101 101.845 33.6808Z" fill="#FCC34F"/>
<path d="M101.702 32.9291C101.656 33.1888 101.707 33.4562 101.845 33.6808C101.87 33.3101 101.954 32.9458 102.094 32.6016C102.003 32.6116 101.918 32.648 101.848 32.7063C101.779 32.7645 101.728 32.842 101.702 32.9291V32.9291Z" fill="#EFB135"/>
<path d="M105.381 34.1016C105.454 34.1652 105.503 34.2524 105.518 34.348C105.534 34.4436 105.515 34.5416 105.466 34.6251C105.303 34.9008 105.055 35.1156 104.758 35.2363C105.021 34.8912 105.231 34.5087 105.381 34.1016V34.1016Z" fill="#EFB135"/>
<path d="M104.79 34.6806C104.963 34.4646 105.159 34.2685 105.375 34.0957C105.225 34.5028 105.015 34.8853 104.752 35.2305C104.71 35.1434 104.691 35.0469 104.698 34.9505C104.705 34.8541 104.736 34.7611 104.79 34.6806V34.6806Z" fill="#FCC34F"/>
<path d="M105.355 34.064C105.355 34.064 105.256 33.7715 105.016 33.7715C104.825 33.8187 104.645 33.9043 104.487 34.023C104.766 34.1244 105.068 34.1387 105.355 34.064V34.064Z" fill="#FCC34F"/>
<path d="M104.721 34.4378C104.975 34.4904 105.364 34.0693 105.355 34.0634C105.066 34.1428 104.76 34.1316 104.478 34.0312C104.478 34.0312 104.481 34.391 104.721 34.4378Z" fill="#EFB135"/>
<path d="M104.585 34.6777C104.628 34.7659 104.646 34.8647 104.636 34.9626C104.625 35.0605 104.587 35.1535 104.526 35.2305C104.321 35.4244 104.048 35.5295 103.766 35.523C104.084 35.289 104.361 35.0033 104.585 34.6777V34.6777Z" fill="#EFB135"/>
<path d="M103.942 34.9936C104.138 34.8562 104.354 34.7496 104.582 34.6777C104.359 35.0054 104.082 35.2931 103.763 35.5288C103.748 35.4318 103.756 35.3326 103.787 35.2394C103.818 35.1462 103.871 35.0619 103.942 34.9936V34.9936Z" fill="#FCC34F"/>
<path d="M104.582 34.6283C104.582 34.6283 104.582 34.2832 104.371 34.1984C104.201 34.1597 104.023 34.1668 103.857 34.2189C104.055 34.4213 104.306 34.5633 104.582 34.6283Z" fill="#FCC34F"/>
<path d="M103.949 34.7218C104.154 34.8768 104.587 34.637 104.578 34.6282C104.303 34.5657 104.052 34.4268 103.853 34.2275C103.853 34.2275 103.753 34.5756 103.949 34.7218Z" fill="#EFB135"/>
<path d="M103.769 34.9033C103.786 35.0005 103.776 35.1004 103.742 35.1928C103.708 35.2852 103.65 35.3669 103.574 35.4298C103.456 35.485 103.329 35.5136 103.199 35.5136C103.07 35.5136 102.942 35.485 102.825 35.4298C103.172 35.3187 103.493 35.1397 103.769 34.9033V34.9033Z" fill="#EFB135"/>
<path d="M103.12 34.9613C103.331 34.9014 103.551 34.8816 103.77 34.9028C103.493 35.1378 103.173 35.3158 102.828 35.4263C102.835 35.3308 102.865 35.2384 102.916 35.1573C102.967 35.0762 103.037 35.0089 103.12 34.9613Z" fill="#FCC34F"/>
<path d="M103.772 34.8504C103.796 34.7644 103.803 34.6742 103.791 34.5856C103.779 34.4969 103.748 34.4118 103.701 34.3356C103.57 34.2307 103.41 34.1675 103.242 34.1543C103.361 34.4253 103.542 34.6639 103.772 34.8504V34.8504Z" fill="#FCC34F"/>
<path d="M103.196 34.6924C103.34 34.9264 103.781 34.8621 103.781 34.8504C103.552 34.6639 103.37 34.4253 103.252 34.1543C103.252 34.1543 103.062 34.4702 103.196 34.6924Z" fill="#EFB135"/>
<path d="M111.073 41.4612L114.861 30.1582L116.736 30.7865L112.947 42.0895L111.073 41.4612Z" fill="#846C5D"/>
<path d="M120.473 30.4671L115.736 44.5986L111.588 43.2081L116.324 29.0766L120.473 30.4671Z" fill="#846C5D"/>
<path d="M118.571 32.4445L115.412 41.8701L113.152 41.1126L116.311 31.687L118.571 32.4445Z" fill="#FCC34F"/>
<path d="M100.87 77.8989C101.758 77.7114 102.552 77.2138 103.107 76.4951L105.005 79.1682L106.76 71.76C107.283 69.6689 109.568 68.0135 111.773 66.8641C116.716 68.3264 116.552 63.8429 116.452 62.9596C117.409 57.1805 113.174 52.2641 109.471 47.6401L113.633 46.2188C129.397 60.6082 130.854 84.5321 130.854 84.5321L111.735 87.369C114.706 83.8097 111.343 81.8619 113.045 81.663C113.405 81.622 112.527 80.9201 112.46 80.5925C112.393 80.265 112.767 80.031 112.68 79.7561C112.287 78.4817 111.554 77.3389 110.559 76.4512C110.448 85.6932 104.613 87.758 104.613 87.758L100.87 77.8989Z" fill="#40A9FD"/>
<path d="M115.201 69.3594C115.283 69.3219 115.378 69.318 115.463 69.3485C115.549 69.3791 115.619 69.4417 115.66 69.5232C115.707 69.6782 115.578 69.8536 115.367 69.918C115.284 69.9545 115.19 69.9576 115.104 69.9266C115.019 69.8955 114.949 69.8328 114.908 69.7513C114.896 69.6607 114.92 69.5692 114.975 69.496C115.029 69.4228 115.11 69.3738 115.201 69.3594V69.3594ZM116.101 71.7986C116.1 71.7108 116.128 71.6251 116.18 71.5543C116.232 71.4834 116.305 71.4313 116.389 71.4056C116.473 71.38 116.563 71.3821 116.645 71.4118C116.728 71.4415 116.799 71.4972 116.847 71.5704C116.894 71.7254 116.768 71.9009 116.555 71.9653C116.472 71.9994 116.38 72.0011 116.296 71.9703C116.212 71.9394 116.142 71.8781 116.101 71.7986V71.7986ZM116.283 74.3547C116.499 74.3547 116.675 74.4834 116.675 74.6472C116.675 74.811 116.499 74.9397 116.283 74.9397C116.066 74.9397 115.894 74.8081 115.894 74.6472C115.894 74.4863 116.078 74.3547 116.283 74.3547ZM116.575 76.7091C116.645 76.7633 116.695 76.8389 116.718 76.9243C116.741 77.0096 116.736 77.1002 116.703 77.1822C116.67 77.2642 116.611 77.3332 116.535 77.3787C116.459 77.4243 116.371 77.4438 116.283 77.4344C116.205 77.3875 116.148 77.3124 116.124 77.2247C116.1 77.1371 116.111 77.0435 116.154 76.9635C116.176 76.874 116.233 76.7968 116.312 76.7491C116.391 76.7014 116.486 76.687 116.575 76.7091V76.7091ZM118.371 78.6452C118.404 78.6241 118.441 78.6099 118.48 78.6035C118.519 78.5971 118.559 78.5986 118.597 78.608C118.636 78.6174 118.672 78.6344 118.703 78.6581C118.735 78.6817 118.761 78.7115 118.781 78.7457C118.801 78.7798 118.813 78.8176 118.818 78.8568C118.823 78.8959 118.82 78.9357 118.809 78.9735C118.798 79.0114 118.779 79.0467 118.754 79.0772C118.729 79.1078 118.698 79.1329 118.663 79.1512C118.63 79.1724 118.593 79.1866 118.554 79.193C118.515 79.1994 118.475 79.1978 118.437 79.1885C118.399 79.1791 118.363 79.162 118.331 79.1384C118.299 79.1147 118.273 79.0849 118.253 79.0508C118.234 79.0166 118.221 78.9788 118.216 78.9397C118.211 78.9005 118.215 78.8608 118.226 78.8229C118.237 78.785 118.255 78.7498 118.28 78.7192C118.305 78.6887 118.336 78.6635 118.371 78.6452Z" fill="#6ABDFF"/>
<path d="M118.59 81.4526L118.66 81.1601C118.04 81.0051 118.002 79.6978 118.04 79.1947V79.1392L117.25 78.1155L117.218 78.098C117.201 78.098 115.463 77.2966 115.045 77.0129C114.949 76.9018 115.218 76.1501 115.417 75.6003C115.753 74.6585 116.174 73.4857 116.133 72.5235C116.103 71.993 115.953 71.4762 115.694 71.0121C115.435 70.548 115.074 70.1488 114.639 69.8445L115.089 68.8618L114.94 68.8092C114.544 68.6654 114.165 68.477 113.811 68.2476C113.794 68.2362 113.781 68.2209 113.771 68.2031C113.761 68.1853 113.756 68.1655 113.755 68.1453C113.755 67.9932 113.989 67.7592 114.104 67.6715L113.925 67.4404C113.878 67.4785 113.466 67.806 113.463 68.1424C113.463 68.207 113.478 68.2708 113.507 68.3287C113.536 68.3865 113.578 68.4369 113.63 68.4758C113.959 68.7026 114.316 68.8874 114.691 69.0256L114.264 69.9527L114.375 70.0229C114.796 70.3015 115.146 70.673 115.399 71.1087C115.653 71.5443 115.803 72.0324 115.838 72.5352C115.876 73.439 115.466 74.5825 115.139 75.5009C114.791 76.4718 114.58 77.0568 114.879 77.2557C115.294 77.5335 116.809 78.2354 117.06 78.3495L117.736 79.2269C117.727 79.5603 117.686 81.2274 118.59 81.4526Z" fill="#158DED"/>
<path d="M102.714 77.805L106.516 84.9705C110.465 79.633 110.245 74.5879 110.245 74.5879C112 83.1426 104.761 87.3834 104.761 87.3834L101.617 78.7556L102.714 77.805Z" fill="#158DED"/>
<path d="M129.375 83.8479C129.278 85.0178 128.109 83.3595 128.109 83.3595C128.109 83.3595 127.913 78.5835 128.012 77.9985C128.112 77.4136 129.375 83.8479 129.375 83.8479Z" fill="#158DED"/>
<path d="M113.289 81.5078C113.406 80.4608 133.276 70.9292 112.85 51.8223C112.85 51.8223 117.568 53.3402 117.483 52.2112C117.4 51.0525 117.018 49.9351 116.375 48.9678C119.688 52.6032 126.102 63.0326 124.271 71.7335C122.247 81.4113 116.348 81.5575 116.348 81.5575C117.76 80.9937 118.992 80.0561 119.911 78.8452C120.83 77.6343 121.402 76.1959 121.566 74.6845C121.566 74.6845 119.627 79.364 113.289 81.5078Z" fill="#158DED"/>
<path d="M115.112 68.2241C114.819 68.3235 116.08 67.2209 116.247 66.6536C116.363 66.2569 116.334 65.8316 116.165 65.4544C116.411 64.7869 116.521 64.077 116.489 63.3662C117.185 64.1325 119.391 66.7296 119.391 68.8822C119.391 68.8822 118.11 65.2643 116.794 64.9719C116.788 64.9719 117.373 67.4578 115.112 68.2241Z" fill="#158DED"/>
<path d="M111.124 74.5884C113.317 77.6593 116.607 75.4658 116.607 75.4658L113.025 79.7066C113.025 79.7066 112.074 76.855 110.612 75.5389L109.515 72.6143C109.515 72.6143 110.662 73.9421 111.124 74.5884Z" fill="#158DED"/>
<path d="M107.247 79.4837L105.2 78.5332L107.979 79.1913L107.394 81.8966L107.247 79.4837Z" fill="#158DED"/>
<path d="M113.942 66.7271L113.761 66.3616L112.772 65.9229L111.547 66.3791L110.763 67.549C110.763 67.549 112.974 67.6045 113.577 67.3121C114.179 67.0196 113.942 66.7271 113.942 66.7271Z" fill="#158DED"/>
<path d="M114.561 66.9344L112.902 66.057L112.294 68.3705L110.136 67.7124L110.247 66.0307L112.853 65.7148L114.561 66.9344Z" fill="#6ABDFF"/>
<path d="M113.357 66.9082C113.357 66.9082 108.531 72.5762 103.085 69.286C103.085 69.286 105.314 72.2457 107.911 71.6988C110.508 71.1519 113.175 68.6279 113.576 67.2387L113.357 66.9082Z" fill="#DB7631"/>
<path d="M113.924 66.4957C113.924 66.4957 110.318 77.4135 100.666 68.543C100.666 68.543 99.9877 67.5018 100.111 64.4192C100.112 64.3815 100.123 64.3448 100.143 64.3128C100.162 64.2807 100.19 64.2543 100.223 64.2363C100.256 64.2183 100.294 64.2092 100.331 64.21C100.369 64.2108 100.406 64.2214 100.438 64.2407L103.395 65.9956C103.395 65.9956 104.617 72.772 109.341 70.9675C112.657 69.7128 113.924 66.4957 113.924 66.4957Z" fill="#B64E00"/>
<path d="M115.07 66.5691C115.07 66.5691 114.193 65.8847 113.704 66.1772C113.367 66.4037 113.077 66.6938 112.85 67.0312L113.435 67.5927C113.768 67.5573 114.088 67.4468 114.371 67.2694C114.654 67.0921 114.893 66.8526 115.07 66.5691Z" fill="#B64E00"/>
<path d="M115.533 65.1797C115.513 65.4968 115.413 65.8037 115.243 66.0721C115.073 66.3404 114.838 66.5616 114.559 66.7151C114.559 66.7151 113.802 67.1275 114.217 67.2006C114.632 67.2738 115.29 66.7883 115.583 66.0074C115.875 65.2265 115.533 65.1797 115.533 65.1797Z" fill="#DB7631"/>
<path d="M115.113 66.7617L114.212 65.1063L116.163 62.7402L116.455 62.8865C116.455 62.8865 116.727 65.9837 115.113 66.7617Z" fill="#6ABDFF"/>
<path d="M113.632 46.2184L109.479 47.6428C108.134 45.9673 106.702 44.3634 105.189 42.8375L103.404 42.5626L102.723 41.77H102.223C102.223 41.77 101.93 41.5331 101.992 41.3313C102.211 40.6732 102.659 40.9101 102.831 40.5621C103.156 39.9128 103.513 39.1875 103.636 38.8921C103.826 38.4359 103.814 37.7924 104.466 37.8685C108.195 38.3072 106.66 40.7932 107.575 41.6472C110.016 43.1424 112.288 44.8966 114.352 46.8794C114.118 46.663 113.878 46.4378 113.632 46.2184Z" fill="#935C3B"/>
<path d="M99.5702 70.4932H103.592L104.615 71.8093C104.615 71.8093 104.542 72.6136 103.884 72.7598C103.592 72.8271 103.425 72.6253 103.337 72.3854C103.206 73.2804 102.208 74.4064 101.875 74.7632L103.106 76.4975C102.551 77.2163 101.758 77.7139 100.869 77.9014L99.7895 75.0615C99.0583 73.336 99.5702 70.4932 99.5702 70.4932Z" fill="#935C3B"/>
<path d="M130.937 83.2625C130.937 83.2625 125.38 77.8021 111.944 82.7332L112.512 84.2394C112.512 84.2394 99.7338 90.0887 96.4727 100.12L114.527 107.453L112.819 112.699C112.819 112.699 113.538 113.726 114.957 112.208C116.375 110.69 118.873 105.04 118.873 105.04L105.095 97.1226C105.095 97.1226 112.371 90.5889 120.376 92.3378C120.376 92.3378 128.954 105.288 125.503 122.368C125.503 122.368 125.164 130.701 127.55 130.289C129.937 129.876 128.527 122.427 128.527 122.427C128.527 122.427 136.093 105.917 130.937 83.2625Z" fill="#474847"/>
<path d="M112.705 44.5606C112.705 44.5606 110.464 41.829 108.318 46.7044L110.172 49.4361C110.172 49.4361 112.219 46.0259 115.24 46.9998L112.705 44.5606Z" fill="#6ABDFF"/>
<path d="M103.533 76.0977C103.533 76.0977 101.942 77.9022 100.179 77.7062L101.679 81.8008C101.679 81.8008 104.238 81.8505 105.297 78.1449L103.533 76.0977Z" fill="#6ABDFF"/>
<path opacity="0.2" d="M119.966 137.176C120.942 134.677 121.78 132.126 122.475 129.534C123.18 126.94 123.745 124.308 124.207 121.676L124.514 119.687L124.751 117.686C124.841 117.02 124.888 116.35 124.938 115.68C124.988 115.01 125.058 114.343 125.064 113.671C125.182 110.988 125.081 108.3 124.762 105.634L124.882 107.64C124.897 107.974 124.935 108.307 124.935 108.64V109.646V110.65C124.935 110.983 124.935 111.319 124.935 111.653L124.847 113.656C124.687 116.328 124.379 118.988 123.926 121.626C123.49 124.258 122.923 126.89 122.268 129.476C121.934 130.774 121.583 132.064 121.197 133.348C120.811 134.632 120.405 135.91 119.966 137.176Z" fill="#333333"/>
<path opacity="0.2" d="M119.13 131.955C119.601 130.938 120.007 129.888 120.37 128.829C120.732 127.77 121.051 126.688 121.35 125.612C121.648 124.535 121.879 123.43 122.072 122.321C122.269 121.216 122.407 120.101 122.484 118.981C122.373 119.534 122.306 120.087 122.192 120.634L122.037 121.459L121.861 122.28C121.622 123.371 121.376 124.462 121.078 125.539C120.779 126.615 120.493 127.694 120.165 128.756C120.003 129.292 119.837 129.826 119.665 130.358C119.498 130.894 119.308 131.423 119.13 131.955Z" fill="#333333"/>
<path opacity="0.3" d="M114.603 142.813C109.079 142.813 104.601 142.352 104.601 141.783C104.601 141.215 109.079 140.754 114.603 140.754C120.127 140.754 124.605 141.215 124.605 141.783C124.605 142.352 120.127 142.813 114.603 142.813Z" fill="#333333"/>
<g opacity="0.3">
<path opacity="0.3" d="M95.7939 95.8682C95.1885 96.8333 94.624 97.8219 94.0566 98.8104C93.4892 99.7989 92.9569 100.799 92.4246 101.802L92.2872 102.066L92.5621 102.188C93.3401 102.539 94.1151 102.896 94.9018 103.235C95.6886 103.575 96.4665 103.911 97.2416 104.242C98.8209 104.894 100.403 105.531 102.023 106.09C100.523 105.262 98.9876 104.516 97.4463 103.779C96.6742 103.417 95.9021 103.057 95.1212 102.709C94.3403 102.361 93.5623 102.019 92.7814 101.677L92.916 102.06C93.4249 101.044 93.9211 100.021 94.4046 98.9917C94.8901 97.9593 95.361 96.924 95.7939 95.8682Z" fill="#333333"/>
</g>
<path d="M126.322 50.0203C126.428 50.0516 126.519 50.1223 126.575 50.2179C126.631 50.3135 126.648 50.4269 126.624 50.535C126.599 50.6431 126.534 50.7378 126.442 50.7997C126.351 50.8616 126.238 50.8862 126.129 50.8684H126.094C126.027 50.9021 125.965 50.9444 125.91 50.9942C125.784 51.0995 125.67 51.2194 125.541 51.3247C125.457 51.4036 125.345 51.4476 125.23 51.4476C125.114 51.4476 125.003 51.4036 124.918 51.3247C124.837 51.2412 124.792 51.1295 124.792 51.0132C124.792 50.8969 124.837 50.7852 124.918 50.7017C125.348 50.3654 125.72 49.8857 126.322 50.0203Z" fill="white"/>
<path d="M52.9713 52.0042C52.2782 52.4751 51.3598 52.8026 51.0147 53.6303C50.985 53.7424 51.0006 53.8616 51.0581 53.9623C51.1155 54.0629 51.2102 54.137 51.3218 54.1684C51.4323 54.1974 51.5496 54.1832 51.65 54.1289C51.7505 54.0747 51.8266 53.9842 51.8629 53.876C51.9682 53.6186 52.3455 53.4256 52.5648 53.291C52.8573 53.1156 53.1497 52.9606 53.4159 52.7763C53.8809 52.4458 53.4422 51.6854 52.9713 52.0042Z" fill="white"/>
<path d="M58.1858 83.5433C57.6009 83.4673 57.1095 83.0666 56.5071 83.1397C56.3916 83.1427 56.2818 83.1899 56.2001 83.2715C56.1185 83.3531 56.0713 83.463 56.0684 83.5784C56.0699 83.6943 56.1166 83.805 56.1985 83.887C56.2805 83.9689 56.3912 84.0156 56.5071 84.0171C57.0101 83.9557 57.4634 84.3096 57.9519 84.3915C58.0638 84.4182 58.1817 84.4013 58.2816 84.3442C58.3815 84.2872 58.456 84.1943 58.49 84.0844C58.5207 83.9723 58.5059 83.8527 58.449 83.7514C58.3921 83.6501 58.2975 83.5754 58.1858 83.5433V83.5433Z" fill="white"/>
<path d="M148.149 95.6176C147.509 95.7053 147.175 96.2025 146.754 96.6325C146.352 97.0153 146.035 97.4788 145.824 97.9924C145.356 98.1475 145.59 98.9196 146.117 98.8201L146.278 98.7909C146.349 98.7693 146.413 98.7297 146.464 98.6759C146.515 98.6221 146.552 98.5559 146.57 98.4838C146.7 98.0448 146.944 97.6482 147.278 97.3344C147.477 97.1297 147.833 96.536 148.135 96.495C148.699 96.4219 148.708 95.5445 148.149 95.6176Z" fill="white"/>
<path d="M150.32 110.107L149.539 109.718C149.438 109.662 149.319 109.648 149.208 109.677C149.096 109.706 149 109.777 148.939 109.876C148.882 109.976 148.866 110.095 148.895 110.208C148.925 110.32 148.998 110.416 149.097 110.475L149.878 110.864C149.928 110.896 149.984 110.917 150.042 110.926C150.1 110.936 150.16 110.933 150.217 110.919C150.274 110.906 150.328 110.88 150.375 110.845C150.422 110.81 150.462 110.765 150.492 110.714C150.521 110.663 150.541 110.607 150.548 110.548C150.555 110.49 150.551 110.431 150.535 110.374C150.519 110.317 150.492 110.264 150.455 110.218C150.418 110.172 150.372 110.134 150.32 110.107V110.107Z" fill="white"/>
<path d="M161.224 93.105C160.838 93.6947 160.403 94.2514 159.925 94.7692C159.565 95.1991 160.183 95.8221 160.545 95.3892C161.072 94.8152 161.552 94.1989 161.978 93.5467C162.026 93.4474 162.034 93.334 162.002 93.2289C161.97 93.1237 161.899 93.0346 161.804 92.979C161.709 92.9235 161.597 92.9056 161.489 92.9289C161.382 92.9523 161.287 93.0151 161.224 93.105V93.105Z" fill="white"/>
<path d="M171.038 55.192C170.578 55.6482 170.71 56.2858 170.713 56.8649C170.713 56.9812 170.759 57.0928 170.842 57.1751C170.924 57.2574 171.035 57.3036 171.152 57.3036C171.268 57.3036 171.38 57.2574 171.462 57.1751C171.544 57.0928 171.59 56.9812 171.59 56.8649C171.59 56.5724 171.435 56.0313 171.658 55.812C171.735 55.7288 171.777 55.6188 171.775 55.5052C171.773 55.3915 171.727 55.2831 171.647 55.2027C171.567 55.1223 171.458 55.0763 171.344 55.0743C171.231 55.0723 171.121 55.1145 171.038 55.192Z" fill="white"/>
<path d="M57.4845 108.293H55.7297C55.6134 108.293 55.5018 108.339 55.4195 108.421C55.3372 108.504 55.291 108.615 55.291 108.732C55.291 108.848 55.3372 108.96 55.4195 109.042C55.5018 109.124 55.6134 109.17 55.7297 109.17H57.4845C57.6009 109.17 57.7125 109.124 57.7947 109.042C57.877 108.96 57.9232 108.848 57.9232 108.732C57.9232 108.615 57.877 108.504 57.7947 108.421C57.7125 108.339 57.6009 108.293 57.4845 108.293Z" fill="white"/>
<path d="M70.4983 106.976C70.4983 108.485 70.7908 110.07 69.9719 111.433C69.9183 111.533 69.9056 111.65 69.9365 111.76C69.9674 111.869 70.0395 111.962 70.1377 112.019C70.2358 112.076 70.3523 112.093 70.4627 112.066C70.573 112.039 70.6686 111.971 70.7294 111.875C71.6389 110.36 71.3816 108.658 71.3757 106.976C71.3757 106.859 71.3295 106.748 71.2472 106.666C71.165 106.583 71.0534 106.537 70.937 106.537C70.8207 106.537 70.7091 106.583 70.6268 106.666C70.5445 106.748 70.4983 106.859 70.4983 106.976V106.976Z" fill="white"/>
<defs>
<linearGradient id="paint0_linear" x1="114.604" y1="89.3725" x2="114.604" y2="24.6697" gradientUnits="userSpaceOnUse">
<stop stop-color="white"/>
<stop offset="1" stop-color="#158DED" stop-opacity="0"/>
</linearGradient>
<linearGradient id="paint1_linear" x1="4543.54" y1="-50641.9" x2="4543.54" y2="-36576.8" gradientUnits="userSpaceOnUse">
<stop stop-color="white"/>
<stop offset="1" stop-color="#3AC1B0" stop-opacity="0"/>
</linearGradient>
</defs>
</svg>
