<svg width="121" height="143" viewBox="0 0 121 143" fill="none" xmlns="http://www.w3.org/2000/svg">
<path d="M35.6955 27.1989C35.5815 27.4913 35.1603 27.737 34.9088 27.9066C34.5959 28.1143 34.2712 28.3015 33.9495 28.4916C33.4669 28.784 33.9056 29.5445 34.3911 29.2491C35.1545 28.787 36.2015 28.3102 36.5437 27.427C36.7455 26.9064 35.9003 26.6783 35.6955 27.1989Z" fill="white"/>
<path d="M18.9599 23.3981C18.6294 23.8163 18.3749 24.3486 18.6674 24.8604C18.9599 25.3722 19.4044 25.343 19.8929 25.3781C19.8461 25.8343 19.5126 26.3111 19.4659 26.7498C19.4353 26.944 19.4521 27.1427 19.5147 27.329C19.5773 27.5153 19.684 27.6838 19.8256 27.8202C20.2146 28.2326 20.8346 27.6096 20.4485 27.2002C20.1181 26.8521 20.5714 26.1648 20.6767 25.8109C20.7762 25.5102 20.7963 25.1888 20.7352 24.878C20.7152 24.8084 20.6779 24.7451 20.6267 24.6939C20.5755 24.6428 20.5122 24.6055 20.4427 24.5855C20.0449 24.5007 19.3167 24.682 19.6092 24.0357C19.7759 23.6642 20.6123 22.9711 21.0101 23.3484C21.4078 23.7256 22.0425 23.1173 21.633 22.7283C20.7205 21.8772 19.5975 22.5909 18.9599 23.3981Z" fill="white"/>
<path d="M89.7909 24.1816C89.2499 24.3893 88.4456 24.79 87.7437 24.9157C88.2935 24.3308 89.1154 23.7839 89.6681 23.6464C90.2209 23.509 89.984 22.6637 89.4341 22.8012C88.7322 22.9767 88.2409 23.4563 87.6793 23.8804C87.1911 24.1873 86.7886 24.613 86.5095 25.1175C86.4763 25.1755 86.4567 25.2403 86.4522 25.307C86.4477 25.3737 86.4583 25.4405 86.4834 25.5024C86.5085 25.5644 86.5473 25.6199 86.5969 25.6646C86.6465 25.7094 86.7056 25.7424 86.7698 25.761C87.4746 25.9423 88.2555 25.723 88.9837 25.448C88.7423 25.6735 88.5238 25.9223 88.3315 26.1909C88.0391 26.6939 87.7466 27.3111 87.7466 27.9018C87.7466 28.4926 88.6474 28.4692 88.624 27.9018C88.5684 26.4892 90.3788 25.8984 90.3525 24.6028C90.3519 24.5349 90.3357 24.468 90.305 24.4074C90.2744 24.3468 90.2302 24.2941 90.1759 24.2534C90.1215 24.2126 90.0585 24.185 89.9918 24.1725C89.925 24.1601 89.8563 24.1632 89.7909 24.1816V24.1816Z" fill="white"/>
<path d="M96.4165 40.5766V38.4299C96.4165 38.3136 96.3702 38.202 96.288 38.1197C96.2057 38.0374 96.0941 37.9912 95.9778 37.9912C95.8614 37.9912 95.7498 38.0374 95.6676 38.1197C95.5853 38.202 95.5391 38.3136 95.5391 38.4299V40.5766C95.5391 40.693 95.5853 40.8046 95.6676 40.8868C95.7498 40.9691 95.8614 41.0153 95.9778 41.0153C96.0941 41.0153 96.2057 40.9691 96.288 40.8868C96.3702 40.8046 96.4165 40.693 96.4165 40.5766Z" fill="white"/>
<path d="M99.2937 47.7422C99.1607 47.7415 99.0292 47.7699 98.9085 47.8255C98.7877 47.8811 98.6806 47.9625 98.5947 48.0639C98.5151 48.1481 98.4707 48.2595 98.4707 48.3754C98.4707 48.4912 98.5151 48.6027 98.5947 48.6869C98.6777 48.7676 98.7889 48.8128 98.9047 48.8128C99.0205 48.8128 99.1317 48.7676 99.2147 48.6869C99.2316 48.6641 99.2502 48.6426 99.2703 48.6225H99.2937C99.41 48.6225 99.5216 48.5763 99.6039 48.494C99.6861 48.4118 99.7324 48.3002 99.7324 48.1838C99.7324 48.0675 99.6861 47.9559 99.6039 47.8736C99.5216 47.7913 99.41 47.7451 99.2937 47.7451V47.7422Z" fill="white"/>
<path d="M17.5357 54.2144C17.4359 54.0016 17.2624 53.8323 17.0472 53.7377C16.7987 53.6496 16.5404 53.5916 16.278 53.5651C15.943 53.4809 15.6016 53.4242 15.2573 53.3955C14.6929 53.3955 14.6929 54.2729 15.2573 54.2729C15.6058 54.3108 15.9516 54.3704 16.2927 54.4513C16.5296 54.4864 16.8191 54.4747 16.7723 54.7847C16.7167 55.1591 17.1964 55.5978 17.5064 55.2117C17.6046 55.0909 17.6964 54.9649 17.7813 54.8345C17.8168 54.7797 17.8386 54.7172 17.8451 54.6523C17.8515 54.5873 17.8423 54.5218 17.8183 54.4611C17.7942 54.4005 17.756 54.3464 17.7069 54.3035C17.6577 54.2606 17.599 54.23 17.5357 54.2144V54.2144Z" fill="white"/>
<path d="M32.8833 43.9698L32.4943 44.3617C32.4128 44.4443 32.3672 44.5557 32.3672 44.6717C32.3672 44.7877 32.4128 44.8991 32.4943 44.9817C32.5776 45.0618 32.6887 45.1065 32.8043 45.1065C32.9199 45.1065 33.031 45.0618 33.1143 44.9817C33.243 44.8501 33.3746 44.7214 33.5033 44.5927C33.5442 44.552 33.5767 44.5037 33.5989 44.4504C33.6211 44.3971 33.6326 44.34 33.6328 44.2823C33.6329 44.2246 33.6217 44.1674 33.5997 44.114C33.5777 44.0607 33.5455 44.0121 33.5048 43.9712C33.4641 43.9303 33.4157 43.8979 33.3624 43.8756C33.3092 43.8534 33.252 43.8419 33.1943 43.8418C33.1366 43.8417 33.0794 43.8529 33.0261 43.8749C32.9727 43.8968 32.9242 43.9291 32.8833 43.9698V43.9698Z" fill="white"/>
<path d="M113.163 21.4784C113.062 21.4207 112.943 21.4049 112.83 21.4345C112.718 21.464 112.622 21.5366 112.563 21.6364L112.37 22.0253C112.313 22.1264 112.298 22.2454 112.327 22.3576C112.356 22.4698 112.427 22.5666 112.525 22.6278C112.626 22.6857 112.746 22.7015 112.858 22.672C112.971 22.6425 113.068 22.5699 113.127 22.4699L113.32 22.078C113.377 21.9772 113.393 21.8581 113.363 21.7461C113.334 21.6342 113.262 21.5381 113.163 21.4784V21.4784Z" fill="white"/>
<path d="M109.433 47.7422C109.316 47.7422 109.205 47.7884 109.123 47.8707C109.04 47.953 108.994 48.0645 108.994 48.1809C108.994 48.2972 109.04 48.4088 109.123 48.4911C109.205 48.5734 109.316 48.6196 109.433 48.6196C109.549 48.6196 109.661 48.5734 109.743 48.4911C109.825 48.4088 109.872 48.2972 109.872 48.1809C109.872 48.0645 109.825 47.953 109.743 47.8707C109.661 47.7884 109.549 47.7422 109.433 47.7422Z" fill="white"/>
<path d="M105.122 66.0015C105.057 66.3671 105.037 66.7385 104.984 67.107C104.94 67.4258 104.908 67.9201 104.648 68.1482C104.227 68.5255 104.85 69.1426 105.271 68.7682C105.935 68.1833 105.827 67.031 105.967 66.2354C106.055 65.6827 105.209 65.4458 105.122 66.0015Z" fill="white"/>
<path d="M88.6285 61.7109C88.494 61.6729 88.3595 61.6232 88.222 61.591C88.1981 61.585 88.1754 61.5751 88.1547 61.5618C88.2249 61.629 87.9529 61.6232 88.1547 61.5618C88.1307 61.5441 88.1053 61.5284 88.0787 61.515C88.1065 61.5267 88.133 61.5414 88.1577 61.5588C88.2929 61.469 88.4228 61.3713 88.5466 61.2664C88.6913 61.1809 88.8418 61.1056 88.997 61.0412C89.5147 60.8189 89.0672 60.0643 88.5525 60.2837C87.9676 60.5352 86.8562 61.1611 87.3358 61.9625C87.5686 62.2591 87.9051 62.4566 88.2776 62.5152C88.5964 62.6059 88.9736 62.603 88.921 63.0007C88.8508 63.5593 89.7282 63.5564 89.7984 63.0007C89.8861 62.2198 89.2807 61.8806 88.6285 61.7109Z" fill="white"/>
<path d="M27.0338 75.9485C26.7969 76.165 26.2705 76.0217 25.978 76.0129C25.4136 76.0129 25.4136 76.8903 25.978 76.8903C26.5425 76.8903 27.1742 77.0102 27.6539 76.5686C28.075 76.1854 27.4521 75.5654 27.0338 75.9485Z" fill="white"/>
<path d="M61.7207 63.5767H65.4906L71.9922 0H55.2191L61.7207 63.5767Z" fill="url(#paint0_linear)"/>
<path d="M65.4906 78.9951H61.7207L55.2191 142.572H71.9922L65.4906 78.9951Z" fill="url(#paint1_linear)"/>
<path d="M57.5627 43.5515C57.5627 43.5515 56.153 41.0363 54.3923 42.1125C51.5291 43.8674 52.4445 47.8157 52.4445 47.8157L53.1026 46.0609C53.1026 46.0609 52.2251 48.8393 53.6144 50.7404L53.4681 48.9124C53.4681 48.9124 54.5649 51.5446 56.5391 51.8371C58.5132 52.1296 58.8057 52.1296 59.025 53.2995C59.2444 54.4693 57.6387 55.2473 58.1476 55.1654C59.9375 54.8729 59.7562 52.6063 59.7562 52.6063L60.0487 54.25C60.0487 54.25 62.3153 49.863 62.1691 47.8157C62.0861 46.5985 61.7098 45.4194 61.0723 44.3792L62.2422 44.8179C62.2422 44.8179 58.7326 39.2376 57.5627 43.5515Z" fill="#333333"/>
<path d="M55.8355 49.6519C54.8967 47.9556 53.4695 46.0604 56.8065 44.3056C57.3447 44.0131 58.6169 44.2412 59.1229 44.2208C59.4738 44.2208 59.5148 44.5776 59.8306 44.6273C61.2585 44.8833 62.5427 45.6545 63.4397 46.7945C63.4397 46.7945 61.3252 50.0116 67.6074 54.1237C68.3415 54.6034 63.1004 62.813 62.5828 59.7742C60.828 49.4267 56.4 50.6697 55.8355 49.6519Z" fill="#935C3B"/>
<path d="M61.2909 45.3325C61.2909 45.3325 60.2672 45.04 59.1266 46.5462C59.0993 46.5796 59.0806 46.6191 59.0721 46.6614C59.0637 46.7037 59.0658 46.7475 59.0782 46.7888C59.0906 46.8301 59.113 46.8677 59.1434 46.8983C59.1737 46.929 59.2112 46.9517 59.2524 46.9644C59.9764 47.1957 60.7524 47.2089 61.4839 47.0025C62.9696 46.4731 61.2909 45.3325 61.2909 45.3325Z" fill="#D84744"/>
<path d="M59.2538 46.9499C59.2538 46.9499 59.2538 46.9499 59.2363 46.9499C59.4516 46.7946 59.7107 46.7117 59.9762 46.713C60.1517 46.7109 60.3257 46.7467 60.4862 46.8178C60.6466 46.889 60.7899 46.9939 60.9062 47.1254C60.3493 47.1731 59.7883 47.1135 59.2538 46.9499V46.9499Z" fill="#822A2A"/>
<path d="M59.3428 46.7687C59.3428 46.7687 60.3431 45.7948 61.4135 45.6954C61.4135 45.6954 60.4396 45.9878 61.4632 46.0142C61.4632 46.0142 61.7557 45.8679 61.6094 45.6223C61.5178 45.5346 61.42 45.4535 61.317 45.3795C61.2519 45.3298 61.1703 45.3068 61.0889 45.3152C60.6833 45.3473 60.2976 45.5043 59.9849 45.7646C59.6723 46.0249 59.4479 46.3757 59.3428 46.7687V46.7687Z" fill="#EEF9F9"/>
<path d="M61.9688 46.7013C61.8292 46.8299 61.6622 46.9249 61.4803 46.9792C61.2904 47.0419 61.0943 47.0841 60.8954 47.1049V47.1049C60.8954 47.1049 60.7316 46.9587 60.9334 46.7744C61.0869 46.6787 61.2615 46.6219 61.442 46.6092C61.6225 46.5965 61.8033 46.6281 61.9688 46.7013Z" fill="#EEF9F9"/>
<path d="M61.4786 46.9883C61.0331 47.13 60.562 47.1729 60.0982 47.114C60.3812 46.972 60.694 46.8998 61.0107 46.9035C61.1881 46.9034 61.3649 46.925 61.5371 46.9678L61.4786 46.9883Z" fill="#FFABAB"/>
<path d="M63.5728 50.0793C63.3242 52.4805 64.6783 57.7595 65 58.9704L64.8713 59.1195L62.1631 57.704C60.9288 52.5858 58.9459 51.0971 57.5099 50.4566C58.0539 50.208 58.6125 49.9448 59.1711 49.6699C62.5345 48.0116 63.4382 46.7803 63.4382 46.7803C63.4382 46.7803 62.5901 48.0818 63.5728 50.0793Z" fill="#7E4929"/>
<path d="M55.8087 49.1584C55.8087 49.1584 55.1009 49.328 55.6361 50.0592C56.1713 50.7903 57.8296 50.8137 57.4172 49.8895C57.0049 48.9653 55.8087 49.1584 55.8087 49.1584Z" fill="#935C3B"/>
<path d="M58.002 45.5496C58.002 45.5496 56.6127 44.8915 56.2091 46.6463C56.3403 46.288 56.5889 45.9846 56.9144 45.7855C57.2399 45.5864 57.6232 45.5032 58.002 45.5496Z" fill="#3F2C2C"/>
<path d="M57.418 45.11C57.418 45.11 55.4672 44.5982 55.6632 46.4027C55.7572 46.0154 55.9846 45.6736 56.3055 45.4373C56.6264 45.2009 57.0202 45.085 57.418 45.11V45.11Z" fill="#333333"/>
<path d="M59.3301 44.1981C59.3301 44.1981 58.2333 44.2449 58.1602 44.8561C58.169 44.8561 58.0023 43.578 59.3301 44.1981Z" fill="#333333"/>
<path d="M58.6857 45.0405C58.6857 45.0405 58.5366 44.242 59.9258 44.7305C59.9258 44.748 59.0367 44.5755 58.6857 45.0405Z" fill="#3F2C2C"/>
<path d="M59.517 45.075L59.748 44.8615C59.748 44.8615 59.6457 44.5983 59.0257 44.8381C58.6969 44.9819 58.3301 45.0138 57.9815 44.9288L59.1163 45.7506L59.517 45.075Z" fill="#935C3B"/>
<path d="M60.1016 45.1658L59.7477 44.8734C59.7153 44.8451 59.6763 44.8255 59.6344 44.8164C59.5924 44.8072 59.5488 44.8089 59.5076 44.8211C59.4665 44.8334 59.4291 44.8559 59.3989 44.8865C59.3688 44.9171 59.3469 44.9549 59.3353 44.9962L59.116 45.7625C59.3721 45.4632 59.7176 45.2541 60.1016 45.1658V45.1658Z" fill="#7E4929"/>
<path d="M55.9555 49.4795C55.9555 49.4795 55.8444 50.1551 56.7949 50.1551C56.7949 50.1551 56.3387 49.9562 56.4293 49.772C56.52 49.5877 56.7774 49.6082 56.7774 49.6082C56.7774 49.6082 56.3007 49.5702 56.2656 49.6813C56.2428 49.7641 56.2368 49.8506 56.248 49.9357L55.9555 49.4795Z" fill="#7E4929"/>
<path d="M57.1602 48.986C57.1602 48.986 55.6978 48.8047 55.5516 47.781C55.1653 47.6511 54.8119 47.4385 54.5162 47.1581C54.0629 46.7281 55.2971 49.5358 55.2971 49.5358C55.2971 49.5358 55.5896 49.024 56.9057 49.6089L57.1602 48.986Z" fill="#333333"/>
<path d="M54.8747 14.9151C54.5033 15.6375 53.4562 15.5 52.7514 14.9678C52.447 14.731 52.215 14.4138 52.0816 14.0519C51.9482 13.6901 51.9189 13.2981 51.9968 12.9205C52.2893 11.0809 54.4506 10.2883 56.457 11.2154C59.019 12.4174 59.6536 14.88 59.7238 17.0648C59.7589 18.141 59.2939 20.1064 60.9347 20.6036C61.97 20.9166 62.4906 20.0655 62.7158 19.3782C62.8649 18.9161 62.8445 18.2083 62.1133 18.0328C61.3821 17.8573 60.8937 18.6558 61.7711 18.6382C61.7272 18.8927 61.6863 19.1471 61.6424 19.4016L61.4903 19.3226C60.9054 19.0301 61.4289 18.3487 61.9992 18.6412L62.1513 18.7201C62.2316 18.7568 62.2975 18.8189 62.3388 18.8968C62.3801 18.9748 62.3946 19.0642 62.3799 19.1512C62.3653 19.2382 62.3223 19.3179 62.2577 19.378C62.1931 19.4381 62.1105 19.4751 62.0226 19.4835C61.3353 19.4835 60.4258 19.3168 60.2152 18.6061C60.0192 17.9392 60.6773 17.3075 61.3558 17.17C61.7607 17.1053 62.1757 17.1554 62.5536 17.3147C62.9315 17.4739 63.2572 17.7359 63.4937 18.0708C64.0407 18.8751 63.7102 19.7964 63.2685 20.4866C63.0568 20.8645 62.7307 21.1655 62.337 21.3463C61.9434 21.527 61.5026 21.5783 61.078 21.4927C60.6239 21.4298 60.1927 21.2545 59.8234 20.9828C59.4542 20.7111 59.1586 20.3516 58.9634 19.9368C58.5481 18.9804 58.7499 17.9275 58.7207 16.9653C58.6797 15.658 58.5159 14.1898 57.504 13.0492C56.574 11.9992 54.7548 11.0809 53.5498 12.0489C53.3557 12.215 53.2002 12.4214 53.0941 12.6537C52.988 12.8861 52.9339 13.1388 52.9356 13.3943C52.9214 13.644 52.9815 13.8923 53.1082 14.1079C53.1784 14.2073 53.8511 14.6928 53.9066 14.5963C54.1494 14.1196 55.1058 14.4355 54.8601 14.9151H54.8747Z" fill="#E5A920"/>
<path d="M46.5306 25.0114L48.1889 20.0686L48.7182 18.4893L50.3648 13.5437C50.4415 13.4031 50.5652 13.294 50.7142 13.2355C50.8633 13.1771 51.0282 13.1729 51.1799 13.2239C51.3317 13.2748 51.4607 13.3776 51.5443 13.5142C51.6279 13.6507 51.6608 13.8123 51.6371 13.9707L51.6195 14.0292C52.7971 14.4049 53.8178 15.1584 54.5237 16.173C55.0152 16.8894 55.3464 17.7034 55.4947 18.5595C55.6965 19.8259 56.7026 20.9636 58.127 21.4374L58.2176 21.4696C59.1093 21.7789 60.0805 21.7706 60.9668 21.4462L61.9144 21.0777C62.3494 20.9223 62.8248 20.9223 63.2598 21.0777L62.5666 23.1425L62.0373 24.7218L61.347 26.7866C60.9075 26.6447 60.5305 26.3554 60.2795 25.9677L59.7443 25.0903C59.2328 24.2973 58.4631 23.7053 57.5654 23.4145L57.4747 23.3852C56.0592 22.9114 54.5705 23.2127 53.6463 24.1018C53.0117 24.6939 52.2578 25.1437 51.4353 25.4208C50.2593 25.8034 48.9903 25.789 47.8233 25.3799V25.3799L47.8028 25.4384C47.7262 25.5789 47.6025 25.688 47.4534 25.7465C47.3044 25.805 47.1395 25.8091 46.9877 25.7581C46.8359 25.7072 46.7069 25.6044 46.6233 25.4679C46.5398 25.3313 46.5069 25.1697 46.5306 25.0114V25.0114Z" fill="#E5A920"/>
<path d="M55.4772 20.8057C54.9917 20.3143 54.1699 19.1912 53.7019 18.6531C52.9851 17.8694 52.0917 17.2678 51.096 16.8983C50.9703 16.8486 47.9227 25.5056 47.7911 25.4618L50.7158 16.7579L50.7304 16.714C50.8035 16.4918 50.5813 16.2168 50.2274 16.0998C49.8735 15.9829 49.5342 16.0647 49.4582 16.287L50.3648 13.5437C50.4415 13.4031 50.5652 13.294 50.7142 13.2355C50.8633 13.1771 51.0282 13.1729 51.1799 13.2239C51.3317 13.2748 51.4607 13.3776 51.5443 13.5142C51.6279 13.6507 51.6608 13.8123 51.6371 13.9707L51.6195 14.0292C52.7971 14.4049 53.8178 15.1584 54.5237 16.173C55.0152 16.8894 55.3464 17.7034 55.4947 18.5595C55.6965 19.8259 56.7026 20.9636 58.127 21.4374L58.2176 21.4696C59.1093 21.7789 60.0805 21.7706 60.9668 21.4462L61.9144 21.0777C62.3494 20.9223 62.8248 20.9223 63.2598 21.0777L62.5725 23.1249C61.8749 22.96 61.1677 22.8389 60.455 22.7623C60.455 22.7623 56.2786 21.6187 55.4772 20.8057Z" fill="#C68D1A"/>
<path d="M50.9486 26.6294C51.089 25.831 50.1618 25.3192 49.2874 25.3075C48.8987 25.311 48.5189 25.4244 48.1918 25.6345C47.8648 25.8446 47.6038 26.1429 47.439 26.4949C46.5616 28.1415 47.7987 30.0835 49.9688 30.5427C52.7414 31.1276 54.7302 29.5424 56.1106 27.8403C56.7979 27.0038 57.5993 25.1525 59.2079 25.7374C60.2227 26.1118 60.1262 27.1062 59.8923 27.7847C59.7343 28.2439 59.3073 28.7849 58.5996 28.4983C57.8918 28.2117 58.0146 27.2699 58.7048 27.8139L59.0616 27.1296L58.892 27.0974C58.2574 26.9892 58.2574 27.8373 58.892 27.9485L59.0616 27.9777C59.1479 27.9969 59.238 27.987 59.318 27.9497C59.3981 27.9123 59.4635 27.8496 59.5042 27.7712C59.5449 27.6928 59.5585 27.6032 59.543 27.5162C59.5275 27.4293 59.4837 27.3499 59.4185 27.2904C58.8803 26.8663 58.0439 26.4598 57.4472 26.9014C56.8506 27.3431 57.0319 28.2175 57.494 28.7352C57.7775 29.0311 58.1383 29.2414 58.5354 29.3422C58.9325 29.443 59.3499 29.4303 59.7402 29.3055C60.6644 28.9926 60.9539 28.0567 61.0183 27.2407C61.0769 26.8113 60.9978 26.3744 60.7923 25.9928C60.5868 25.6112 60.2655 25.3047 59.8747 25.1174C59.4732 24.8936 59.0223 24.7734 58.5627 24.7678C58.1031 24.7622 57.6493 24.8713 57.2425 25.0852C56.3358 25.597 55.862 26.5475 55.2596 27.308C54.4377 28.3287 53.4229 29.402 51.9284 29.7004C50.5538 29.9928 48.5503 29.6155 48.1731 28.1181C48.116 27.8687 48.1149 27.6097 48.1701 27.3599C48.2252 27.11 48.3351 26.8755 48.4918 26.6733C48.6315 26.4662 48.8287 26.3045 49.0592 26.2083C49.1733 26.1703 50.0098 26.179 49.9893 26.2989C49.8986 26.8254 50.8491 27.15 50.9427 26.6177L50.9486 26.6294Z" fill="#E5A920"/>
<path d="M53.4003 18.5982C53.4003 18.5982 53.5992 18.2852 53.4179 18.0512C53.2365 17.8173 52.6984 17.867 52.7013 17.8787C52.9869 18.0611 53.2262 18.3074 53.4003 18.5982V18.5982Z" fill="#EFB135"/>
<path d="M52.8037 18.3936C52.9841 18.4981 53.1825 18.5676 53.3887 18.5984C53.2187 18.3093 52.9846 18.0631 52.7043 17.8789C52.7043 17.8789 52.599 18.2269 52.8037 18.3936Z" fill="#FCC34F"/>
<path d="M53.3848 18.6475C53.3609 18.8348 53.2656 19.0056 53.1186 19.1242C52.9576 19.1938 52.7803 19.2171 52.6068 19.1915C52.8269 18.9596 53.0915 18.7746 53.3848 18.6475V18.6475Z" fill="#FCC34F"/>
<path d="M52.7735 18.668C52.8652 18.6129 52.9695 18.5821 53.0765 18.5785C53.1834 18.5749 53.2896 18.5987 53.3848 18.6476C53.0915 18.7747 52.8269 18.9597 52.6068 19.1916C52.595 19.0974 52.6038 19.0019 52.6326 18.9115C52.6614 18.8211 52.7095 18.738 52.7735 18.668V18.668Z" fill="#EFB135"/>
<path d="M52.6183 18.5132C52.6183 18.5132 52.7353 18.1535 52.4925 18.0131C52.2498 17.8727 51.7087 18.1418 51.7175 18.1535C52.045 18.1888 52.3566 18.3132 52.6183 18.5132V18.5132Z" fill="#EFB135"/>
<path d="M51.9591 18.5715C52.1802 18.5888 52.4026 18.569 52.6172 18.5131C52.3555 18.313 52.0439 18.1886 51.7164 18.1533C51.7164 18.1533 51.7047 18.5072 51.9591 18.5715Z" fill="#FCC34F"/>
<path d="M52.6154 18.5654C52.6392 18.7548 52.5878 18.9459 52.4721 19.0977C52.3279 19.2241 52.1569 19.3161 51.972 19.3668C52.1385 19.0645 52.3562 18.7934 52.6154 18.5654V18.5654Z" fill="#FCC34F"/>
<path d="M52.001 18.8292C52.0774 18.7425 52.1722 18.6739 52.2784 18.6283C52.3847 18.5828 52.4997 18.5615 52.6152 18.566C52.3561 18.794 52.1384 19.0651 51.9718 19.3674C51.9332 19.2819 51.9157 19.1884 51.9208 19.0947C51.9258 19.0011 51.9534 18.91 52.001 18.8292V18.8292Z" fill="#EFB135"/>
<path d="M51.7984 18.7558C51.7984 18.7558 51.8218 18.3844 51.5322 18.3639C51.2427 18.3434 50.7513 18.8377 50.7601 18.8494C51.091 18.7234 51.4503 18.691 51.7984 18.7558V18.7558Z" fill="#EFB135"/>
<path d="M51.1291 19.1042C51.3661 19.017 51.5912 18.9 51.7988 18.7562C51.4507 18.6914 51.0915 18.7238 50.7606 18.8497C50.7762 18.9321 50.8237 19.0049 50.8926 19.0526C50.9616 19.1002 51.0465 19.1187 51.1291 19.1042V19.1042Z" fill="#FCC34F"/>
<path d="M51.8099 18.8027C51.8489 18.8871 51.8691 18.9789 51.8691 19.0718C51.8691 19.1647 51.8489 19.2565 51.8099 19.3409C51.6877 19.5232 51.5354 19.6835 51.3595 19.8147C51.4555 19.4558 51.6075 19.1143 51.8099 18.8027V18.8027Z" fill="#FCC34F"/>
<path d="M51.2432 19.3175C51.3621 19.0816 51.5642 18.8982 51.8105 18.8027C51.6072 19.1141 51.4542 19.4556 51.3572 19.8147C51.2909 19.7526 51.2445 19.6721 51.2242 19.5835C51.2039 19.4949 51.2105 19.4023 51.2432 19.3175V19.3175Z" fill="#EFB135"/>
<path d="M54.8848 20.5984C54.9817 20.5922 55.0734 20.5523 55.144 20.4855C55.2145 20.4187 55.2594 20.3293 55.2708 20.2328C55.305 19.9142 55.2352 19.5931 55.072 19.3174C55.0742 19.7514 55.0111 20.1832 54.8848 20.5984V20.5984Z" fill="#EFB135"/>
<path d="M54.7514 19.7795C54.7603 20.0561 54.8005 20.3308 54.8714 20.5984C54.9977 20.1832 55.0608 19.7514 55.0585 19.3174C54.9713 19.3607 54.8971 19.4263 54.8432 19.5074C54.7893 19.5885 54.7577 19.6823 54.7514 19.7795Z" fill="#FCC34F"/>
<path d="M54.8418 20.6163C54.8418 20.6163 54.5786 20.7977 54.4002 20.6368C54.2771 20.4822 54.1848 20.3055 54.1282 20.1162C54.4113 20.2065 54.6603 20.381 54.8418 20.6163Z" fill="#FCC34F"/>
<path d="M54.561 19.9344C54.795 20.0426 54.8535 20.6129 54.8535 20.6158C54.672 20.3805 54.4231 20.206 54.1399 20.1157C54.1399 20.1157 54.3417 19.8232 54.561 19.9344Z" fill="#EFB135"/>
<path d="M54.598 19.6621C54.6877 19.6195 54.7631 19.5518 54.8151 19.4672C54.867 19.3825 54.8932 19.2846 54.8904 19.1853C54.8448 18.9048 54.6903 18.6536 54.4605 18.4863C54.5726 18.8676 54.619 19.2652 54.598 19.6621V19.6621Z" fill="#EFB135"/>
<path d="M54.2752 19.0108C54.352 19.2392 54.4602 19.4558 54.5969 19.6542C54.6173 19.2593 54.5708 18.8638 54.4594 18.4844C54.3895 18.5515 54.3364 18.6341 54.3044 18.7256C54.2724 18.8171 54.2624 18.9148 54.2752 19.0108V19.0108Z" fill="#FCC34F"/>
<path d="M54.5625 19.695C54.5625 19.695 54.349 19.967 54.1326 19.9114C53.9161 19.8558 53.7407 19.5955 53.7348 19.5955C54.0145 19.5487 54.3018 19.5832 54.5625 19.695Z" fill="#FCC34F"/>
<path d="M54.1167 19.2412C54.3741 19.2412 54.5729 19.6916 54.5642 19.6946C54.3047 19.5788 54.0173 19.5402 53.7365 19.5834C53.7365 19.5834 53.8769 19.2383 54.1167 19.2412Z" fill="#EFB135"/>
<path d="M54.0834 18.9863C54.1553 18.9188 54.2081 18.8334 54.2364 18.7389C54.2646 18.6444 54.2673 18.5441 54.2442 18.4481C54.139 18.1264 53.6447 17.986 53.6447 17.9977C53.8539 18.2956 54.0029 18.6314 54.0834 18.9863V18.9863Z" fill="#EFB135"/>
<path d="M53.6014 18.5518C53.7337 18.7258 53.8974 18.8736 54.084 18.9876C54.0035 18.6326 53.8545 18.2968 53.6453 17.999C53.5947 18.0811 53.5643 18.174 53.5567 18.2701C53.5491 18.3662 53.5644 18.4628 53.6014 18.5518V18.5518Z" fill="#FCC34F"/>
<path d="M54.0527 19.0312C54.0527 19.0312 53.9123 19.3588 53.6871 19.3998C53.5191 19.4046 53.3533 19.3598 53.2104 19.2711C53.4683 19.1258 53.757 19.0436 54.0527 19.0312Z" fill="#FCC34F"/>
<path d="M53.4987 18.8114C53.7531 18.7091 54.0661 19.0249 54.0544 19.0308C53.7586 19.0431 53.47 19.1253 53.2121 19.2706C53.2121 19.2706 53.2559 18.9079 53.4987 18.8114Z" fill="#EFB135"/>
<path d="M51.9922 22.8125C51.9922 22.8125 51.96 23.181 51.6763 23.26C51.3926 23.3389 50.992 22.9675 51.0007 22.9675C51.3388 22.9942 51.6784 22.9411 51.9922 22.8125V22.8125Z" fill="#EFB135"/>
<path d="M51.3926 22.6074C51.6033 22.6334 51.8069 22.7 51.9922 22.8034C51.6782 22.931 51.3386 22.9831 51.0007 22.9555C51.0007 22.9555 51.1294 22.6191 51.3926 22.6074Z" fill="#FCC34F"/>
<path d="M52.0084 22.7543C52.1002 22.5896 52.1253 22.3959 52.0786 22.2132C51.9932 22.0605 51.8665 21.9348 51.713 21.8506C51.7498 22.1686 51.8503 22.476 52.0084 22.7543V22.7543Z" fill="#FCC34F"/>
<path d="M51.535 22.3683C51.5993 22.6607 52.0117 22.766 52.0117 22.7543C51.8546 22.4757 51.7551 22.1684 51.7193 21.8506C51.6527 21.9183 51.6018 21.9997 51.5699 22.0891C51.5381 22.1785 51.5262 22.2738 51.535 22.3683Z" fill="#EFB135"/>
<path d="M51.3164 22.3999C51.3164 22.3999 51.1906 22.7568 50.9128 22.7217C50.635 22.6866 50.3659 22.1367 50.3776 22.1367C50.6618 22.3057 50.9857 22.3965 51.3164 22.3999V22.3999Z" fill="#EFB135"/>
<path d="M50.8251 21.9555C51.0133 22.0742 51.1795 22.2246 51.3164 22.4001C50.9863 22.3985 50.6624 22.3097 50.3776 22.1427C50.3776 22.1427 50.5823 21.8561 50.8251 21.9555Z" fill="#FCC34F"/>
<path d="M51.3451 22.3557C51.4765 22.2174 51.5507 22.0346 51.5527 21.8438C51.512 21.6562 51.4312 21.4796 51.3158 21.3262C51.2646 21.6684 51.2745 22.0169 51.3451 22.3557Z" fill="#FCC34F"/>
<path d="M51.0103 21.7746C51.0183 21.8909 51.0525 22.0039 51.1102 22.1052C51.1679 22.2065 51.2478 22.2934 51.3438 22.3596C51.2732 22.0208 51.2633 21.6723 51.3145 21.3301C51.2319 21.3744 51.1611 21.4379 51.1082 21.5153C51.0553 21.5926 51.0217 21.6816 51.0103 21.7746Z" fill="#EFB135"/>
<path d="M50.8066 21.7127C50.8066 21.7127 50.6019 22.0227 50.3592 21.8648C50.1164 21.7068 50.0199 21.0137 50.0345 21.0107C50.2231 21.3107 50.4901 21.5534 50.8066 21.7127V21.7127Z" fill="#EFB135"/>
<path d="M50.482 21.0313C50.6184 21.244 50.7275 21.4729 50.8066 21.7128C50.4901 21.5535 50.2231 21.3108 50.0345 21.0109C50.0652 20.9827 50.1011 20.9609 50.1403 20.9467C50.1794 20.9325 50.2209 20.9262 50.2625 20.9281C50.3041 20.93 50.3449 20.9401 50.3826 20.9578C50.4202 20.9755 50.454 21.0005 50.482 21.0313V21.0313Z" fill="#FCC34F"/>
<path d="M50.8452 21.6808C50.9278 21.6376 50.9997 21.5767 51.0559 21.5023C51.112 21.428 51.1509 21.3421 51.1698 21.2508C51.1797 21.0317 51.154 20.8125 51.0938 20.6016C50.9539 20.9458 50.87 21.3101 50.8452 21.6808Z" fill="#FCC34F"/>
<path d="M50.7018 20.9291C50.6559 21.1888 50.7069 21.4562 50.8452 21.6808C50.87 21.3101 50.9539 20.9458 51.0938 20.6016C51.0035 20.6116 50.9181 20.648 50.8484 20.7063C50.7787 20.7645 50.7277 20.842 50.7018 20.9291V20.9291Z" fill="#EFB135"/>
<path d="M54.3812 22.1016C54.4542 22.1652 54.5026 22.2524 54.5181 22.348C54.5336 22.4436 54.5152 22.5416 54.466 22.6251C54.3034 22.9008 54.0548 23.1156 53.7583 23.2363C54.0212 22.8912 54.2312 22.5087 54.3812 22.1016V22.1016Z" fill="#EFB135"/>
<path d="M53.7901 22.6806C53.9628 22.4646 54.159 22.2685 54.375 22.0957C54.225 22.5028 54.015 22.8853 53.752 23.2305C53.71 23.1434 53.6914 23.0469 53.6981 22.9505C53.7048 22.8541 53.7365 22.7611 53.7901 22.6806V22.6806Z" fill="#FCC34F"/>
<path d="M54.3555 22.064C54.3555 22.064 54.256 21.7715 54.0162 21.7715C53.8246 21.8187 53.6445 21.9043 53.4868 22.023C53.7655 22.1244 54.0685 22.1387 54.3555 22.064V22.064Z" fill="#FCC34F"/>
<path d="M53.7207 22.4378C53.9751 22.4904 54.3641 22.0693 54.3553 22.0634C54.0665 22.1428 53.7602 22.1316 53.4779 22.0312C53.4779 22.0312 53.4808 22.391 53.7207 22.4378Z" fill="#EFB135"/>
<path d="M53.5846 22.6777C53.6284 22.7659 53.6462 22.8647 53.6358 22.9626C53.6254 23.0605 53.5874 23.1535 53.5261 23.2305C53.321 23.4244 53.0478 23.5295 52.7656 23.523C53.084 23.289 53.3608 23.0033 53.5846 22.6777V22.6777Z" fill="#EFB135"/>
<path d="M52.9415 22.9936C53.1376 22.8562 53.3536 22.7496 53.582 22.6777C53.3588 23.0054 53.082 23.2931 52.7631 23.5288C52.7477 23.4318 52.7558 23.3326 52.7869 23.2394C52.8179 23.1462 52.871 23.0619 52.9415 22.9936V22.9936Z" fill="#FCC34F"/>
<path d="M53.582 22.6283C53.582 22.6283 53.582 22.2832 53.3715 22.1984C53.2011 22.1597 53.0235 22.1668 52.8567 22.2189C53.0548 22.4213 53.3063 22.5633 53.582 22.6283Z" fill="#FCC34F"/>
<path d="M52.9492 22.7218C53.1539 22.8768 53.5868 22.637 53.578 22.6282C53.3033 22.5657 53.0518 22.4268 52.8527 22.2275C52.8527 22.2275 52.7532 22.5756 52.9492 22.7218Z" fill="#EFB135"/>
<path d="M52.7695 22.9033C52.7859 23.0005 52.7765 23.1004 52.7421 23.1928C52.7077 23.2852 52.6495 23.3669 52.5735 23.4298C52.4565 23.485 52.3286 23.5136 52.1992 23.5136C52.0697 23.5136 51.9419 23.485 51.8248 23.4298C52.1715 23.3187 52.4926 23.1397 52.7695 22.9033V22.9033Z" fill="#EFB135"/>
<path d="M52.1203 22.9613C52.3311 22.9014 52.5514 22.8816 52.7695 22.9028C52.4933 23.1378 52.1732 23.3158 51.8278 23.4263C51.8347 23.3308 51.865 23.2384 51.916 23.1573C51.967 23.0762 52.0372 23.0089 52.1203 22.9613Z" fill="#FCC34F"/>
<path d="M52.7716 22.8504C52.7965 22.7644 52.8031 22.6742 52.791 22.5856C52.7789 22.4969 52.7484 22.4118 52.7014 22.3356C52.5699 22.2307 52.4099 22.1675 52.2422 22.1543C52.3605 22.4253 52.5421 22.6639 52.7716 22.8504V22.8504Z" fill="#FCC34F"/>
<path d="M52.1963 22.6924C52.3396 22.9264 52.7812 22.8621 52.7812 22.8504C52.5517 22.6639 52.3702 22.4253 52.2519 22.1543C52.2519 22.1543 52.0618 22.4702 52.1963 22.6924Z" fill="#EFB135"/>
<path d="M60.0728 29.4612L63.8613 18.1582L65.7359 18.7865L61.9474 30.0895L60.0728 29.4612Z" fill="#846C5D"/>
<path d="M69.4729 18.4671L64.7363 32.5986L60.5878 31.2081L65.3244 17.0766L69.4729 18.4671Z" fill="#846C5D"/>
<path d="M67.5714 20.4445L64.4121 29.8701L62.1521 29.1126L65.3113 19.687L67.5714 20.4445Z" fill="#FCC34F"/>
<path d="M49.8697 65.8989C50.7585 65.7114 51.5516 65.2138 52.1071 64.4951L54.0052 67.1682L55.76 59.76C56.2835 57.6689 58.5677 56.0135 60.7729 54.8641C65.7156 56.3264 65.5518 51.8429 65.4524 50.9596C66.4087 45.1805 62.1738 40.2641 58.4712 35.6401L62.633 34.2188C78.397 48.6082 79.8535 72.5321 79.8535 72.5321L60.7349 75.369C63.7063 71.8097 60.343 69.8619 62.0451 69.663C62.4049 69.622 61.5275 68.9201 61.4602 68.5925C61.3929 68.265 61.7673 68.031 61.6795 67.7561C61.2873 66.4817 60.5541 65.3389 59.5591 64.4512C59.448 73.6932 53.6133 75.758 53.6133 75.758L49.8697 65.8989Z" fill="#40A9FD"/>
<path d="M64.2006 57.3594C64.2834 57.3219 64.3776 57.318 64.4633 57.3485C64.5489 57.3791 64.6194 57.4417 64.6598 57.5232C64.7066 57.6782 64.5779 57.8536 64.3673 57.918C64.284 57.9545 64.1898 57.9576 64.1043 57.9266C64.0188 57.8955 63.9486 57.8328 63.9081 57.7513C63.8963 57.6607 63.9203 57.5692 63.9749 57.496C64.0295 57.4228 64.1104 57.3738 64.2006 57.3594V57.3594ZM65.1014 59.7986C65.1005 59.7108 65.128 59.6251 65.1799 59.5543C65.2317 59.4834 65.3051 59.4313 65.389 59.4056C65.4729 59.38 65.5629 59.3821 65.6455 59.4118C65.7281 59.4415 65.7988 59.4972 65.8472 59.5704C65.894 59.7254 65.7682 59.9009 65.5547 59.9653C65.472 59.9994 65.3795 60.0011 65.2956 59.9703C65.2116 59.9394 65.1423 59.8781 65.1014 59.7986V59.7986ZM65.2827 62.3547C65.4991 62.3547 65.6746 62.4834 65.6746 62.6472C65.6746 62.811 65.4991 62.9397 65.2827 62.9397C65.0663 62.9397 64.8937 62.8081 64.8937 62.6472C64.8937 62.4863 65.078 62.3547 65.2827 62.3547ZM65.5752 64.7091C65.645 64.7633 65.6953 64.8389 65.7183 64.9243C65.7414 65.0096 65.736 65.1002 65.7029 65.1822C65.6698 65.2642 65.6109 65.3332 65.5351 65.3787C65.4593 65.4243 65.3707 65.4438 65.2827 65.4344C65.2049 65.3875 65.1482 65.3124 65.1242 65.2247C65.1002 65.1371 65.1109 65.0435 65.154 64.9635C65.1762 64.874 65.233 64.7968 65.3119 64.7491C65.3909 64.7014 65.4856 64.687 65.5752 64.7091V64.7091ZM67.3709 66.6452C67.4042 66.6241 67.4415 66.6099 67.4804 66.6035C67.5193 66.5971 67.5591 66.5986 67.5974 66.608C67.6357 66.6174 67.6718 66.6344 67.7033 66.6581C67.7349 66.6817 67.7613 66.7115 67.7811 66.7457C67.8008 66.7798 67.8134 66.8176 67.8182 66.8568C67.8229 66.8959 67.8197 66.9357 67.8087 66.9735C67.7977 67.0114 67.7792 67.0467 67.7542 67.0772C67.7293 67.1078 67.6984 67.1329 67.6634 67.1512C67.6301 67.1724 67.5929 67.1866 67.554 67.193C67.5151 67.1994 67.4752 67.1978 67.4369 67.1885C67.3986 67.1791 67.3626 67.162 67.331 67.1384C67.2995 67.1147 67.273 67.0849 67.2533 67.0508C67.2336 67.0166 67.2209 66.9788 67.2162 66.9397C67.2114 66.9005 67.2146 66.8608 67.2256 66.8229C67.2366 66.785 67.2552 66.7498 67.2801 66.7192C67.3051 66.6887 67.336 66.6635 67.3709 66.6452Z" fill="#6ABDFF"/>
<path d="M67.59 69.4526L67.6602 69.1601C67.0401 69.0051 67.0021 67.6978 67.0401 67.1947V67.1392L66.2505 66.1155L66.2183 66.098C66.2007 66.098 64.4635 65.2966 64.0452 65.0129C63.9487 64.9018 64.2178 64.1501 64.4167 63.6003C64.753 62.6585 65.1742 61.4857 65.1332 60.5235C65.1032 59.993 64.9531 59.4762 64.6942 59.0121C64.4353 58.548 64.0744 58.1488 63.6387 57.8445L64.0891 56.8618L63.94 56.8092C63.5436 56.6654 63.1648 56.477 62.811 56.2476C62.7944 56.2362 62.7807 56.2209 62.771 56.2031C62.7613 56.1853 62.756 56.1655 62.7555 56.1453C62.7555 55.9932 62.9894 55.7592 63.1035 55.6715L62.9251 55.4404C62.8783 55.4785 62.4659 55.806 62.463 56.1424C62.4631 56.207 62.4782 56.2708 62.5071 56.3287C62.5361 56.3865 62.578 56.4369 62.6297 56.4758C62.9593 56.7026 63.3159 56.8874 63.6914 57.0256L63.2644 57.9527L63.3755 58.0229C63.7955 58.3015 64.1459 58.673 64.3994 59.1087C64.653 59.5443 64.803 60.0324 64.8378 60.5352C64.8759 61.439 64.4664 62.5825 64.1388 63.5009C63.7908 64.4718 63.5802 65.0568 63.8785 65.2557C64.2938 65.5335 65.8088 66.2354 66.0604 66.3495L66.736 67.2269C66.7272 67.5603 66.6862 69.2274 67.59 69.4526Z" fill="#158DED"/>
<path d="M51.7142 65.805L55.5163 72.9705C59.4646 67.633 59.2452 62.5879 59.2452 62.5879C61 71.1426 53.7614 75.3834 53.7614 75.3834L50.6174 66.7556L51.7142 65.805Z" fill="#158DED"/>
<path d="M78.375 71.8479C78.2785 73.0178 77.1086 71.3595 77.1086 71.3595C77.1086 71.3595 76.9127 66.5835 77.0121 65.9985C77.1115 65.4136 78.375 71.8479 78.375 71.8479Z" fill="#158DED"/>
<path d="M62.289 69.5078C62.406 68.4608 82.2763 58.9292 61.8503 39.8223C61.8503 39.8223 66.5678 41.3402 66.483 40.2112C66.3998 39.0525 66.0179 37.9351 65.3745 36.9678C68.6882 40.6032 75.102 51.0326 73.2712 59.7335C71.2473 69.4113 65.3482 69.5575 65.3482 69.5575C66.7601 68.9937 67.9917 68.0561 68.911 66.8452C69.8302 65.6343 70.4023 64.1959 70.5659 62.6845C70.5659 62.6845 68.6268 67.364 62.289 69.5078Z" fill="#158DED"/>
<path d="M64.1118 56.2241C63.8193 56.3235 65.0799 55.2209 65.2466 54.6536C65.3631 54.2569 65.3341 53.8316 65.1647 53.4544C65.4108 52.7869 65.5211 52.077 65.4893 51.3662C66.1854 52.1325 68.3906 54.7296 68.3906 56.8822C68.3906 56.8822 67.1096 53.2643 65.7935 52.9719C65.7877 52.9719 66.3726 55.4578 64.1118 56.2241Z" fill="#158DED"/>
<path d="M60.1236 62.5884C62.3172 65.6593 65.6074 63.4658 65.6074 63.4658L62.0247 67.7066C62.0247 67.7066 61.0742 64.855 59.6118 63.5389L58.5151 60.6143C58.5151 60.6143 59.6615 61.9421 60.1236 62.5884Z" fill="#158DED"/>
<path d="M56.2473 67.4837L54.2001 66.5332L56.9785 67.1913L56.3936 69.8966L56.2473 67.4837Z" fill="#158DED"/>
<path d="M62.9424 54.7271L62.761 54.3616L61.7725 53.9229L60.5471 54.3791L59.7632 55.549C59.7632 55.549 61.9743 55.6045 62.5768 55.3121C63.1793 55.0196 62.9424 54.7271 62.9424 54.7271Z" fill="#158DED"/>
<path d="M63.5605 54.9344L61.9023 54.057L61.2939 56.3705L59.1355 55.7124L59.2466 54.0307L61.8525 53.7148L63.5605 54.9344Z" fill="#6ABDFF"/>
<path d="M62.3568 54.9082C62.3568 54.9082 57.5311 60.5762 52.0853 57.286C52.0853 57.286 54.3139 60.2457 56.9111 59.6988C59.5082 59.1519 62.1755 56.6279 62.5762 55.2387L62.3568 54.9082Z" fill="#DB7631"/>
<path d="M62.9238 54.4957C62.9238 54.4957 59.3177 65.4135 49.6662 56.543C49.6662 56.543 48.9877 55.5018 49.1105 52.4192C49.1118 52.3815 49.1229 52.3448 49.1427 52.3128C49.1624 52.2807 49.1903 52.2543 49.2233 52.2363C49.2564 52.2183 49.2937 52.2092 49.3313 52.21C49.369 52.2108 49.4058 52.2214 49.4381 52.2407L52.395 53.9956C52.395 53.9956 53.6175 60.772 58.3408 58.9675C61.6574 57.7128 62.9238 54.4957 62.9238 54.4957Z" fill="#B64E00"/>
<path d="M64.0703 54.5691C64.0703 54.5691 63.1929 53.8847 62.7045 54.1772C62.3671 54.4037 62.077 54.6938 61.8505 55.0312L62.4354 55.5927C62.7677 55.5573 63.0876 55.4468 63.3709 55.2694C63.6542 55.0921 63.8933 54.8526 64.0703 54.5691Z" fill="#B64E00"/>
<path d="M64.5332 53.1797C64.5129 53.4968 64.413 53.8037 64.2428 54.0721C64.0726 54.3404 63.8375 54.5616 63.5593 54.7151C63.5593 54.7151 62.8018 55.1275 63.2171 55.2006C63.6324 55.2738 64.2905 54.7883 64.5829 54.0074C64.8754 53.2265 64.5332 53.1797 64.5332 53.1797Z" fill="#DB7631"/>
<path d="M64.113 54.7617L63.2121 53.1063L65.1629 50.7402L65.4554 50.8865C65.4554 50.8865 65.7274 53.9837 64.113 54.7617Z" fill="#6ABDFF"/>
<path d="M62.6321 34.2184L58.479 35.6428C57.1336 33.9673 55.7015 32.3634 54.1885 30.8375L52.4045 30.5626L51.723 29.77H51.2229C51.2229 29.77 50.9304 29.5331 50.9919 29.3313C51.2112 28.6732 51.6587 28.9101 51.8312 28.5621C52.1559 27.9128 52.5127 27.1875 52.6355 26.8921C52.8256 26.4359 52.8139 25.7924 53.4661 25.8685C57.1951 26.3072 55.6597 28.7932 56.5751 29.6472C59.0156 31.1424 61.2876 32.8966 63.3516 34.8794C63.1176 34.663 62.8778 34.4378 62.6321 34.2184Z" fill="#935C3B"/>
<path d="M48.5702 58.4932H52.5916L53.6152 59.8093C53.6152 59.8093 53.5421 60.6136 52.8841 60.7598C52.5916 60.8271 52.4249 60.6253 52.3371 60.3854C52.2055 61.2804 51.2082 62.4064 50.8748 62.7632L52.1061 64.4975C51.5506 65.2163 50.7575 65.7139 49.8687 65.9014L48.7895 63.0615C48.0583 61.336 48.5702 58.4932 48.5702 58.4932Z" fill="#935C3B"/>
<path d="M79.9372 71.2625C79.9372 71.2625 74.3803 65.8021 60.9443 70.7332L61.5117 72.2394C61.5117 72.2394 48.7338 78.0887 45.4727 88.1204L63.5268 95.4526L61.8188 100.699C61.8188 100.699 62.5383 101.726 63.9567 100.208C65.3752 98.6902 67.8729 93.0397 67.8729 93.0397L54.0947 85.1226C54.0947 85.1226 61.3713 78.5889 69.3762 80.3378C69.3762 80.3378 77.9543 93.2883 74.5032 110.368C74.5032 110.368 74.1639 118.701 76.5504 118.289C78.937 117.876 77.5273 110.427 77.5273 110.427C77.5273 110.427 85.0934 93.9171 79.9372 71.2625Z" fill="#474847"/>
<path d="M61.7045 32.5606C61.7045 32.5606 59.4642 29.829 57.3175 34.7044L59.1718 37.4361C59.1718 37.4361 61.219 34.0259 64.2402 34.9998L61.7045 32.5606Z" fill="#6ABDFF"/>
<path d="M52.5333 64.0977C52.5333 64.0977 50.9423 65.9022 49.1787 65.7062L50.679 69.8008C50.679 69.8008 53.2381 69.8505 54.2969 66.1449L52.5333 64.0977Z" fill="#6ABDFF"/>
<path opacity="0.2" d="M68.9659 125.176C69.9423 122.677 70.7801 120.126 71.4753 117.534C72.1802 114.94 72.7446 112.308 73.2067 109.676L73.5138 107.687L73.7507 105.686C73.8414 105.02 73.8882 104.35 73.9379 103.68C73.9876 103.01 74.0578 102.343 74.0637 101.671C74.1815 98.9881 74.0808 96.3002 73.7624 93.6338L73.8823 95.6401C73.8969 95.9735 73.935 96.3069 73.935 96.6404V97.6465V98.6496C73.935 98.983 73.935 99.3194 73.935 99.6528L73.8472 101.656C73.6865 104.328 73.379 106.988 72.926 109.626C72.4902 112.258 71.9228 114.89 71.2677 117.476C70.9342 118.774 70.5833 120.064 70.1972 121.348C69.8112 122.632 69.4046 123.91 68.9659 125.176Z" fill="#333333"/>
<path opacity="0.2" d="M68.1298 119.955C68.6006 118.938 69.0072 117.888 69.3698 116.829C69.7325 115.77 70.0513 114.688 70.3496 113.612C70.6479 112.535 70.879 111.43 71.072 110.321C71.2695 109.216 71.4071 108.101 71.4844 106.981C71.3732 107.534 71.306 108.087 71.1919 108.634L71.0369 109.459L70.8614 110.28C70.6216 111.371 70.3759 112.462 70.0776 113.539C69.7793 114.615 69.4927 115.694 69.1651 116.756C69.0033 117.292 68.8366 117.826 68.665 118.358C68.4983 118.894 68.3082 119.423 68.1298 119.955Z" fill="#333333"/>
<path opacity="0.3" d="M63.6031 130.813C58.0789 130.813 53.6006 130.352 53.6006 129.783C53.6006 129.215 58.0789 128.754 63.6031 128.754C69.1272 128.754 73.6055 129.215 73.6055 129.783C73.6055 130.352 69.1272 130.813 63.6031 130.813Z" fill="#333333"/>
<g opacity="0.3">
<path opacity="0.3" d="M44.7939 83.8682C44.1885 84.8333 43.624 85.8219 43.0566 86.8104C42.4892 87.7989 41.9569 88.7992 41.4246 89.8023L41.2872 90.0656L41.5621 90.1884C42.3401 90.5394 43.1151 90.8962 43.9018 91.2354C44.6886 91.5747 45.4665 91.911 46.2416 92.2415C47.8209 92.8937 49.4032 93.5313 51.0234 94.0899C49.5231 93.2622 47.9876 92.5164 46.4463 91.7794C45.6742 91.4168 44.9021 91.057 44.1212 90.709C43.3403 90.361 42.5623 90.0188 41.7814 89.6766L41.916 90.0597C42.4249 89.0439 42.9211 88.0212 43.4046 86.9917C43.8901 85.9593 44.361 84.924 44.7939 83.8682Z" fill="#333333"/>
</g>
<path d="M75.3221 38.0203C75.4284 38.0516 75.5188 38.1223 75.5749 38.2179C75.631 38.3135 75.6485 38.4269 75.6239 38.535C75.5993 38.6431 75.5344 38.7378 75.4425 38.7997C75.3506 38.8616 75.2385 38.8862 75.1291 38.8684H75.094C75.0273 38.9021 74.9654 38.9444 74.9097 38.9942C74.784 39.0995 74.6699 39.2194 74.5412 39.3247C74.4567 39.4036 74.3454 39.4476 74.2297 39.4476C74.1141 39.4476 74.0028 39.4036 73.9183 39.3247C73.8373 39.2412 73.792 39.1295 73.792 39.0132C73.792 38.8969 73.8373 38.7852 73.9183 38.7017C74.3482 38.3654 74.7196 37.8857 75.3221 38.0203Z" fill="white"/>
<path d="M1.97134 40.0042C1.27819 40.4751 0.359836 40.8026 0.0147231 41.6303C-0.0149574 41.7424 0.000608232 41.8616 0.0580604 41.9623C0.115513 42.0629 0.210245 42.137 0.321814 42.1684C0.432275 42.1974 0.549596 42.1832 0.650042 42.1289C0.750489 42.0747 0.826565 41.9842 0.862881 41.876C0.96817 41.6186 1.34545 41.4256 1.5648 41.291C1.85727 41.1156 2.14974 40.9606 2.41589 40.7763C2.88091 40.4458 2.44221 39.6854 1.97134 40.0042Z" fill="white"/>
<path d="M7.18583 71.5433C6.60089 71.4673 6.10955 71.0666 5.50706 71.1397C5.39164 71.1427 5.28177 71.1899 5.20013 71.2715C5.11849 71.3531 5.07132 71.463 5.06836 71.5784C5.06987 71.6943 5.11658 71.805 5.19853 71.887C5.28047 71.9689 5.39118 72.0156 5.50706 72.0171C6.01011 71.9557 6.46343 72.3096 6.95185 72.3915C7.06378 72.4182 7.18165 72.4013 7.28158 72.3442C7.38151 72.2872 7.45601 72.1943 7.49 72.0844C7.52066 71.9723 7.50593 71.8527 7.449 71.7514C7.39206 71.6501 7.29751 71.5754 7.18583 71.5433V71.5433Z" fill="white"/>
<path d="M97.1493 83.6176C96.5088 83.7053 96.1754 84.2025 95.7542 84.6325C95.352 85.0153 95.0351 85.4788 94.8242 85.9924C94.3562 86.1475 94.5902 86.9196 95.1166 86.8201L95.2775 86.7909C95.3486 86.7693 95.413 86.7297 95.4642 86.6759C95.5155 86.6221 95.5519 86.5559 95.57 86.4838C95.7001 86.0448 95.9443 85.6482 96.2777 85.3344C96.4766 85.1297 96.8334 84.536 97.1347 84.495C97.6991 84.4219 97.7079 83.5445 97.1493 83.6176Z" fill="white"/>
<path d="M99.3198 98.1066L98.5389 97.7176C98.4378 97.6621 98.3192 97.6476 98.2076 97.677C98.0961 97.7064 98.0001 97.7774 97.9394 97.8755C97.8817 97.9762 97.8659 98.0955 97.8954 98.2077C97.925 98.3199 97.9975 98.4159 98.0973 98.4751L98.8782 98.8641C98.928 98.8956 98.9837 98.9167 99.0418 98.9263C99.1 98.9358 99.1595 98.9335 99.2168 98.9195C99.274 98.9055 99.3279 98.8801 99.3751 98.8449C99.4224 98.8096 99.462 98.7652 99.4917 98.7143C99.5214 98.6633 99.5405 98.607 99.5479 98.5485C99.5554 98.49 99.5509 98.4306 99.5349 98.3739C99.5188 98.3172 99.4915 98.2643 99.4546 98.2183C99.4176 98.1724 99.3718 98.1344 99.3198 98.1066V98.1066Z" fill="white"/>
<path d="M110.224 81.105C109.838 81.6947 109.403 82.2514 108.925 82.7692C108.565 83.1991 109.183 83.8221 109.545 83.3892C110.072 82.8152 110.552 82.1989 110.978 81.5467C111.026 81.4474 111.034 81.334 111.002 81.2289C110.97 81.1237 110.899 81.0346 110.804 80.979C110.709 80.9235 110.597 80.9056 110.489 80.9289C110.382 80.9523 110.287 81.0151 110.224 81.105V81.105Z" fill="white"/>
<path d="M120.038 43.192C119.578 43.6482 119.71 44.2858 119.713 44.8649C119.713 44.9812 119.759 45.0928 119.842 45.1751C119.924 45.2574 120.035 45.3036 120.152 45.3036C120.268 45.3036 120.38 45.2574 120.462 45.1751C120.544 45.0928 120.59 44.9812 120.59 44.8649C120.59 44.5724 120.435 44.0313 120.658 43.812C120.735 43.7288 120.777 43.6188 120.775 43.5052C120.773 43.3915 120.727 43.2831 120.647 43.2027C120.567 43.1223 120.458 43.0763 120.344 43.0743C120.231 43.0723 120.121 43.1145 120.038 43.192Z" fill="white"/>
<path d="M6.48453 96.293H4.72972C4.61337 96.293 4.50178 96.3392 4.41951 96.4215C4.33724 96.5037 4.29102 96.6153 4.29102 96.7317C4.29102 96.848 4.33724 96.9596 4.41951 97.0419C4.50178 97.1242 4.61337 97.1704 4.72972 97.1704H6.48453C6.60088 97.1704 6.71246 97.1242 6.79474 97.0419C6.87701 96.9596 6.92323 96.848 6.92323 96.7317C6.92323 96.6153 6.87701 96.5037 6.79474 96.4215C6.71246 96.3392 6.60088 96.293 6.48453 96.293Z" fill="white"/>
<path d="M19.4983 94.9758C19.4983 96.4849 19.7908 98.0701 18.9719 99.433C18.9183 99.5332 18.9056 99.6502 18.9365 99.7595C18.9674 99.8688 19.0395 99.9619 19.1377 100.019C19.2358 100.076 19.3523 100.093 19.4627 100.066C19.573 100.039 19.6686 99.9707 19.7294 99.8747C20.6389 98.3597 20.3816 96.6575 20.3757 94.9758C20.3757 94.8595 20.3295 94.7479 20.2472 94.6656C20.165 94.5833 20.0534 94.5371 19.937 94.5371C19.8207 94.5371 19.7091 94.5833 19.6268 94.6656C19.5445 94.7479 19.4983 94.8595 19.4983 94.9758V94.9758Z" fill="white"/>
<defs>
<linearGradient id="paint0_linear" x1="63.6042" y1="77.3725" x2="63.6042" y2="12.6697" gradientUnits="userSpaceOnUse">
<stop stop-color="white"/>
<stop offset="1" stop-color="#158DED" stop-opacity="0"/>
</linearGradient>
<linearGradient id="paint1_linear" x1="4492.54" y1="-50653.9" x2="4492.54" y2="-36588.8" gradientUnits="userSpaceOnUse">
<stop stop-color="white"/>
<stop offset="1" stop-color="#3AC1B0" stop-opacity="0"/>
</linearGradient>
</defs>
</svg>
