<svg width="354" height="339" viewBox="0 0 354 339" fill="none" xmlns="http://www.w3.org/2000/svg">
<path d="M97.9813 200.705L0 229.914L17.951 290.129L115.932 260.92L97.9813 200.705Z" fill="url(#paint0_linear)"/>
<path d="M96.3069 202.83L1.64673 231.05L18.3999 287.247L113.06 259.028L96.3069 202.83Z" fill="white"/>
<g opacity="0.6">
<path opacity="0.6" d="M9.70649 243L21.7488 239.41L19.092 230.498L7.04972 234.088L9.70649 243Z" fill="#F55F44"/>
<path opacity="0.6" d="M24.7532 257.394L70.999 243.607L70.1378 240.719L23.892 254.505L24.7532 257.394Z" fill="#F55F44"/>
<path opacity="0.6" d="M39.146 259.919L72.8667 249.866L72.2922 247.939L38.5714 257.992L39.146 259.919Z" fill="#F55F44"/>
</g>
<path d="M250.666 58.0003L238.656 119.676L339.013 139.22L351.024 77.5441L250.666 58.0003Z" fill="url(#paint1_linear)"/>
<path d="M251.597 59.7769L240.388 117.337L337.343 136.218L348.553 78.6583L251.597 59.7769Z" fill="white"/>
<g opacity="0.6">
<path opacity="0.6" d="M253.159 74.1019L265.493 76.5039L267.271 67.3758L254.937 64.9738L253.159 74.1019Z" fill="#F55F44"/>
<path opacity="0.6" d="M259.817 93.8371L307.184 103.062L307.761 100.103L260.393 90.8782L259.817 93.8371Z" fill="#F55F44"/>
<path opacity="0.6" d="M271.399 102.751L305.937 109.478L306.321 107.504L271.783 100.777L271.399 102.751Z" fill="#F55F44"/>
</g>
<path d="M313.076 179.775L255.431 204.779L296.119 298.577L353.763 273.573L313.076 179.775Z" fill="url(#paint2_linear)"/>
<path d="M312.135 181.548L258.337 204.884L297.645 295.503L351.443 272.166L312.135 181.548Z" fill="white"/>
<g opacity="0.6">
<path opacity="0.6" d="M301.198 190.959L306.199 202.487L314.73 198.787L309.73 187.258L301.198 190.959Z" fill="#47E6B1"/>
<path opacity="0.6" d="M288.695 207.613L307.899 251.885L310.664 250.685L291.461 206.414L288.695 207.613Z" fill="#47E6B1"/>
<path opacity="0.6" d="M287.903 222.202L301.905 254.483L303.75 253.683L289.748 221.402L287.903 222.202Z" fill="#47E6B1"/>
</g>
<path d="M123.655 58.4394L27.2944 92.6191L48.2999 151.838L144.66 117.658L123.655 58.4394Z" fill="url(#paint3_linear)"/>
<path d="M122.094 60.6546L29 93.6758L48.6038 148.943L141.698 115.922L122.094 60.6546Z" fill="white"/>
<g opacity="0.6">
<path opacity="0.6" d="M37.6299 105.221L49.4729 101.021L46.3641 92.256L34.521 96.4568L37.6299 105.221Z" fill="#6C63FF"/>
<path opacity="0.6" d="M53.3919 118.834L98.8726 102.702L97.8648 99.861L52.3842 115.993L53.3919 118.834Z" fill="#6C63FF"/>
<path opacity="0.6" d="M67.8939 120.62L101.057 108.856L100.384 106.961L67.2216 118.724L67.8939 120.62Z" fill="#6C63FF"/>
</g>
<path d="M177.009 61.7393L57.9717 173.801V338.817H296.043V173.801L177.009 61.7393Z" fill="url(#paint4_linear)"/>
<path d="M294.836 335.198H59.178V173.534L177.009 63.751L294.836 173.534V335.198Z" fill="white"/>
<path d="M259.044 86.2705H94.9707V279.299H259.044V86.2705Z" fill="url(#paint5_linear)"/>
<path d="M256.972 87.8799H97.0427V279.299H256.972V87.8799Z" fill="white"/>
<path d="M59.178 173.533L177.009 254.365L59.178 335.197V173.533Z" fill="#F5F5F5"/>
<path d="M294.836 173.533L177.009 254.365L294.836 335.197V173.533Z" fill="#F5F5F5"/>
<path d="M59.178 335.194L172.382 247.118C173.699 246.081 175.327 245.518 177.003 245.518C178.679 245.518 180.307 246.081 181.624 247.118L294.836 335.194H59.178Z" fill="url(#paint6_linear)"/>
<path d="M59.178 335.194L172.382 250.966C173.718 249.972 175.338 249.436 177.003 249.436C178.668 249.436 180.288 249.972 181.624 250.966L294.836 335.194H59.178Z" fill="white"/>
<path d="M154.689 124.875H121.309V130.506H154.689V124.875Z" fill="#47E6B1"/>
<path d="M232.705 139.757H121.309V145.388H232.705V139.757Z" fill="#F5F5F5"/>
<path d="M232.705 149.405H121.309V155.036H232.705V149.405Z" fill="#F5F5F5"/>
<path d="M232.705 159.059H121.309V164.69H232.705V159.059Z" fill="#F5F5F5"/>
<path d="M232.705 168.707H121.309V174.338H232.705V168.707Z" fill="#F5F5F5"/>
<path d="M171.98 178.36H121.309V183.991H171.98V178.36Z" fill="#F5F5F5"/>
<path d="M232.705 178.36H182.035V183.991H232.705V178.36Z" fill="#6C63FF"/>
<g opacity="0.9">
<path d="M27 82.7559V15.3184C27 9.79551 31.4772 5.31836 37 5.31836H164.131C169.654 5.31836 174.131 9.79551 174.131 15.3184V37.3996" stroke="#F5F5F5" stroke-width="9"/>
<path fill-rule="evenodd" clip-rule="evenodd" d="M160.346 22.8381L163.651 26.3371C164.585 27.3255 164.563 28.8772 163.602 29.8385L163.591 29.8487C163.575 29.8647 163.559 29.8805 163.543 29.8961C162.584 30.8013 161.074 30.7583 160.168 29.7999L156.969 26.4132C156.037 25.426 156.037 23.8253 156.969 22.8381C157.902 21.8509 159.414 21.8509 160.346 22.8381ZM166.032 32.4314C166.048 32.4153 166.064 32.3995 166.081 32.384C167.039 31.4787 168.55 31.5218 169.455 32.4801L172.166 35.35C173.099 36.3373 174.611 36.3373 175.543 35.35L187.363 22.8371C188.295 21.8499 189.807 21.8499 190.74 22.8371C191.673 23.8244 191.673 25.425 190.74 26.4122L177.232 40.7127C175.367 42.6872 172.343 42.6872 170.478 40.7127L165.972 35.9429C165.038 34.9546 165.061 33.4029 166.022 32.4416L166.032 32.4314Z" fill="#F5F5F5"/>
</g>
<defs>
<linearGradient id="paint0_linear" x1="66.9416" y1="275.525" x2="48.9906" y2="215.309" gradientUnits="userSpaceOnUse">
<stop stop-color="#808080" stop-opacity="0.25"/>
<stop offset="0.54" stop-color="#808080" stop-opacity="0.12"/>
<stop offset="1" stop-color="#808080" stop-opacity="0.1"/>
</linearGradient>
<linearGradient id="paint1_linear" x1="7629.32" y1="17955.8" x2="10652" y2="2434.59" gradientUnits="userSpaceOnUse">
<stop stop-color="#808080" stop-opacity="0.25"/>
<stop offset="0.54" stop-color="#808080" stop-opacity="0.12"/>
<stop offset="1" stop-color="#808080" stop-opacity="0.1"/>
</linearGradient>
<linearGradient id="paint2_linear" x1="-36524.5" y1="32603.6" x2="-22017.7" y2="26310.9" gradientUnits="userSpaceOnUse">
<stop stop-color="#808080" stop-opacity="0.25"/>
<stop offset="0.54" stop-color="#808080" stop-opacity="0.12"/>
<stop offset="1" stop-color="#808080" stop-opacity="0.1"/>
</linearGradient>
<linearGradient id="paint3_linear" x1="-1018.51" y1="15573.1" x2="-4267.22" y2="6414.33" gradientUnits="userSpaceOnUse">
<stop stop-color="#808080" stop-opacity="0.25"/>
<stop offset="0.54" stop-color="#808080" stop-opacity="0.12"/>
<stop offset="1" stop-color="#808080" stop-opacity="0.1"/>
</linearGradient>
<linearGradient id="paint4_linear" x1="103776" y1="191581" x2="103776" y2="2613.62" gradientUnits="userSpaceOnUse">
<stop stop-color="#808080" stop-opacity="0.25"/>
<stop offset="0.54" stop-color="#808080" stop-opacity="0.12"/>
<stop offset="1" stop-color="#808080" stop-opacity="0.1"/>
</linearGradient>
<linearGradient id="paint5_linear" x1="71575" y1="105231" x2="71575" y2="13519.1" gradientUnits="userSpaceOnUse">
<stop stop-color="#808080" stop-opacity="0.25"/>
<stop offset="0.54" stop-color="#808080" stop-opacity="0.12"/>
<stop offset="1" stop-color="#808080" stop-opacity="0.1"/>
</linearGradient>
<linearGradient id="paint6_linear" x1="141525" y1="70793.1" x2="141525" y2="50998.8" gradientUnits="userSpaceOnUse">
<stop stop-color="#808080" stop-opacity="0.25"/>
<stop offset="0.54" stop-color="#808080" stop-opacity="0.12"/>
<stop offset="1" stop-color="#808080" stop-opacity="0.1"/>
</linearGradient>
</defs>
</svg>
