<svg width="25" height="24" viewBox="0 0 25 24" fill="none" xmlns="http://www.w3.org/2000/svg">
<path fill-rule="evenodd" clip-rule="evenodd" d="M20.1317 11C20.6231 11 21.0215 10.602 21.0215 10.1111C21.0215 6.18375 17.8345 3 13.9031 3C13.4117 3 13.0133 3.39797 13.0133 3.88889C13.0133 4.37981 13.4117 4.77778 13.9031 4.77778C16.8516 4.77778 19.2419 7.16559 19.2419 10.1111C19.2419 10.602 19.6403 11 20.1317 11ZM17.4623 11C17.9537 11 18.3521 10.602 18.3521 10.1111C18.3521 7.65647 16.3602 5.66663 13.9031 5.66663C13.4117 5.66663 13.0133 6.0646 13.0133 6.55551C13.0133 7.04643 13.4117 7.4444 13.9031 7.4444C15.3774 7.4444 16.5725 8.63831 16.5725 10.1111C16.5725 10.602 16.9709 11 17.4623 11ZM13.7919 14.2611L9.74871 10.222L10.4226 9.54881C11.5391 8.43344 11.5391 6.62507 10.4226 5.50971L9.74871 4.83652C8.63221 3.72116 6.822 3.72116 5.70549 4.83652L5.03162 5.50971C4.99471 5.54658 4.95963 5.58459 4.92638 5.62363C4.91157 5.63269 4.89752 5.64368 4.8846 5.65658L4.29649 6.24409C2.67249 7.86644 2.56278 10.3872 4.05145 11.8743C5.56078 13.8717 6.786 15.3405 7.7271 16.2806C8.88248 17.4348 10.3527 18.6588 12.1379 19.9525C13.6266 21.4397 16.1499 21.3301 17.7739 19.7078L18.362 19.1202C18.3749 19.1073 18.3859 19.0933 18.395 19.0785C18.4341 19.0453 18.4721 19.0102 18.509 18.9734L19.1829 18.3002C20.2994 17.1848 20.2994 15.3765 19.1829 14.2611L18.509 13.5879C17.3925 12.4725 15.5823 12.4725 14.4658 13.5879L13.7919 14.2611ZM8.40107 8.87563L9.07493 8.20244C9.4471 7.83066 9.4471 7.22787 9.07493 6.85608L8.40107 6.18289C8.0289 5.81111 7.42549 5.81111 7.05333 6.18289L6.37946 6.85608L5.57427 7.66308C4.69478 8.53904 4.72541 9.8548 5.39928 10.528L5.49295 10.6216L5.57276 10.7272C7.03351 12.6603 8.20803 14.0683 9.07493 14.9343C10.1534 16.0116 11.5546 17.1665 13.2635 18.405L13.3792 18.4997L13.4857 18.6062C14.1596 19.2794 15.4767 19.31 16.3443 18.4399L17.1597 17.6253L17.8352 16.9538C18.2074 16.582 18.2074 15.9792 17.8352 15.6075L17.1614 14.9343C16.7892 14.5625 16.1858 14.5625 15.8136 14.9343L15.1398 15.6075C14.3954 16.351 13.1886 16.351 12.4443 15.6075L8.40107 11.5684C7.65673 10.8248 7.65673 9.6192 8.40107 8.87563Z" fill="#7E7F9A"/>
</svg>
