<svg width="30" height="30" viewBox="0 0 30 30" fill="none" xmlns="http://www.w3.org/2000/svg">
<path fill-rule="evenodd" clip-rule="evenodd" d="M30 30C30 30 30 27.9375 29.8281 26.8594C29.6875 26.0078 28.5078 24.8828 23.4922 23.0391C18.5547 21.2266 18.8594 22.1094 18.8594 18.7734C18.8594 16.6094 19.9609 17.8672 20.6641 13.7578C20.9375 12.1406 21.1562 13.2188 21.75 10.625C22.0625 9.26563 21.5391 9.16406 21.6016 8.51562C21.6641 7.86719 21.7266 7.28906 21.8438 5.96094C21.9844 4.32031 20.4609 0 15 0C9.53906 0 8.01563 4.32031 8.16406 5.96875C8.28125 7.28906 8.34375 7.875 8.40625 8.52344C8.46875 9.17187 7.94531 9.27344 8.25781 10.6328C8.85156 13.2188 9.07031 12.1406 9.34375 13.7656C10.0469 17.875 11.1484 16.6172 11.1484 18.7812C11.1484 22.125 11.4531 21.2422 6.51563 23.0469C1.5 24.8828 0.3125 26.0156 0.179687 26.8672C0 27.9375 0 30 0 30H15H30V30Z" fill="#D07979"/>
<mask id="mask0" mask-type="alpha" maskUnits="userSpaceOnUse" x="0" y="0" width="30" height="30">
<path fill-rule="evenodd" clip-rule="evenodd" d="M30 30C30 30 30 27.9375 29.8281 26.8594C29.6875 26.0078 28.5078 24.8828 23.4922 23.0391C18.5547 21.2266 18.8594 22.1094 18.8594 18.7734C18.8594 16.6094 19.9609 17.8672 20.6641 13.7578C20.9375 12.1406 21.1562 13.2188 21.75 10.625C22.0625 9.26563 21.5391 9.16406 21.6016 8.51562C21.6641 7.86719 21.7266 7.28906 21.8438 5.96094C21.9844 4.32031 20.4609 0 15 0C9.53906 0 8.01563 4.32031 8.16406 5.96875C8.28125 7.28906 8.34375 7.875 8.40625 8.52344C8.46875 9.17187 7.94531 9.27344 8.25781 10.6328C8.85156 13.2188 9.07031 12.1406 9.34375 13.7656C10.0469 17.875 11.1484 16.6172 11.1484 18.7812C11.1484 22.125 11.4531 21.2422 6.51563 23.0469C1.5 24.8828 0.3125 26.0156 0.179687 26.8672C0 27.9375 0 30 0 30H15H30V30Z" fill="white"/>
</mask>
<g mask="url(#mask0)">
<rect width="30" height="30" fill="#D07979"/>
</g>
</svg>
