<svg width="25" height="24" viewBox="0 0 25 24" fill="none" xmlns="http://www.w3.org/2000/svg">
<path fill-rule="evenodd" clip-rule="evenodd" d="M15.0152 19.6C15.0152 19.2686 15.2838 19 15.6152 19H19.0198C19.5726 19 20.0208 18.5523 20.0208 18V14.4C20.0208 14.1791 19.8415 14 19.6204 14H17.4181C17.197 14 17.0177 14.1791 17.0177 14.4V15C17.0177 16.1046 16.1214 17 15.0157 17H9.00958C7.90388 17 7.00754 16.1046 7.00754 15V14.4C7.00754 14.1791 6.82827 14 6.60713 14H4.40489C4.18375 14 4.00448 14.1791 4.00448 14.4V18C4.00448 18.5523 4.45265 19 5.0055 19H8.40905C8.74042 19 9.00905 19.2686 9.00905 19.6V20.4C9.00905 20.7314 8.74042 21 8.40905 21H5.0055C3.34696 21 2.00244 19.6569 2.00244 18V12C2.00244 11.7997 2.27599 10.5521 2.8231 8.25722C3.12714 7.4979 3.8633 7 4.68195 7H19.3428C20.1615 7 20.8976 7.4979 21.2017 8.25722C21.7491 10.5537 22.0228 11.8013 22.0228 12V18C22.0228 19.6569 20.6783 21 19.0198 21H15.6152C15.2838 21 15.0152 20.7314 15.0152 20.4V19.6ZM10.0101 19.6C10.0101 19.2686 10.2787 19 10.6101 19H13.4142C13.7455 19 14.0142 19.2686 14.0142 19.6V20.4C14.0142 20.7314 13.7455 21 13.4142 21H10.6101C10.2787 21 10.0101 20.7314 10.0101 20.4V19.6ZM5.17422 9H18.8503C19.1366 9 19.3831 9.20188 19.4393 9.48233L19.8954 11.7608C19.898 11.7737 19.8993 11.7868 19.8993 11.8C19.8993 11.9105 19.8097 12 19.6991 12H16.6172C15.7327 12 15.0156 12.7163 15.0156 13.6V14.6C15.0156 14.8209 14.8363 15 14.6152 15H9.40987C9.18873 15 9.00946 14.8209 9.00946 14.6V13.6C9.00946 12.7163 8.29239 12 7.40783 12C7.40783 12 4.29909 11.9987 4.28617 11.9961C4.17774 11.9745 4.10743 11.8691 4.12911 11.7608L4.58527 9.48233C4.64142 9.20188 4.88792 9 5.17422 9Z" fill="#7E7F9A"/>
</svg>
