<svg width="222" height="155" viewBox="0 0 222 155" fill="none" xmlns="http://www.w3.org/2000/svg">
<path d="M0 5C0 2.23858 2.23858 0 5 0H217C219.761 0 222 2.23858 222 5V155H0V5Z" fill="#FE5392"/>
<path d="M17.1842 137.342C17.1842 138.476 16.5542 139.214 15.1502 139.214H13.0442V135.524H15.1502C16.5542 135.524 17.1842 136.226 17.1842 137.342ZM10.5242 133.436V146H13.0442V141.104H14.2322L17.0042 146H19.9202L16.9142 140.906C18.9302 140.366 19.7762 138.818 19.7762 137.288C19.7762 135.182 18.2642 133.436 15.2402 133.436H10.5242ZM26.3395 137.936C27.6355 137.936 28.6795 138.764 28.7155 140.078H23.9815C24.1795 138.71 25.1335 137.936 26.3395 137.936ZM31.0735 142.868H28.3555C28.0315 143.534 27.4375 144.074 26.3575 144.074C25.0975 144.074 24.0895 143.246 23.9635 141.77H31.2535C31.3075 141.446 31.3255 141.122 31.3255 140.798C31.3255 137.828 29.2915 135.866 26.4115 135.866C23.4595 135.866 21.4075 137.864 21.4075 141.014C21.4075 144.146 23.5135 146.162 26.4115 146.162C28.8775 146.162 30.5335 144.704 31.0735 142.868ZM32.1029 136.028L35.7749 146H38.8349L42.5249 136.028H39.8429L37.3229 143.678L34.8029 136.028H32.1029ZM48.2242 137.936C49.5202 137.936 50.5642 138.764 50.6002 140.078H45.8662C46.0642 138.71 47.0182 137.936 48.2242 137.936ZM52.9582 142.868H50.2402C49.9162 143.534 49.3222 144.074 48.2422 144.074C46.9822 144.074 45.9742 143.246 45.8482 141.77H53.1382C53.1922 141.446 53.2102 141.122 53.2102 140.798C53.2102 137.828 51.1762 135.866 48.2962 135.866C45.3442 135.866 43.2922 137.864 43.2922 141.014C43.2922 144.146 45.3982 146.162 48.2962 146.162C50.7622 146.162 52.4182 144.704 52.9582 142.868ZM62.0336 146H64.5536V140.15C64.5536 137.396 62.8976 135.884 60.5756 135.884C59.2976 135.884 58.2176 136.424 57.5696 137.27V136.028H55.0496V146H57.5696V140.492C57.5696 138.89 58.4516 138.026 59.8196 138.026C61.1516 138.026 62.0336 138.89 62.0336 140.492V146ZM76.364 136.028H73.826V141.518C73.826 143.12 72.962 143.984 71.594 143.984C70.262 143.984 69.38 143.12 69.38 141.518V136.028H66.86V141.878C66.86 144.614 68.534 146.126 70.856 146.126C72.098 146.126 73.196 145.586 73.826 144.74V146H76.364V136.028ZM83.1344 137.936C84.4304 137.936 85.4744 138.764 85.5104 140.078H80.7764C80.9744 138.71 81.9284 137.936 83.1344 137.936ZM87.8684 142.868H85.1504C84.8264 143.534 84.2324 144.074 83.1524 144.074C81.8924 144.074 80.8844 143.246 80.7584 141.77H88.0484C88.1024 141.446 88.1204 141.122 88.1204 140.798C88.1204 137.828 86.0864 135.866 83.2064 135.866C80.2544 135.866 78.2024 137.864 78.2024 141.014C78.2024 144.146 80.3084 146.162 83.2064 146.162C85.6724 146.162 87.3284 144.704 87.8684 142.868Z" fill="white"/>
<path d="M86.6955 39.1994C86.5815 39.4918 86.1603 39.7375 85.9088 39.9071C85.5959 40.1148 85.2712 40.302 84.9495 40.4921C84.4669 40.7845 84.9056 41.5449 85.3911 41.2496C86.1545 40.7875 87.2015 40.3107 87.5437 39.4275C87.7455 38.9069 86.9003 38.6788 86.6955 39.1994Z" fill="white"/>
<path d="M69.9599 35.3976C69.6294 35.8158 69.3749 36.3481 69.6674 36.8599C69.9599 37.3717 70.4044 37.3425 70.8929 37.3776C70.8461 37.8338 70.5126 38.3106 70.4659 38.7493C70.4353 38.9435 70.4521 39.1422 70.5147 39.3285C70.5773 39.5149 70.684 39.6833 70.8256 39.8197C71.2146 40.2321 71.8346 39.6091 71.4485 39.1997C71.1181 38.8516 71.5714 38.1643 71.6767 37.8104C71.7762 37.5097 71.7963 37.1883 71.7352 36.8775C71.7152 36.8079 71.6779 36.7446 71.6267 36.6935C71.5755 36.6423 71.5122 36.605 71.4427 36.585C71.0449 36.5002 70.3167 36.6815 70.6092 36.0352C70.7759 35.6637 71.6123 34.9706 72.0101 35.3479C72.4078 35.7251 73.0425 35.1168 72.633 34.7278C71.7205 33.8767 70.5975 34.5904 69.9599 35.3976Z" fill="white"/>
<path d="M140.791 36.1816C140.25 36.3893 139.446 36.79 138.744 36.9157C139.294 36.3308 140.115 35.7839 140.668 35.6464C141.221 35.509 140.984 34.6637 140.434 34.8012C139.732 34.9767 139.241 35.4563 138.679 35.8804C138.191 36.1873 137.789 36.613 137.509 37.1175C137.476 37.1755 137.457 37.2403 137.452 37.307C137.448 37.3737 137.458 37.4405 137.483 37.5024C137.508 37.5644 137.547 37.6199 137.597 37.6646C137.646 37.7094 137.706 37.7424 137.77 37.761C138.475 37.9423 139.255 37.723 139.984 37.448C139.742 37.6735 139.524 37.9223 139.332 38.1909C139.039 38.6939 138.747 39.3111 138.747 39.9018C138.747 40.4926 139.647 40.4692 139.624 39.9018C139.568 38.4892 141.379 37.8984 141.352 36.6028C141.352 36.5349 141.336 36.468 141.305 36.4074C141.274 36.3468 141.23 36.2941 141.176 36.2534C141.122 36.2126 141.059 36.185 140.992 36.1725C140.925 36.1601 140.856 36.1632 140.791 36.1816V36.1816Z" fill="white"/>
<path d="M147.416 52.5766V50.4299C147.416 50.3136 147.37 50.202 147.288 50.1197C147.206 50.0374 147.094 49.9912 146.978 49.9912C146.861 49.9912 146.75 50.0374 146.668 50.1197C146.585 50.202 146.539 50.3136 146.539 50.4299V52.5766C146.539 52.693 146.585 52.8046 146.668 52.8868C146.75 52.9691 146.861 53.0153 146.978 53.0153C147.094 53.0153 147.206 52.9691 147.288 52.8868C147.37 52.8046 147.416 52.693 147.416 52.5766Z" fill="white"/>
<path d="M150.294 59.7427C150.161 59.742 150.029 59.7704 149.908 59.826C149.788 59.8816 149.681 59.963 149.595 60.0644C149.515 60.1486 149.471 60.26 149.471 60.3759C149.471 60.4917 149.515 60.6032 149.595 60.6874C149.678 60.7681 149.789 60.8133 149.905 60.8133C150.02 60.8133 150.132 60.7681 150.215 60.6874C150.232 60.6646 150.25 60.6431 150.27 60.623H150.294C150.41 60.623 150.522 60.5768 150.604 60.4945C150.686 60.4122 150.732 60.3007 150.732 60.1843C150.732 60.068 150.686 59.9564 150.604 59.8741C150.522 59.7918 150.41 59.7456 150.294 59.7456V59.7427Z" fill="white"/>
<path d="M68.5357 66.2144C68.4359 66.0016 68.2624 65.8323 68.0472 65.7377C67.7987 65.6496 67.5404 65.5916 67.278 65.5651C66.943 65.4809 66.6016 65.4242 66.2573 65.3955C65.6929 65.3955 65.6929 66.2729 66.2573 66.2729C66.6058 66.3108 66.9516 66.3704 67.2927 66.4513C67.5296 66.4864 67.8191 66.4747 67.7723 66.7847C67.7167 67.1591 68.1964 67.5978 68.5064 67.2117C68.6046 67.0909 68.6964 66.9649 68.7813 66.8345C68.8168 66.7797 68.8386 66.7172 68.8451 66.6523C68.8515 66.5873 68.8423 66.5218 68.8183 66.4611C68.7942 66.4005 68.756 66.3464 68.7069 66.3035C68.6577 66.2606 68.599 66.23 68.5357 66.2144V66.2144Z" fill="white"/>
<path d="M83.8833 55.9698L83.4943 56.3617C83.4128 56.4443 83.3672 56.5557 83.3672 56.6717C83.3672 56.7877 83.4128 56.8991 83.4943 56.9817C83.5776 57.0618 83.6887 57.1065 83.8043 57.1065C83.9199 57.1065 84.031 57.0618 84.1143 56.9817C84.243 56.8501 84.3746 56.7214 84.5033 56.5927C84.5442 56.552 84.5767 56.5037 84.5989 56.4504C84.6211 56.3971 84.6326 56.34 84.6328 56.2823C84.6329 56.2246 84.6217 56.1674 84.5997 56.114C84.5777 56.0607 84.5455 56.0121 84.5048 55.9712C84.4641 55.9303 84.4157 55.8979 84.3624 55.8756C84.3092 55.8534 84.252 55.8419 84.1943 55.8418C84.1366 55.8417 84.0794 55.8529 84.0261 55.8749C83.9727 55.8968 83.9242 55.9291 83.8833 55.9698V55.9698Z" fill="white"/>
<path d="M164.163 33.4784C164.062 33.4207 163.943 33.4049 163.83 33.4345C163.718 33.464 163.622 33.5366 163.563 33.6364L163.37 34.0253C163.313 34.1264 163.298 34.2454 163.327 34.3576C163.356 34.4698 163.427 34.5666 163.525 34.6278C163.626 34.6857 163.746 34.7015 163.858 34.672C163.971 34.6425 164.068 34.5699 164.127 34.4699L164.32 34.078C164.377 33.9772 164.393 33.8581 164.363 33.7461C164.334 33.6342 164.262 33.5381 164.163 33.4784V33.4784Z" fill="white"/>
<path d="M160.433 59.7427C160.316 59.7427 160.205 59.7889 160.123 59.8712C160.04 59.9534 159.994 60.065 159.994 60.1814C159.994 60.2977 160.04 60.4093 160.123 60.4916C160.205 60.5739 160.316 60.6201 160.433 60.6201C160.549 60.6201 160.661 60.5739 160.743 60.4916C160.825 60.4093 160.872 60.2977 160.872 60.1814C160.872 60.065 160.825 59.9534 160.743 59.8712C160.661 59.7889 160.549 59.7427 160.433 59.7427Z" fill="white"/>
<path d="M156.122 78.0015C156.057 78.3671 156.037 78.7385 155.984 79.107C155.94 79.4258 155.908 79.9201 155.648 80.1482C155.227 80.5255 155.85 81.1426 156.271 80.7682C156.935 80.1833 156.827 79.031 156.967 78.2354C157.055 77.6827 156.209 77.4458 156.122 78.0015Z" fill="white"/>
<path d="M139.629 73.7104C139.494 73.6724 139.359 73.6227 139.222 73.5905C139.198 73.5845 139.175 73.5746 139.155 73.5613C139.225 73.6286 138.953 73.6227 139.155 73.5613C139.131 73.5436 139.105 73.5279 139.079 73.5145C139.107 73.5262 139.133 73.5409 139.158 73.5584C139.293 73.4685 139.423 73.3708 139.547 73.2659C139.691 73.1804 139.842 73.1051 139.997 73.0407C140.515 72.8184 140.067 72.0638 139.553 72.2832C138.968 72.5347 137.856 73.1606 138.336 73.962C138.569 74.2586 138.905 74.4561 139.278 74.5147C139.596 74.6054 139.974 74.6025 139.921 75.0002C139.851 75.5588 140.728 75.5559 140.798 75.0002C140.886 74.2193 140.281 73.8801 139.629 73.7104Z" fill="white"/>
<path d="M78.0338 87.9481C77.7969 88.1645 77.2705 88.0212 76.978 88.0124C76.4136 88.0124 76.4136 88.8898 76.978 88.8898C77.5425 88.8898 78.1742 89.0097 78.6539 88.5681C79.075 88.185 78.4521 87.5649 78.0338 87.9481Z" fill="white"/>
<path d="M112.721 75.5767H116.491L122.992 12H106.219L112.721 75.5767Z" fill="url(#paint0_linear)"/>
<path d="M116.491 90.9956H112.721L106.219 154.572H122.992L116.491 90.9956Z" fill="url(#paint1_linear)"/>
<path d="M108.563 55.5515C108.563 55.5515 107.153 53.0363 105.392 54.1125C102.529 55.8674 103.444 59.8157 103.444 59.8157L104.103 58.0609C104.103 58.0609 103.225 60.8393 104.614 62.7404L104.468 60.9124C104.468 60.9124 105.565 63.5446 107.539 63.8371C109.513 64.1296 109.806 64.1296 110.025 65.2995C110.244 66.4693 108.639 67.2473 109.148 67.1654C110.938 66.8729 110.756 64.6063 110.756 64.6063L111.049 66.25C111.049 66.25 113.315 61.863 113.169 59.8157C113.086 58.5985 112.71 57.4194 112.072 56.3792L113.242 56.8179C113.242 56.8179 109.733 51.2376 108.563 55.5515Z" fill="#333333"/>
<path d="M106.836 61.6524C105.897 59.9561 104.469 58.0609 107.807 56.3061C108.345 56.0136 109.617 56.2417 110.123 56.2213C110.474 56.2213 110.515 56.5781 110.831 56.6278C112.258 56.8838 113.543 57.655 114.44 58.795C114.44 58.795 112.325 62.0121 118.607 66.1242C119.341 66.6039 114.1 74.8135 113.583 71.7747C111.828 61.4272 107.4 62.6702 106.836 61.6524Z" fill="#935C3B"/>
<path d="M112.291 57.3325C112.291 57.3325 111.267 57.04 110.127 58.5462C110.099 58.5796 110.081 58.6191 110.072 58.6614C110.064 58.7037 110.066 58.7475 110.078 58.7888C110.091 58.8301 110.113 58.8677 110.143 58.8983C110.174 58.929 110.211 58.9517 110.252 58.9644C110.976 59.1957 111.752 59.2089 112.484 59.0025C113.97 58.4731 112.291 57.3325 112.291 57.3325Z" fill="#D84744"/>
<path d="M110.254 58.9499C110.254 58.9499 110.254 58.9499 110.236 58.9499C110.452 58.7946 110.711 58.7117 110.976 58.713C111.152 58.7109 111.326 58.7467 111.486 58.8178C111.647 58.889 111.79 58.9939 111.906 59.1254C111.349 59.1731 110.788 59.1135 110.254 58.9499V58.9499Z" fill="#822A2A"/>
<path d="M110.343 58.7687C110.343 58.7687 111.343 57.7948 112.413 57.6954C112.413 57.6954 111.44 57.9878 112.463 58.0142C112.463 58.0142 112.756 57.8679 112.609 57.6223C112.518 57.5346 112.42 57.4535 112.317 57.3795C112.252 57.3298 112.17 57.3068 112.089 57.3152C111.683 57.3473 111.298 57.5043 110.985 57.7646C110.672 58.0249 110.448 58.3757 110.343 58.7687V58.7687Z" fill="#EEF9F9"/>
<path d="M112.969 58.7013C112.829 58.8299 112.662 58.9249 112.48 58.9792C112.29 59.0419 112.094 59.0841 111.895 59.1049V59.1049C111.895 59.1049 111.732 58.9587 111.933 58.7744C112.087 58.6787 112.262 58.6219 112.442 58.6092C112.622 58.5965 112.803 58.6281 112.969 58.7013Z" fill="#EEF9F9"/>
<path d="M112.479 58.9878C112.033 59.1295 111.562 59.1724 111.098 59.1135C111.381 58.9715 111.694 58.8993 112.011 58.903C112.188 58.9029 112.365 58.9245 112.537 58.9673L112.479 58.9878Z" fill="#FFABAB"/>
<path d="M114.573 62.0793C114.324 64.4805 115.678 69.7595 116 70.9704L115.871 71.1195L113.163 69.704C111.929 64.5858 109.946 63.0971 108.51 62.4566C109.054 62.208 109.612 61.9448 110.171 61.6699C113.534 60.0116 114.438 58.7803 114.438 58.7803C114.438 58.7803 113.59 60.0818 114.573 62.0793Z" fill="#7E4929"/>
<path d="M106.809 61.1579C106.809 61.1579 106.101 61.3275 106.636 62.0587C107.171 62.7898 108.83 62.8132 108.417 61.889C108.005 60.9648 106.809 61.1579 106.809 61.1579Z" fill="#935C3B"/>
<path d="M109.002 57.5491C109.002 57.5491 107.613 56.891 107.209 58.6458C107.34 58.2875 107.589 57.9841 107.914 57.785C108.24 57.5859 108.623 57.5027 109.002 57.5491Z" fill="#3F2C2C"/>
<path d="M108.418 57.1105C108.418 57.1105 106.467 56.5987 106.663 58.4032C106.757 58.0159 106.985 57.6741 107.305 57.4377C107.626 57.2014 108.02 57.0855 108.418 57.1105V57.1105Z" fill="#333333"/>
<path d="M110.33 56.1976C110.33 56.1976 109.233 56.2444 109.16 56.8556C109.169 56.8556 109.002 55.5775 110.33 56.1976Z" fill="#333333"/>
<path d="M109.686 57.0405C109.686 57.0405 109.537 56.242 110.926 56.7305C110.926 56.748 110.037 56.5755 109.686 57.0405Z" fill="#3F2C2C"/>
<path d="M110.517 57.075L110.748 56.8615C110.748 56.8615 110.646 56.5983 110.026 56.8381C109.697 56.9819 109.33 57.0138 108.982 56.9288L110.116 57.7506L110.517 57.075Z" fill="#935C3B"/>
<path d="M111.102 57.1663L110.748 56.8739C110.715 56.8456 110.676 56.826 110.634 56.8169C110.592 56.8077 110.549 56.8094 110.508 56.8216C110.466 56.8339 110.429 56.8564 110.399 56.887C110.369 56.9176 110.347 56.9553 110.335 56.9967L110.116 57.763C110.372 57.4637 110.718 57.2545 111.102 57.1663V57.1663Z" fill="#7E4929"/>
<path d="M106.956 61.48C106.956 61.48 106.844 62.1556 107.795 62.1556C107.795 62.1556 107.339 61.9567 107.429 61.7724C107.52 61.5882 107.777 61.6087 107.777 61.6087C107.777 61.6087 107.301 61.5706 107.266 61.6818C107.243 61.7646 107.237 61.8511 107.248 61.9362L106.956 61.48Z" fill="#7E4929"/>
<path d="M108.16 60.986C108.16 60.986 106.698 60.8047 106.552 59.781C106.165 59.6511 105.812 59.4385 105.516 59.1581C105.063 58.7281 106.297 61.5358 106.297 61.5358C106.297 61.5358 106.59 61.024 107.906 61.6089L108.16 60.986Z" fill="#333333"/>
<path d="M105.875 26.9156C105.503 27.638 104.456 27.5005 103.751 26.9682C103.447 26.7315 103.215 26.4142 103.082 26.0524C102.948 25.6906 102.919 25.2986 102.997 24.921C103.289 23.0813 105.451 22.2887 107.457 23.2159C110.019 24.4179 110.654 26.8805 110.724 29.0652C110.759 30.1415 110.294 32.1069 111.935 32.6041C112.97 32.917 113.491 32.066 113.716 31.3787C113.865 30.9166 113.844 30.2088 113.113 30.0333C112.382 29.8578 111.894 30.6563 112.771 30.6387C112.727 30.8932 112.686 31.1476 112.642 31.4021L112.49 31.3231C111.905 31.0306 112.429 30.3492 112.999 30.6416L113.151 30.7206C113.232 30.7573 113.297 30.8194 113.339 30.8973C113.38 30.9753 113.395 31.0647 113.38 31.1517C113.365 31.2387 113.322 31.3184 113.258 31.3785C113.193 31.4385 113.11 31.4756 113.023 31.484C112.335 31.484 111.426 31.3172 111.215 30.6065C111.019 29.9397 111.677 29.308 112.356 29.1705C112.761 29.1058 113.176 29.1559 113.554 29.3152C113.932 29.4744 114.257 29.7363 114.494 30.0713C115.041 30.8756 114.71 31.7969 114.269 32.4871C114.057 32.865 113.731 33.166 113.337 33.3468C112.943 33.5275 112.503 33.5788 112.078 33.4932C111.624 33.4303 111.193 33.255 110.823 32.9833C110.454 32.7116 110.159 32.3521 109.963 31.9373C109.548 30.9809 109.75 29.928 109.721 28.9658C109.68 27.6585 109.516 26.1903 108.504 25.0496C107.574 23.9997 105.755 23.0813 104.55 24.0494C104.356 24.2154 104.2 24.4219 104.094 24.6542C103.988 24.8866 103.934 25.1393 103.936 25.3948C103.921 25.6445 103.981 25.8928 104.108 26.1084C104.178 26.2078 104.851 26.6933 104.907 26.5968C105.149 26.1201 106.106 26.4359 105.86 26.9156H105.875Z" fill="#E5A920"/>
<path d="M97.5306 37.0118L99.1889 32.0691L99.7182 30.4898L101.365 25.5442C101.441 25.4036 101.565 25.2945 101.714 25.236C101.863 25.1776 102.028 25.1734 102.18 25.2244C102.332 25.2753 102.461 25.3781 102.544 25.5146C102.628 25.6512 102.661 25.8128 102.637 25.9712L102.62 26.0297C103.797 26.4053 104.818 27.1588 105.524 28.1734C106.015 28.8899 106.346 29.7039 106.495 30.56C106.697 31.8264 107.703 32.9641 109.127 33.4379L109.218 33.4701C110.109 33.7793 111.081 33.7711 111.967 33.4467L112.914 33.0781C113.349 32.9228 113.825 32.9228 114.26 33.0781L113.567 35.143L113.037 36.7223L112.347 38.7871C111.908 38.6452 111.53 38.3559 111.28 37.9682L110.744 37.0908C110.233 36.2978 109.463 35.7058 108.565 35.415L108.475 35.3857C107.059 34.9119 105.571 35.2132 104.646 36.1023C104.012 36.6944 103.258 37.1442 102.435 37.4213C101.259 37.8039 99.9903 37.7895 98.8233 37.3804V37.3804L98.8028 37.4388C98.7262 37.5794 98.6025 37.6885 98.4534 37.747C98.3044 37.8054 98.1395 37.8096 97.9877 37.7586C97.8359 37.7077 97.7069 37.6049 97.6233 37.4684C97.5398 37.3318 97.5069 37.1702 97.5306 37.0118V37.0118Z" fill="#E5A920"/>
<path d="M106.477 32.8061C105.992 32.3148 105.17 31.1917 104.702 30.6536C103.985 29.8699 103.092 29.2683 102.096 28.8988C101.97 28.8491 98.9227 37.5061 98.7911 37.4622L101.716 28.7584L101.73 28.7145C101.804 28.4922 101.581 28.2173 101.227 28.1003C100.873 27.9833 100.534 28.0652 100.458 28.2875L101.365 25.5442C101.441 25.4036 101.565 25.2945 101.714 25.236C101.863 25.1776 102.028 25.1734 102.18 25.2244C102.332 25.2753 102.461 25.3781 102.544 25.5146C102.628 25.6512 102.661 25.8128 102.637 25.9712L102.62 26.0297C103.797 26.4053 104.818 27.1588 105.524 28.1734C106.015 28.8899 106.346 29.7039 106.495 30.56C106.697 31.8264 107.703 32.9641 109.127 33.4379L109.218 33.4701C110.109 33.7793 111.081 33.7711 111.967 33.4467L112.914 33.0781C113.349 32.9228 113.825 32.9228 114.26 33.0781L113.572 35.1254C112.875 34.9605 112.168 34.8394 111.455 34.7628C111.455 34.7628 107.279 33.6192 106.477 32.8061Z" fill="#C68D1A"/>
<path d="M101.949 38.6289C102.089 37.8305 101.162 37.3187 100.287 37.307C99.8987 37.3106 99.5189 37.4239 99.1918 37.634C98.8648 37.8441 98.6038 38.1424 98.439 38.4944C97.5616 40.141 98.7987 42.083 100.969 42.5422C103.741 43.1271 105.73 41.5419 107.111 39.8398C107.798 39.0033 108.599 37.152 110.208 37.7369C111.223 38.1113 111.126 39.1057 110.892 39.7842C110.734 40.2434 110.307 40.7844 109.6 40.4978C108.892 40.2112 109.015 39.2695 109.705 39.8134L110.062 39.1291L109.892 39.0969C109.257 38.9887 109.257 39.8368 109.892 39.948L110.062 39.9772C110.148 39.9964 110.238 39.9865 110.318 39.9492C110.398 39.9118 110.464 39.8491 110.504 39.7707C110.545 39.6923 110.559 39.6027 110.543 39.5157C110.528 39.4288 110.484 39.3494 110.418 39.2899C109.88 38.8658 109.044 38.4593 108.447 38.9009C107.851 39.3426 108.032 40.2171 108.494 40.7347C108.777 41.0306 109.138 41.2409 109.535 41.3417C109.932 41.4426 110.35 41.4298 110.74 41.305C111.664 40.9921 111.954 40.0562 112.018 39.2402C112.077 38.8108 111.998 38.3739 111.792 37.9923C111.587 37.6107 111.266 37.3042 110.875 37.1169C110.473 36.8931 110.022 36.7729 109.563 36.7673C109.103 36.7617 108.649 36.8708 108.242 37.0847C107.336 37.5965 106.862 38.5471 106.26 39.3075C105.438 40.3282 104.423 41.4015 102.928 41.6999C101.554 41.9923 99.5503 41.615 99.1731 40.1176C99.116 39.8682 99.1149 39.6092 99.1701 39.3594C99.2252 39.1095 99.3351 38.875 99.4918 38.6728C99.6315 38.4657 99.8287 38.304 100.059 38.2078C100.173 38.1698 101.01 38.1785 100.989 38.2985C100.899 38.8249 101.849 39.1495 101.943 38.6173L101.949 38.6289Z" fill="#E5A920"/>
<path d="M104.4 30.5982C104.4 30.5982 104.599 30.2852 104.418 30.0512C104.237 29.8173 103.698 29.867 103.701 29.8787C103.987 30.0611 104.226 30.3074 104.4 30.5982V30.5982Z" fill="#EFB135"/>
<path d="M103.804 30.3936C103.984 30.4981 104.183 30.5676 104.389 30.5984C104.219 30.3093 103.985 30.0631 103.704 29.8789C103.704 29.8789 103.599 30.2269 103.804 30.3936Z" fill="#FCC34F"/>
<path d="M104.385 30.6475C104.361 30.8348 104.266 31.0056 104.119 31.1242C103.958 31.1938 103.78 31.2171 103.607 31.1915C103.827 30.9596 104.091 30.7746 104.385 30.6475V30.6475Z" fill="#FCC34F"/>
<path d="M103.774 30.668C103.865 30.6129 103.97 30.5821 104.076 30.5785C104.183 30.5749 104.29 30.5987 104.385 30.6476C104.091 30.7747 103.827 30.9597 103.607 31.1916C103.595 31.0974 103.604 31.0019 103.633 30.9115C103.661 30.8211 103.709 30.738 103.774 30.668V30.668Z" fill="#EFB135"/>
<path d="M103.618 30.5132C103.618 30.5132 103.735 30.1535 103.493 30.0131C103.25 29.8727 102.709 30.1418 102.718 30.1535C103.045 30.1888 103.357 30.3132 103.618 30.5132V30.5132Z" fill="#EFB135"/>
<path d="M102.959 30.5715C103.18 30.5888 103.403 30.569 103.617 30.5131C103.355 30.313 103.044 30.1886 102.716 30.1533C102.716 30.1533 102.705 30.5072 102.959 30.5715Z" fill="#FCC34F"/>
<path d="M103.615 30.5659C103.639 30.7553 103.588 30.9464 103.472 31.0982C103.328 31.2246 103.157 31.3166 102.972 31.3673C103.139 31.065 103.356 30.7938 103.615 30.5659V30.5659Z" fill="#FCC34F"/>
<path d="M103.001 30.8292C103.077 30.7425 103.172 30.6739 103.278 30.6283C103.385 30.5828 103.5 30.5615 103.615 30.566C103.356 30.794 103.138 31.0651 102.972 31.3674C102.933 31.2819 102.916 31.1884 102.921 31.0947C102.926 31.0011 102.953 30.91 103.001 30.8292V30.8292Z" fill="#EFB135"/>
<path d="M102.798 30.7558C102.798 30.7558 102.822 30.3844 102.532 30.3639C102.243 30.3434 101.751 30.8377 101.76 30.8494C102.091 30.7234 102.45 30.691 102.798 30.7558V30.7558Z" fill="#EFB135"/>
<path d="M102.129 31.1037C102.366 31.0165 102.591 30.8995 102.799 30.7557C102.451 30.6909 102.091 30.7233 101.761 30.8493C101.776 30.9316 101.824 31.0045 101.893 31.0521C101.962 31.0997 102.047 31.1182 102.129 31.1037V31.1037Z" fill="#FCC34F"/>
<path d="M102.81 30.8027C102.849 30.8871 102.869 30.9789 102.869 31.0718C102.869 31.1647 102.849 31.2565 102.81 31.3409C102.688 31.5232 102.535 31.6835 102.359 31.8147C102.456 31.4558 102.608 31.1143 102.81 30.8027V30.8027Z" fill="#FCC34F"/>
<path d="M102.243 31.3175C102.362 31.0816 102.564 30.8982 102.811 30.8027C102.607 31.1141 102.454 31.4556 102.357 31.8147C102.291 31.7526 102.245 31.6721 102.224 31.5835C102.204 31.4949 102.21 31.4023 102.243 31.3175V31.3175Z" fill="#EFB135"/>
<path d="M105.885 32.5984C105.982 32.5922 106.073 32.5523 106.144 32.4855C106.215 32.4187 106.259 32.3293 106.271 32.2328C106.305 31.9142 106.235 31.5931 106.072 31.3174C106.074 31.7514 106.011 32.1832 105.885 32.5984V32.5984Z" fill="#EFB135"/>
<path d="M105.751 31.7795C105.76 32.0561 105.801 32.3308 105.871 32.5984C105.998 32.1832 106.061 31.7514 106.059 31.3174C105.971 31.3607 105.897 31.4263 105.843 31.5074C105.789 31.5885 105.758 31.6823 105.751 31.7795Z" fill="#FCC34F"/>
<path d="M105.842 32.6163C105.842 32.6163 105.579 32.7977 105.4 32.6368C105.277 32.4822 105.185 32.3055 105.128 32.1162C105.411 32.2065 105.66 32.381 105.842 32.6163Z" fill="#FCC34F"/>
<path d="M105.561 31.9344C105.795 32.0426 105.854 32.6129 105.854 32.6158C105.672 32.3805 105.423 32.206 105.14 32.1157C105.14 32.1157 105.342 31.8232 105.561 31.9344Z" fill="#EFB135"/>
<path d="M105.598 31.6625C105.688 31.62 105.763 31.5523 105.815 31.4677C105.867 31.383 105.893 31.2851 105.89 31.1858C105.845 30.9053 105.69 30.6541 105.46 30.4868C105.573 30.8681 105.619 31.2657 105.598 31.6625V31.6625Z" fill="#EFB135"/>
<path d="M105.275 31.0103C105.352 31.2387 105.46 31.4553 105.597 31.6538C105.617 31.2588 105.571 30.8633 105.459 30.4839C105.39 30.551 105.336 30.6336 105.304 30.7251C105.272 30.8166 105.262 30.9143 105.275 31.0103V31.0103Z" fill="#FCC34F"/>
<path d="M105.562 31.695C105.562 31.695 105.349 31.967 105.133 31.9114C104.916 31.8558 104.741 31.5955 104.735 31.5955C105.015 31.5487 105.302 31.5832 105.562 31.695Z" fill="#FCC34F"/>
<path d="M105.117 31.2417C105.374 31.2417 105.573 31.6921 105.564 31.695C105.305 31.5793 105.017 31.5407 104.736 31.5839C104.736 31.5839 104.877 31.2388 105.117 31.2417Z" fill="#EFB135"/>
<path d="M105.083 30.9868C105.155 30.9193 105.208 30.8339 105.236 30.7394C105.265 30.6449 105.267 30.5445 105.244 30.4486C105.139 30.1269 104.645 29.9865 104.645 29.9982C104.854 30.2961 105.003 30.6318 105.083 30.9868V30.9868Z" fill="#EFB135"/>
<path d="M104.601 30.5513C104.734 30.7254 104.897 30.8731 105.084 30.9871C105.003 30.6322 104.854 30.2964 104.645 29.9985C104.595 30.0806 104.564 30.1735 104.557 30.2696C104.549 30.3657 104.564 30.4623 104.601 30.5513V30.5513Z" fill="#FCC34F"/>
<path d="M105.053 31.0308C105.053 31.0308 104.912 31.3583 104.687 31.3993C104.519 31.4041 104.353 31.3593 104.21 31.2706C104.468 31.1253 104.757 31.0431 105.053 31.0308Z" fill="#FCC34F"/>
<path d="M104.499 30.8114C104.753 30.7091 105.066 31.0249 105.054 31.0308C104.759 31.0431 104.47 31.1253 104.212 31.2706C104.212 31.2706 104.256 30.9079 104.499 30.8114Z" fill="#EFB135"/>
<path d="M102.992 34.813C102.992 34.813 102.96 35.1815 102.676 35.2605C102.393 35.3394 101.992 34.968 102.001 34.968C102.339 34.9947 102.678 34.9416 102.992 34.813V34.813Z" fill="#EFB135"/>
<path d="M102.393 34.6079C102.603 34.6339 102.807 34.7005 102.992 34.8039C102.678 34.9315 102.339 34.9836 102.001 34.9559C102.001 34.9559 102.129 34.6196 102.393 34.6079Z" fill="#FCC34F"/>
<path d="M103.008 34.7543C103.1 34.5896 103.125 34.3959 103.079 34.2132C102.993 34.0605 102.867 33.9348 102.713 33.8506C102.75 34.1686 102.85 34.476 103.008 34.7543V34.7543Z" fill="#FCC34F"/>
<path d="M102.535 34.3683C102.599 34.6607 103.012 34.766 103.012 34.7543C102.855 34.4757 102.755 34.1684 102.719 33.8506C102.653 33.9183 102.602 33.9997 102.57 34.0891C102.538 34.1785 102.526 34.2738 102.535 34.3683Z" fill="#EFB135"/>
<path d="M102.316 34.3999C102.316 34.3999 102.191 34.7568 101.913 34.7217C101.635 34.6866 101.366 34.1367 101.378 34.1367C101.662 34.3057 101.986 34.3965 102.316 34.3999V34.3999Z" fill="#EFB135"/>
<path d="M101.825 33.9555C102.013 34.0742 102.18 34.2246 102.316 34.4001C101.986 34.3985 101.662 34.3097 101.378 34.1427C101.378 34.1427 101.582 33.8561 101.825 33.9555Z" fill="#FCC34F"/>
<path d="M102.345 34.3561C102.476 34.2179 102.551 34.035 102.553 33.8443C102.512 33.6567 102.431 33.4801 102.316 33.3267C102.265 33.6689 102.275 34.0174 102.345 34.3561Z" fill="#FCC34F"/>
<path d="M102.01 33.7746C102.018 33.8909 102.052 34.0039 102.11 34.1052C102.168 34.2065 102.248 34.2934 102.344 34.3596C102.273 34.0208 102.263 33.6723 102.315 33.3301C102.232 33.3744 102.161 33.4379 102.108 33.5153C102.055 33.5926 102.022 33.6816 102.01 33.7746Z" fill="#EFB135"/>
<path d="M101.807 33.7132C101.807 33.7132 101.602 34.0232 101.359 33.8652C101.116 33.7073 101.02 33.0142 101.035 33.0112C101.223 33.3112 101.49 33.5539 101.807 33.7132V33.7132Z" fill="#EFB135"/>
<path d="M101.482 33.0313C101.618 33.244 101.727 33.4729 101.807 33.7128C101.49 33.5535 101.223 33.3108 101.035 33.0109C101.065 32.9827 101.101 32.9609 101.14 32.9467C101.179 32.9325 101.221 32.9262 101.263 32.9281C101.304 32.93 101.345 32.9401 101.383 32.9578C101.42 32.9755 101.454 33.0005 101.482 33.0313V33.0313Z" fill="#FCC34F"/>
<path d="M101.845 33.6808C101.928 33.6376 102 33.5767 102.056 33.5023C102.112 33.428 102.151 33.3421 102.17 33.2508C102.18 33.0317 102.154 32.8125 102.094 32.6016C101.954 32.9458 101.87 33.3101 101.845 33.6808Z" fill="#FCC34F"/>
<path d="M101.702 32.9291C101.656 33.1888 101.707 33.4562 101.845 33.6808C101.87 33.3101 101.954 32.9458 102.094 32.6016C102.003 32.6116 101.918 32.648 101.848 32.7063C101.779 32.7645 101.728 32.842 101.702 32.9291V32.9291Z" fill="#EFB135"/>
<path d="M105.381 34.1016C105.454 34.1652 105.503 34.2524 105.518 34.348C105.534 34.4436 105.515 34.5416 105.466 34.6251C105.303 34.9008 105.055 35.1156 104.758 35.2363C105.021 34.8912 105.231 34.5087 105.381 34.1016V34.1016Z" fill="#EFB135"/>
<path d="M104.79 34.6811C104.963 34.4651 105.159 34.2689 105.375 34.0962C105.225 34.5033 105.015 34.8858 104.752 35.231C104.71 35.1439 104.691 35.0474 104.698 34.951C104.705 34.8546 104.736 34.7616 104.79 34.6811V34.6811Z" fill="#FCC34F"/>
<path d="M105.355 34.064C105.355 34.064 105.256 33.7715 105.016 33.7715C104.825 33.8187 104.645 33.9043 104.487 34.023C104.766 34.1244 105.068 34.1387 105.355 34.064V34.064Z" fill="#FCC34F"/>
<path d="M104.721 34.4383C104.975 34.4909 105.364 34.0698 105.355 34.0639C105.066 34.1433 104.76 34.1321 104.478 34.0317C104.478 34.0317 104.481 34.3915 104.721 34.4383Z" fill="#EFB135"/>
<path d="M104.585 34.6777C104.628 34.7659 104.646 34.8647 104.636 34.9626C104.625 35.0605 104.587 35.1535 104.526 35.2305C104.321 35.4244 104.048 35.5295 103.766 35.523C104.084 35.289 104.361 35.0033 104.585 34.6777V34.6777Z" fill="#EFB135"/>
<path d="M103.942 34.9936C104.138 34.8562 104.354 34.7496 104.582 34.6777C104.359 35.0054 104.082 35.2931 103.763 35.5288C103.748 35.4318 103.756 35.3326 103.787 35.2394C103.818 35.1462 103.871 35.0619 103.942 34.9936V34.9936Z" fill="#FCC34F"/>
<path d="M104.582 34.6283C104.582 34.6283 104.582 34.2832 104.371 34.1984C104.201 34.1597 104.023 34.1668 103.857 34.2189C104.055 34.4213 104.306 34.5633 104.582 34.6283Z" fill="#FCC34F"/>
<path d="M103.949 34.7218C104.154 34.8768 104.587 34.637 104.578 34.6282C104.303 34.5657 104.052 34.4268 103.853 34.2275C103.853 34.2275 103.753 34.5756 103.949 34.7218Z" fill="#EFB135"/>
<path d="M103.769 34.9028C103.786 35.0001 103.776 35.0999 103.742 35.1923C103.708 35.2847 103.65 35.3665 103.574 35.4293C103.456 35.4845 103.329 35.5131 103.199 35.5131C103.07 35.5131 102.942 35.4845 102.825 35.4293C103.172 35.3182 103.493 35.1393 103.769 34.9028V34.9028Z" fill="#EFB135"/>
<path d="M103.12 34.9613C103.331 34.9014 103.551 34.8816 103.77 34.9028C103.493 35.1378 103.173 35.3158 102.828 35.4263C102.835 35.3308 102.865 35.2384 102.916 35.1573C102.967 35.0762 103.037 35.0089 103.12 34.9613Z" fill="#FCC34F"/>
<path d="M103.772 34.8504C103.796 34.7644 103.803 34.6742 103.791 34.5856C103.779 34.4969 103.748 34.4118 103.701 34.3356C103.57 34.2307 103.41 34.1675 103.242 34.1543C103.361 34.4253 103.542 34.6639 103.772 34.8504V34.8504Z" fill="#FCC34F"/>
<path d="M103.196 34.6924C103.34 34.9264 103.781 34.8621 103.781 34.8504C103.552 34.6639 103.37 34.4253 103.252 34.1543C103.252 34.1543 103.062 34.4702 103.196 34.6924Z" fill="#EFB135"/>
<path d="M111.073 41.4607L114.861 30.1577L116.736 30.786L112.947 42.089L111.073 41.4607Z" fill="#846C5D"/>
<path d="M120.473 30.4671L115.736 44.5986L111.588 43.2081L116.324 29.0766L120.473 30.4671Z" fill="#846C5D"/>
<path d="M118.571 32.445L115.412 41.8706L113.152 41.1131L116.311 31.6875L118.571 32.445Z" fill="#FCC34F"/>
<path d="M100.87 77.8989C101.758 77.7114 102.552 77.2138 103.107 76.4951L105.005 79.1682L106.76 71.76C107.283 69.6689 109.568 68.0135 111.773 66.8641C116.716 68.3264 116.552 63.8429 116.452 62.9596C117.409 57.1805 113.174 52.2641 109.471 47.6401L113.633 46.2188C129.397 60.6082 130.854 84.5321 130.854 84.5321L111.735 87.369C114.706 83.8097 111.343 81.8619 113.045 81.663C113.405 81.622 112.527 80.9201 112.46 80.5925C112.393 80.265 112.767 80.031 112.68 79.7561C112.287 78.4817 111.554 77.3389 110.559 76.4512C110.448 85.6932 104.613 87.758 104.613 87.758L100.87 77.8989Z" fill="#40A9FD"/>
<path d="M115.201 69.3589C115.283 69.3214 115.378 69.3175 115.463 69.348C115.549 69.3786 115.619 69.4412 115.66 69.5227C115.707 69.6777 115.578 69.8532 115.367 69.9175C115.284 69.954 115.19 69.9571 115.104 69.9261C115.019 69.895 114.949 69.8323 114.908 69.7508C114.896 69.6603 114.92 69.5687 114.975 69.4955C115.029 69.4223 115.11 69.3733 115.201 69.3589V69.3589ZM116.101 71.7981C116.1 71.7103 116.128 71.6246 116.18 71.5538C116.232 71.483 116.305 71.4308 116.389 71.4051C116.473 71.3795 116.563 71.3816 116.645 71.4114C116.728 71.4411 116.799 71.4967 116.847 71.5699C116.894 71.7249 116.768 71.9004 116.555 71.9648C116.472 71.9989 116.38 72.0007 116.296 71.9698C116.212 71.9389 116.142 71.8776 116.101 71.7981V71.7981ZM116.283 74.3542C116.499 74.3542 116.675 74.4829 116.675 74.6467C116.675 74.8105 116.499 74.9392 116.283 74.9392C116.066 74.9392 115.894 74.8076 115.894 74.6467C115.894 74.4858 116.078 74.3542 116.283 74.3542ZM116.575 76.7086C116.645 76.7628 116.695 76.8384 116.718 76.9238C116.741 77.0091 116.736 77.0997 116.703 77.1817C116.67 77.2637 116.611 77.3327 116.535 77.3782C116.459 77.4238 116.371 77.4433 116.283 77.4339C116.205 77.387 116.148 77.3119 116.124 77.2242C116.1 77.1366 116.111 77.0431 116.154 76.9631C116.176 76.8735 116.233 76.7964 116.312 76.7486C116.391 76.7009 116.486 76.6865 116.575 76.7086V76.7086ZM118.371 78.6447C118.404 78.6236 118.441 78.6094 118.48 78.603C118.519 78.5966 118.559 78.5981 118.597 78.6075C118.636 78.6169 118.672 78.6339 118.703 78.6576C118.735 78.6812 118.761 78.7111 118.781 78.7452C118.801 78.7794 118.813 78.8171 118.818 78.8563C118.823 78.8955 118.82 78.9352 118.809 78.9731C118.798 79.0109 118.779 79.0462 118.754 79.0767C118.729 79.1073 118.698 79.1324 118.663 79.1507C118.63 79.1719 118.593 79.1861 118.554 79.1925C118.515 79.1989 118.475 79.1974 118.437 79.188C118.399 79.1786 118.363 79.1616 118.331 79.1379C118.299 79.1142 118.273 79.0844 118.253 79.0503C118.234 79.0161 118.221 78.9783 118.216 78.9392C118.211 78.9 118.215 78.8603 118.226 78.8224C118.237 78.7845 118.255 78.7493 118.28 78.7187C118.305 78.6882 118.336 78.663 118.371 78.6447Z" fill="#6ABDFF"/>
<path d="M118.59 81.4521L118.66 81.1596C118.04 81.0046 118.002 79.6973 118.04 79.1942V79.1387L117.25 78.115L117.218 78.0975C117.201 78.0975 115.463 77.2961 115.045 77.0124C114.949 76.9013 115.218 76.1496 115.417 75.5998C115.753 74.6581 116.174 73.4853 116.133 72.523C116.103 71.9925 115.953 71.4757 115.694 71.0116C115.435 70.5475 115.074 70.1483 114.639 69.844L115.089 68.8613L114.94 68.8087C114.544 68.665 114.165 68.4766 113.811 68.2472C113.794 68.2357 113.781 68.2204 113.771 68.2026C113.761 68.1848 113.756 68.165 113.755 68.1448C113.755 67.9927 113.989 67.7587 114.104 67.671L113.925 67.4399C113.878 67.478 113.466 67.8055 113.463 68.1419C113.463 68.2065 113.478 68.2703 113.507 68.3282C113.536 68.386 113.578 68.4364 113.63 68.4753C113.959 68.7021 114.316 68.8869 114.691 69.0251L114.264 69.9522L114.375 70.0224C114.796 70.3011 115.146 70.6725 115.399 71.1082C115.653 71.5438 115.803 72.0319 115.838 72.5347C115.876 73.4385 115.466 74.582 115.139 75.5004C114.791 76.4714 114.58 77.0563 114.879 77.2552C115.294 77.533 116.809 78.2349 117.06 78.349L117.736 79.2264C117.727 79.5598 117.686 81.2269 118.59 81.4521Z" fill="#158DED"/>
<path d="M102.714 77.805L106.516 84.9705C110.465 79.633 110.245 74.5879 110.245 74.5879C112 83.1426 104.761 87.3834 104.761 87.3834L101.617 78.7556L102.714 77.805Z" fill="#158DED"/>
<path d="M129.375 83.8479C129.278 85.0178 128.109 83.3595 128.109 83.3595C128.109 83.3595 127.913 78.5835 128.012 77.9985C128.112 77.4136 129.375 83.8479 129.375 83.8479Z" fill="#158DED"/>
<path d="M113.289 81.5078C113.406 80.4608 133.276 70.9292 112.85 51.8223C112.85 51.8223 117.568 53.3402 117.483 52.2112C117.4 51.0525 117.018 49.9351 116.375 48.9678C119.688 52.6032 126.102 63.0326 124.271 71.7335C122.247 81.4113 116.348 81.5575 116.348 81.5575C117.76 80.9937 118.992 80.0561 119.911 78.8452C120.83 77.6343 121.402 76.1959 121.566 74.6845C121.566 74.6845 119.627 79.364 113.289 81.5078Z" fill="#158DED"/>
<path d="M115.112 68.2241C114.819 68.3235 116.08 67.2209 116.247 66.6536C116.363 66.2569 116.334 65.8316 116.165 65.4544C116.411 64.7869 116.521 64.077 116.489 63.3662C117.185 64.1325 119.391 66.7296 119.391 68.8822C119.391 68.8822 118.11 65.2643 116.794 64.9719C116.788 64.9719 117.373 67.4578 115.112 68.2241Z" fill="#158DED"/>
<path d="M111.124 74.5884C113.317 77.6593 116.607 75.4658 116.607 75.4658L113.025 79.7066C113.025 79.7066 112.074 76.855 110.612 75.5389L109.515 72.6143C109.515 72.6143 110.662 73.9421 111.124 74.5884Z" fill="#158DED"/>
<path d="M107.247 79.4842L105.2 78.5337L107.979 79.1917L107.394 81.8971L107.247 79.4842Z" fill="#158DED"/>
<path d="M113.942 66.7267L113.761 66.3611L112.772 65.9224L111.547 66.3786L110.763 67.5485C110.763 67.5485 112.974 67.6041 113.577 67.3116C114.179 67.0191 113.942 66.7267 113.942 66.7267Z" fill="#158DED"/>
<path d="M114.561 66.9339L112.902 66.0565L112.294 68.37L110.136 67.7119L110.247 66.0302L112.853 65.7144L114.561 66.9339Z" fill="#6ABDFF"/>
<path d="M113.357 66.9082C113.357 66.9082 108.531 72.5762 103.085 69.286C103.085 69.286 105.314 72.2457 107.911 71.6988C110.508 71.1519 113.175 68.6279 113.576 67.2387L113.357 66.9082Z" fill="#DB7631"/>
<path d="M113.924 66.4957C113.924 66.4957 110.318 77.4135 100.666 68.543C100.666 68.543 99.9877 67.5018 100.111 64.4192C100.112 64.3815 100.123 64.3448 100.143 64.3128C100.162 64.2807 100.19 64.2543 100.223 64.2363C100.256 64.2183 100.294 64.2092 100.331 64.21C100.369 64.2108 100.406 64.2214 100.438 64.2407L103.395 65.9956C103.395 65.9956 104.617 72.772 109.341 70.9675C112.657 69.7128 113.924 66.4957 113.924 66.4957Z" fill="#B64E00"/>
<path d="M115.07 66.5686C115.07 66.5686 114.193 65.8842 113.704 66.1767C113.367 66.4032 113.077 66.6933 112.85 67.0307L113.435 67.5923C113.768 67.5569 114.088 67.4463 114.371 67.2689C114.654 67.0916 114.893 66.8521 115.07 66.5686Z" fill="#B64E00"/>
<path d="M115.533 65.1792C115.513 65.4963 115.413 65.8032 115.243 66.0716C115.073 66.3399 114.838 66.5611 114.559 66.7147C114.559 66.7147 113.802 67.127 114.217 67.2002C114.632 67.2733 115.29 66.7878 115.583 66.0069C115.875 65.226 115.533 65.1792 115.533 65.1792Z" fill="#DB7631"/>
<path d="M115.113 66.7617L114.212 65.1063L116.163 62.7402L116.455 62.8865C116.455 62.8865 116.727 65.9837 115.113 66.7617Z" fill="#6ABDFF"/>
<path d="M113.632 46.2189L109.479 47.6433C108.134 45.9678 106.702 44.3638 105.189 42.838L103.404 42.5631L102.723 41.7705H102.223C102.223 41.7705 101.93 41.5336 101.992 41.3318C102.211 40.6737 102.659 40.9106 102.831 40.5626C103.156 39.9133 103.513 39.188 103.636 38.8926C103.826 38.4364 103.814 37.7929 104.466 37.869C108.195 38.3077 106.66 40.7936 107.575 41.6477C110.016 43.1429 112.288 44.8971 114.352 46.8799C114.118 46.6635 113.878 46.4383 113.632 46.2189Z" fill="#935C3B"/>
<path d="M99.5702 70.4937H103.592L104.615 71.8098C104.615 71.8098 104.542 72.614 103.884 72.7603C103.592 72.8275 103.425 72.6257 103.337 72.3859C103.206 73.2809 102.208 74.4069 101.875 74.7637L103.106 76.498C102.551 77.2168 101.758 77.7144 100.869 77.9019L99.7895 75.062C99.0583 73.3364 99.5702 70.4937 99.5702 70.4937Z" fill="#935C3B"/>
<path d="M130.937 83.2625C130.937 83.2625 125.38 77.8021 111.944 82.7332L112.512 84.2394C112.512 84.2394 99.7338 90.0887 96.4727 100.12L114.527 107.453L112.819 112.699C112.819 112.699 113.538 113.726 114.957 112.208C116.375 110.69 118.873 105.04 118.873 105.04L105.095 97.1226C105.095 97.1226 112.371 90.5889 120.376 92.3378C120.376 92.3378 128.954 105.288 125.503 122.368C125.503 122.368 125.164 130.701 127.55 130.289C129.937 129.876 128.527 122.427 128.527 122.427C128.527 122.427 136.093 105.917 130.937 83.2625Z" fill="#474847"/>
<path d="M112.705 44.5606C112.705 44.5606 110.464 41.829 108.318 46.7044L110.172 49.4361C110.172 49.4361 112.219 46.0259 115.24 46.9998L112.705 44.5606Z" fill="#6ABDFF"/>
<path d="M103.533 76.0972C103.533 76.0972 101.942 77.9017 100.179 77.7057L101.679 81.8003C101.679 81.8003 104.238 81.85 105.297 78.1444L103.533 76.0972Z" fill="#6ABDFF"/>
<path opacity="0.2" d="M119.966 137.176C120.942 134.677 121.78 132.126 122.475 129.534C123.18 126.94 123.745 124.308 124.207 121.676L124.514 119.687L124.751 117.686C124.841 117.02 124.888 116.35 124.938 115.68C124.988 115.01 125.058 114.343 125.064 113.671C125.182 110.988 125.081 108.3 124.762 105.634L124.882 107.64C124.897 107.974 124.935 108.307 124.935 108.64V109.646V110.65C124.935 110.983 124.935 111.319 124.935 111.653L124.847 113.656C124.687 116.328 124.379 118.988 123.926 121.626C123.49 124.258 122.923 126.89 122.268 129.476C121.934 130.774 121.583 132.064 121.197 133.348C120.811 134.632 120.405 135.91 119.966 137.176Z" fill="#333333"/>
<path opacity="0.2" d="M119.13 131.956C119.601 130.938 120.007 129.888 120.37 128.829C120.732 127.771 121.051 126.688 121.35 125.612C121.648 124.536 121.879 123.43 122.072 122.322C122.269 121.217 122.407 120.102 122.484 118.982C122.373 119.535 122.306 120.087 122.192 120.634L122.037 121.459L121.861 122.281C121.622 123.372 121.376 124.463 121.078 125.539C120.779 126.615 120.493 127.695 120.165 128.756C120.003 129.292 119.837 129.827 119.665 130.359C119.498 130.894 119.308 131.424 119.13 131.956Z" fill="#333333"/>
<path opacity="0.3" d="M114.603 142.812C109.079 142.812 104.601 142.351 104.601 141.783C104.601 141.214 109.079 140.753 114.603 140.753C120.127 140.753 124.605 141.214 124.605 141.783C124.605 142.351 120.127 142.812 114.603 142.812Z" fill="#333333"/>
<g opacity="0.3">
<path opacity="0.3" d="M95.7939 95.8682C95.1885 96.8333 94.624 97.8219 94.0566 98.8104C93.4892 99.7989 92.9569 100.799 92.4246 101.802L92.2872 102.066L92.5621 102.188C93.3401 102.539 94.1151 102.896 94.9018 103.235C95.6886 103.575 96.4665 103.911 97.2416 104.242C98.8209 104.894 100.403 105.531 102.023 106.09C100.523 105.262 98.9876 104.516 97.4463 103.779C96.6742 103.417 95.9021 103.057 95.1212 102.709C94.3403 102.361 93.5623 102.019 92.7814 101.677L92.916 102.06C93.4249 101.044 93.9211 100.021 94.4046 98.9917C94.8901 97.9593 95.361 96.924 95.7939 95.8682Z" fill="#333333"/>
</g>
<path d="M126.322 50.0208C126.428 50.0521 126.519 50.1228 126.575 50.2184C126.631 50.314 126.648 50.4274 126.624 50.5355C126.599 50.6436 126.534 50.7382 126.442 50.8002C126.351 50.8621 126.238 50.8867 126.129 50.8689H126.094C126.027 50.9026 125.965 50.9449 125.91 50.9947C125.784 51.1 125.67 51.2199 125.541 51.3252C125.457 51.4041 125.345 51.448 125.23 51.448C125.114 51.448 125.003 51.4041 124.918 51.3252C124.837 51.2417 124.792 51.13 124.792 51.0137C124.792 50.8974 124.837 50.7857 124.918 50.7022C125.348 50.3659 125.72 49.8862 126.322 50.0208Z" fill="white"/>
<path d="M52.9713 52.0037C52.2782 52.4746 51.3598 52.8021 51.0147 53.6298C50.985 53.7419 51.0006 53.8611 51.0581 53.9618C51.1155 54.0625 51.2102 54.1365 51.3218 54.168C51.4323 54.1969 51.5496 54.1828 51.65 54.1285C51.7505 54.0742 51.8266 53.9837 51.8629 53.8755C51.9682 53.6181 52.3455 53.4251 52.5648 53.2906C52.8573 53.1151 53.1497 52.9601 53.4159 52.7758C53.8809 52.4453 53.4422 51.6849 52.9713 52.0037Z" fill="white"/>
<path d="M58.1858 83.5433C57.6009 83.4673 57.1095 83.0666 56.5071 83.1397C56.3916 83.1427 56.2818 83.1899 56.2001 83.2715C56.1185 83.3531 56.0713 83.463 56.0684 83.5784C56.0699 83.6943 56.1166 83.805 56.1985 83.887C56.2805 83.9689 56.3912 84.0156 56.5071 84.0171C57.0101 83.9557 57.4634 84.3096 57.9519 84.3915C58.0638 84.4182 58.1817 84.4013 58.2816 84.3442C58.3815 84.2872 58.456 84.1943 58.49 84.0844C58.5207 83.9723 58.5059 83.8527 58.449 83.7514C58.3921 83.6501 58.2975 83.5754 58.1858 83.5433V83.5433Z" fill="white"/>
<path d="M148.149 95.6166C147.509 95.7044 147.175 96.2016 146.754 96.6315C146.352 97.0144 146.035 97.4778 145.824 97.9915C145.356 98.1465 145.59 98.9186 146.117 98.8192L146.278 98.7899C146.349 98.7684 146.413 98.7288 146.464 98.6749C146.515 98.6211 146.552 98.5549 146.57 98.4828C146.7 98.0438 146.944 97.6472 147.278 97.3334C147.477 97.1287 147.833 96.535 148.135 96.494C148.699 96.4209 148.708 95.5435 148.149 95.6166Z" fill="white"/>
<path d="M150.32 110.106L149.539 109.717C149.438 109.661 149.319 109.647 149.208 109.676C149.096 109.705 149 109.776 148.939 109.875C148.882 109.975 148.866 110.095 148.895 110.207C148.925 110.319 148.998 110.415 149.097 110.474L149.878 110.863C149.928 110.895 149.984 110.916 150.042 110.925C150.1 110.935 150.16 110.932 150.217 110.919C150.274 110.905 150.328 110.879 150.375 110.844C150.422 110.809 150.462 110.764 150.492 110.713C150.521 110.662 150.541 110.606 150.548 110.548C150.555 110.489 150.551 110.43 150.535 110.373C150.519 110.316 150.492 110.263 150.455 110.217C150.418 110.171 150.372 110.133 150.32 110.106V110.106Z" fill="white"/>
<path d="M161.224 93.1045C160.838 93.6943 160.403 94.2509 159.925 94.7687C159.565 95.1986 160.183 95.8216 160.545 95.3887C161.072 94.8147 161.552 94.1985 161.978 93.5462C162.026 93.4469 162.034 93.3335 162.002 93.2284C161.97 93.1233 161.899 93.0341 161.804 92.9785C161.709 92.923 161.597 92.9051 161.489 92.9284C161.382 92.9518 161.287 93.0146 161.224 93.1045V93.1045Z" fill="white"/>
<path d="M171.038 55.192C170.578 55.6482 170.71 56.2858 170.713 56.8649C170.713 56.9812 170.759 57.0928 170.842 57.1751C170.924 57.2574 171.035 57.3036 171.152 57.3036C171.268 57.3036 171.38 57.2574 171.462 57.1751C171.544 57.0928 171.59 56.9812 171.59 56.8649C171.59 56.5724 171.435 56.0313 171.658 55.812C171.735 55.7288 171.777 55.6188 171.775 55.5052C171.773 55.3915 171.727 55.2831 171.647 55.2027C171.567 55.1223 171.458 55.0763 171.344 55.0743C171.231 55.0723 171.121 55.1145 171.038 55.192Z" fill="white"/>
<path d="M57.4845 108.292H55.7297C55.6134 108.292 55.5018 108.339 55.4195 108.421C55.3372 108.503 55.291 108.615 55.291 108.731C55.291 108.848 55.3372 108.959 55.4195 109.041C55.5018 109.124 55.6134 109.17 55.7297 109.17H57.4845C57.6009 109.17 57.7125 109.124 57.7947 109.041C57.877 108.959 57.9232 108.848 57.9232 108.731C57.9232 108.615 57.877 108.503 57.7947 108.421C57.7125 108.339 57.6009 108.292 57.4845 108.292Z" fill="white"/>
<path d="M70.4983 106.976C70.4983 108.485 70.7908 110.07 69.9719 111.433C69.9183 111.533 69.9056 111.65 69.9365 111.76C69.9674 111.869 70.0395 111.962 70.1377 112.019C70.2358 112.076 70.3523 112.093 70.4627 112.066C70.573 112.039 70.6686 111.971 70.7294 111.875C71.6389 110.36 71.3816 108.658 71.3757 106.976C71.3757 106.859 71.3295 106.748 71.2472 106.666C71.165 106.583 71.0534 106.537 70.937 106.537C70.8207 106.537 70.7091 106.583 70.6268 106.666C70.5445 106.748 70.4983 106.859 70.4983 106.976V106.976Z" fill="white"/>
<defs>
<linearGradient id="paint0_linear" x1="114.604" y1="89.3725" x2="114.604" y2="24.6697" gradientUnits="userSpaceOnUse">
<stop stop-color="white"/>
<stop offset="1" stop-color="#158DED" stop-opacity="0"/>
</linearGradient>
<linearGradient id="paint1_linear" x1="4543.54" y1="-50641.9" x2="4543.54" y2="-36576.8" gradientUnits="userSpaceOnUse">
<stop stop-color="white"/>
<stop offset="1" stop-color="#3AC1B0" stop-opacity="0"/>
</linearGradient>
</defs>
</svg>
