<svg xmlns="http://www.w3.org/2000/svg" viewBox="0 0 137.74 129.45"><defs><style>.cls-1{fill:#f2d03b;}.cls-2{fill:#fff;}.cls-3{fill:#e8b938;}.cls-4{fill:#3d3813;}.cls-5{fill:#e59560;}</style></defs><title>Asset 1</title><g id="Layer_2" data-name="Layer 2"><g id="objects"><rect class="cls-1" width="137.74" height="129.45" rx="64.08"/><path class="cls-2" d="M8.71,49.9a2.2,2.2,0,0,1-.61-.09,2.14,2.14,0,0,1-1.45-2.65A60.46,60.46,0,0,1,44.33,7.31a2.14,2.14,0,0,1,1.43,4,56.16,56.16,0,0,0-35,37A2.14,2.14,0,0,1,8.71,49.9Z"/><path class="cls-3" d="M101.84,6.52a64,64,0,0,1,25.47,51.14V59A64.08,64.08,0,0,1,63.23,123H53.65a63.86,63.86,0,0,1-28.18-6.52,63.79,63.79,0,0,0,38.61,12.94h9.58a64.08,64.08,0,0,0,64.08-64.08V64.08A64.08,64.08,0,0,0,101.84,6.52Z"/><path class="cls-4" d="M51.19,58.57A3.21,3.21,0,0,1,48,55.36V53.49a6,6,0,0,0-11.94,0v1.87a3.21,3.21,0,0,1-6.42,0V53.49a12.39,12.39,0,0,1,24.78,0v1.87A3.21,3.21,0,0,1,51.19,58.57Z"/><path class="cls-4" d="M104.91,58.57a3.21,3.21,0,0,1-3.21-3.21V53.49a6,6,0,0,0-12,0v1.87a3.21,3.21,0,1,1-6.41,0V53.49a12.39,12.39,0,0,1,24.78,0v1.87A3.21,3.21,0,0,1,104.91,58.57Z"/><circle class="cls-5" cx="30.36" cy="76.01" r="7.49"/><circle class="cls-5" cx="107.38" cy="76.01" r="7.49"/><path class="cls-2" d="M33.11,76S41.5,105,68.87,105,104.63,76,104.63,76Z"/></g></g></svg>