<svg width="54" height="39" viewBox="0 0 54 39" fill="none" xmlns="http://www.w3.org/2000/svg">
<path fill-rule="evenodd" clip-rule="evenodd" d="M49.1938 26.1514H41.4966C41.5739 25.3497 41.8753 24.7303 42.6046 24.5336C42.6141 24.5312 42.6224 24.5249 42.6306 24.5187C42.6386 24.5127 42.6465 24.5067 42.6553 24.5044C43.1366 24.3671 43.4811 24.2051 43.4811 23.6788V22.8532C43.4811 21.8295 44.3038 21 45.3248 21C46.3465 21 47.1693 21.8295 47.1693 22.8532V23.6788C47.1693 24.2051 47.5304 24.3747 48.0116 24.5119C48.0207 24.5143 48.0321 24.5186 48.0434 24.5229C48.0545 24.5271 48.0656 24.5313 48.0744 24.5336C48.8037 24.7303 49.1261 25.3497 49.1938 26.1514ZM45.8978 22.8533C45.8978 22.5471 45.6503 22.2988 45.345 22.2988C45.0397 22.2988 44.7929 22.5471 44.7929 22.8533C44.7929 23.1602 45.0397 23.4085 45.345 23.4085C45.6503 23.4085 45.8978 23.1601 45.8978 22.8533ZM48.3319 22.2629H51.3029C51.9098 22.2629 52.3809 22.7663 52.3809 23.3884V37.8357C52.3809 38.4572 51.9098 38.98 51.3029 38.98H45.3449H39.3868C38.7807 38.98 38.2695 38.4572 38.2695 37.8357V23.3884C38.2695 22.7663 38.7807 22.2629 39.3867 22.2629H42.3185V22.8237C42.3185 23.2479 41.99 23.5858 41.5766 23.5858H40.084C39.8175 23.5858 39.5956 23.804 39.5826 24.075L39.5861 37.1847C39.599 37.4425 39.797 37.652 40.046 37.6708L50.6462 37.6696C50.8952 37.6507 51.0949 37.4457 51.1078 37.1879L51.1044 24.0747C51.0907 23.8037 50.873 23.5858 50.6057 23.5858H49.1139C48.7004 23.5858 48.3319 23.2479 48.3319 22.8237V22.2629ZM40.835 27.4343H45.325V28.7171H40.835V27.4343ZM47.2493 35.1314H40.835V36.4143H47.2493V35.1314ZM40.835 32.5657H46.0065V33.8486H40.835V32.5657ZM49.1735 30H40.835V31.2829H49.1735V30Z" fill="#5879CA"/>
<mask id="mask0" mask-type="alpha" maskUnits="userSpaceOnUse" x="38" y="21" width="15" height="18">
<path fill-rule="evenodd" clip-rule="evenodd" d="M49.1938 26.1514H41.4966C41.5739 25.3497 41.8753 24.7303 42.6046 24.5336C42.6141 24.5312 42.6224 24.5249 42.6306 24.5187C42.6386 24.5127 42.6465 24.5067 42.6553 24.5044C43.1366 24.3671 43.4811 24.2051 43.4811 23.6788V22.8532C43.4811 21.8295 44.3038 21 45.3248 21C46.3465 21 47.1693 21.8295 47.1693 22.8532V23.6788C47.1693 24.2051 47.5304 24.3747 48.0116 24.5119C48.0207 24.5143 48.0321 24.5186 48.0434 24.5229C48.0545 24.5271 48.0656 24.5313 48.0744 24.5336C48.8037 24.7303 49.1261 25.3497 49.1938 26.1514ZM45.8978 22.8533C45.8978 22.5471 45.6503 22.2988 45.345 22.2988C45.0397 22.2988 44.7929 22.5471 44.7929 22.8533C44.7929 23.1602 45.0397 23.4085 45.345 23.4085C45.6503 23.4085 45.8978 23.1601 45.8978 22.8533ZM48.3319 22.2629H51.3029C51.9098 22.2629 52.3809 22.7663 52.3809 23.3884V37.8357C52.3809 38.4572 51.9098 38.98 51.3029 38.98H45.3449H39.3868C38.7807 38.98 38.2695 38.4572 38.2695 37.8357V23.3884C38.2695 22.7663 38.7807 22.2629 39.3867 22.2629H42.3185V22.8237C42.3185 23.2479 41.99 23.5858 41.5766 23.5858H40.084C39.8175 23.5858 39.5956 23.804 39.5826 24.075L39.5861 37.1847C39.599 37.4425 39.797 37.652 40.046 37.6708L50.6462 37.6696C50.8952 37.6507 51.0949 37.4457 51.1078 37.1879L51.1044 24.0747C51.0907 23.8037 50.873 23.5858 50.6057 23.5858H49.1139C48.7004 23.5858 48.3319 23.2479 48.3319 22.8237V22.2629ZM40.835 27.4343H45.325V28.7171H40.835V27.4343ZM47.2493 35.1314H40.835V36.4143H47.2493V35.1314ZM40.835 32.5657H46.0065V33.8486H40.835V32.5657ZM49.1735 30H40.835V31.2829H49.1735V30Z" fill="white"/>
</mask>
<g mask="url(#mask0)">
<rect x="36" y="21" width="18" height="18" fill="#5879CA"/>
</g>
<path fill-rule="evenodd" clip-rule="evenodd" d="M41.4 20.9961C41.4107 21.8693 41.4107 22.6246 41.4107 22.6246H32.7054H24C24 22.6246 24 19.1586 24.1071 18.5103C24.1875 18.0014 24.8732 17.3211 27.7821 16.2121C29.4111 15.5941 30.0571 15.3757 30.3113 14.9326C30.5044 14.596 30.4714 14.1298 30.4714 13.2604C30.4714 12.6778 30.3437 12.5254 30.1662 12.3136C29.947 12.052 29.6517 11.6998 29.4268 10.3354C29.3533 9.88949 29.2865 9.78307 29.2029 9.64981C29.1037 9.49165 28.9807 9.29568 28.7946 8.44964C28.6815 7.94037 28.7565 7.72477 28.8206 7.54071C28.8596 7.42854 28.8946 7.32808 28.8804 7.17999C28.8375 6.78892 28.8 6.44071 28.7357 5.64249C28.6554 4.64607 29.5339 2.04785 32.7054 2.04785C35.8768 2.04785 36.7607 4.65142 36.675 5.64249C36.6233 6.28486 36.5889 6.6358 36.5579 6.95217C36.5504 7.02892 36.543 7.10364 36.5357 7.17999C36.5215 7.32822 36.5565 7.42949 36.5956 7.54246C36.6597 7.72754 36.7345 7.94398 36.6214 8.44964C36.438 9.2971 36.3162 9.49231 36.2175 9.6506C36.1346 9.7835 36.068 9.89038 35.9946 10.3354C35.7696 11.7003 35.4726 12.0523 35.2519 12.3138C35.0733 12.5256 34.9446 12.678 34.9446 13.2604C34.9446 13.3755 34.9441 13.484 34.9435 13.5863C34.936 15.0204 34.9348 15.2417 36.6 15.8318C36.8946 15.9389 37.2321 16.0621 37.6339 16.2121C40.5429 17.3211 41.2286 18.0014 41.3089 18.5103C41.3625 18.8532 41.3893 19.9996 41.4 20.9961ZM43.101 15.1542C43.2917 15.4463 43.7881 15.5388 45.0694 16.0247C47.3301 16.8872 47.8605 17.4122 47.9194 17.8086C47.9998 18.3122 47.9998 22.6247 47.9998 22.6247H42.7658C42.7653 22.5724 42.7647 22.5151 42.764 22.4535C42.7522 21.3475 42.7255 18.8403 42.6748 18.5104C42.6698 18.4765 42.6654 18.4402 42.6608 18.4014C42.5958 17.858 42.4754 16.8509 39.7551 15.8158C39.348 15.6604 39.0105 15.5372 38.7212 15.4354C39.5532 15.0425 39.5437 14.7653 39.5254 14.2354C39.5225 14.1512 39.5194 14.0606 39.5194 13.9622C39.5194 13.5026 39.4156 13.3305 39.2728 13.0937C39.1043 12.8143 38.8815 12.4448 38.7105 11.4069C38.6541 11.0588 38.6022 10.9765 38.5373 10.8737C38.4605 10.7518 38.3654 10.6011 38.223 9.94436C38.1361 9.55003 38.193 9.38292 38.2417 9.24018C38.271 9.15409 38.2973 9.07686 38.2873 8.964C38.2789 8.86995 38.2699 8.77907 38.2602 8.67946C38.2387 8.46132 38.2132 8.20134 38.1801 7.77471C38.1158 7.00328 38.8015 4.989 41.2551 4.989C43.7087 4.989 44.3944 7.00328 44.3301 7.77471C44.2948 8.18132 44.2711 8.43858 44.2513 8.65276C44.2412 8.7631 44.2321 8.862 44.223 8.964C44.2107 9.07833 44.2374 9.15609 44.2673 9.24354C44.316 9.38556 44.3735 9.55312 44.2873 9.94436C44.1446 10.6024 44.0494 10.754 43.9724 10.8766C43.9078 10.9796 43.856 11.062 43.7998 11.4069C43.6288 12.4444 43.4044 12.8125 43.2346 13.0912C43.0904 13.3277 42.9855 13.4999 42.9855 13.9622C42.9855 14.6205 42.9616 14.9406 43.101 15.1542Z" fill="#5879CA"/>
<mask id="mask1" mask-type="alpha" maskUnits="userSpaceOnUse" x="24" y="2" width="24" height="21">
<path fill-rule="evenodd" clip-rule="evenodd" d="M41.4 20.9961C41.4107 21.8693 41.4107 22.6246 41.4107 22.6246H32.7054H24C24 22.6246 24 19.1586 24.1071 18.5103C24.1875 18.0014 24.8732 17.3211 27.7821 16.2121C29.4111 15.5941 30.0571 15.3757 30.3113 14.9326C30.5044 14.596 30.4714 14.1298 30.4714 13.2604C30.4714 12.6778 30.3437 12.5254 30.1662 12.3136C29.947 12.052 29.6517 11.6998 29.4268 10.3354C29.3533 9.88949 29.2865 9.78307 29.2029 9.64981C29.1037 9.49165 28.9807 9.29568 28.7946 8.44964C28.6815 7.94037 28.7565 7.72477 28.8206 7.54071C28.8596 7.42854 28.8946 7.32808 28.8804 7.17999C28.8375 6.78892 28.8 6.44071 28.7357 5.64249C28.6554 4.64607 29.5339 2.04785 32.7054 2.04785C35.8768 2.04785 36.7607 4.65142 36.675 5.64249C36.6233 6.28486 36.5889 6.6358 36.5579 6.95217C36.5504 7.02892 36.543 7.10364 36.5357 7.17999C36.5215 7.32822 36.5565 7.42949 36.5956 7.54246C36.6597 7.72754 36.7345 7.94398 36.6214 8.44964C36.438 9.2971 36.3162 9.49231 36.2175 9.6506C36.1346 9.7835 36.068 9.89038 35.9946 10.3354C35.7696 11.7003 35.4726 12.0523 35.2519 12.3138C35.0733 12.5256 34.9446 12.678 34.9446 13.2604C34.9446 13.3755 34.9441 13.484 34.9435 13.5863C34.936 15.0204 34.9348 15.2417 36.6 15.8318C36.8946 15.9389 37.2321 16.0621 37.6339 16.2121C40.5429 17.3211 41.2286 18.0014 41.3089 18.5103C41.3625 18.8532 41.3893 19.9996 41.4 20.9961ZM43.101 15.1542C43.2917 15.4463 43.7881 15.5388 45.0694 16.0247C47.3301 16.8872 47.8605 17.4122 47.9194 17.8086C47.9998 18.3122 47.9998 22.6247 47.9998 22.6247H42.7658C42.7653 22.5724 42.7647 22.5151 42.764 22.4535C42.7522 21.3475 42.7255 18.8403 42.6748 18.5104C42.6698 18.4765 42.6654 18.4402 42.6608 18.4014C42.5958 17.858 42.4754 16.8509 39.7551 15.8158C39.348 15.6604 39.0105 15.5372 38.7212 15.4354C39.5532 15.0425 39.5437 14.7653 39.5254 14.2354C39.5225 14.1512 39.5194 14.0606 39.5194 13.9622C39.5194 13.5026 39.4156 13.3305 39.2728 13.0937C39.1043 12.8143 38.8815 12.4448 38.7105 11.4069C38.6541 11.0588 38.6022 10.9765 38.5373 10.8737C38.4605 10.7518 38.3654 10.6011 38.223 9.94436C38.1361 9.55003 38.193 9.38292 38.2417 9.24018C38.271 9.15409 38.2973 9.07686 38.2873 8.964C38.2789 8.86995 38.2699 8.77907 38.2602 8.67946C38.2387 8.46132 38.2132 8.20134 38.1801 7.77471C38.1158 7.00328 38.8015 4.989 41.2551 4.989C43.7087 4.989 44.3944 7.00328 44.3301 7.77471C44.2948 8.18132 44.2711 8.43858 44.2513 8.65276C44.2412 8.7631 44.2321 8.862 44.223 8.964C44.2107 9.07833 44.2374 9.15609 44.2673 9.24354C44.316 9.38556 44.3735 9.55312 44.2873 9.94436C44.1446 10.6024 44.0494 10.754 43.9724 10.8766C43.9078 10.9796 43.856 11.062 43.7998 11.4069C43.6288 12.4444 43.4044 12.8125 43.2346 13.0912C43.0904 13.3277 42.9855 13.4999 42.9855 13.9622C42.9855 14.6205 42.9616 14.9406 43.101 15.1542Z" fill="white"/>
</mask>
<g mask="url(#mask1)">
<rect x="24" width="24" height="24" fill="#5879CA"/>
</g>
<path fill-rule="evenodd" clip-rule="evenodd" d="M17.4 20.9961C17.4107 21.8693 17.4107 22.6246 17.4107 22.6246H8.70536H0C0 22.6246 0 19.1586 0.107143 18.5103C0.1875 18.0014 0.873214 17.3211 3.78214 16.2121C5.41105 15.5941 6.05708 15.3757 6.31129 14.9326C6.50437 14.596 6.47143 14.1298 6.47143 13.2604C6.47143 12.6778 6.34375 12.5254 6.16618 12.3136C5.94697 12.052 5.65172 11.6998 5.42679 10.3354C5.35329 9.88949 5.28652 9.78307 5.20291 9.64981C5.10367 9.49165 4.98071 9.29568 4.79464 8.44964C4.68147 7.94037 4.7565 7.72477 4.82056 7.54071C4.8596 7.42854 4.89456 7.32808 4.88036 7.17999C4.8375 6.78892 4.8 6.44071 4.73571 5.64249C4.65536 4.64607 5.53393 2.04785 8.70536 2.04785C11.8768 2.04785 12.7607 4.65142 12.675 5.64249C12.6233 6.28486 12.5889 6.6358 12.5579 6.95217C12.5504 7.02892 12.543 7.10364 12.5357 7.17999C12.5215 7.32822 12.5565 7.42949 12.5956 7.54246C12.6597 7.72754 12.7345 7.94398 12.6214 8.44964C12.438 9.2971 12.3162 9.49231 12.2175 9.6506C12.1346 9.7835 12.068 9.89038 11.9946 10.3354C11.7696 11.7003 11.4726 12.0523 11.2519 12.3138C11.0733 12.5256 10.9446 12.678 10.9446 13.2604C10.9446 13.3755 10.9441 13.484 10.9435 13.5863C10.936 15.0204 10.9348 15.2417 12.6 15.8318C12.8946 15.9389 13.2321 16.0621 13.6339 16.2121C16.5429 17.3211 17.2286 18.0014 17.3089 18.5103C17.3625 18.8532 17.3893 19.9996 17.4 20.9961ZM19.101 15.1542C19.2917 15.4463 19.7881 15.5388 21.0694 16.0247C23.3301 16.8872 23.8605 17.4122 23.9194 17.8086C23.9998 18.3122 23.9998 22.6247 23.9998 22.6247H18.7658C18.7653 22.5724 18.7647 22.5151 18.764 22.4535C18.7522 21.3475 18.7255 18.8403 18.6748 18.5104C18.6698 18.4765 18.6654 18.4402 18.6608 18.4014C18.5958 17.858 18.4754 16.8509 15.7551 15.8158C15.348 15.6604 15.0105 15.5372 14.7212 15.4354C15.5532 15.0425 15.5437 14.7653 15.5254 14.2354C15.5225 14.1512 15.5194 14.0606 15.5194 13.9622C15.5194 13.5026 15.4156 13.3305 15.2728 13.0937C15.1043 12.8143 14.8815 12.4448 14.7105 11.4069C14.6541 11.0588 14.6022 10.9765 14.5373 10.8737C14.4605 10.7518 14.3654 10.6011 14.223 9.94436C14.1361 9.55003 14.193 9.38292 14.2417 9.24018C14.271 9.15409 14.2973 9.07686 14.2873 8.964C14.2789 8.86995 14.2699 8.77907 14.2602 8.67946C14.2387 8.46132 14.2132 8.20134 14.1801 7.77471C14.1158 7.00328 14.8015 4.989 17.2551 4.989C19.7087 4.989 20.3944 7.00328 20.3301 7.77471C20.2948 8.18132 20.2711 8.43858 20.2513 8.65276C20.2412 8.7631 20.2321 8.862 20.223 8.964C20.2107 9.07833 20.2374 9.15609 20.2673 9.24354C20.316 9.38556 20.3735 9.55312 20.2873 9.94436C20.1446 10.6024 20.0494 10.754 19.9724 10.8766C19.9078 10.9796 19.856 11.062 19.7998 11.4069C19.6288 12.4444 19.4044 12.8125 19.2346 13.0912C19.0904 13.3277 18.9855 13.4999 18.9855 13.9622C18.9855 14.6205 18.9616 14.9406 19.101 15.1542Z" fill="#5879CA"/>
<mask id="mask2" mask-type="alpha" maskUnits="userSpaceOnUse" x="0" y="2" width="24" height="21">
<path fill-rule="evenodd" clip-rule="evenodd" d="M17.4 20.9961C17.4107 21.8693 17.4107 22.6246 17.4107 22.6246H8.70536H0C0 22.6246 0 19.1586 0.107143 18.5103C0.1875 18.0014 0.873214 17.3211 3.78214 16.2121C5.41105 15.5941 6.05708 15.3757 6.31129 14.9326C6.50437 14.596 6.47143 14.1298 6.47143 13.2604C6.47143 12.6778 6.34375 12.5254 6.16618 12.3136C5.94697 12.052 5.65172 11.6998 5.42679 10.3354C5.35329 9.88949 5.28652 9.78307 5.20291 9.64981C5.10367 9.49165 4.98071 9.29568 4.79464 8.44964C4.68147 7.94037 4.7565 7.72477 4.82056 7.54071C4.8596 7.42854 4.89456 7.32808 4.88036 7.17999C4.8375 6.78892 4.8 6.44071 4.73571 5.64249C4.65536 4.64607 5.53393 2.04785 8.70536 2.04785C11.8768 2.04785 12.7607 4.65142 12.675 5.64249C12.6233 6.28486 12.5889 6.6358 12.5579 6.95217C12.5504 7.02892 12.543 7.10364 12.5357 7.17999C12.5215 7.32822 12.5565 7.42949 12.5956 7.54246C12.6597 7.72754 12.7345 7.94398 12.6214 8.44964C12.438 9.2971 12.3162 9.49231 12.2175 9.6506C12.1346 9.7835 12.068 9.89038 11.9946 10.3354C11.7696 11.7003 11.4726 12.0523 11.2519 12.3138C11.0733 12.5256 10.9446 12.678 10.9446 13.2604C10.9446 13.3755 10.9441 13.484 10.9435 13.5863C10.936 15.0204 10.9348 15.2417 12.6 15.8318C12.8946 15.9389 13.2321 16.0621 13.6339 16.2121C16.5429 17.3211 17.2286 18.0014 17.3089 18.5103C17.3625 18.8532 17.3893 19.9996 17.4 20.9961ZM19.101 15.1542C19.2917 15.4463 19.7881 15.5388 21.0694 16.0247C23.3301 16.8872 23.8605 17.4122 23.9194 17.8086C23.9998 18.3122 23.9998 22.6247 23.9998 22.6247H18.7658C18.7653 22.5724 18.7647 22.5151 18.764 22.4535C18.7522 21.3475 18.7255 18.8403 18.6748 18.5104C18.6698 18.4765 18.6654 18.4402 18.6608 18.4014C18.5958 17.858 18.4754 16.8509 15.7551 15.8158C15.348 15.6604 15.0105 15.5372 14.7212 15.4354C15.5532 15.0425 15.5437 14.7653 15.5254 14.2354C15.5225 14.1512 15.5194 14.0606 15.5194 13.9622C15.5194 13.5026 15.4156 13.3305 15.2728 13.0937C15.1043 12.8143 14.8815 12.4448 14.7105 11.4069C14.6541 11.0588 14.6022 10.9765 14.5373 10.8737C14.4605 10.7518 14.3654 10.6011 14.223 9.94436C14.1361 9.55003 14.193 9.38292 14.2417 9.24018C14.271 9.15409 14.2973 9.07686 14.2873 8.964C14.2789 8.86995 14.2699 8.77907 14.2602 8.67946C14.2387 8.46132 14.2132 8.20134 14.1801 7.77471C14.1158 7.00328 14.8015 4.989 17.2551 4.989C19.7087 4.989 20.3944 7.00328 20.3301 7.77471C20.2948 8.18132 20.2711 8.43858 20.2513 8.65276C20.2412 8.7631 20.2321 8.862 20.223 8.964C20.2107 9.07833 20.2374 9.15609 20.2673 9.24354C20.316 9.38556 20.3735 9.55312 20.2873 9.94436C20.1446 10.6024 20.0494 10.754 19.9724 10.8766C19.9078 10.9796 19.856 11.062 19.7998 11.4069C19.6288 12.4444 19.4044 12.8125 19.2346 13.0912C19.0904 13.3277 18.9855 13.4999 18.9855 13.9622C18.9855 14.6205 18.9616 14.9406 19.101 15.1542Z" fill="white"/>
</mask>
<g mask="url(#mask2)">
<rect width="24" height="24" fill="#5879CA"/>
</g>
</svg>
