<svg width="30" height="30" viewBox="0 0 30 30" fill="none" xmlns="http://www.w3.org/2000/svg">
<path fill-rule="evenodd" clip-rule="evenodd" d="M21.75 26.2458C21.7634 27.3373 21.7634 28.2815 21.7634 28.2815H10.8817H0C0 28.2815 0 23.9489 0.133929 23.1387C0.234375 22.5025 1.09152 21.6521 4.72768 20.2659C6.76382 19.4933 7.57135 19.2204 7.88912 18.6665C8.13046 18.2458 8.08929 17.663 8.08929 16.5762C8.08929 15.8479 7.92969 15.6575 7.70772 15.3927C7.43371 15.0658 7.06465 14.6254 6.78348 12.9199C6.69162 12.3626 6.60815 12.2296 6.50363 12.063C6.37959 11.8653 6.22589 11.6203 5.9933 10.5628C5.85184 9.92619 5.94563 9.6567 6.0257 9.42662C6.07449 9.28641 6.1182 9.16083 6.10045 8.97573C6.04688 8.48689 6 8.05162 5.91964 7.05385C5.8192 5.80831 6.91741 2.56055 10.8817 2.56055C14.846 2.56055 15.9509 5.81501 15.8438 7.05385C15.7791 7.85679 15.7361 8.29545 15.6974 8.69091C15.6879 8.78686 15.6788 8.88027 15.6696 8.97573C15.6519 9.161 15.6957 9.2876 15.7445 9.4288C15.8246 9.66015 15.9182 9.93071 15.7768 10.5628C15.5474 11.6221 15.3953 11.8661 15.2719 12.064C15.1683 12.2301 15.085 12.3637 14.9933 12.9199C14.712 14.626 14.3408 15.0661 14.0649 15.393C13.8416 15.6577 13.6808 15.8483 13.6808 16.5762C13.6808 16.7202 13.6801 16.8557 13.6794 16.9836C13.67 18.7762 13.6685 19.0529 15.75 19.7905C16.1183 19.9244 16.5402 20.0784 17.0424 20.2659C20.6786 21.6521 21.5357 22.5025 21.6362 23.1387C21.7031 23.5672 21.7366 25.0003 21.75 26.2458ZM23.8762 18.9434C24.1146 19.3085 24.735 19.4242 26.3367 20.0316C29.1626 21.1097 29.8255 21.7659 29.8992 22.2615C29.9996 22.8909 29.9996 28.2816 29.9996 28.2816H23.4572C23.4565 28.2161 23.4557 28.1444 23.4549 28.0673C23.4402 26.6846 23.4068 23.551 23.3434 23.1387C23.3371 23.0964 23.3317 23.0509 23.3259 23.0024C23.2447 22.3232 23.0942 21.0643 19.6938 19.7704C19.1849 19.5762 18.763 19.4222 18.4014 19.295C19.4415 18.8038 19.4295 18.4573 19.4067 17.795C19.4031 17.6897 19.3992 17.5765 19.3992 17.4534C19.3992 16.8789 19.2695 16.6638 19.0909 16.3677C18.8804 16.0185 18.6018 15.5566 18.388 14.2592C18.3175 13.8242 18.2527 13.7213 18.1716 13.5928C18.0755 13.4405 17.9566 13.252 17.7786 12.4311C17.67 11.9382 17.7412 11.7293 17.802 11.5509C17.8387 11.4433 17.8716 11.3468 17.859 11.2057C17.8485 11.0881 17.8373 10.9745 17.8251 10.85C17.7984 10.5773 17.7664 10.2523 17.7251 9.71907C17.6447 8.75478 18.5019 6.23692 21.5688 6.23692C24.6358 6.23692 25.4929 8.75478 25.4126 9.71907C25.3684 10.2273 25.3388 10.5489 25.3141 10.8166C25.3014 10.9545 25.29 11.0782 25.2786 11.2057C25.2633 11.3486 25.2966 11.4458 25.3341 11.5551C25.395 11.7326 25.4668 11.9421 25.359 12.4311C25.1807 13.2537 25.0617 13.4432 24.9655 13.5964C24.8847 13.7251 24.8199 13.8282 24.7496 14.2592C24.5359 15.5562 24.2555 16.0163 24.0431 16.3647C23.863 16.6603 23.7318 16.8756 23.7318 17.4534C23.7318 18.2763 23.7019 18.6765 23.8762 18.9434Z" fill="#3AC1B0"/>
<mask id="mask0" mask-type="alpha" maskUnits="userSpaceOnUse" x="0" y="2" width="30" height="27">
<path fill-rule="evenodd" clip-rule="evenodd" d="M21.75 26.2458C21.7634 27.3373 21.7634 28.2815 21.7634 28.2815H10.8817H0C0 28.2815 0 23.9489 0.133929 23.1387C0.234375 22.5025 1.09152 21.6521 4.72768 20.2659C6.76382 19.4933 7.57135 19.2204 7.88912 18.6665C8.13046 18.2458 8.08929 17.663 8.08929 16.5762C8.08929 15.8479 7.92969 15.6575 7.70772 15.3927C7.43371 15.0658 7.06465 14.6254 6.78348 12.9199C6.69162 12.3626 6.60815 12.2296 6.50363 12.063C6.37959 11.8653 6.22589 11.6203 5.9933 10.5628C5.85184 9.92619 5.94563 9.6567 6.0257 9.42662C6.07449 9.28641 6.1182 9.16083 6.10045 8.97573C6.04688 8.48689 6 8.05162 5.91964 7.05385C5.8192 5.80831 6.91741 2.56055 10.8817 2.56055C14.846 2.56055 15.9509 5.81501 15.8438 7.05385C15.7791 7.85679 15.7361 8.29545 15.6974 8.69091C15.6879 8.78686 15.6788 8.88027 15.6696 8.97573C15.6519 9.161 15.6957 9.2876 15.7445 9.4288C15.8246 9.66015 15.9182 9.93071 15.7768 10.5628C15.5474 11.6221 15.3953 11.8661 15.2719 12.064C15.1683 12.2301 15.085 12.3637 14.9933 12.9199C14.712 14.626 14.3408 15.0661 14.0649 15.393C13.8416 15.6577 13.6808 15.8483 13.6808 16.5762C13.6808 16.7202 13.6801 16.8557 13.6794 16.9836C13.67 18.7762 13.6685 19.0529 15.75 19.7905C16.1183 19.9244 16.5402 20.0784 17.0424 20.2659C20.6786 21.6521 21.5357 22.5025 21.6362 23.1387C21.7031 23.5672 21.7366 25.0003 21.75 26.2458ZM23.8762 18.9434C24.1146 19.3085 24.735 19.4242 26.3367 20.0316C29.1626 21.1097 29.8255 21.7659 29.8992 22.2615C29.9996 22.8909 29.9996 28.2816 29.9996 28.2816H23.4572C23.4565 28.2161 23.4557 28.1444 23.4549 28.0673C23.4402 26.6846 23.4068 23.551 23.3434 23.1387C23.3371 23.0964 23.3317 23.0509 23.3259 23.0024C23.2447 22.3232 23.0942 21.0643 19.6938 19.7704C19.1849 19.5762 18.763 19.4222 18.4014 19.295C19.4415 18.8038 19.4295 18.4573 19.4067 17.795C19.4031 17.6897 19.3992 17.5765 19.3992 17.4534C19.3992 16.8789 19.2695 16.6638 19.0909 16.3677C18.8804 16.0185 18.6018 15.5566 18.388 14.2592C18.3175 13.8242 18.2527 13.7213 18.1716 13.5928C18.0755 13.4405 17.9566 13.252 17.7786 12.4311C17.67 11.9382 17.7412 11.7293 17.802 11.5509C17.8387 11.4433 17.8716 11.3468 17.859 11.2057C17.8485 11.0881 17.8373 10.9745 17.8251 10.85C17.7984 10.5773 17.7664 10.2523 17.7251 9.71907C17.6447 8.75478 18.5019 6.23692 21.5688 6.23692C24.6358 6.23692 25.4929 8.75478 25.4126 9.71907C25.3684 10.2273 25.3388 10.5489 25.3141 10.8166C25.3014 10.9545 25.29 11.0782 25.2786 11.2057C25.2633 11.3486 25.2966 11.4458 25.3341 11.5551C25.395 11.7326 25.4668 11.9421 25.359 12.4311C25.1807 13.2537 25.0617 13.4432 24.9655 13.5964C24.8847 13.7251 24.8199 13.8282 24.7496 14.2592C24.5359 15.5562 24.2555 16.0163 24.0431 16.3647C23.863 16.6603 23.7318 16.8756 23.7318 17.4534C23.7318 18.2763 23.7019 18.6765 23.8762 18.9434Z" fill="white"/>
</mask>
<g mask="url(#mask0)">
<rect width="30" height="30" fill="#3AC1B0"/>
</g>
</svg>
