<svg xmlns="http://www.w3.org/2000/svg" viewBox="0 0 485.9 490.2"><defs><style>.cls-1{fill:#158ded;}</style></defs><title>encooked-fav-iconAsset 5</title><g id="Layer_2" data-name="Layer 2"><g id="Capa_1" data-name="Capa 1"><path class="cls-1" d="M418.8,61.8Q351.75,0,252.1,0,147.4,0,73.7,70.3T0,245.3Q0,345.65,70.1,417.9q70.35,72.3,189.2,72.3,71.7,0,140.7-29.5A30,30,0,0,0,416.2,422h0a29.9,29.9,0,0,0-39.6-16.2q-60,25.8-117.4,25.8-91.2,0-141.3-55.6t-50-130.4q0-81.3,53.6-135.7Q174.9,55.6,253,55.5q71.85,0,121.4,44.7t49.5,112.5c0,30.9-7.6,56.7-22.7,77.2s-30.8,30.8-47.1,30.8c-8.8,0-13.2-4.7-13.2-14.2a263.24,263.24,0,0,1,1.7-27.1l18.6-152.1h-64l-4.1,14.9q-24.45-19.95-53.6-20-46.2,0-79.1,36.8t-32.9,94.7q0,56.55,29.2,91.3c19.5,23.2,42.9,34.7,70.3,34.7q36.75,0,62.8-30.8,19.65,29.55,57.9,29.5,56.25,0,97.2-49t41-118.1Q485.9,123.7,418.8,61.8ZM271.4,291.9c-11.3,15.2-24.8,22.9-40.5,22.9q-16.05,0-25.8-16.8c-6.6-11.2-9.9-25.1-9.9-41.8q0-30.9,13.8-49.8c9.2-12.6,20.6-19,34.2-19,11.8,0,22.3,4.7,31.5,14.2s13.8,22.1,13.8,37.9C288.4,259.2,282.7,276.6,271.4,291.9Z"/></g></g></svg>