<svg width="30" height="30" viewBox="0 0 30 30" fill="none" xmlns="http://www.w3.org/2000/svg">
<path fill-rule="evenodd" clip-rule="evenodd" d="M15 0C12.3884 0 9.9375 0.669643 7.80134 1.83482C7.02455 0.729911 5.73884 0 4.28571 0C1.92188 0 0 1.92188 0 4.28571C0 5.73884 0.729911 7.02455 1.83482 7.80134C0.669643 9.9375 0 12.3884 0 15C0 23.2835 6.71652 30 15 30C23.2835 30 30 23.2835 30 15C30 6.71652 23.2835 0 15 0V0ZM2.14296 4.2857C2.14296 3.10043 3.10055 2.14284 4.28581 2.14284C4.98894 2.14284 5.61171 2.47766 6.0001 2.99998C4.86171 3.85043 3.85055 4.86159 3.0001 5.99998C2.47778 5.61159 2.14296 4.98882 2.14296 4.2857V4.2857ZM24.0938 24.0937C21.663 26.5178 18.4354 27.8571 15.0001 27.8571C11.5648 27.8571 8.33715 26.5178 5.90635 24.0937C3.48224 21.6629 2.14296 18.4353 2.14296 15C2.14296 11.5647 3.48224 8.33704 5.90635 5.90623C8.33715 3.48213 11.5648 2.14284 15.0001 2.14284C18.4354 2.14284 21.663 3.48213 24.0938 5.90623C26.518 8.33704 27.8572 11.5647 27.8572 15C27.8572 18.4353 26.518 21.6629 24.0938 24.0937V24.0937ZM21.4286 6.4284C21.4286 6.4284 14.625 12.0333 13.3929 13.3927C12.1608 14.7521 8.57148 23.5713 8.57148 23.5713C8.57148 23.5713 15.4286 18.0601 16.6072 16.607C17.7858 15.1538 21.4286 6.4284 21.4286 6.4284V6.4284Z" fill="#5879CA"/>
<mask id="mask0" mask-type="alpha" maskUnits="userSpaceOnUse" x="0" y="0" width="30" height="30">
<path fill-rule="evenodd" clip-rule="evenodd" d="M15 0C12.3884 0 9.9375 0.669643 7.80134 1.83482C7.02455 0.729911 5.73884 0 4.28571 0C1.92188 0 0 1.92188 0 4.28571C0 5.73884 0.729911 7.02455 1.83482 7.80134C0.669643 9.9375 0 12.3884 0 15C0 23.2835 6.71652 30 15 30C23.2835 30 30 23.2835 30 15C30 6.71652 23.2835 0 15 0V0ZM2.14296 4.2857C2.14296 3.10043 3.10055 2.14284 4.28581 2.14284C4.98894 2.14284 5.61171 2.47766 6.0001 2.99998C4.86171 3.85043 3.85055 4.86159 3.0001 5.99998C2.47778 5.61159 2.14296 4.98882 2.14296 4.2857V4.2857ZM24.0938 24.0937C21.663 26.5178 18.4354 27.8571 15.0001 27.8571C11.5648 27.8571 8.33715 26.5178 5.90635 24.0937C3.48224 21.6629 2.14296 18.4353 2.14296 15C2.14296 11.5647 3.48224 8.33704 5.90635 5.90623C8.33715 3.48213 11.5648 2.14284 15.0001 2.14284C18.4354 2.14284 21.663 3.48213 24.0938 5.90623C26.518 8.33704 27.8572 11.5647 27.8572 15C27.8572 18.4353 26.518 21.6629 24.0938 24.0937V24.0937ZM21.4286 6.4284C21.4286 6.4284 14.625 12.0333 13.3929 13.3927C12.1608 14.7521 8.57148 23.5713 8.57148 23.5713C8.57148 23.5713 15.4286 18.0601 16.6072 16.607C17.7858 15.1538 21.4286 6.4284 21.4286 6.4284V6.4284Z" fill="white"/>
</mask>
<g mask="url(#mask0)">
<rect width="30" height="30" fill="#5879CA"/>
</g>
</svg>
