<svg width="240" height="278" viewBox="0 0 240 278" fill="none" xmlns="http://www.w3.org/2000/svg">
<path d="M120.009 0.739258L0.97168 112.801V277.817H239.043V112.801L120.009 0.739258Z" fill="url(#paint0_linear)"/>
<path d="M237.836 274.198H2.17822V112.534L120.009 2.75098L237.836 112.534V274.198Z" fill="white"/>
<path d="M202.044 25.2705H37.9707V218.299H202.044V25.2705Z" fill="url(#paint1_linear)"/>
<path d="M199.972 26.8799H40.043V218.299H199.972V26.8799Z" fill="white"/>
<path d="M2.17822 112.533L120.009 193.365L2.17822 274.197V112.533Z" fill="#F5F5F5"/>
<path d="M237.836 112.533L120.009 193.365L237.836 274.197V112.533Z" fill="#F5F5F5"/>
<path d="M2.17822 274.194L115.382 186.118C116.699 185.081 118.327 184.518 120.003 184.518C121.68 184.518 123.307 185.081 124.625 186.118L237.836 274.194H2.17822Z" fill="url(#paint2_linear)"/>
<path d="M2.17822 274.194L115.382 189.966C116.718 188.972 118.338 188.436 120.003 188.436C121.668 188.436 123.289 188.972 124.625 189.966L237.836 274.194H2.17822Z" fill="white"/>
<path d="M97.6884 63.875H64.3091V69.5059H97.6884V63.875Z" fill="#47E6B1"/>
<path d="M175.705 78.7568H64.3091V84.3878H175.705V78.7568Z" fill="#F5F5F5"/>
<path d="M175.705 88.4053H64.3091V94.0362H175.705V88.4053Z" fill="#F5F5F5"/>
<path d="M175.705 98.0586H64.3091V103.69H175.705V98.0586Z" fill="#F5F5F5"/>
<path d="M175.705 107.707H64.3091V113.338H175.705V107.707Z" fill="#F5F5F5"/>
<path d="M114.979 117.36H64.3091V122.991H114.979V117.36Z" fill="#F5F5F5"/>
<path d="M175.705 117.36H125.035V122.991H175.705V117.36Z" fill="#6C63FF"/>
<path d="M187.549 162.96L178.145 153.502C177.684 153.031 177.134 152.655 176.527 152.397C175.92 152.14 175.268 152.005 174.609 152C173.95 151.996 173.296 152.122 172.685 152.371C172.075 152.621 171.52 152.989 171.053 153.454L111.997 212.015L87.0275 186.848C86.1004 185.907 84.8376 185.374 83.5171 185.364C82.1965 185.355 80.9262 185.87 79.9857 186.797L70.4803 196.203C69.5409 197.141 69.0091 198.412 69.0001 199.739C68.9911 201.067 69.5056 202.345 70.4321 203.296L108.353 241.518C109.291 242.458 110.561 242.99 111.888 243C113.216 243.009 114.494 242.495 115.445 241.569L187.497 170.051C187.968 169.59 188.344 169.041 188.602 168.434C188.86 167.828 188.995 167.176 189 166.517C189.005 165.858 188.879 165.204 188.63 164.594C188.381 163.983 188.014 163.428 187.549 162.96Z" fill="#3ACC6C"/>
<defs>
<linearGradient id="paint0_linear" x1="103719" y1="191520" x2="103719" y2="2552.62" gradientUnits="userSpaceOnUse">
<stop stop-color="#808080" stop-opacity="0.25"/>
<stop offset="0.54" stop-color="#808080" stop-opacity="0.12"/>
<stop offset="1" stop-color="#808080" stop-opacity="0.1"/>
</linearGradient>
<linearGradient id="paint1_linear" x1="71518" y1="105170" x2="71518" y2="13458.1" gradientUnits="userSpaceOnUse">
<stop stop-color="#808080" stop-opacity="0.25"/>
<stop offset="0.54" stop-color="#808080" stop-opacity="0.12"/>
<stop offset="1" stop-color="#808080" stop-opacity="0.1"/>
</linearGradient>
<linearGradient id="paint2_linear" x1="141468" y1="70732.1" x2="141468" y2="50937.8" gradientUnits="userSpaceOnUse">
<stop stop-color="#808080" stop-opacity="0.25"/>
<stop offset="0.54" stop-color="#808080" stop-opacity="0.12"/>
<stop offset="1" stop-color="#808080" stop-opacity="0.1"/>
</linearGradient>
</defs>
</svg>
