<svg width="24" height="24" viewBox="0 0 24 24" fill="none" xmlns="http://www.w3.org/2000/svg">
<path fill-rule="evenodd" clip-rule="evenodd" d="M19.6758 13.4892C19.4026 12.6117 18.914 11.8823 17.865 11.4929C16.816 11.1036 15.9758 11.3388 15.1935 11.8224C14.7855 12.0746 14.6562 12.5734 14.9677 13.0076C15.0775 13.1605 15.2366 13.2603 15.4165 13.327C15.6875 13.4275 15.9835 13.4169 16.2182 13.2715C16.4741 13.1131 16.7884 12.9219 17.2685 13.1001C17.7512 13.2792 17.8633 13.6272 17.9517 13.9123C18.0348 14.1776 18.2527 14.3797 18.5245 14.4805C18.7044 14.5473 18.8897 14.5756 19.0729 14.5308C19.5479 14.4138 19.8184 13.9465 19.6758 13.4892V13.4892ZM8.81506 11.8225C8.03276 11.3389 7.1926 11.1037 6.14356 11.493C5.09453 11.8824 4.60596 12.6118 4.33274 13.4893C4.19019 13.9465 4.46072 14.4138 4.93569 14.5308C5.1189 14.5757 5.30415 14.5474 5.48405 14.4806C5.75581 14.3797 5.97385 14.1777 6.05689 13.9124C6.14522 13.6273 6.2574 13.2793 6.74003 13.1002C7.22024 12.922 7.53444 13.1132 7.7904 13.2716C8.0251 13.417 8.32113 13.4276 8.5921 13.3271C8.77194 13.2603 8.93105 13.1606 9.04081 13.0077C9.35233 12.5735 9.22301 12.0747 8.81506 11.8225V11.8225ZM12 0C5.37257 0 0 5.37257 0 12C0 18.6274 5.37257 24 12 24C18.6274 24 24 18.6274 24 12C24 5.37257 18.6274 0 12 0V0ZM19.2733 19.2731C17.3305 21.2158 14.7476 22.2857 12.0002 22.2857C9.25277 22.2857 6.66983 21.2158 4.72706 19.2731C2.7844 17.3303 1.71447 14.7474 1.71447 12C1.71447 9.25256 2.7844 6.66961 4.72706 4.72684C6.66983 2.78418 9.25277 1.71425 12.0002 1.71425C14.7476 1.71425 17.3305 2.78418 19.2733 4.72684C21.216 6.66961 22.2859 9.25256 22.2859 12C22.2859 14.7474 21.216 17.3303 19.2733 19.2731V19.2731ZM16.9884 17.5272C16.9291 17.4423 15.482 15.4285 11.9998 15.4285C8.50371 15.4285 7.07052 17.4423 7.01121 17.5272C6.7403 17.9155 6.83534 18.4498 7.22352 18.7207C7.37293 18.8249 7.54398 18.875 7.71332 18.875C7.98396 18.875 8.25032 18.7471 8.41698 18.5083C8.42641 18.4949 9.42948 17.1428 11.9998 17.1428C14.5713 17.1428 15.5732 18.4949 15.5826 18.5083C15.7492 18.7471 16.0156 18.875 16.2862 18.875C16.4556 18.875 16.6266 18.8249 16.7761 18.7207C17.1642 18.4497 17.2593 17.9155 16.9884 17.5272V17.5272Z" fill="#ED1515"/>
<mask id="mask0" mask-type="alpha" maskUnits="userSpaceOnUse" x="0" y="0" width="24" height="24">
<path fill-rule="evenodd" clip-rule="evenodd" d="M19.6758 13.4892C19.4026 12.6117 18.914 11.8823 17.865 11.4929C16.816 11.1036 15.9758 11.3388 15.1935 11.8224C14.7855 12.0746 14.6562 12.5734 14.9677 13.0076C15.0775 13.1605 15.2366 13.2603 15.4165 13.327C15.6875 13.4275 15.9835 13.4169 16.2182 13.2715C16.4741 13.1131 16.7884 12.9219 17.2685 13.1001C17.7512 13.2792 17.8633 13.6272 17.9517 13.9123C18.0348 14.1776 18.2527 14.3797 18.5245 14.4805C18.7044 14.5473 18.8897 14.5756 19.0729 14.5308C19.5479 14.4138 19.8184 13.9465 19.6758 13.4892V13.4892ZM8.81506 11.8225C8.03276 11.3389 7.1926 11.1037 6.14356 11.493C5.09453 11.8824 4.60596 12.6118 4.33274 13.4893C4.19019 13.9465 4.46072 14.4138 4.93569 14.5308C5.1189 14.5757 5.30415 14.5474 5.48405 14.4806C5.75581 14.3797 5.97385 14.1777 6.05689 13.9124C6.14522 13.6273 6.2574 13.2793 6.74003 13.1002C7.22024 12.922 7.53444 13.1132 7.7904 13.2716C8.0251 13.417 8.32113 13.4276 8.5921 13.3271C8.77194 13.2603 8.93105 13.1606 9.04081 13.0077C9.35233 12.5735 9.22301 12.0747 8.81506 11.8225V11.8225ZM12 0C5.37257 0 0 5.37257 0 12C0 18.6274 5.37257 24 12 24C18.6274 24 24 18.6274 24 12C24 5.37257 18.6274 0 12 0V0ZM19.2733 19.2731C17.3305 21.2158 14.7476 22.2857 12.0002 22.2857C9.25277 22.2857 6.66983 21.2158 4.72706 19.2731C2.7844 17.3303 1.71447 14.7474 1.71447 12C1.71447 9.25256 2.7844 6.66961 4.72706 4.72684C6.66983 2.78418 9.25277 1.71425 12.0002 1.71425C14.7476 1.71425 17.3305 2.78418 19.2733 4.72684C21.216 6.66961 22.2859 9.25256 22.2859 12C22.2859 14.7474 21.216 17.3303 19.2733 19.2731V19.2731ZM16.9884 17.5272C16.9291 17.4423 15.482 15.4285 11.9998 15.4285C8.50371 15.4285 7.07052 17.4423 7.01121 17.5272C6.7403 17.9155 6.83534 18.4498 7.22352 18.7207C7.37293 18.8249 7.54398 18.875 7.71332 18.875C7.98396 18.875 8.25032 18.7471 8.41698 18.5083C8.42641 18.4949 9.42948 17.1428 11.9998 17.1428C14.5713 17.1428 15.5732 18.4949 15.5826 18.5083C15.7492 18.7471 16.0156 18.875 16.2862 18.875C16.4556 18.875 16.6266 18.8249 16.7761 18.7207C17.1642 18.4497 17.2593 17.9155 16.9884 17.5272V17.5272Z" fill="white"/>
</mask>
<g mask="url(#mask0)">
<rect width="24" height="24" fill="#ED1515"/>
</g>
</svg>
