<svg width="24" height="24" viewBox="0 0 24 24" fill="none" xmlns="http://www.w3.org/2000/svg">
<path fill-rule="evenodd" clip-rule="evenodd" d="M20.3995 10.67C19.8381 9.94241 19.1262 9.4285 18.0073 9.4285C16.8883 9.4285 16.1825 9.94134 15.6174 10.6669C15.3226 11.0452 15.375 11.558 15.8181 11.8566C15.9742 11.9617 16.1581 11.9999 16.3499 11.9999C16.6389 11.9999 16.9128 11.8869 17.0822 11.6689C17.2671 11.4313 17.4951 11.1428 18.0073 11.1428C18.5221 11.1428 18.7483 11.43 18.9303 11.6666C19.1006 11.8864 19.3753 11.9999 19.6652 11.9999C19.857 11.9999 20.0406 11.962 20.1967 11.8562C20.6012 11.5813 20.6923 11.049 20.3995 10.67V10.67ZM8.39949 10.67C7.83806 9.94241 7.12621 9.4285 6.00726 9.4285C4.88831 9.4285 4.18245 9.94134 3.61733 10.6669C3.32263 11.0452 3.37492 11.558 3.81806 11.8566C3.97417 11.9617 4.15803 11.9999 4.34987 11.9999C4.63888 11.9999 4.91274 11.8869 5.08213 11.6689C5.26701 11.4313 5.49506 11.1428 6.00726 11.1428C6.52208 11.1428 6.74826 11.43 6.93029 11.6666C7.10049 11.8864 7.37515 11.9999 7.66508 11.9999C7.85697 11.9999 8.04046 11.962 8.19662 11.8562C8.60124 11.5813 8.69226 11.049 8.39949 10.67V10.67ZM12 0C5.37257 0 0 5.37257 0 12C0 18.6274 5.37257 24 12 24C18.6274 24 24 18.6274 24 12C24 5.37257 18.6274 0 12 0V0ZM19.2731 19.2731C17.3303 21.2158 14.7474 22.2857 12 22.2857C9.25255 22.2857 6.6696 21.2158 4.72683 19.2731C2.78417 17.3303 1.71425 14.7474 1.71425 12C1.71425 9.25255 2.78417 6.66961 4.72683 4.72684C6.6696 2.78418 9.25255 1.71425 12 1.71425C14.7474 1.71425 17.3303 2.78418 19.2731 4.72684C21.2157 6.66961 22.2857 9.25255 22.2857 12C22.2857 14.7474 21.2157 17.3303 19.2731 19.2731V19.2731Z" fill="#EFB135"/>
<mask id="mask0" mask-type="alpha" maskUnits="userSpaceOnUse" x="0" y="0" width="24" height="24">
<path fill-rule="evenodd" clip-rule="evenodd" d="M16.695 17.0187C16.6147 17.0065 16.5244 17 16.434 17C16.2213 17 16.0284 17.0342 15.9303 17.0893C15.2785 17.4567 13.7358 17.6674 12.0002 17.6674C10.2241 17.6674 8.649 17.4536 8.08058 17.0957C7.98812 17.0376 7.78617 17.0001 7.56608 17.0001C7.48416 17.0001 7.40463 17.0051 7.32832 17.0153C7.04527 17.0535 6.92131 17.1516 7.05212 17.2342C7.80228 17.7065 9.79073 18 12.0002 18C14.155 18 16.0928 17.7164 16.9369 17.2406C17.0801 17.1599 16.9711 17.0603 16.695 17.0187V17.0187ZM20.3995 10.67C19.8381 9.94241 19.1262 9.4285 18.0073 9.4285C16.8883 9.4285 16.1825 9.94134 15.6174 10.6669C15.3226 11.0452 15.375 11.558 15.8181 11.8566C15.9742 11.9617 16.1581 11.9999 16.3499 11.9999C16.6389 11.9999 16.9128 11.8869 17.0822 11.6689C17.2671 11.4313 17.4951 11.1428 18.0073 11.1428C18.5221 11.1428 18.7483 11.43 18.9303 11.6666C19.1006 11.8864 19.3753 11.9999 19.6652 11.9999C19.857 11.9999 20.0406 11.962 20.1967 11.8562C20.6012 11.5813 20.6923 11.049 20.3995 10.67V10.67ZM8.39949 10.67C7.83806 9.94241 7.12621 9.4285 6.00726 9.4285C4.88831 9.4285 4.18246 9.94134 3.61733 10.6669C3.32263 11.0452 3.37492 11.558 3.81806 11.8566C3.97417 11.9617 4.15803 11.9999 4.34987 11.9999C4.63888 11.9999 4.91274 11.8869 5.08213 11.6689C5.26701 11.4313 5.49506 11.1428 6.00726 11.1428C6.52208 11.1428 6.74826 11.43 6.9303 11.6666C7.10049 11.8864 7.37515 11.9999 7.66508 11.9999C7.85697 11.9999 8.04046 11.962 8.19662 11.8562C8.60124 11.5813 8.69226 11.049 8.39949 10.67V10.67ZM12 0C5.37257 0 0 5.37257 0 12C0 18.6274 5.37257 24 12 24C18.6274 24 24 18.6274 24 12C24 5.37257 18.6274 0 12 0V0ZM19.2731 19.2731C17.3303 21.2158 14.7474 22.2857 12 22.2857C9.25255 22.2857 6.6696 21.2158 4.72683 19.2731C2.78417 17.3303 1.71425 14.7474 1.71425 12C1.71425 9.25255 2.78417 6.66961 4.72683 4.72684C6.6696 2.78418 9.25255 1.71425 12 1.71425C14.7474 1.71425 17.3303 2.78418 19.2731 4.72684C21.2157 6.66961 22.2857 9.25255 22.2857 12C22.2857 14.7474 21.2157 17.3303 19.2731 19.2731V19.2731Z" fill="white"/>
</mask>
<g mask="url(#mask0)">
<rect width="24" height="24" fill="#EFB135"/>
</g>
</svg>
