<svg width="121" height="57" viewBox="0 0 121 57" fill="none" xmlns="http://www.w3.org/2000/svg">
<path d="M7.5 47H6.408L2.016 40.34V47H0.924V38.624H2.016L6.408 45.272V38.624H7.5V47ZM12.2295 47.108C11.6135 47.108 11.0535 46.968 10.5495 46.688C10.0535 46.408 9.6615 46.012 9.3735 45.5C9.0935 44.98 8.9535 44.38 8.9535 43.7C8.9535 43.028 9.0975 42.436 9.3855 41.924C9.6815 41.404 10.0815 41.008 10.5855 40.736C11.0895 40.456 11.6535 40.316 12.2775 40.316C12.9015 40.316 13.4655 40.456 13.9695 40.736C14.4735 41.008 14.8695 41.4 15.1575 41.912C15.4535 42.424 15.6015 43.02 15.6015 43.7C15.6015 44.38 15.4495 44.98 15.1455 45.5C14.8495 46.012 14.4455 46.408 13.9335 46.688C13.4215 46.968 12.8535 47.108 12.2295 47.108ZM12.2295 46.148C12.6215 46.148 12.9895 46.056 13.3335 45.872C13.6775 45.688 13.9535 45.412 14.1615 45.044C14.3775 44.676 14.4855 44.228 14.4855 43.7C14.4855 43.172 14.3815 42.724 14.1735 42.356C13.9655 41.988 13.6935 41.716 13.3575 41.54C13.0215 41.356 12.6575 41.264 12.2655 41.264C11.8655 41.264 11.4975 41.356 11.1615 41.54C10.8335 41.716 10.5695 41.988 10.3695 42.356C10.1695 42.724 10.0695 43.172 10.0695 43.7C10.0695 44.236 10.1655 44.688 10.3575 45.056C10.5575 45.424 10.8215 45.7 11.1495 45.884C11.4775 46.06 11.8375 46.148 12.2295 46.148ZM19.8285 43.688C19.8285 43.016 19.9645 42.428 20.2365 41.924C20.5085 41.412 20.8805 41.016 21.3525 40.736C21.8325 40.456 22.3685 40.316 22.9605 40.316C23.4725 40.316 23.9485 40.436 24.3885 40.676C24.8285 40.908 25.1645 41.216 25.3965 41.6V38.12H26.5005V47H25.3965V45.764C25.1805 46.156 24.8605 46.48 24.4365 46.736C24.0125 46.984 23.5165 47.108 22.9485 47.108C22.3645 47.108 21.8325 46.964 21.3525 46.676C20.8805 46.388 20.5085 45.984 20.2365 45.464C19.9645 44.944 19.8285 44.352 19.8285 43.688ZM25.3965 43.7C25.3965 43.204 25.2965 42.772 25.0965 42.404C24.8965 42.036 24.6245 41.756 24.2805 41.564C23.9445 41.364 23.5725 41.264 23.1645 41.264C22.7565 41.264 22.3845 41.36 22.0485 41.552C21.7125 41.744 21.4445 42.024 21.2445 42.392C21.0445 42.76 20.9445 43.192 20.9445 43.688C20.9445 44.192 21.0445 44.632 21.2445 45.008C21.4445 45.376 21.7125 45.66 22.0485 45.86C22.3845 46.052 22.7565 46.148 23.1645 46.148C23.5725 46.148 23.9445 46.052 24.2805 45.86C24.6245 45.66 24.8965 45.376 25.0965 45.008C25.2965 44.632 25.3965 44.196 25.3965 43.7ZM27.9379 43.688C27.9379 43.016 28.0739 42.428 28.3459 41.924C28.6179 41.412 28.9899 41.016 29.4619 40.736C29.9419 40.456 30.4739 40.316 31.0579 40.316C31.6339 40.316 32.1339 40.44 32.5579 40.688C32.9819 40.936 33.2979 41.248 33.5059 41.624V40.424H34.6099V47H33.5059V45.776C33.2899 46.16 32.9659 46.48 32.5339 46.736C32.1099 46.984 31.6139 47.108 31.0459 47.108C30.4619 47.108 29.9339 46.964 29.4619 46.676C28.9899 46.388 28.6179 45.984 28.3459 45.464C28.0739 44.944 27.9379 44.352 27.9379 43.688ZM33.5059 43.7C33.5059 43.204 33.4059 42.772 33.2059 42.404C33.0059 42.036 32.7339 41.756 32.3899 41.564C32.0539 41.364 31.6819 41.264 31.2739 41.264C30.8659 41.264 30.4939 41.36 30.1579 41.552C29.8219 41.744 29.5539 42.024 29.3539 42.392C29.1539 42.76 29.0539 43.192 29.0539 43.688C29.0539 44.192 29.1539 44.632 29.3539 45.008C29.5539 45.376 29.8219 45.66 30.1579 45.86C30.4939 46.052 30.8659 46.148 31.2739 46.148C31.6819 46.148 32.0539 46.052 32.3899 45.86C32.7339 45.66 33.0059 45.376 33.2059 45.008C33.4059 44.632 33.5059 44.196 33.5059 43.7ZM37.7873 41.324V45.2C37.7873 45.52 37.8553 45.748 37.9913 45.884C38.1273 46.012 38.3633 46.076 38.6992 46.076H39.5033V47H38.5193C37.9113 47 37.4553 46.86 37.1513 46.58C36.8473 46.3 36.6953 45.84 36.6953 45.2V41.324H35.8433V40.424H36.6953V38.768H37.7873V40.424H39.5033V41.324H37.7873ZM40.4183 43.688C40.4183 43.016 40.5543 42.428 40.8263 41.924C41.0983 41.412 41.4703 41.016 41.9423 40.736C42.4223 40.456 42.9543 40.316 43.5383 40.316C44.1143 40.316 44.6143 40.44 45.0383 40.688C45.4623 40.936 45.7783 41.248 45.9863 41.624V40.424H47.0903V47H45.9863V45.776C45.7703 46.16 45.4463 46.48 45.0143 46.736C44.5903 46.984 44.0943 47.108 43.5263 47.108C42.9423 47.108 42.4143 46.964 41.9423 46.676C41.4703 46.388 41.0983 45.984 40.8263 45.464C40.5543 44.944 40.4183 44.352 40.4183 43.688ZM45.9863 43.7C45.9863 43.204 45.8863 42.772 45.6863 42.404C45.4863 42.036 45.2143 41.756 44.8703 41.564C44.5343 41.364 44.1623 41.264 43.7543 41.264C43.3463 41.264 42.9743 41.36 42.6383 41.552C42.3023 41.744 42.0343 42.024 41.8343 42.392C41.6343 42.76 41.5343 43.192 41.5343 43.688C41.5343 44.192 41.6343 44.632 41.8343 45.008C42.0343 45.376 42.3023 45.66 42.6383 45.86C42.9743 46.052 43.3463 46.148 43.7543 46.148C44.1623 46.148 44.5343 46.052 44.8703 45.86C45.2143 45.66 45.4863 45.376 45.6863 45.008C45.8863 44.632 45.9863 44.196 45.9863 43.7ZM53.4669 41.324V45.2C53.4669 45.52 53.5349 45.748 53.6709 45.884C53.8069 46.012 54.0429 46.076 54.3789 46.076H55.1829V47H54.1989C53.5909 47 53.1349 46.86 52.8309 46.58C52.5269 46.3 52.3749 45.84 52.3749 45.2V41.324H51.5229V40.424H52.3749V38.768H53.4669V40.424H55.1829V41.324H53.4669ZM59.374 47.108C58.758 47.108 58.198 46.968 57.694 46.688C57.198 46.408 56.806 46.012 56.518 45.5C56.238 44.98 56.098 44.38 56.098 43.7C56.098 43.028 56.242 42.436 56.53 41.924C56.826 41.404 57.226 41.008 57.73 40.736C58.234 40.456 58.798 40.316 59.422 40.316C60.046 40.316 60.61 40.456 61.114 40.736C61.618 41.008 62.014 41.4 62.302 41.912C62.598 42.424 62.746 43.02 62.746 43.7C62.746 44.38 62.594 44.98 62.29 45.5C61.994 46.012 61.59 46.408 61.078 46.688C60.566 46.968 59.998 47.108 59.374 47.108ZM59.374 46.148C59.766 46.148 60.134 46.056 60.478 45.872C60.822 45.688 61.098 45.412 61.306 45.044C61.522 44.676 61.63 44.228 61.63 43.7C61.63 43.172 61.526 42.724 61.318 42.356C61.11 41.988 60.838 41.716 60.502 41.54C60.166 41.356 59.802 41.264 59.41 41.264C59.01 41.264 58.642 41.356 58.306 41.54C57.978 41.716 57.714 41.988 57.514 42.356C57.314 42.724 57.214 43.172 57.214 43.7C57.214 44.236 57.31 44.688 57.502 45.056C57.702 45.424 57.966 45.7 58.294 45.884C58.622 46.06 58.982 46.148 59.374 46.148ZM66.973 43.688C66.973 43.016 67.109 42.428 67.381 41.924C67.653 41.412 68.025 41.016 68.497 40.736C68.977 40.456 69.513 40.316 70.105 40.316C70.617 40.316 71.093 40.436 71.533 40.676C71.973 40.908 72.309 41.216 72.541 41.6V38.12H73.645V47H72.541V45.764C72.325 46.156 72.005 46.48 71.581 46.736C71.157 46.984 70.661 47.108 70.093 47.108C69.509 47.108 68.977 46.964 68.497 46.676C68.025 46.388 67.653 45.984 67.381 45.464C67.109 44.944 66.973 44.352 66.973 43.688ZM72.541 43.7C72.541 43.204 72.441 42.772 72.241 42.404C72.041 42.036 71.769 41.756 71.425 41.564C71.089 41.364 70.717 41.264 70.309 41.264C69.901 41.264 69.529 41.36 69.193 41.552C68.857 41.744 68.589 42.024 68.389 42.392C68.189 42.76 68.089 43.192 68.089 43.688C68.089 44.192 68.189 44.632 68.389 45.008C68.589 45.376 68.857 45.66 69.193 45.86C69.529 46.052 69.901 46.148 70.309 46.148C70.717 46.148 71.089 46.052 71.425 45.86C71.769 45.66 72.041 45.376 72.241 45.008C72.441 44.632 72.541 44.196 72.541 43.7ZM76.0544 39.356C75.8464 39.356 75.6704 39.284 75.5264 39.14C75.3824 38.996 75.3104 38.82 75.3104 38.612C75.3104 38.404 75.3824 38.228 75.5264 38.084C75.6704 37.94 75.8464 37.868 76.0544 37.868C76.2544 37.868 76.4224 37.94 76.5584 38.084C76.7024 38.228 76.7744 38.404 76.7744 38.612C76.7744 38.82 76.7024 38.996 76.5584 39.14C76.4224 39.284 76.2544 39.356 76.0544 39.356ZM76.5824 40.424V47H75.4904V40.424H76.5824ZM80.7715 47.108C80.2675 47.108 79.8155 47.024 79.4155 46.856C79.0155 46.68 78.6995 46.44 78.4675 46.136C78.2355 45.824 78.1075 45.468 78.0835 45.068H79.2115C79.2435 45.396 79.3955 45.664 79.6675 45.872C79.9475 46.08 80.3115 46.184 80.7595 46.184C81.1755 46.184 81.5035 46.092 81.7435 45.908C81.9835 45.724 82.1035 45.492 82.1035 45.212C82.1035 44.924 81.9755 44.712 81.7195 44.576C81.4635 44.432 81.0675 44.292 80.5315 44.156C80.0435 44.028 79.6435 43.9 79.3315 43.772C79.0275 43.636 78.7635 43.44 78.5395 43.184C78.3235 42.92 78.2155 42.576 78.2155 42.152C78.2155 41.816 78.3155 41.508 78.5155 41.228C78.7155 40.948 78.9995 40.728 79.3675 40.568C79.7355 40.4 80.1555 40.316 80.6275 40.316C81.3555 40.316 81.9435 40.5 82.3915 40.868C82.8395 41.236 83.0795 41.74 83.1115 42.38H82.0195C81.9955 42.036 81.8555 41.76 81.5995 41.552C81.3515 41.344 81.0155 41.24 80.5915 41.24C80.1995 41.24 79.8875 41.324 79.6555 41.492C79.4235 41.66 79.3075 41.88 79.3075 42.152C79.3075 42.368 79.3755 42.548 79.5115 42.692C79.6555 42.828 79.8315 42.94 80.0395 43.028C80.2555 43.108 80.5515 43.2 80.9275 43.304C81.3995 43.432 81.7835 43.56 82.0795 43.688C82.3755 43.808 82.6275 43.992 82.8355 44.24C83.0515 44.488 83.1635 44.812 83.1715 45.212C83.1715 45.572 83.0715 45.896 82.8715 46.184C82.6715 46.472 82.3875 46.7 82.0195 46.868C81.6595 47.028 81.2435 47.108 80.7715 47.108ZM85.8051 41.636C86.0211 41.26 86.3411 40.948 86.7651 40.7C87.1971 40.444 87.6971 40.316 88.2651 40.316C88.8491 40.316 89.3771 40.456 89.8491 40.736C90.3291 41.016 90.7051 41.412 90.9771 41.924C91.2491 42.428 91.3851 43.016 91.3851 43.688C91.3851 44.352 91.2491 44.944 90.9771 45.464C90.7051 45.984 90.3291 46.388 89.8491 46.676C89.3771 46.964 88.8491 47.108 88.2651 47.108C87.7051 47.108 87.2091 46.984 86.7771 46.736C86.3531 46.48 86.0291 46.164 85.8051 45.788V50.12H84.7131V40.424H85.8051V41.636ZM90.2691 43.688C90.2691 43.192 90.1691 42.76 89.9691 42.392C89.7691 42.024 89.4971 41.744 89.1531 41.552C88.8171 41.36 88.4451 41.264 88.0371 41.264C87.6371 41.264 87.2651 41.364 86.9211 41.564C86.5851 41.756 86.3131 42.04 86.1051 42.416C85.9051 42.784 85.8051 43.212 85.8051 43.7C85.8051 44.196 85.9051 44.632 86.1051 45.008C86.3131 45.376 86.5851 45.66 86.9211 45.86C87.2651 46.052 87.6371 46.148 88.0371 46.148C88.4451 46.148 88.8171 46.052 89.1531 45.86C89.4971 45.66 89.7691 45.376 89.9691 45.008C90.1691 44.632 90.2691 44.192 90.2691 43.688ZM93.9144 38.12V47H92.8224V38.12H93.9144ZM95.3676 43.688C95.3676 43.016 95.5036 42.428 95.7756 41.924C96.0476 41.412 96.4196 41.016 96.8916 40.736C97.3716 40.456 97.9036 40.316 98.4876 40.316C99.0636 40.316 99.5636 40.44 99.9876 40.688C100.412 40.936 100.728 41.248 100.936 41.624V40.424H102.04V47H100.936V45.776C100.72 46.16 100.396 46.48 99.9636 46.736C99.5396 46.984 99.0436 47.108 98.4756 47.108C97.8916 47.108 97.3636 46.964 96.8916 46.676C96.4196 46.388 96.0476 45.984 95.7756 45.464C95.5036 44.944 95.3676 44.352 95.3676 43.688ZM100.936 43.7C100.936 43.204 100.836 42.772 100.636 42.404C100.436 42.036 100.164 41.756 99.8196 41.564C99.4836 41.364 99.1116 41.264 98.7036 41.264C98.2956 41.264 97.9236 41.36 97.5876 41.552C97.2516 41.744 96.9836 42.024 96.7836 42.392C96.5836 42.76 96.4836 43.192 96.4836 43.688C96.4836 44.192 96.5836 44.632 96.7836 45.008C96.9836 45.376 97.2516 45.66 97.5876 45.86C97.9236 46.052 98.2956 46.148 98.7036 46.148C99.1116 46.148 99.4836 46.052 99.8196 45.86C100.164 45.66 100.436 45.376 100.636 45.008C100.836 44.632 100.936 44.196 100.936 43.7ZM109.549 40.424L105.589 50.096H104.461L105.757 46.928L103.105 40.424H104.317L106.381 45.752L108.421 40.424H109.549Z" fill="#858585"/>
<path fill-rule="evenodd" clip-rule="evenodd" d="M70 1.25H64.5454V28.5227H70V1.25ZM56.3639 9.43197H61.8185V28.5229H56.3639V9.43197ZM53.6361 17.6136H48.1816V28.5227H53.6361V17.6136ZM45.4545 23.068H40V28.5226H45.4545V23.068Z" fill="#939393"/>
<mask id="mask0" mask-type="alpha" maskUnits="userSpaceOnUse" x="40" y="1" width="30" height="28">
<path fill-rule="evenodd" clip-rule="evenodd" d="M70 1.25H64.5454V28.5227H70V1.25ZM56.3639 9.43197H61.8185V28.5229H56.3639V9.43197ZM53.6361 17.6136H48.1816V28.5227H53.6361V17.6136ZM45.4545 23.068H40V28.5226H45.4545V23.068Z" fill="white"/>
</mask>
<g mask="url(#mask0)">
<rect x="40" width="30" height="30" fill="#939393"/>
</g>
</svg>
