<svg xmlns="http://www.w3.org/2000/svg" viewBox="0 0 137.74 129.45"><defs><style>.cls-1{fill:#f2d03b;}.cls-2{fill:#fff;}.cls-3{fill:#e8b938;}.cls-4{fill:#3d3813;}</style></defs><title>Asset 6</title><g id="Layer_2" data-name="Layer 2"><g id="objects"><rect class="cls-1" width="137.74" height="129.45" rx="64.08"/><path class="cls-2" d="M8.71,49.9a2.08,2.08,0,0,1-.6-.09,2.14,2.14,0,0,1-1.46-2.65A60.46,60.46,0,0,1,44.33,7.31a2.14,2.14,0,0,1,1.43,4,56.16,56.16,0,0,0-35,37A2.14,2.14,0,0,1,8.71,49.9Z"/><path class="cls-3" d="M101.84,6.52a64,64,0,0,1,25.47,51.14V59A64.08,64.08,0,0,1,63.23,123H53.65a63.83,63.83,0,0,1-28.18-6.52,63.79,63.79,0,0,0,38.61,12.94h9.58a64.08,64.08,0,0,0,64.08-64.08V64.08A64.08,64.08,0,0,0,101.84,6.52Z"/><rect class="cls-4" x="36.51" y="40.18" width="14.09" height="19.39" rx="6.97"/><rect class="cls-4" x="87.15" y="40.18" width="14.09" height="19.39" rx="6.97"/><path class="cls-4" d="M99.88,97.4a3.21,3.21,0,0,1-3-2c-.28-.65-6.89-15.68-28-15.68S41.1,94.79,40.82,95.43A3.21,3.21,0,0,1,34.9,93c.33-.8,8.38-19.65,34-19.65s33.64,18.85,34,19.65a3.2,3.2,0,0,1-1.74,4.19A3.31,3.31,0,0,1,99.88,97.4Z"/></g></g></svg>