<svg xmlns="http://www.w3.org/2000/svg" viewBox="0 0 452 101.7"><defs><style>.cls-1{fill:#2d83c5;}.cls-2{fill:#474948;}</style></defs><title>Asset 3</title><g id="Layer_2" data-name="Layer 2"><g id="Layer_1-2" data-name="Layer 1"><rect class="cls-1" x="28.2" y="6.74" width="3.64" height="64.68"/><rect class="cls-1" x="35.47" y="6.74" width="3.63" height="64.68"/><rect class="cls-1" x="42.74" y="6.74" width="3.63" height="64.68"/><rect class="cls-1" x="68.19" y="6.74" width="3.64" height="64.68"/><rect class="cls-1" x="75.46" y="6.74" width="3.64" height="64.68"/><rect class="cls-1" x="82.73" y="6.74" width="3.64" height="64.68"/><polygon class="cls-1" points="39.05 6.74 39.1 6.78 39.1 10.94 36.48 8.81 39.05 6.74"/><polygon class="cls-1" points="71.82 33.25 71.82 37.41 68.19 34.47 42.74 13.88 42.74 9.72 71.82 33.25"/><polygon class="cls-1" points="79.09 39.13 79.09 43.29 75.46 40.35 75.46 36.19 79.09 39.13"/><polygon class="cls-1" points="86.36 45.02 86.36 49.18 82.73 46.23 82.73 42.07 86.36 45.02"/><polygon class="cls-1" points="31.34 12.97 31.83 12.58 31.83 13.38 31.34 12.97"/><polygon class="cls-1" points="35.47 12.16 39.1 15.1 39.1 19.26 35.47 16.32 35.47 12.16"/><polygon class="cls-1" points="68.19 38.63 71.82 41.57 71.82 45.73 68.19 42.79 46.37 25.14 42.74 22.2 42.74 18.04 68.19 38.63"/><polygon class="cls-1" points="79.09 47.45 79.09 51.61 75.46 48.67 75.46 44.51 79.09 47.45"/><polygon class="cls-1" points="86.36 53.34 86.36 57.5 82.73 54.55 82.73 50.39 86.36 53.34"/><polygon class="cls-1" points="28.77 15.06 31.83 17.54 31.83 21.69 28.2 18.75 28.2 15.52 28.77 15.06"/><polygon class="cls-1" points="35.47 20.48 39.1 23.42 39.1 27.58 35.47 24.64 35.47 20.48"/><polygon class="cls-1" points="68.19 46.95 71.82 49.89 71.82 54.05 68.19 51.11 42.74 30.52 42.74 26.36 46.37 29.3 68.19 46.95"/><polygon class="cls-1" points="79.09 55.77 79.09 59.93 75.46 56.99 75.46 52.83 79.09 55.77"/><polygon class="cls-1" points="85.29 60.79 82.73 62.86 82.73 58.71 85.29 60.79"/><path class="cls-2" d="M317.38,41a29.81,29.81,0,0,1,2-10.56,29,29,0,0,1,5.8-9.4,29.36,29.36,0,0,1,9.28-6.7,28.88,28.88,0,0,1,12.42-2.57,28,28,0,0,1,14.37,3.56,23.77,23.77,0,0,1,7.4,6.58,3.08,3.08,0,0,1-.7,4.35L362.61,30a3,3,0,0,1-4.17-.64,11.61,11.61,0,0,0-1.1-1.3,13.94,13.94,0,0,0-7.08-3.81,19.32,19.32,0,0,0-3.73-.37,14.1,14.1,0,0,0-6.79,1.57,15.1,15.1,0,0,0-4.81,4.06,17,17,0,0,0-2.81,5.63,22.77,22.77,0,0,0-.91,6.38,21.28,21.28,0,0,0,1.07,6.71,17.93,17.93,0,0,0,3.11,5.71,15,15,0,0,0,4.89,3.94,13.91,13.91,0,0,0,6.42,1.45,16.1,16.1,0,0,0,3.76-.46,14.92,14.92,0,0,0,3.73-1.41A13.09,13.09,0,0,0,357.46,55a9.57,9.57,0,0,0,1.1-1.34,3,3,0,0,1,4.06-.8l5.84,3.44a3,3,0,0,1,1,4.26,18,18,0,0,1-2.47,3,24.26,24.26,0,0,1-6,4.31,32.91,32.91,0,0,1-14.66,3.56,26.29,26.29,0,0,1-11.71-2.61,29.62,29.62,0,0,1-9.2-6.91,31.57,31.57,0,0,1-6-9.78A30.49,30.49,0,0,1,317.38,41Z"/><path class="cls-2" d="M385.33,13.34,397.71,32.9l12.37-19.56a1.56,1.56,0,0,1,1.33-.73h10.82a1.57,1.57,0,0,1,1.3,2.45l-18.7,27.36L422.88,69a1.57,1.57,0,0,1-1.3,2.45H410.75a1.57,1.57,0,0,1-1.33-.74L397.71,52,386,70.67a1.56,1.56,0,0,1-1.33.74H373.75A1.57,1.57,0,0,1,372.46,69l18-26.54L371.8,15.06a1.57,1.57,0,0,1,1.3-2.45H384A1.56,1.56,0,0,1,385.33,13.34Z"/><path class="cls-1" d="M121.13,71.41a29.75,29.75,0,0,1-11.54-2.12,25.11,25.11,0,0,1-8.54-5.75,24.13,24.13,0,0,1-5.26-8.4,28.77,28.77,0,0,1,0-20,24.13,24.13,0,0,1,5.26-8.4,25.66,25.66,0,0,1,8.54-5.8,29.21,29.21,0,0,1,11.54-2.17A28.85,28.85,0,0,1,132.62,21a25.75,25.75,0,0,1,8.49,5.8,24.7,24.7,0,0,1,5.31,8.4,27.45,27.45,0,0,1,1.84,10,28.27,28.27,0,0,1-1.79,10,24.13,24.13,0,0,1-5.26,8.4,25.11,25.11,0,0,1-8.54,5.75A29.75,29.75,0,0,1,121.13,71.41Zm-11.3-26.26A14.06,14.06,0,0,0,113,54.76a10.81,10.81,0,0,0,12.55,2.65,10.5,10.5,0,0,0,3.52-2.7,13,13,0,0,0,2.37-4.2,16,16,0,0,0,.87-5.36q0-6-3.19-9.61a10.22,10.22,0,0,0-8-3.62,10.51,10.51,0,0,0-8.06,3.67,13,13,0,0,0-2.37,4.2A16,16,0,0,0,109.83,45.15Z"/><path class="cls-1" d="M185,55.48a21,21,0,0,1-3.19,1.25,11.62,11.62,0,0,1-3.56.58,4.12,4.12,0,0,1-4.45-4.73V31.43h10.33V19.75h-6.62A3.71,3.71,0,0,1,173.84,16V3.24a3.12,3.12,0,0,0-5-2.47l-9.2,7.05a3.13,3.13,0,0,0-1.22,2.48V16a3.71,3.71,0,0,1-3.71,3.71h-2.76V31.43h6.47V57.9a16,16,0,0,0,1.11,6.27,10.63,10.63,0,0,0,3,4.19,12.13,12.13,0,0,0,4.5,2.32,20,20,0,0,0,5.45.73,29.88,29.88,0,0,0,8.25-1.16,63.59,63.59,0,0,0,7.3-2.51Z"/><path class="cls-1" d="M189.77,45.05a27.74,27.74,0,0,1,1.84-10,24.7,24.7,0,0,1,5.31-8.4,25.09,25.09,0,0,1,8.54-5.74A29.57,29.57,0,0,1,217,18.79q8.79,0,14.77,3.72a24.49,24.49,0,0,1,6.13,5.31,3.68,3.68,0,0,1-1.85,5.81L228.13,36a3.73,3.73,0,0,1-3.78-1,9.42,9.42,0,0,0-6.17-3,11,11,0,0,0-9.09,3.25q-3.48,3.62-3.48,9.82a16.29,16.29,0,0,0,.87,5.46,12.53,12.53,0,0,0,2.41,4.2,11,11,0,0,0,3.62,2.7,10.61,10.61,0,0,0,9.7-.43,9.83,9.83,0,0,0,2.35-1.87,3.68,3.68,0,0,1,3.81-1l7.86,2.42a3.67,3.67,0,0,1,1.84,5.79,24.3,24.3,0,0,1-6.15,5.29A28,28,0,0,1,217,71.41a28.74,28.74,0,0,1-11.44-2.17A26.32,26.32,0,0,1,197,63.45a24.57,24.57,0,0,1-5.36-8.4A27.75,27.75,0,0,1,189.77,45.05Z"/><path class="cls-1" d="M296.07,32.25a17.11,17.11,0,0,0-2.27-6.17A13.12,13.12,0,0,0,289,21.54a16.78,16.78,0,0,0-8.26-1.79,20.9,20.9,0,0,0-10.09,2.47l-.09,0a4.89,4.89,0,0,1-7.3-4.23V3.13a3.12,3.12,0,0,0-5-2.48L249,7.7a3.11,3.11,0,0,0-1.22,2.47V71.41h15.44V42.35a12.64,12.64,0,0,1,1.94-3.67,16.21,16.21,0,0,1,2.75-2.85A12.25,12.25,0,0,1,271,34a8.21,8.21,0,0,1,2.94-.62,6.59,6.59,0,0,1,5.32,2.31c1.28,1.55,1.93,4,1.93,7.25V71.41h15.44V39A40,40,0,0,0,296.07,32.25Z"/><path class="cls-1" d="M0,96.71A5,5,0,0,1,.32,95a4.85,4.85,0,0,1,1-1.53,4.78,4.78,0,0,1,1.51-1.1,4.72,4.72,0,0,1,2-.42,4.68,4.68,0,0,1,2.35.58A3.7,3.7,0,0,1,8.63,94l-1.7,1.19a1.81,1.81,0,0,0-.41-.63A2.39,2.39,0,0,0,6,94.19a2.91,2.91,0,0,0-.6-.22,3.31,3.31,0,0,0-.61-.06,2.28,2.28,0,0,0-1.11.26,2.43,2.43,0,0,0-.79.66,2.72,2.72,0,0,0-.45.92,3.66,3.66,0,0,0,0,2.14,3,3,0,0,0,.51.93,2.49,2.49,0,0,0,.8.64,2.24,2.24,0,0,0,1,.24,2.7,2.7,0,0,0,.62-.08A2.38,2.38,0,0,0,6,99.39a2.24,2.24,0,0,0,.53-.4,1.93,1.93,0,0,0,.39-.62l1.81,1.07a2.85,2.85,0,0,1-.64,1,3.87,3.87,0,0,1-1,.7,5.29,5.29,0,0,1-1.17.43,5.22,5.22,0,0,1-1.22.15,4.22,4.22,0,0,1-1.91-.43,4.91,4.91,0,0,1-1.5-1.12,5.15,5.15,0,0,1-1-1.6A5,5,0,0,1,0,96.71Z"/><path class="cls-1" d="M22.08,99.7a1.8,1.8,0,0,0,1-.24,1.9,1.9,0,0,0,.63-.63,2.56,2.56,0,0,0,.35-.9,5,5,0,0,0,.1-1V92h2.21v4.9a7,7,0,0,1-.24,1.87,4.34,4.34,0,0,1-.78,1.51,3.55,3.55,0,0,1-1.32,1,4.46,4.46,0,0,1-1.91.37,4.48,4.48,0,0,1-2-.39,3.62,3.62,0,0,1-1.32-1,4.31,4.31,0,0,1-.74-1.52,6.76,6.76,0,0,1-.24-1.81V92H20v4.9a4.45,4.45,0,0,0,.11,1,2.86,2.86,0,0,0,.35.9,1.87,1.87,0,0,0,.63.62A1.83,1.83,0,0,0,22.08,99.7Z"/><path class="cls-1" d="M41.91,94.81a1,1,0,0,0-.28-.21,4.86,4.86,0,0,0-.61-.31,5.63,5.63,0,0,0-.79-.28,3.26,3.26,0,0,0-.87-.12c-.79,0-1.19.26-1.19.79a.61.61,0,0,0,.13.41,1.06,1.06,0,0,0,.38.29,3.35,3.35,0,0,0,.63.24l.88.24a12.88,12.88,0,0,1,1.24.41,3.44,3.44,0,0,1,.94.56,2.25,2.25,0,0,1,.59.8,2.8,2.8,0,0,1,.21,1.14,2.89,2.89,0,0,1-.3,1.37,2.6,2.6,0,0,1-.81.9,3.24,3.24,0,0,1-1.15.5,5.83,5.83,0,0,1-1.33.16,8.09,8.09,0,0,1-1.08-.08,9.41,9.41,0,0,1-1.08-.24,7.67,7.67,0,0,1-1-.37,6.2,6.2,0,0,1-.92-.5l1-1.93a1.65,1.65,0,0,0,.35.25,4.87,4.87,0,0,0,.73.38,7.47,7.47,0,0,0,1,.34,4.11,4.11,0,0,0,1.1.15q1.17,0,1.17-.72a.6.6,0,0,0-.17-.44,1.54,1.54,0,0,0-.49-.32A4.68,4.68,0,0,0,39.4,98l-.93-.27a7.5,7.5,0,0,1-1.15-.44,2.81,2.81,0,0,1-.8-.54A2,2,0,0,1,36,96a2.69,2.69,0,0,1-.15-.94,3,3,0,0,1,.28-1.34,2.87,2.87,0,0,1,.77-1,3.23,3.23,0,0,1,1.13-.6,4.35,4.35,0,0,1,1.36-.21,5.54,5.54,0,0,1,1,.1,7,7,0,0,1,.93.24,6.86,6.86,0,0,1,.83.34c.25.13.49.25.71.38Z"/><path class="cls-1" d="M59.82,93.94H56.9v7.65H54.68V93.94H51.75V92h8.07Z"/><path class="cls-1" d="M72.76,101.67a4.41,4.41,0,0,1-1.94-.42,4.63,4.63,0,0,1-1.5-1.1A5,5,0,0,1,68,96.78a4.85,4.85,0,0,1,2.87-4.44,4.56,4.56,0,0,1,1.92-.4,4.49,4.49,0,0,1,2,.42,4.88,4.88,0,0,1,1.5,1.11,5.14,5.14,0,0,1,1,1.57,5,5,0,0,1,.34,1.78,4.73,4.73,0,0,1-.36,1.82,4.86,4.86,0,0,1-1,1.55,4.7,4.7,0,0,1-1.51,1.07A4.38,4.38,0,0,1,72.76,101.67Zm-2.5-4.86a3.91,3.91,0,0,0,.16,1.07,2.93,2.93,0,0,0,.48.93,2.45,2.45,0,0,0,.79.64,2.48,2.48,0,0,0,2.19,0,2.34,2.34,0,0,0,.79-.67,2.7,2.7,0,0,0,.46-.93,3.49,3.49,0,0,0,.16-1.06,3.92,3.92,0,0,0-.16-1.08,2.67,2.67,0,0,0-.49-.91,2.45,2.45,0,0,0-.79-.64,2.31,2.31,0,0,0-1.07-.24,2.42,2.42,0,0,0-1.11.25,2.5,2.5,0,0,0-.78.66,2.76,2.76,0,0,0-.47.92A3.56,3.56,0,0,0,70.26,96.81Z"/><path class="cls-1" d="M94.5,101.59V95.85L92.42,100H91.23l-2.08-4.17v5.74H86.94V92h2.4l2.49,5,2.5-5h2.39v9.59Z"/><path class="cls-1" d="M113.41,99.64v2h-6.75V92h6.62v1.94h-4.4v1.87h3.78V97.6h-3.78v2Z"/><path class="cls-1" d="M122.86,101.59V92h4.33a2.79,2.79,0,0,1,1.25.28,3.47,3.47,0,0,1,1,.74,3.67,3.67,0,0,1,.66,1,3.26,3.26,0,0,1,.23,1.18,3.07,3.07,0,0,1-.11.86,3,3,0,0,1-.31.77,2.9,2.9,0,0,1-.49.66,2.85,2.85,0,0,1-.65.49l2.1,3.57h-2.5l-1.83-3.1h-1.45v3.1Zm2.22-5h2a.82.82,0,0,0,.67-.37,1.51,1.51,0,0,0,.29-1,1.34,1.34,0,0,0-.33-.95,1,1,0,0,0-.7-.35h-2Z"/><path class="cls-2" d="M158,99.64v2h-6.74V92h6.62v1.94h-4.41v1.87h3.79V97.6h-3.79v2Z"/><path class="cls-2" d="M168.87,92l2.1,3.31L173.06,92h2.39l-3.32,4.86,3.21,4.73H173l-2-3.18-2,3.18h-2.4l3.21-4.73L166.47,92Z"/><path class="cls-2" d="M184.38,101.59V92h4.1a2.77,2.77,0,0,1,1.26.28,3.47,3.47,0,0,1,1,.74,3.87,3.87,0,0,1,.65,1,3.28,3.28,0,0,1,0,2.39,3.5,3.5,0,0,1-.62,1,2.91,2.91,0,0,1-2.22,1h-2v3.1Zm2.22-5h1.81a.86.86,0,0,0,.68-.34,1.47,1.47,0,0,0,.28-1,1.64,1.64,0,0,0-.09-.58,1.33,1.33,0,0,0-.23-.41.93.93,0,0,0-.34-.23,1,1,0,0,0-.38-.08H186.6Z"/><path class="cls-2" d="M207.65,99.64v2h-6.74V92h6.62v1.94h-4.41v1.87h3.79V97.6h-3.79v2Z"/><path class="cls-2" d="M217.11,101.59V92h4.32a2.76,2.76,0,0,1,1.25.28,3.38,3.38,0,0,1,1,.74,3.87,3.87,0,0,1,.65,1,3.07,3.07,0,0,1,.24,1.18,3.49,3.49,0,0,1-.11.86,3.45,3.45,0,0,1-.31.77,3.23,3.23,0,0,1-.49.66A3.14,3.14,0,0,1,223,98l2.11,3.57h-2.5l-1.84-3.1h-1.45v3.1Zm2.21-5h2a.83.83,0,0,0,.68-.37,1.51,1.51,0,0,0,.28-1,1.38,1.38,0,0,0-.32-.95,1,1,0,0,0-.71-.35h-2Z"/><path class="cls-2" d="M234.27,101.59V92h2.21v9.59Z"/><path class="cls-2" d="M253.17,99.64v2h-6.74V92h6.62v1.94h-4.4v1.87h3.78V97.6h-3.78v2Z"/><path class="cls-2" d="M264.85,96.1v5.49h-2.22V92h1.73l4.47,5.63V92h2.22v9.59h-1.78Z"/><path class="cls-2" d="M280.44,96.71a5,5,0,0,1,.32-1.72,4.85,4.85,0,0,1,.95-1.53,4.67,4.67,0,0,1,1.51-1.1,4.72,4.72,0,0,1,2-.42,4.61,4.61,0,0,1,2.34.58A3.66,3.66,0,0,1,289.07,94l-1.7,1.19a1.81,1.81,0,0,0-.41-.63,2.39,2.39,0,0,0-.55-.41,2.79,2.79,0,0,0-.61-.22,3.13,3.13,0,0,0-.6-.06,2.28,2.28,0,0,0-1.11.26,2.43,2.43,0,0,0-.79.66,2.94,2.94,0,0,0-.46.92,4.07,4.07,0,0,0-.14,1,3.38,3.38,0,0,0,.17,1.1,3,3,0,0,0,.51.93,2.39,2.39,0,0,0,.8.64,2.24,2.24,0,0,0,1,.24,2.7,2.7,0,0,0,.62-.08,2.38,2.38,0,0,0,.61-.23A2.24,2.24,0,0,0,287,99a1.93,1.93,0,0,0,.39-.62l1.81,1.07a2.85,2.85,0,0,1-.64,1,3.87,3.87,0,0,1-1,.7,5.19,5.19,0,0,1-1.18.43,5.14,5.14,0,0,1-1.21.15,4.19,4.19,0,0,1-1.91-.43,4.91,4.91,0,0,1-1.5-1.12,5.15,5.15,0,0,1-1-1.6A5,5,0,0,1,280.44,96.71Z"/><path class="cls-2" d="M305.14,99.64v2H298.4V92H305v1.94h-4.41v1.87h3.79V97.6h-3.79v2Z"/><path class="cls-1" d="M325.85,101.59V92H330a2.77,2.77,0,0,1,1.26.28,3.47,3.47,0,0,1,1,.74,3.87,3.87,0,0,1,.65,1,3.28,3.28,0,0,1,0,2.39,3.5,3.5,0,0,1-.62,1,2.91,2.91,0,0,1-2.22,1h-1.95v3.1Zm2.22-5h1.81a.86.86,0,0,0,.68-.34,1.47,1.47,0,0,0,.28-1,1.64,1.64,0,0,0-.09-.58,1.33,1.33,0,0,0-.23-.41.93.93,0,0,0-.34-.23,1,1,0,0,0-.38-.08h-1.73Z"/><path class="cls-1" d="M342.38,101.59V92h2.21v7.64h4.65v2Z"/><path class="cls-1" d="M361,92h2l3.5,9.59h-2.27l-.75-2.15h-3l-.73,2.15H357.5Zm2.12,5.91L362,94.52l-1.15,3.39Z"/><path class="cls-1" d="M381.91,93.94H379v7.65h-2.22V93.94h-2.93V92h8.06Z"/><path class="cls-1" d="M391.1,101.59V92h6.52v1.94h-4.3V96h3.54v1.8h-3.54v3.78Z"/><path class="cls-1" d="M410.88,101.67a4.41,4.41,0,0,1-1.94-.42,4.63,4.63,0,0,1-1.5-1.1,5,5,0,0,1-1.31-3.37,4.81,4.81,0,0,1,.36-1.83,4.65,4.65,0,0,1,1-1.54A4.75,4.75,0,0,1,409,92.34a4.48,4.48,0,0,1,1.91-.4,4.43,4.43,0,0,1,1.95.42,4.66,4.66,0,0,1,1.5,1.11,5.14,5.14,0,0,1,1,1.57,5,5,0,0,1,.34,1.78,4.73,4.73,0,0,1-.36,1.82,5,5,0,0,1-1,1.55,4.86,4.86,0,0,1-1.52,1.07A4.35,4.35,0,0,1,410.88,101.67Zm-2.5-4.86a3.57,3.57,0,0,0,.17,1.07,2.57,2.57,0,0,0,.48.93,2.26,2.26,0,0,0,.79.64,2.21,2.21,0,0,0,1.08.25,2.33,2.33,0,0,0,1.11-.26,2.4,2.4,0,0,0,.78-.67,2.7,2.7,0,0,0,.46-.93,3.49,3.49,0,0,0,.16-1.06,3.58,3.58,0,0,0-.16-1.08,2.67,2.67,0,0,0-.49-.91,2.35,2.35,0,0,0-.79-.64,2.31,2.31,0,0,0-1.07-.24,2.35,2.35,0,0,0-1.1.25,2.53,2.53,0,0,0-.79.66,2.76,2.76,0,0,0-.47.92A3.91,3.91,0,0,0,408.38,96.81Z"/><path class="cls-1" d="M425.06,101.59V92h4.32a2.76,2.76,0,0,1,1.25.28,3.47,3.47,0,0,1,1,.74,3.67,3.67,0,0,1,.66,1,3.07,3.07,0,0,1,.24,1.18,3.49,3.49,0,0,1-.11.86,3.45,3.45,0,0,1-.31.77,2.94,2.94,0,0,1-.5.66A2.85,2.85,0,0,1,431,98l2.11,3.57h-2.5l-1.84-3.1h-1.45v3.1Zm2.21-5h2a.83.83,0,0,0,.68-.37,1.51,1.51,0,0,0,.28-1,1.38,1.38,0,0,0-.32-.95,1,1,0,0,0-.71-.35h-2Z"/><path class="cls-1" d="M449.78,101.59V95.85L447.7,100h-1.19l-2.08-4.17v5.74h-2.21V92h2.4l2.49,5,2.5-5H452v9.59Z"/></g></g></svg>