<svg xmlns="http://www.w3.org/2000/svg" viewBox="0 0 395.61 71.41"><defs><style>.cls-1{fill:#2d83c5;}.cls-2{fill:#474948;}</style></defs><title>Asset 2</title><g id="Layer_2" data-name="Layer 2"><g id="Layer_1-2" data-name="Layer 1"><rect class="cls-1" y="6.74" width="3.64" height="64.68"/><rect class="cls-1" x="7.27" y="6.74" width="3.63" height="64.68"/><rect class="cls-1" x="14.54" y="6.74" width="3.63" height="64.68"/><rect class="cls-1" x="39.99" y="6.74" width="3.64" height="64.68"/><rect class="cls-1" x="47.26" y="6.74" width="3.64" height="64.68"/><rect class="cls-1" x="54.53" y="6.74" width="3.64" height="64.68"/><polygon class="cls-1" points="10.85 6.74 10.91 6.78 10.91 10.94 8.28 8.81 10.85 6.74"/><polygon class="cls-1" points="43.63 33.25 43.63 37.41 39.99 34.47 14.54 13.88 14.54 9.72 43.63 33.25"/><polygon class="cls-1" points="50.9 39.13 50.9 43.29 47.26 40.35 47.26 36.19 50.9 39.13"/><polygon class="cls-1" points="58.17 45.02 58.17 49.18 54.53 46.23 54.53 42.07 58.17 45.02"/><polygon class="cls-1" points="3.14 12.97 3.64 12.58 3.64 13.38 3.14 12.97"/><polygon class="cls-1" points="7.27 12.16 10.91 15.1 10.91 19.26 7.27 16.32 7.27 12.16"/><polygon class="cls-1" points="39.99 38.63 43.63 41.57 43.63 45.73 39.99 42.79 18.18 25.14 14.54 22.2 14.54 18.04 39.99 38.63"/><polygon class="cls-1" points="50.9 47.45 50.9 51.61 47.26 48.67 47.26 44.51 50.9 47.45"/><polygon class="cls-1" points="58.17 53.34 58.17 57.5 54.53 54.55 54.53 50.39 58.17 53.34"/><polygon class="cls-1" points="0.57 15.06 3.64 17.54 3.64 21.69 0 18.75 0 15.52 0.57 15.06"/><polygon class="cls-1" points="7.27 20.48 10.91 23.42 10.91 27.58 7.27 24.64 7.27 20.48"/><polygon class="cls-1" points="39.99 46.95 43.63 49.89 43.63 54.05 39.99 51.11 14.54 30.52 14.54 26.36 18.18 29.3 39.99 46.95"/><polygon class="cls-1" points="50.9 55.77 50.9 59.93 47.26 56.99 47.26 52.83 50.9 55.77"/><polygon class="cls-1" points="57.09 60.79 54.53 62.86 54.53 58.71 57.09 60.79"/><path class="cls-2" d="M289.18,41a29.61,29.61,0,0,1,2-10.56,28.87,28.87,0,0,1,5.8-9.4,29.32,29.32,0,0,1,9.27-6.7,29,29,0,0,1,12.43-2.57A27.94,27.94,0,0,1,333,15.34a23.81,23.81,0,0,1,7.41,6.58,3.09,3.09,0,0,1-.7,4.35L334.41,30a3,3,0,0,1-4.17-.64,10.64,10.64,0,0,0-1.1-1.3,13.84,13.84,0,0,0-7.08-3.81,19.25,19.25,0,0,0-3.73-.37,14.12,14.12,0,0,0-6.79,1.57,15.06,15.06,0,0,0-4.8,4.06,17,17,0,0,0-2.82,5.63,22.77,22.77,0,0,0-.91,6.38,21,21,0,0,0,1.08,6.71,17.91,17.91,0,0,0,3.1,5.71,15.17,15.17,0,0,0,4.89,3.94,14,14,0,0,0,6.42,1.45,16.24,16.24,0,0,0,3.77-.46A15.06,15.06,0,0,0,326,57.45,13.46,13.46,0,0,0,329.27,55a11.22,11.22,0,0,0,1.1-1.34,3,3,0,0,1,4.06-.8l5.83,3.44a3,3,0,0,1,1,4.26,17.49,17.49,0,0,1-2.47,3,24.39,24.39,0,0,1-6,4.31,32.39,32.39,0,0,1-7.21,2.65,31.81,31.81,0,0,1-7.45.91,26.34,26.34,0,0,1-11.72-2.61,29.58,29.58,0,0,1-9.19-6.91,31.6,31.6,0,0,1-6-9.78A30.49,30.49,0,0,1,289.18,41Z"/><path class="cls-2" d="M357.14,13.34,369.51,32.9l12.38-19.56a1.55,1.55,0,0,1,1.32-.73H394a1.56,1.56,0,0,1,1.29,2.45l-18.7,27.36L394.68,69a1.57,1.57,0,0,1-1.3,2.45H382.56a1.56,1.56,0,0,1-1.33-.74L369.51,52,357.8,70.67a1.57,1.57,0,0,1-1.33.74H345.56a1.57,1.57,0,0,1-1.3-2.45l18.05-26.54-18.7-27.36a1.56,1.56,0,0,1,1.29-2.45h10.91A1.56,1.56,0,0,1,357.14,13.34Z"/><path class="cls-1" d="M92.93,71.41A29.7,29.7,0,0,1,81.4,69.29a25.15,25.15,0,0,1-8.55-5.75,24.13,24.13,0,0,1-5.26-8.4,28.77,28.77,0,0,1,0-20,24.13,24.13,0,0,1,5.26-8.4A25.7,25.7,0,0,1,81.4,21a29.16,29.16,0,0,1,11.53-2.17A28.79,28.79,0,0,1,104.42,21a25.79,25.79,0,0,1,8.5,5.8,24.7,24.7,0,0,1,5.31,8.4,27.65,27.65,0,0,1,1.83,10,28.27,28.27,0,0,1-1.78,10,24.27,24.27,0,0,1-5.26,8.4,25.15,25.15,0,0,1-8.55,5.75A29.72,29.72,0,0,1,92.93,71.41ZM81.64,45.15q0,6,3.18,9.61a10.35,10.35,0,0,0,8.11,3.62,10.24,10.24,0,0,0,4.44-1,10.54,10.54,0,0,0,3.53-2.7,13,13,0,0,0,2.36-4.2,16,16,0,0,0,.87-5.36q0-6-3.18-9.61a10.25,10.25,0,0,0-8-3.62,10.51,10.51,0,0,0-8.06,3.67,13,13,0,0,0-2.36,4.2A16,16,0,0,0,81.64,45.15Z"/><path class="cls-1" d="M156.85,55.48a21.47,21.47,0,0,1-3.19,1.25,11.73,11.73,0,0,1-3.57.58,4.13,4.13,0,0,1-4.45-4.73V31.43H156V19.75h-6.63A3.72,3.72,0,0,1,145.64,16V3.24a3.11,3.11,0,0,0-5-2.47l-9.21,7.05a3.13,3.13,0,0,0-1.22,2.48V16a3.71,3.71,0,0,1-3.71,3.71h-2.76V31.43h6.47V57.9a16,16,0,0,0,1.11,6.27,10.65,10.65,0,0,0,3,4.19,12.05,12.05,0,0,0,4.5,2.32,20,20,0,0,0,5.45.73,30,30,0,0,0,8.25-1.16,63.38,63.38,0,0,0,7.29-2.51Z"/><path class="cls-1" d="M161.58,45.05a27.73,27.73,0,0,1,1.83-10,24.85,24.85,0,0,1,5.31-8.4,25.13,25.13,0,0,1,8.55-5.74,29.52,29.52,0,0,1,11.53-2.13q8.79,0,14.78,3.72a24.67,24.67,0,0,1,6.13,5.31,3.68,3.68,0,0,1-1.86,5.81L199.93,36a3.73,3.73,0,0,1-3.78-1A9.39,9.39,0,0,0,190,32a11,11,0,0,0-9.09,3.25q-3.48,3.62-3.48,9.82a16.29,16.29,0,0,0,.87,5.46,12.53,12.53,0,0,0,2.41,4.2,10.91,10.91,0,0,0,3.63,2.7,10.31,10.31,0,0,0,4.39,1A10.43,10.43,0,0,0,194,57a10,10,0,0,0,2.35-1.87,3.66,3.66,0,0,1,3.8-1L208,56.57a3.68,3.68,0,0,1,1.84,5.79,24.36,24.36,0,0,1-6.16,5.29,28,28,0,0,1-14.92,3.76,28.77,28.77,0,0,1-11.44-2.17,26.32,26.32,0,0,1-8.59-5.79,24.57,24.57,0,0,1-5.36-8.4A27.74,27.74,0,0,1,161.58,45.05Z"/><path class="cls-1" d="M267.87,32.25a16.92,16.92,0,0,0-2.27-6.17,13,13,0,0,0-4.82-4.54,16.75,16.75,0,0,0-8.26-1.79,20.84,20.84,0,0,0-10.08,2.47l-.1,0A4.88,4.88,0,0,1,235.05,18V3.13a3.12,3.12,0,0,0-5-2.48l-9.2,7.05a3.12,3.12,0,0,0-1.23,2.47V71.41h15.45V42.35A12.41,12.41,0,0,1,237,38.68a16.16,16.16,0,0,1,2.74-2.85A12.42,12.42,0,0,1,242.82,34a8.26,8.26,0,0,1,2.94-.62,6.58,6.58,0,0,1,5.32,2.31c1.29,1.55,1.93,4,1.93,7.25V71.41h15.44V39A39,39,0,0,0,267.87,32.25Z"/></g></g></svg>