<svg width="432" height="509" viewBox="0 0 432 509" fill="none" xmlns="http://www.w3.org/2000/svg">
<path d="M119.293 42.0815C116.821 39.6301 114.923 37.5125 114.818 33.8614C114.724 30.7319 115.517 27.6024 115.58 24.4104C115.58 22.3971 112.45 22.3971 112.45 24.4104C112.377 28.4996 111.042 32.7556 112.012 36.8031C112.753 39.9326 114.881 42.1024 117.082 44.3034C117.377 44.5967 117.776 44.7609 118.191 44.7599C118.607 44.7589 119.005 44.5929 119.299 44.2982C119.592 44.0036 119.756 43.6045 119.755 43.1888C119.754 42.7731 119.588 42.3748 119.293 42.0815Z" fill="#158DED"/>
<path d="M128.494 97.0135C128.087 98.0567 126.585 98.9329 125.687 99.538C124.571 100.279 123.413 100.946 122.266 101.624C120.545 102.667 122.109 105.38 123.841 104.326C126.564 102.678 130.298 100.978 131.519 97.8272C132.239 95.9704 129.224 95.1567 128.494 97.0135Z" fill="#158DED"/>
<path d="M68.8056 83.4529C67.6269 84.9446 66.7193 86.8431 67.7625 88.6687C68.8056 90.4942 70.3912 90.3899 72.1333 90.5151C71.9664 92.1424 70.7772 93.8428 70.6103 95.4075C70.5014 96.1002 70.5612 96.8089 70.7846 97.4735C71.008 98.1381 71.3883 98.7391 71.8934 99.2255C73.2808 100.696 75.4923 98.4744 74.1153 97.014C72.9366 95.7726 74.5535 93.3212 74.929 92.0589C75.2839 90.9862 75.3558 89.84 75.1376 88.7313C75.0664 88.4833 74.9332 88.2574 74.7508 88.075C74.5683 87.8925 74.3425 87.7594 74.0945 87.6881C72.6758 87.3856 70.0783 88.0323 71.1215 85.727C71.7161 84.4022 74.6995 81.9299 76.1182 83.2755C77.5369 84.6212 79.8006 82.4514 78.3401 81.064C75.0855 78.0284 71.0797 80.5738 68.8056 83.4529Z" fill="#158DED"/>
<path d="M316.66 45.1891L317.328 45.3977C317.645 45.4851 317.982 45.4668 318.288 45.3455L318.444 45.429H318.507L318.726 45.648C319.022 45.9244 319.415 46.0749 319.82 46.0678C320.225 46.0606 320.612 45.8964 320.899 45.6097C321.186 45.323 321.35 44.9362 321.357 44.5309C321.364 44.1255 321.214 43.7332 320.937 43.4366C320.412 42.8487 319.735 42.4162 318.981 42.1863C318.227 41.9564 317.424 41.9378 316.66 42.1326C316.319 42.2177 316.017 42.4144 315.801 42.6913C315.584 42.9682 315.467 43.3095 315.467 43.6608C315.467 44.0122 315.584 44.3534 315.801 44.6304C316.017 44.9073 316.319 45.1039 316.66 45.1891Z" fill="#158DED"/>
<path d="M321.438 86.2489C319.508 86.9896 316.639 88.4187 314.135 88.8672C316.097 86.7809 319.028 84.8302 320.999 84.3399C322.971 83.8496 322.126 80.8349 320.165 81.3252C317.661 81.9511 315.909 83.6619 313.906 85.1745C312.165 86.2692 310.729 87.7873 309.733 89.587C309.615 89.7939 309.545 90.025 309.529 90.2628C309.513 90.5006 309.551 90.7389 309.64 90.9599C309.73 91.1809 309.868 91.3786 310.045 91.5384C310.222 91.6981 310.433 91.8156 310.662 91.882C313.176 92.5287 315.961 91.7464 318.558 90.7658C317.697 91.5698 316.918 92.4574 316.232 93.4154C315.189 95.2097 314.146 97.4107 314.146 99.5179C314.146 101.625 317.359 101.542 317.275 99.5179C317.077 94.4795 323.534 92.3723 323.44 87.7511C323.438 87.5089 323.38 87.2704 323.271 87.0543C323.162 86.8381 323.004 86.6501 322.81 86.5048C322.617 86.3594 322.392 86.2608 322.154 86.2164C321.916 86.172 321.671 86.1831 321.438 86.2489Z" fill="#158DED"/>
<path d="M345.077 144.728V137.072C345.077 136.657 344.912 136.259 344.618 135.965C344.325 135.672 343.927 135.507 343.512 135.507C343.097 135.507 342.699 135.672 342.406 135.965C342.112 136.259 341.947 136.657 341.947 137.072V144.728C341.947 145.143 342.112 145.541 342.406 145.835C342.699 146.128 343.097 146.293 343.512 146.293C343.927 146.293 344.325 146.128 344.618 145.835C344.912 145.541 345.077 145.143 345.077 144.728Z" fill="#158DED"/>
<path d="M355.33 170.285C354.856 170.283 354.387 170.384 353.956 170.582C353.525 170.781 353.143 171.071 352.837 171.433C352.553 171.733 352.395 172.13 352.395 172.544C352.395 172.957 352.553 173.354 352.837 173.655C353.133 173.943 353.529 174.104 353.942 174.104C354.355 174.104 354.752 173.943 355.048 173.655C355.109 173.573 355.175 173.497 355.246 173.425H355.33C355.745 173.425 356.143 173.26 356.436 172.967C356.73 172.673 356.895 172.275 356.895 171.86C356.895 171.445 356.73 171.047 356.436 170.754C356.143 170.46 355.745 170.296 355.33 170.296V170.285Z" fill="#158DED"/>
<path d="M63.726 193.37C63.3702 192.611 62.7513 192.007 61.984 191.67C61.0974 191.355 60.1763 191.149 59.2405 191.054C58.0454 190.754 56.8278 190.552 55.5998 190.449C53.5865 190.449 53.5865 193.579 55.5998 193.579C56.8428 193.714 58.0761 193.926 59.2926 194.215C60.1376 194.34 61.1703 194.298 61.0034 195.404C60.8052 196.739 62.516 198.304 63.6217 196.927C63.9719 196.496 64.2992 196.047 64.6023 195.582C64.7288 195.386 64.8067 195.163 64.8296 194.932C64.8525 194.7 64.8198 194.466 64.734 194.25C64.6483 194.034 64.5121 193.841 64.3367 193.688C64.1614 193.535 63.952 193.426 63.726 193.37Z" fill="#158DED"/>
<path d="M118.46 156.829L117.072 158.226C116.782 158.521 116.619 158.918 116.619 159.332C116.619 159.746 116.782 160.143 117.072 160.438C117.37 160.723 117.766 160.883 118.178 160.883C118.59 160.883 118.987 160.723 119.284 160.438C119.743 159.968 120.212 159.509 120.671 159.05C120.817 158.905 120.933 158.733 121.012 158.543C121.092 158.353 121.133 158.149 121.133 157.943C121.134 157.737 121.094 157.533 121.015 157.343C120.937 157.153 120.822 156.98 120.677 156.834C120.531 156.688 120.359 156.572 120.169 156.493C119.979 156.414 119.775 156.373 119.569 156.372C119.363 156.372 119.16 156.412 118.969 156.49C118.779 156.568 118.606 156.683 118.46 156.829Z" fill="#158DED"/>
<path d="M396.639 38.8999C393.239 40.183 389.337 42.3215 388.169 46.0873C387 49.8531 390.912 51.6786 393.865 52.3463C395.826 52.7948 396.66 49.7801 394.689 49.3315C393.735 49.1804 392.819 48.8513 391.987 48.3614C390.808 47.5582 391.131 46.7862 391.872 45.7118C393.312 43.9088 395.266 42.5849 397.474 41.9147C399.341 41.2157 398.527 38.1906 396.639 38.8999Z" fill="#158DED"/>
<path d="M404.797 76.6091C404.438 76.4032 404.013 76.3469 403.613 76.4524C403.213 76.5578 402.87 76.8164 402.659 77.1724L401.97 78.5598C401.769 78.9203 401.713 79.3448 401.816 79.745C401.919 80.1452 402.172 80.4904 402.523 80.7087C402.884 80.915 403.311 80.9716 403.713 80.8663C404.115 80.7609 404.459 80.5021 404.672 80.1454L405.361 78.7475C405.564 78.3879 405.619 77.9633 405.513 77.5639C405.408 77.1645 405.151 76.8219 404.797 76.6091Z" fill="#158DED"/>
<path d="M391.496 170.286C391.081 170.286 390.683 170.451 390.39 170.744C390.097 171.038 389.932 171.436 389.932 171.851C389.932 172.266 390.097 172.664 390.39 172.957C390.683 173.251 391.081 173.416 391.496 173.416C391.911 173.416 392.309 173.251 392.603 172.957C392.896 172.664 393.061 172.266 393.061 171.851C393.061 171.436 392.896 171.038 392.603 170.744C392.309 170.451 391.911 170.286 391.496 170.286Z" fill="#158DED"/>
<path d="M376.119 235.41C375.89 236.714 375.817 238.038 375.629 239.353C375.473 240.49 375.358 242.253 374.429 243.066C372.927 244.412 375.149 246.613 376.651 245.278C379.019 243.192 378.633 239.082 379.134 236.244C379.447 234.273 376.432 233.428 376.119 235.41Z" fill="#158DED"/>
<path d="M317.296 220.107C316.816 219.971 316.336 219.794 315.846 219.679C315.761 219.658 315.68 219.622 315.606 219.575C315.856 219.815 314.886 219.794 315.606 219.575C315.52 219.512 315.43 219.456 315.335 219.408C315.434 219.45 315.528 219.502 315.616 219.564C316.099 219.244 316.562 218.895 317.004 218.521C317.52 218.216 318.057 217.948 318.61 217.718C320.457 216.925 318.861 214.234 317.025 215.016C314.938 215.913 310.974 218.146 312.685 221.004C313.515 222.062 314.716 222.766 316.044 222.975C317.181 223.299 318.527 223.288 318.339 224.707C318.089 226.699 321.218 226.689 321.469 224.707C321.782 221.922 319.622 220.712 317.296 220.107Z" fill="#158DED"/>
<path d="M97.598 270.888C96.7531 271.659 94.8754 271.148 93.8322 271.117C91.8189 271.117 91.8189 274.246 93.8322 274.246C95.8455 274.246 98.0988 274.674 99.8095 273.099C101.312 271.732 99.0898 269.521 97.598 270.888Z" fill="#158DED"/>
<path d="M221.313 226.762H234.76L257.949 0H198.124L221.313 226.762Z" fill="url(#paint0_linear)"/>
<path d="M234.76 281.758H221.313L198.124 508.52H257.949L234.76 281.758Z" fill="url(#paint1_linear)"/>
<path d="M206.489 155.337C206.489 155.337 201.461 146.365 195.181 150.204C184.969 156.463 188.234 170.546 188.234 170.546L190.581 164.287C190.581 164.287 187.451 174.197 192.406 180.977L191.885 174.458C191.885 174.458 195.797 183.846 202.838 184.889C209.879 185.933 210.923 185.933 211.705 190.105C212.487 194.278 206.76 197.053 208.575 196.76C214.96 195.717 214.313 187.633 214.313 187.633L215.356 193.495C215.356 193.495 223.44 177.848 222.919 170.546C222.623 166.204 221.281 161.999 219.007 158.289L223.18 159.853C223.18 159.853 210.662 139.95 206.489 155.337Z" fill="#333333"/>
<path d="M200.326 177.097C196.978 171.047 191.887 164.287 203.79 158.028C205.709 156.985 210.247 157.799 212.051 157.726C213.303 157.726 213.449 158.998 214.576 159.176C219.669 160.089 224.249 162.839 227.448 166.906C227.448 166.906 219.906 178.38 242.314 193.047C244.932 194.758 226.238 224.039 224.392 213.201C218.133 176.294 202.34 180.727 200.326 177.097Z" fill="#935C3B"/>
<path d="M219.79 161.69C219.79 161.69 216.139 160.647 212.071 166.019C211.974 166.138 211.907 166.279 211.877 166.43C211.847 166.581 211.854 166.737 211.898 166.884C211.943 167.032 212.022 167.166 212.131 167.275C212.239 167.384 212.373 167.465 212.52 167.511C215.102 168.336 217.87 168.383 220.479 167.646C225.778 165.758 219.79 161.69 219.79 161.69Z" fill="#D84744"/>
<path d="M212.518 167.459C212.518 167.459 212.518 167.459 212.456 167.459C213.224 166.905 214.148 166.609 215.095 166.614C215.721 166.606 216.341 166.734 216.914 166.988C217.486 167.241 217.997 167.615 218.412 168.084C216.426 168.255 214.425 168.042 212.518 167.459Z" fill="#822A2A"/>
<path d="M212.832 166.812C212.832 166.812 216.4 163.338 220.218 162.983C220.218 162.983 216.744 164.026 220.395 164.12C220.395 164.12 221.438 163.599 220.916 162.722C220.589 162.41 220.241 162.12 219.873 161.857C219.641 161.679 219.35 161.597 219.06 161.627C217.613 161.742 216.238 162.302 215.122 163.23C214.007 164.159 213.207 165.41 212.832 166.812Z" fill="#EEF9F9"/>
<path d="M222.199 166.572C221.702 167.03 221.106 167.369 220.457 167.563C219.78 167.787 219.08 167.937 218.371 168.011C218.371 168.011 217.787 167.49 218.506 166.833C219.054 166.491 219.677 166.289 220.32 166.243C220.964 166.198 221.609 166.311 222.199 166.572Z" fill="#EEF9F9"/>
<path d="M220.457 167.594C218.868 168.1 217.188 168.253 215.534 168.043C216.543 167.536 217.659 167.278 218.788 167.291C219.421 167.291 220.052 167.368 220.666 167.521L220.457 167.594Z" fill="#FFABAB"/>
<path d="M227.925 178.62C227.038 187.185 231.868 206.014 233.016 210.332L232.557 210.864L222.897 205.816C218.495 187.56 211.422 182.251 206.3 179.966C208.241 179.079 210.233 178.141 212.225 177.16C224.222 171.245 227.445 166.854 227.445 166.854C227.445 166.854 224.42 171.496 227.925 178.62Z" fill="#7E4929"/>
<path d="M200.229 175.334C200.229 175.334 197.705 175.939 199.614 178.547C201.523 181.155 207.438 181.238 205.967 177.942C204.496 174.646 200.229 175.334 200.229 175.334Z" fill="#935C3B"/>
<path d="M208.055 162.461C208.055 162.461 203.1 160.114 201.66 166.373C202.128 165.095 203.015 164.013 204.176 163.303C205.337 162.593 206.704 162.296 208.055 162.461Z" fill="#3F2C2C"/>
<path d="M205.967 160.897C205.967 160.897 199.009 159.072 199.708 165.508C200.043 164.127 200.854 162.908 201.999 162.065C203.143 161.221 204.548 160.808 205.967 160.897Z" fill="#333333"/>
<path d="M212.791 157.643C212.791 157.643 208.879 157.809 208.618 159.99C208.65 159.99 208.055 155.431 212.791 157.643Z" fill="#333333"/>
<path d="M210.495 160.647C210.495 160.647 209.963 157.799 214.918 159.541C214.918 159.603 211.747 158.988 210.495 160.647Z" fill="#3F2C2C"/>
<path d="M213.459 160.772L214.283 160.011C214.283 160.011 213.918 159.072 211.707 159.927C210.534 160.44 209.226 160.553 207.983 160.25L212.03 163.182L213.459 160.772Z" fill="#935C3B"/>
<path d="M215.543 161.095L214.281 160.052C214.165 159.951 214.026 159.881 213.877 159.849C213.727 159.816 213.571 159.822 213.425 159.866C213.278 159.91 213.144 159.99 213.037 160.099C212.929 160.208 212.851 160.343 212.81 160.49L212.028 163.223C212.941 162.156 214.174 161.41 215.543 161.095Z" fill="#7E4929"/>
<path d="M200.752 176.482C200.752 176.482 200.356 178.892 203.746 178.892C203.746 178.892 202.119 178.183 202.442 177.526C202.766 176.868 203.684 176.941 203.684 176.941C203.684 176.941 201.983 176.806 201.858 177.202C201.777 177.498 201.755 177.806 201.795 178.11L200.752 176.482Z" fill="#7E4929"/>
<path d="M205.051 174.719C205.051 174.719 199.835 174.072 199.313 170.421C197.936 169.957 196.675 169.199 195.621 168.199C194.004 166.665 198.406 176.68 198.406 176.68C198.406 176.68 199.449 174.854 204.143 176.94L205.051 174.719Z" fill="#333333"/>
<path d="M196.904 53.2014C195.579 55.778 191.844 55.2877 189.33 53.3892C188.245 52.5448 187.417 51.4132 186.941 50.1226C186.466 48.8321 186.361 47.4341 186.639 46.087C187.682 39.5256 195.391 36.6986 202.547 40.0054C211.685 44.2928 213.949 53.0762 214.199 60.8686C214.324 64.7074 212.666 71.7175 218.518 73.4909C222.211 74.607 224.068 71.5714 224.871 69.12C225.403 67.4718 225.33 64.9474 222.722 64.3215C220.114 63.6956 218.372 66.5434 221.501 66.4808C221.345 67.3884 221.199 68.2959 221.042 69.2035L220.5 68.9218C218.414 67.8787 220.281 65.4481 222.315 66.4913L222.857 66.7729C223.144 66.9037 223.379 67.1252 223.526 67.4032C223.674 67.6812 223.725 68.0001 223.673 68.3104C223.621 68.6207 223.467 68.905 223.237 69.1193C223.006 69.3336 222.712 69.4659 222.398 69.4956C219.947 69.4956 216.703 68.901 215.952 66.3661C215.253 63.9877 217.6 61.7344 220.02 61.2442C221.464 61.0134 222.944 61.1921 224.292 61.76C225.64 62.3279 226.802 63.2623 227.646 64.4571C229.596 67.3258 228.418 70.6117 226.842 73.0736C226.087 74.4214 224.924 75.4949 223.52 76.1397C222.116 76.7845 220.544 76.9674 219.029 76.6621C217.409 76.4375 215.872 75.8124 214.555 74.8434C213.238 73.8743 212.183 72.5919 211.487 71.1125C210.006 67.7013 210.726 63.9459 210.621 60.5139C210.475 55.851 209.891 50.6144 206.282 46.546C202.964 42.8011 196.476 39.5256 192.178 42.9784C191.486 43.5706 190.931 44.3068 190.553 45.1356C190.174 45.9645 189.981 46.8659 189.988 47.777C189.937 48.6676 190.151 49.5532 190.603 50.3223C190.853 50.6769 193.253 52.4086 193.451 52.0643C194.317 50.364 197.728 51.4906 196.851 53.2014H196.904Z" fill="#E5A920"/>
<path d="M167.142 89.2112L173.056 71.5818L174.945 65.9487L180.818 48.3089C181.091 47.8075 181.532 47.4184 182.064 47.2099C182.595 47.0013 183.184 46.9866 183.725 47.1683C184.266 47.35 184.726 47.7165 185.025 48.2036C185.323 48.6906 185.44 49.2671 185.355 49.8319L185.293 50.0405C189.493 51.3805 193.134 54.0681 195.651 57.6869C197.404 60.2423 198.586 63.1457 199.115 66.1991C199.834 70.716 203.423 74.7739 208.503 76.4638L208.826 76.5785C212.007 77.6817 215.471 77.6522 218.632 76.4951L222.012 75.1807C223.564 74.6267 225.259 74.6267 226.811 75.1807L224.338 82.5454L222.45 88.1785L219.988 95.5432C218.421 95.0368 217.076 94.0052 216.181 92.6223L214.272 89.4929C212.447 86.6644 209.702 84.5529 206.5 83.5155L206.177 83.4112C201.128 81.7213 195.818 82.7958 192.522 85.967C190.258 88.0791 187.569 89.6831 184.636 90.6716C180.441 92.0362 175.915 91.9849 171.753 90.5256L171.68 90.7342C171.406 91.2356 170.965 91.6246 170.433 91.8332C169.902 92.0418 169.314 92.0565 168.772 91.8748C168.231 91.6931 167.771 91.3265 167.473 90.8395C167.174 90.3525 167.057 89.776 167.142 89.2112Z" fill="#E5A920"/>
<path d="M199.052 74.2106C197.32 72.458 194.389 68.4523 192.72 66.5329C190.163 63.7376 186.977 61.592 183.426 60.2739C182.977 60.0966 172.107 90.9741 171.638 90.8177L182.069 59.7732L182.122 59.6167C182.382 58.8239 181.59 57.8434 180.327 57.4261C179.065 57.0088 177.855 57.3009 177.584 58.0937L180.818 48.3089C181.091 47.8075 181.532 47.4184 182.064 47.2099C182.595 47.0013 183.184 46.9866 183.725 47.1683C184.266 47.35 184.726 47.7165 185.025 48.2036C185.323 48.6906 185.44 49.2671 185.355 49.8319L185.293 50.0405C189.493 51.3805 193.134 54.0681 195.651 57.6869C197.404 60.2423 198.586 63.1457 199.115 66.1991C199.834 70.716 203.423 74.7739 208.503 76.4638L208.826 76.5785C212.007 77.6817 215.471 77.6522 218.632 76.4951L222.012 75.1807C223.564 74.6267 225.259 74.6267 226.811 75.1807L224.359 82.4828C221.871 81.8946 219.349 81.4626 216.807 81.1893C216.807 81.1893 201.91 77.1105 199.052 74.2106Z" fill="#C68D1A"/>
<path d="M182.903 94.9797C183.404 92.1318 180.097 90.3063 176.978 90.2646C175.592 90.2773 174.237 90.6816 173.071 91.431C171.904 92.1804 170.974 93.2442 170.386 94.4998C167.256 100.373 171.669 107.299 179.409 108.937C189.298 111.023 196.392 105.37 201.315 99.2983C203.767 96.3149 206.625 89.7117 212.362 91.798C215.982 93.1333 215.638 96.68 214.803 99.1001C214.24 100.738 212.717 102.668 210.193 101.645C207.668 100.623 208.106 97.2642 210.568 99.2044L211.841 96.7635L211.236 96.6487C208.972 96.2627 208.972 99.2879 211.236 99.6843L211.841 99.7886C212.148 99.857 212.47 99.8218 212.755 99.6886C213.041 99.5554 213.274 99.3316 213.419 99.052C213.564 98.7724 213.613 98.4527 213.558 98.1426C213.502 97.8325 213.346 97.5494 213.113 97.3372C211.194 95.8246 208.211 94.3746 206.083 95.9498C203.954 97.525 204.601 100.644 206.249 102.49C207.26 103.546 208.547 104.296 209.964 104.655C211.38 105.015 212.869 104.97 214.261 104.525C217.557 103.408 218.59 100.07 218.819 97.1599C219.029 95.6283 218.747 94.0698 218.014 92.7089C217.281 91.3479 216.135 90.2546 214.741 89.5865C213.309 88.7882 211.7 88.3596 210.061 88.3396C208.422 88.3196 206.803 88.7087 205.352 89.4718C202.118 91.2973 200.429 94.6876 198.28 97.3998C195.348 101.04 191.729 104.869 186.398 105.933C181.495 106.976 174.35 105.63 173.004 100.289C172.8 99.3998 172.797 98.4761 172.993 97.5849C173.19 96.6938 173.582 95.8574 174.141 95.1361C174.639 94.3974 175.343 93.8207 176.165 93.4775C176.572 93.3419 179.555 93.3732 179.482 93.8009C179.159 95.6786 182.549 96.8365 182.883 94.9379L182.903 94.9797Z" fill="#E5A920"/>
<path d="M191.646 66.3343C191.646 66.3343 192.355 65.2181 191.708 64.3836C191.062 63.5491 189.142 63.7264 189.153 63.7681C190.171 64.4189 191.025 65.2974 191.646 66.3343Z" fill="#EFB135"/>
<path d="M189.517 65.6045C190.16 65.9771 190.868 66.2248 191.604 66.3347C190.997 65.3035 190.162 64.4255 189.163 63.7686C189.163 63.7686 188.787 65.0099 189.517 65.6045Z" fill="#FCC34F"/>
<path d="M191.584 66.5117C191.499 67.1798 191.159 67.7891 190.635 68.2121C190.06 68.4605 189.428 68.5436 188.809 68.452C189.594 67.6251 190.538 66.9651 191.584 66.5117Z" fill="#FCC34F"/>
<path d="M189.404 66.5844C189.731 66.3877 190.103 66.2777 190.484 66.2649C190.866 66.2522 191.244 66.337 191.584 66.5113C190.538 66.9648 189.594 67.6247 188.809 68.4516C188.767 68.1159 188.799 67.775 188.901 67.4527C189.004 67.1303 189.175 66.834 189.404 66.5844Z" fill="#EFB135"/>
<path d="M188.851 66.0316C188.851 66.0316 189.268 64.7485 188.402 64.2478C187.536 63.7471 185.606 64.7068 185.638 64.7485C186.806 64.8745 187.917 65.3183 188.851 66.0316Z" fill="#EFB135"/>
<path d="M186.502 66.2407C187.291 66.3021 188.084 66.2316 188.85 66.0321C187.916 65.3187 186.805 64.8749 185.637 64.749C185.637 64.749 185.595 66.0112 186.502 66.2407Z" fill="#FCC34F"/>
<path d="M188.839 66.2197C188.924 66.8951 188.74 67.5769 188.328 68.1183C187.814 68.5691 187.204 68.8973 186.544 69.078C187.138 67.9998 187.915 67.0327 188.839 66.2197Z" fill="#FCC34F"/>
<path d="M186.649 67.1587C186.922 66.8493 187.26 66.6045 187.639 66.4421C188.018 66.2797 188.428 66.2038 188.84 66.2199C187.915 67.0328 187.139 67.9999 186.545 69.0781C186.407 68.7733 186.345 68.4398 186.363 68.1057C186.381 67.7717 186.479 67.4469 186.649 67.1587Z" fill="#EFB135"/>
<path d="M185.93 66.8981C185.93 66.8981 186.013 65.5733 184.981 65.5003C183.948 65.4272 182.196 67.1902 182.227 67.2319C183.407 66.7826 184.688 66.6671 185.93 66.8981Z" fill="#EFB135"/>
<path d="M183.541 68.1396C184.386 67.8285 185.189 67.4114 185.93 66.8982C184.688 66.6672 183.407 66.7827 182.226 67.232C182.282 67.5257 182.451 67.7856 182.697 67.9554C182.943 68.1253 183.246 68.1915 183.541 68.1396Z" fill="#FCC34F"/>
<path d="M185.97 67.0645C186.11 67.3652 186.182 67.6927 186.182 68.0242C186.182 68.3556 186.11 68.6831 185.97 68.9839C185.535 69.6343 184.991 70.2058 184.364 70.6738C184.706 69.3938 185.249 68.1757 185.97 67.0645Z" fill="#FCC34F"/>
<path d="M183.947 68.9004C184.371 68.0591 185.092 67.405 185.971 67.0645C185.245 68.175 184.7 69.3931 184.354 70.6738C184.117 70.4523 183.952 70.1652 183.879 69.8493C183.807 69.5333 183.83 69.2029 183.947 68.9004Z" fill="#EFB135"/>
<path d="M196.935 73.4694C197.28 73.4474 197.608 73.3049 197.859 73.0667C198.111 72.8284 198.271 72.5096 198.312 72.1655C198.433 71.0291 198.185 69.8838 197.602 68.9004C197.61 70.4483 197.385 71.9886 196.935 73.4694Z" fill="#EFB135"/>
<path d="M196.465 70.5486C196.497 71.5352 196.64 72.5151 196.893 73.4694C197.343 71.9886 197.568 70.4483 197.56 68.9004C197.249 69.0551 196.984 69.2887 196.792 69.578C196.6 69.8673 196.487 70.202 196.465 70.5486Z" fill="#FCC34F"/>
<path d="M196.779 73.5319C196.779 73.5319 195.84 74.1786 195.204 73.6049C194.765 73.0536 194.436 72.4233 194.234 71.748C195.244 72.0702 196.132 72.6924 196.779 73.5319Z" fill="#FCC34F"/>
<path d="M195.777 71.1016C196.612 71.4876 196.82 73.5217 196.82 73.5322C196.173 72.6927 195.285 72.0705 194.275 71.7484C194.275 71.7484 194.995 70.7052 195.777 71.1016Z" fill="#EFB135"/>
<path d="M195.913 70.132C196.233 69.9803 196.502 69.7388 196.688 69.4369C196.873 69.135 196.966 68.7857 196.956 68.4316C196.793 67.4311 196.242 66.5352 195.423 65.9385C195.823 67.2985 195.988 68.7165 195.913 70.132Z" fill="#EFB135"/>
<path d="M194.766 67.8054C195.039 68.62 195.426 69.3925 195.913 70.1004C195.986 68.6918 195.82 67.2811 195.423 65.9277C195.173 66.1671 194.984 66.4619 194.87 66.7881C194.756 67.1143 194.72 67.4628 194.766 67.8054Z" fill="#FCC34F"/>
<path d="M195.787 70.2465C195.787 70.2465 195.026 71.2167 194.254 71.0185C193.482 70.8203 192.856 69.8919 192.835 69.8919C193.833 69.7247 194.857 69.8479 195.787 70.2465Z" fill="#FCC34F"/>
<path d="M194.192 68.6299C195.11 68.6299 195.819 70.2364 195.788 70.2468C194.862 69.834 193.838 69.6964 192.836 69.8504C192.836 69.8504 193.337 68.6195 194.192 68.6299Z" fill="#EFB135"/>
<path d="M194.076 67.7216C194.333 67.4809 194.521 67.1764 194.622 66.8393C194.722 66.5021 194.732 66.1443 194.65 65.8022C194.274 64.6548 192.511 64.154 192.511 64.1958C193.257 65.258 193.789 66.4557 194.076 67.7216Z" fill="#EFB135"/>
<path d="M192.357 66.1679C192.829 66.7887 193.413 67.3158 194.078 67.7222C193.791 66.4562 193.259 65.2585 192.513 64.1963C192.333 64.489 192.225 64.8204 192.197 65.1632C192.17 65.506 192.225 65.8503 192.357 66.1679Z" fill="#FCC34F"/>
<path d="M193.971 67.8779C193.971 67.8779 193.47 69.0463 192.667 69.1923C192.067 69.2095 191.476 69.0498 190.966 68.7333C191.886 68.215 192.916 67.9219 193.971 67.8779Z" fill="#FCC34F"/>
<path d="M191.99 67.0962C192.897 66.7311 194.013 67.8577 193.972 67.8786C192.917 67.9225 191.887 68.2156 190.967 68.734C190.967 68.734 191.124 67.4404 191.99 67.0962Z" fill="#EFB135"/>
<path d="M186.619 81.3662C186.619 81.3662 186.504 82.6806 185.493 82.9622C184.481 83.2439 183.052 81.9191 183.083 81.9191C184.289 82.0144 185.5 81.825 186.619 81.3662Z" fill="#EFB135"/>
<path d="M184.481 80.6357C185.232 80.7285 185.958 80.9658 186.619 81.3347C185.499 81.7899 184.288 81.9757 183.083 81.8771C183.083 81.8771 183.542 80.6775 184.481 80.6357Z" fill="#FCC34F"/>
<path d="M186.68 81.1579C187.007 80.5704 187.096 79.8797 186.93 79.2281C186.625 78.6831 186.173 78.2349 185.626 77.9346C185.757 79.0689 186.115 80.1651 186.68 81.1579Z" fill="#FCC34F"/>
<path d="M184.991 79.781C185.221 80.8241 186.691 81.1997 186.691 81.1579C186.131 80.1644 185.776 79.0681 185.648 77.9346C185.411 78.176 185.229 78.4663 185.116 78.7852C185.002 79.1041 184.96 79.4439 184.991 79.781Z" fill="#EFB135"/>
<path d="M184.209 79.8959C184.209 79.8959 183.76 81.1685 182.769 81.0434C181.778 80.9182 180.819 78.957 180.86 78.957C181.874 79.5598 183.03 79.8837 184.209 79.8959Z" fill="#EFB135"/>
<path d="M182.456 78.3101C183.128 78.7335 183.721 79.27 184.209 79.8957C183.031 79.8899 181.876 79.5732 180.86 78.9777C180.86 78.9777 181.591 77.9554 182.456 78.3101Z" fill="#FCC34F"/>
<path d="M184.312 79.7393C184.781 79.2463 185.045 78.594 185.053 77.9138C184.908 77.2446 184.619 76.6147 184.208 76.0674C184.025 77.2879 184.06 78.5311 184.312 79.7393Z" fill="#FCC34F"/>
<path d="M183.123 77.6637C183.152 78.0785 183.274 78.4815 183.48 78.8428C183.685 79.204 183.97 79.5141 184.312 79.75C184.061 78.5419 184.025 77.2986 184.208 76.0781C183.914 76.2361 183.661 76.4627 183.472 76.7386C183.284 77.0146 183.164 77.3318 183.123 77.6637Z" fill="#EFB135"/>
<path d="M182.393 77.444C182.393 77.444 181.662 78.5498 180.797 77.9865C179.931 77.4232 179.586 74.9509 179.639 74.9404C180.311 76.0102 181.264 76.8759 182.393 77.444Z" fill="#EFB135"/>
<path d="M181.235 75.0131C181.721 75.7715 182.11 76.5881 182.393 77.4437C181.264 76.8756 180.311 76.0099 179.639 74.9401C179.748 74.8397 179.876 74.7619 180.016 74.7112C180.155 74.6605 180.304 74.6379 180.452 74.6447C180.6 74.6515 180.746 74.6876 180.88 74.7508C181.014 74.814 181.135 74.9031 181.235 75.0131Z" fill="#FCC34F"/>
<path d="M182.53 77.3297C182.825 77.1759 183.081 76.9585 183.282 76.6933C183.482 76.4281 183.621 76.1217 183.688 75.7963C183.723 75.0148 183.632 74.2327 183.417 73.4805C182.918 74.7081 182.619 76.0076 182.53 77.3297Z" fill="#FCC34F"/>
<path d="M182.018 74.6488C181.854 75.5749 182.036 76.5289 182.529 77.3297C182.618 76.0076 182.917 74.7081 183.416 73.4805C183.094 73.5162 182.79 73.6462 182.541 73.854C182.292 74.0618 182.111 74.3382 182.018 74.6488Z" fill="#EFB135"/>
<path d="M195.141 78.8311C195.401 79.0582 195.574 79.3691 195.629 79.7101C195.685 80.0511 195.619 80.4006 195.444 80.6983C194.864 81.6818 193.977 82.4477 192.919 82.8785C193.857 81.6474 194.606 80.2832 195.141 78.8311Z" fill="#EFB135"/>
<path d="M193.035 80.8969C193.651 80.1264 194.351 79.4267 195.121 78.8105C194.586 80.2627 193.837 81.6269 192.899 82.858C192.749 82.5476 192.683 82.2034 192.707 81.8594C192.73 81.5155 192.844 81.1837 193.035 80.8969Z" fill="#FCC34F"/>
<path d="M195.047 78.6955C195.047 78.6955 194.692 77.6523 193.837 77.6523C193.153 77.8209 192.511 78.1261 191.949 78.5495C192.943 78.9112 194.023 78.9621 195.047 78.6955Z" fill="#FCC34F"/>
<path d="M192.783 80.031C193.69 80.2188 195.078 78.7167 195.046 78.6958C194.016 78.979 192.924 78.939 191.917 78.5811C191.917 78.5811 191.927 79.8641 192.783 80.031Z" fill="#EFB135"/>
<path d="M192.293 80.8867C192.45 81.2012 192.513 81.5537 192.476 81.9029C192.439 82.2521 192.303 82.5835 192.085 82.8583C191.353 83.5499 190.379 83.9248 189.372 83.9015C190.508 83.0671 191.495 82.048 192.293 80.8867Z" fill="#EFB135"/>
<path d="M190.008 82.0133C190.708 81.5231 191.478 81.1431 192.293 80.8867C191.497 82.0554 190.509 83.0817 189.372 83.9223C189.317 83.5764 189.346 83.2223 189.457 82.89C189.568 82.5577 189.757 82.257 190.008 82.0133Z" fill="#FCC34F"/>
<path d="M192.293 80.7089C192.293 80.7089 192.293 79.478 191.542 79.1755C190.934 79.0376 190.301 79.0628 189.706 79.2485C190.412 79.9706 191.31 80.4771 192.293 80.7089Z" fill="#FCC34F"/>
<path d="M190.028 81.0432C190.758 81.5961 192.302 80.7407 192.271 80.7094C191.291 80.4864 190.394 79.991 189.684 79.2803C189.684 79.2803 189.329 80.5216 190.028 81.0432Z" fill="#EFB135"/>
<path d="M189.392 81.6904C189.451 82.0372 189.417 82.3933 189.294 82.7229C189.171 83.0526 188.964 83.3441 188.693 83.5681C188.275 83.7651 187.819 83.8673 187.358 83.8673C186.896 83.8673 186.44 83.7651 186.022 83.5681C187.259 83.172 188.404 82.5337 189.392 81.6904Z" fill="#EFB135"/>
<path d="M187.077 81.8982C187.829 81.6846 188.614 81.6139 189.393 81.6896C188.407 82.5279 187.266 83.1626 186.034 83.5568C186.058 83.2161 186.166 82.8866 186.348 82.5974C186.53 82.3082 186.78 82.0681 187.077 81.8982Z" fill="#FCC34F"/>
<path d="M189.402 81.5022C189.491 81.1957 189.514 80.874 189.471 80.5577C189.428 80.2415 189.319 79.9379 189.152 79.6663C188.682 79.292 188.112 79.0667 187.514 79.0195C187.936 79.986 188.583 80.8373 189.402 81.5022Z" fill="#FCC34F"/>
<path d="M187.347 80.9389C187.858 81.7735 189.434 81.544 189.434 81.5022C188.615 80.8373 187.968 79.986 187.545 79.0195C187.545 79.0195 186.867 80.1461 187.347 80.9389Z" fill="#EFB135"/>
<path d="M215.439 105.079L228.951 64.7637L235.637 67.0047L222.125 107.32L215.439 105.079Z" fill="#846C5D"/>
<path d="M248.974 65.868L232.08 116.271L217.283 111.312L234.178 60.9085L248.974 65.868Z" fill="#846C5D"/>
<path d="M242.182 72.9202L230.914 106.539L222.853 103.837L234.121 70.2184L242.182 72.9202Z" fill="#FCC34F"/>
<path d="M179.045 235.045C182.216 234.376 185.044 232.601 187.026 230.038L193.796 239.572L200.055 213.149C201.922 205.69 210.069 199.786 217.934 195.686C235.564 200.902 234.98 184.911 234.625 181.76C238.036 161.147 222.931 143.612 209.725 127.12L224.569 122.05C280.795 173.373 285.99 258.704 285.99 258.704L217.799 268.822C228.397 256.127 216.401 249.18 222.472 248.47C223.755 248.324 220.626 245.821 220.386 244.652C220.146 243.484 221.481 242.65 221.168 241.669C219.769 237.124 217.154 233.047 213.605 229.881C213.209 262.845 192.398 270.21 192.398 270.21L179.045 235.045Z" fill="#40A9FD"/>
<path d="M230.158 204.585C230.453 204.451 230.789 204.437 231.095 204.546C231.4 204.655 231.651 204.879 231.795 205.169C231.962 205.722 231.503 206.348 230.752 206.578C230.455 206.708 230.119 206.719 229.814 206.608C229.509 206.497 229.259 206.274 229.115 205.983C229.072 205.66 229.158 205.333 229.353 205.072C229.547 204.811 229.836 204.637 230.158 204.585ZM233.371 213.285C233.367 212.972 233.466 212.666 233.65 212.414C233.835 212.161 234.097 211.975 234.396 211.884C234.696 211.792 235.017 211.8 235.311 211.906C235.606 212.012 235.858 212.21 236.031 212.471C236.198 213.024 235.749 213.65 234.988 213.88C234.693 214.001 234.363 214.008 234.063 213.898C233.764 213.787 233.517 213.569 233.371 213.285ZM234.017 222.402C234.789 222.402 235.415 222.861 235.415 223.445C235.415 224.03 234.789 224.489 234.017 224.489C233.245 224.489 232.63 224.019 232.63 223.445C232.63 222.872 233.287 222.402 234.017 222.402ZM235.061 230.8C235.31 230.993 235.489 231.263 235.571 231.567C235.653 231.872 235.634 232.195 235.516 232.487C235.398 232.78 235.188 233.026 234.917 233.188C234.647 233.35 234.331 233.42 234.017 233.387C233.74 233.219 233.537 232.951 233.452 232.639C233.367 232.326 233.405 231.993 233.558 231.707C233.637 231.388 233.84 231.113 234.122 230.942C234.403 230.772 234.741 230.721 235.061 230.8ZM241.466 237.705C241.584 237.63 241.717 237.579 241.856 237.556C241.995 237.534 242.137 237.539 242.273 237.573C242.41 237.606 242.538 237.667 242.651 237.751C242.764 237.836 242.858 237.942 242.928 238.064C242.999 238.186 243.044 238.32 243.061 238.46C243.078 238.6 243.066 238.741 243.027 238.876C242.988 239.012 242.922 239.137 242.833 239.246C242.744 239.355 242.633 239.445 242.509 239.51C242.39 239.586 242.257 239.636 242.118 239.659C241.98 239.682 241.838 239.676 241.701 239.643C241.564 239.609 241.436 239.549 241.323 239.464C241.211 239.38 241.116 239.274 241.046 239.152C240.976 239.03 240.931 238.895 240.914 238.756C240.897 238.616 240.908 238.474 240.947 238.339C240.986 238.204 241.053 238.078 241.142 237.969C241.231 237.86 241.341 237.771 241.466 237.705Z" fill="#6ABDFF"/>
<path d="M242.25 247.719L242.5 246.676C240.289 246.123 240.153 241.46 240.288 239.666V239.468L237.472 235.817L237.357 235.754C237.295 235.754 231.098 232.896 229.607 231.884C229.262 231.487 230.222 228.807 230.931 226.845C232.131 223.486 233.633 219.303 233.487 215.871C233.38 213.979 232.844 212.136 231.921 210.48C230.998 208.825 229.71 207.401 228.157 206.316L229.763 202.811L229.231 202.623C227.817 202.111 226.466 201.439 225.204 200.62C225.145 200.579 225.096 200.525 225.062 200.461C225.027 200.398 225.008 200.327 225.006 200.255C225.006 199.713 225.841 198.878 226.248 198.565L225.611 197.741C225.444 197.877 223.973 199.045 223.963 200.245C223.963 200.476 224.017 200.703 224.121 200.909C224.224 201.116 224.373 201.295 224.558 201.434C225.733 202.243 227.005 202.902 228.344 203.395L226.821 206.702L227.218 206.952C228.716 207.946 229.965 209.271 230.87 210.825C231.774 212.379 232.309 214.12 232.433 215.913C232.569 219.136 231.109 223.215 229.94 226.491C228.699 229.954 227.948 232.04 229.012 232.75C230.493 233.741 235.897 236.244 236.794 236.651L239.204 239.781C239.172 240.97 239.026 246.916 242.25 247.719Z" fill="#158DED"/>
<path d="M185.627 234.711L199.188 260.269C213.271 241.231 212.488 223.236 212.488 223.236C218.747 253.749 192.929 268.875 192.929 268.875L181.715 238.101L185.627 234.711Z" fill="#158DED"/>
<path d="M280.721 256.263C280.376 260.436 276.204 254.521 276.204 254.521C276.204 254.521 275.505 237.486 275.86 235.4C276.214 233.313 280.721 256.263 280.721 256.263Z" fill="#158DED"/>
<path d="M223.349 247.917C223.766 244.183 294.638 210.186 221.784 142.037C221.784 142.037 238.61 147.451 238.308 143.424C238.011 139.291 236.649 135.306 234.354 131.855C246.173 144.822 269.05 182.021 262.519 213.055C255.301 247.573 234.26 248.095 234.26 248.095C239.296 246.084 243.689 242.739 246.968 238.421C250.246 234.102 252.287 228.971 252.87 223.581C252.87 223.581 245.954 240.271 223.349 247.917Z" fill="#158DED"/>
<path d="M229.848 200.537C228.805 200.892 233.301 196.959 233.895 194.935C234.311 193.52 234.207 192.003 233.603 190.658C234.481 188.277 234.875 185.745 234.761 183.21C237.244 185.943 245.109 195.206 245.109 202.884C245.109 202.884 240.54 189.98 235.846 188.937C235.825 188.937 237.912 197.804 229.848 200.537Z" fill="#158DED"/>
<path d="M215.617 223.237C223.44 234.19 235.176 226.366 235.176 226.366L222.397 241.492C222.397 241.492 219.007 231.321 213.791 226.627L209.879 216.195C209.879 216.195 213.968 220.931 215.617 223.237Z" fill="#158DED"/>
<path d="M201.794 240.699L194.492 237.309L204.402 239.656L202.316 249.305L201.794 240.699Z" fill="#158DED"/>
<path d="M225.672 195.196L225.025 193.892L221.5 192.327L217.129 193.954L214.333 198.127C214.333 198.127 222.219 198.325 224.368 197.282C226.517 196.239 225.672 195.196 225.672 195.196Z" fill="#158DED"/>
<path d="M227.875 195.937L221.96 192.807L219.791 201.059L212.092 198.712L212.488 192.714L221.783 191.587L227.875 195.937Z" fill="#6ABDFF"/>
<path d="M223.587 195.843C223.587 195.843 206.375 216.059 186.951 204.324C186.951 204.324 194.9 214.88 204.163 212.93C213.426 210.979 222.94 201.977 224.369 197.022L223.587 195.843Z" fill="#DB7631"/>
<path d="M225.611 194.372C225.611 194.372 212.749 233.313 178.325 201.674C178.325 201.674 175.905 197.961 176.343 186.966C176.347 186.832 176.387 186.701 176.457 186.586C176.528 186.472 176.627 186.378 176.745 186.314C176.863 186.249 176.996 186.217 177.13 186.22C177.265 186.223 177.396 186.26 177.511 186.33L188.058 192.588C188.058 192.588 192.418 216.759 209.265 210.322C221.094 205.847 225.611 194.372 225.611 194.372Z" fill="#B64E00"/>
<path d="M229.699 194.633C229.699 194.633 226.57 192.192 224.828 193.235C223.624 194.043 222.59 195.077 221.782 196.281L223.868 198.284C225.053 198.158 226.194 197.763 227.205 197.131C228.215 196.498 229.068 195.644 229.699 194.633Z" fill="#B64E00"/>
<path d="M231.348 189.678C231.276 190.809 230.919 191.903 230.312 192.861C229.705 193.818 228.867 194.607 227.874 195.154C227.874 195.154 225.173 196.625 226.654 196.886C228.135 197.147 230.482 195.415 231.526 192.63C232.569 189.845 231.348 189.678 231.348 189.678Z" fill="#DB7631"/>
<path d="M229.846 195.322L226.633 189.418L233.591 180.979L234.634 181.5C234.634 181.5 235.604 192.547 229.846 195.322Z" fill="#6ABDFF"/>
<path d="M224.569 122.049L209.756 127.13C204.957 121.154 199.849 115.433 194.453 109.99L188.089 109.01L185.659 106.183H183.875C183.875 106.183 182.832 105.338 183.051 104.618C183.833 102.271 185.429 103.116 186.045 101.875C187.203 99.5588 188.475 96.9718 188.913 95.9182C189.591 94.2909 189.55 91.9959 191.876 92.2671C205.176 93.8319 199.7 102.699 202.965 105.745C211.669 111.078 219.773 117.335 227.135 124.407C226.3 123.635 225.445 122.832 224.569 122.049Z" fill="#935C3B"/>
<path d="M174.412 208.632H188.755L192.406 213.326C192.406 213.326 192.145 216.195 189.798 216.716C188.755 216.956 188.161 216.236 187.848 215.381C187.378 218.573 183.821 222.589 182.632 223.862L187.024 230.048C185.042 232.611 182.214 234.386 179.043 235.055L175.194 224.926C172.586 218.771 174.412 208.632 174.412 208.632Z" fill="#935C3B"/>
<path d="M286.292 254.176C286.292 254.176 266.472 234.701 218.549 252.288L220.573 257.66C220.573 257.66 174.997 278.524 163.366 314.304L227.76 340.456L221.668 359.17C221.668 359.17 224.234 362.832 229.294 357.418C234.353 352.004 243.262 331.85 243.262 331.85L194.118 303.612C194.118 303.612 220.072 280.307 248.623 286.546C248.623 286.546 279.219 332.737 266.91 393.657C266.91 393.657 265.7 423.377 274.212 421.906C282.724 420.435 277.696 393.866 277.696 393.866C277.696 393.866 304.683 334.98 286.292 254.176Z" fill="#474847"/>
<path d="M221.26 116.135C221.26 116.135 213.27 106.392 205.613 123.781L212.227 133.524C212.227 133.524 219.529 121.361 230.305 124.835L221.26 116.135Z" fill="#6ABDFF"/>
<path d="M188.548 228.619C188.548 228.619 182.873 235.055 176.583 234.357L181.934 248.961C181.934 248.961 191.062 249.138 194.838 235.921L188.548 228.619Z" fill="#6ABDFF"/>
<path opacity="0.2" d="M247.163 446.473C250.646 437.558 253.634 428.459 256.114 419.215C258.628 409.962 260.641 400.574 262.289 391.185L263.384 384.092L264.229 376.956C264.553 374.578 264.72 372.189 264.897 369.8C265.074 367.411 265.325 365.033 265.346 362.634C265.766 353.065 265.407 343.478 264.271 333.968L264.699 341.124C264.751 342.313 264.887 343.502 264.887 344.691V348.28V351.858C264.887 353.047 264.887 354.247 264.887 355.436L264.574 362.582C264 372.11 262.903 381.6 261.288 391.008C259.733 400.396 257.71 409.785 255.373 419.006C254.184 423.638 252.932 428.238 251.555 432.818C250.178 437.397 248.728 441.956 247.163 446.473Z" fill="#333333"/>
<path opacity="0.2" d="M244.179 427.853C245.859 424.223 247.309 420.478 248.602 416.701C249.896 412.925 251.033 409.065 252.097 405.227C253.161 401.388 253.985 397.445 254.674 393.491C255.378 389.549 255.869 385.573 256.145 381.578C255.748 383.55 255.508 385.521 255.101 387.472L254.548 390.414L253.923 393.345C253.067 397.236 252.191 401.127 251.127 404.966C250.063 408.805 249.041 412.654 247.872 416.441C247.295 418.353 246.7 420.259 246.088 422.157C245.494 424.066 244.816 425.954 244.179 427.853Z" fill="#333333"/>
<path opacity="0.3" d="M228.033 466.574C208.33 466.574 192.357 464.93 192.357 462.902C192.357 460.874 208.33 459.23 228.033 459.23C247.736 459.23 263.709 460.874 263.709 462.902C263.709 464.93 247.736 466.574 228.033 466.574Z" fill="#333333"/>
<g opacity="0.3">
<path opacity="0.3" d="M160.947 299.137C158.787 302.579 156.774 306.105 154.75 309.631C152.727 313.157 150.828 316.724 148.929 320.302L148.439 321.241L149.42 321.679C152.195 322.931 154.959 324.204 157.765 325.414C160.571 326.624 163.346 327.824 166.11 329.002C171.743 331.329 177.387 333.603 183.166 335.595C177.815 332.643 172.338 329.983 166.841 327.354C164.087 326.061 161.333 324.778 158.547 323.536C155.762 322.295 152.987 321.074 150.202 319.854L150.682 321.22C152.497 317.597 154.267 313.95 155.992 310.278C157.723 306.595 159.403 302.903 160.947 299.137Z" fill="#333333"/>
</g>
<path d="M269.83 135.61C270.209 135.722 270.532 135.974 270.732 136.315C270.932 136.656 270.994 137.061 270.907 137.446C270.819 137.832 270.587 138.169 270.26 138.39C269.932 138.611 269.532 138.699 269.142 138.635H269.016C268.779 138.755 268.558 138.906 268.359 139.084C267.911 139.459 267.504 139.887 267.045 140.263C266.743 140.544 266.346 140.701 265.934 140.701C265.521 140.701 265.124 140.544 264.823 140.263C264.534 139.965 264.373 139.566 264.373 139.152C264.373 138.737 264.534 138.338 264.823 138.041C266.356 136.841 267.681 135.13 269.83 135.61Z" fill="#158DED"/>
<path d="M189.833 22.6885C189.739 22.3596 189.54 22.0702 189.268 21.8633C188.995 21.6565 188.663 21.5435 188.321 21.541C186.798 21.5674 185.329 22.1037 184.148 23.064C183.798 23.2805 183.545 23.623 183.44 24.0209C183.335 24.4188 183.387 24.8417 183.585 25.2025C183.796 25.5585 184.138 25.8171 184.538 25.9225C184.939 26.0279 185.364 25.9716 185.723 25.7658C186.164 25.4361 186.639 25.1562 187.142 24.9313L187.34 24.8687C187.543 25.0405 187.784 25.1621 188.044 25.2237C188.303 25.2853 188.573 25.2852 188.832 25.2234C189.227 25.1066 189.561 24.8416 189.765 24.4839C189.969 24.1262 190.027 23.7034 189.927 23.304L189.833 22.6885Z" fill="#158DED"/>
<path d="M14.562 39.5361C12.6113 39.4735 10.817 40.2872 8.83503 40.2663C6.60266 40.2663 4.41203 40.4124 2.3883 39.3275C0.865281 38.5242 -0.866364 40.5375 0.489744 41.7893L0.938303 42.217C1.09843 42.3691 1.28931 42.485 1.49806 42.557C1.7068 42.6289 1.92856 42.6553 2.14837 42.6343C3.74898 43.1624 5.42893 43.4094 7.11381 43.3645C8.41397 43.4434 9.71827 43.4224 11.0152 43.3019C12.1803 42.9873 13.3705 42.7744 14.5724 42.6656C16.5857 42.7699 16.5753 39.6404 14.562 39.5361Z" fill="#158DED"/>
<path d="M8.20899 142.684C5.7367 144.363 2.46118 145.532 1.23025 148.484C1.12439 148.883 1.1799 149.309 1.38482 149.668C1.58974 150.027 1.92762 150.291 2.32557 150.403C2.71955 150.506 3.138 150.456 3.49627 150.262C3.85454 150.069 4.12588 149.746 4.25541 149.36C4.63095 148.442 5.97663 147.754 6.759 147.274C7.80216 146.648 8.84532 146.095 9.7946 145.438C11.4532 144.259 9.88848 141.547 8.20899 142.684Z" fill="#158DED"/>
<path d="M26.8083 255.177C24.722 254.906 22.9695 253.477 20.8206 253.738C20.4089 253.748 20.017 253.916 19.7259 254.208C19.4347 254.499 19.2664 254.891 19.2559 255.302C19.2613 255.716 19.4279 256.111 19.7201 256.403C20.0124 256.695 20.4073 256.862 20.8206 256.867C22.6148 256.648 24.2317 257.91 25.9738 258.202C26.373 258.298 26.7934 258.237 27.1499 258.034C27.5063 257.83 27.772 257.499 27.8932 257.107C28.0026 256.707 27.9501 256.281 27.747 255.919C27.5439 255.558 27.2067 255.292 26.8083 255.177Z" fill="#158DED"/>
<path d="M347.684 298.24C345.399 298.553 344.21 300.326 342.708 301.86C341.273 303.225 340.143 304.878 339.391 306.71C337.722 307.263 338.556 310.017 340.434 309.663L341.008 309.558C341.261 309.481 341.491 309.34 341.674 309.148C341.856 308.956 341.986 308.72 342.051 308.463C342.515 306.897 343.386 305.483 344.575 304.363C345.285 303.633 346.557 301.516 347.632 301.37C349.645 301.109 349.676 297.979 347.684 298.24Z" fill="#158DED"/>
<path d="M355.425 349.917L352.64 348.53C352.279 348.332 351.856 348.28 351.459 348.385C351.061 348.49 350.718 348.743 350.502 349.093C350.296 349.452 350.24 349.878 350.345 350.278C350.45 350.678 350.709 351.021 351.065 351.232L353.85 352.619C354.028 352.731 354.226 352.807 354.434 352.841C354.641 352.875 354.854 352.867 355.058 352.817C355.262 352.767 355.454 352.676 355.623 352.551C355.791 352.425 355.933 352.266 356.039 352.085C356.144 351.903 356.213 351.702 356.239 351.494C356.265 351.285 356.25 351.073 356.192 350.871C356.135 350.669 356.038 350.48 355.906 350.316C355.774 350.152 355.611 350.017 355.425 349.917Z" fill="#158DED"/>
<path d="M394.315 289.279C392.938 291.382 391.389 293.368 389.683 295.215C388.4 296.748 390.601 298.97 391.895 297.426C393.775 295.379 395.485 293.181 397.006 290.854C397.175 290.5 397.205 290.096 397.09 289.721C396.975 289.346 396.723 289.028 396.384 288.83C396.046 288.631 395.645 288.568 395.262 288.651C394.879 288.734 394.541 288.958 394.315 289.279Z" fill="#158DED"/>
<path d="M429.322 154.054C427.684 155.681 428.153 157.955 428.164 160.021C428.164 160.436 428.329 160.834 428.622 161.127C428.916 161.421 429.314 161.585 429.729 161.585C430.144 161.585 430.542 161.421 430.835 161.127C431.128 160.834 431.293 160.436 431.293 160.021C431.293 158.977 430.74 157.048 431.533 156.265C431.81 155.969 431.96 155.576 431.953 155.171C431.946 154.766 431.782 154.379 431.495 154.092C431.208 153.805 430.821 153.641 430.416 153.634C430.011 153.627 429.618 153.777 429.322 154.054Z" fill="#158DED"/>
<path d="M24.3042 343.45H18.0452C17.6302 343.45 17.2322 343.615 16.9388 343.909C16.6453 344.202 16.4805 344.6 16.4805 345.015C16.4805 345.43 16.6453 345.828 16.9388 346.121C17.2322 346.415 17.6302 346.58 18.0452 346.58H24.3042C24.7192 346.58 25.1172 346.415 25.4106 346.121C25.7041 345.828 25.8689 345.43 25.8689 345.015C25.8689 344.6 25.7041 344.202 25.4106 343.909C25.1172 343.615 24.7192 343.45 24.3042 343.45Z" fill="#158DED"/>
<path d="M70.7251 338.756C70.7251 344.139 71.7683 349.793 68.8474 354.654C68.6562 355.011 68.6109 355.429 68.7212 355.818C68.8315 356.208 69.0887 356.54 69.4387 356.744C69.7888 356.948 70.2043 357.009 70.598 356.913C70.9916 356.817 71.3326 356.572 71.5492 356.229C74.7934 350.826 73.8755 344.754 73.8546 338.756C73.8546 338.341 73.6897 337.943 73.3963 337.65C73.1028 337.356 72.7048 337.191 72.2898 337.191C71.8749 337.191 71.4769 337.356 71.1834 337.65C70.89 337.943 70.7251 338.341 70.7251 338.756Z" fill="#158DED"/>
<path d="M66.0315 391.436C65.6165 391.436 65.2185 391.6 64.9251 391.894C64.6317 392.187 64.4668 392.585 64.4668 393C64.4668 393.415 64.6317 393.813 64.9251 394.107C65.2185 394.4 65.6165 394.565 66.0315 394.565C66.4465 394.565 66.8445 394.4 67.138 394.107C67.4314 393.813 67.5963 393.415 67.5963 393C67.5963 392.585 67.4314 392.187 67.138 391.894C66.8445 391.6 66.4465 391.436 66.0315 391.436Z" fill="#158DED"/>
<defs>
<linearGradient id="paint0_linear" x1="228.031" y1="275.968" x2="228.031" y2="45.1897" gradientUnits="userSpaceOnUse">
<stop stop-color="white"/>
<stop offset="1" stop-color="#158DED" stop-opacity="0"/>
</linearGradient>
<linearGradient id="paint1_linear" x1="16024.9" y1="-180670" x2="16024.9" y2="-130503" gradientUnits="userSpaceOnUse">
<stop stop-color="white"/>
<stop offset="1" stop-color="#3AC1B0" stop-opacity="0"/>
</linearGradient>
</defs>
</svg>
