<svg xmlns="http://www.w3.org/2000/svg" viewBox="0 0 214.21 56.98"><defs><style>.cls-1{fill:#2e84c6;}</style></defs><title>dark-bluAsset 7</title><g id="Layer_2" data-name="Layer 2"><g id="Layer_1-2" data-name="Layer 1"><rect class="cls-1" y="5.37" width="2.9" height="51.61"/><rect class="cls-1" x="5.8" y="5.37" width="2.9" height="51.61"/><rect class="cls-1" x="11.6" y="5.37" width="2.9" height="51.61"/><rect class="cls-1" x="31.91" y="5.37" width="2.9" height="51.61"/><rect class="cls-1" x="37.71" y="5.37" width="2.9" height="51.61"/><rect class="cls-1" x="43.51" y="5.37" width="2.9" height="51.61"/><polygon class="cls-1" points="8.66 5.37 8.7 5.41 8.7 8.73 6.61 7.03 8.66 5.37"/><polygon class="cls-1" points="34.81 26.53 34.81 29.85 31.91 27.5 11.6 11.07 11.6 7.75 34.81 26.53"/><polygon class="cls-1" points="40.61 31.23 40.61 34.55 37.71 32.2 37.71 28.88 40.61 31.23"/><polygon class="cls-1" points="46.41 35.92 46.41 39.24 43.51 36.89 43.51 33.57 46.41 35.92"/><polygon class="cls-1" points="2.51 10.35 2.9 10.04 2.9 10.67 2.51 10.35"/><polygon class="cls-1" points="5.8 9.7 8.7 12.05 8.7 15.37 5.8 13.02 5.8 9.7"/><polygon class="cls-1" points="31.91 30.82 34.81 33.17 34.81 36.49 31.91 34.14 14.51 20.06 11.6 17.71 11.6 14.39 31.91 30.82"/><polygon class="cls-1" points="40.61 37.87 40.61 41.19 37.71 38.84 37.71 35.52 40.61 37.87"/><polygon class="cls-1" points="46.41 42.56 46.41 45.88 43.51 43.53 43.51 40.21 46.41 42.56"/><polygon class="cls-1" points="0.46 12.01 2.9 13.99 2.9 17.31 0 14.96 0 12.38 0.46 12.01"/><polygon class="cls-1" points="5.8 16.34 8.7 18.69 8.7 22 5.8 19.66 5.8 16.34"/><polygon class="cls-1" points="31.91 37.46 34.81 39.81 34.81 43.13 31.91 40.78 11.6 24.35 11.6 21.03 14.51 23.38 31.91 37.46"/><polygon class="cls-1" points="40.61 44.5 40.61 47.82 37.71 45.48 37.71 42.16 40.61 44.5"/><polygon class="cls-1" points="45.56 48.51 43.51 50.16 43.51 46.85 45.56 48.51"/><path class="cls-1" d="M74.16,57A23.67,23.67,0,0,1,65,55.29a20,20,0,0,1-6.82-4.59,19.29,19.29,0,0,1-4.2-6.7,23.1,23.1,0,0,1,0-15.95,19.39,19.39,0,0,1,4.2-6.7A20.5,20.5,0,0,1,65,16.73,23.13,23.13,0,0,1,74.16,15a22.78,22.78,0,0,1,9.16,1.73,20.53,20.53,0,0,1,6.78,4.62,19.79,19.79,0,0,1,4.24,6.7,22,22,0,0,1,1.46,8,22.57,22.57,0,0,1-1.42,8,19.29,19.29,0,0,1-4.2,6.7,20,20,0,0,1-6.82,4.59A23.58,23.58,0,0,1,74.16,57ZM65.14,36a11.14,11.14,0,0,0,2.55,7.66,8.22,8.22,0,0,0,6.47,2.89,8,8,0,0,0,3.54-.77,8.31,8.31,0,0,0,2.81-2.16A10.19,10.19,0,0,0,82.4,40.3,12.79,12.79,0,0,0,83.09,36a11.17,11.17,0,0,0-2.54-7.67,8.17,8.17,0,0,0-6.39-2.89,8.48,8.48,0,0,0-3.59.77,8.62,8.62,0,0,0-2.85,2.16,10.35,10.35,0,0,0-1.88,3.35A12.6,12.6,0,0,0,65.14,36Z"/><path class="cls-1" d="M125.16,44.27a16.55,16.55,0,0,1-2.55,1,9.36,9.36,0,0,1-2.84.46A3.29,3.29,0,0,1,116.22,42V25.08h8.24V15.76h-5.28a3,3,0,0,1-3-3V2.59a2.49,2.49,0,0,0-4-2l-7.34,5.63a2.51,2.51,0,0,0-1,2V12.8a3,3,0,0,1-3,3h-2.2v9.32h5.16V46.2a12.73,12.73,0,0,0,.89,5,8.6,8.6,0,0,0,2.42,3.35,9.89,9.89,0,0,0,3.59,1.85,16.1,16.1,0,0,0,4.35.58,24,24,0,0,0,6.59-.92,50.22,50.22,0,0,0,5.82-2Z"/><path class="cls-1" d="M128.93,36a22,22,0,0,1,1.47-8,19.71,19.71,0,0,1,4.23-6.71,20.11,20.11,0,0,1,6.82-4.58A23.67,23.67,0,0,1,150.66,15a22,22,0,0,1,11.78,3,20,20,0,0,1,4.9,4.24,2.93,2.93,0,0,1-1.48,4.63l-6.32,1.91a3,3,0,0,1-3-.83,7.55,7.55,0,0,0-4.92-2.39,8.81,8.81,0,0,0-7.26,2.59A10.85,10.85,0,0,0,141.57,36a13.06,13.06,0,0,0,.69,4.35,9.76,9.76,0,0,0,1.93,3.35,8.6,8.6,0,0,0,2.89,2.16,8.09,8.09,0,0,0,3.5.77,8.27,8.27,0,0,0,4.24-1.12A7.53,7.53,0,0,0,156.69,44a3,3,0,0,1,3-.76L166,45.14a2.93,2.93,0,0,1,1.47,4.62A19.31,19.31,0,0,1,162.56,54a22.35,22.35,0,0,1-11.9,3,23,23,0,0,1-9.13-1.73,21.14,21.14,0,0,1-6.86-4.62,19.51,19.51,0,0,1-4.27-6.71A22,22,0,0,1,128.93,36Z"/><path class="cls-1" d="M213.75,25.74a13.68,13.68,0,0,0-1.81-4.93,10.51,10.51,0,0,0-3.85-3.62,13.28,13.28,0,0,0-6.59-1.43,16.74,16.74,0,0,0-8.05,2l-.07,0a3.89,3.89,0,0,1-5.82-3.37V2.49a2.49,2.49,0,0,0-4-2l-7.34,5.62a2.51,2.51,0,0,0-1,2V57h12.33V33.79a10,10,0,0,1,1.54-2.93,13.56,13.56,0,0,1,2.2-2.27,9.67,9.67,0,0,1,2.46-1.46,6.54,6.54,0,0,1,2.35-.5,5.24,5.24,0,0,1,4.24,1.84c1,1.24,1.54,3.16,1.54,5.79V57h12.32V31.1A31.9,31.9,0,0,0,213.75,25.74Z"/></g></g></svg>