<svg width="21" height="20" viewBox="0 0 21 20" fill="none" xmlns="http://www.w3.org/2000/svg">
<path fill-rule="evenodd" clip-rule="evenodd" d="M18.2602 4.90511L15.944 2.59128C15.8222 2.46957 15.6246 2.46957 15.5028 2.59128L14.8411 3.25237C14.7192 3.37408 14.7192 3.5714 14.8411 3.6931L17.1572 6.00693C17.2791 6.12863 17.4766 6.12863 17.5984 6.00693L18.2602 5.34583C18.382 5.22413 18.382 5.02681 18.2602 4.90511ZM17.5174 8.21429C17.0567 8.21429 16.6833 8.58738 16.6833 9.04762V15C16.6833 15.4602 16.3098 15.8333 15.8491 15.8333H4.17052C3.70981 15.8333 3.33633 15.4602 3.33633 15V5C3.33633 4.53976 3.70981 4.16667 4.17052 4.16667H11.8867C12.3474 4.16667 12.7209 3.79357 12.7209 3.33333C12.7209 2.8731 12.3474 2.5 11.8867 2.5H4.17052C2.7884 2.5 1.66797 3.61929 1.66797 5V15C1.66797 16.3807 2.7884 17.5 4.17052 17.5H15.8491C17.2312 17.5 18.3516 16.3807 18.3516 15V9.04762C18.3516 8.58738 17.9781 8.21429 17.5174 8.21429ZM14.5102 6.8883L8.99355 12.3993C8.96775 12.4251 8.93372 12.441 8.89738 12.4443L8.53341 12.4774C8.52401 12.4782 8.51456 12.4782 8.50516 12.4774C8.41937 12.4696 8.35615 12.3938 8.36395 12.3081L8.39703 11.9445C8.40034 11.9082 8.41628 11.8742 8.44208 11.8484L13.9587 6.33739C14.0197 6.27654 14.1184 6.27654 14.1793 6.33739L14.5102 6.66793C14.5711 6.72879 14.5711 6.82745 14.5102 6.8883ZM14.4 4.3542L16.4956 6.44766C16.6783 6.63022 16.6783 6.9262 16.4956 7.10876L9.77709 13.8204C9.69968 13.8977 9.59759 13.9455 9.48857 13.9554L7.1834 14.1647C6.92603 14.1881 6.69842 13.9986 6.67502 13.7415C6.67246 13.7133 6.67246 13.685 6.67502 13.6569L6.88458 11.3541C6.89449 11.2451 6.94231 11.1432 7.01971 11.0658L13.7382 4.3542C13.9209 4.17165 14.2172 4.17165 14.4 4.3542Z" fill="#7E7F9A"/>
</svg>
