<svg xmlns="http://www.w3.org/2000/svg" viewBox="0 0 137.74 129.45"><defs><style>.cls-1{fill:#f2d03b;}.cls-2{fill:#fff;}.cls-3{fill:#e8b938;}.cls-4{fill:#3d3813;}</style></defs><title>Asset 5</title><g id="Layer_2" data-name="Layer 2"><g id="objects"><rect class="cls-1" width="137.74" height="129.45" rx="64.08"/><path class="cls-2" d="M8.71,49.9a2.08,2.08,0,0,1-.6-.09,2.14,2.14,0,0,1-1.46-2.65A60.46,60.46,0,0,1,44.33,7.31a2.14,2.14,0,0,1,1.43,4,56.16,56.16,0,0,0-35,37A2.14,2.14,0,0,1,8.71,49.9Z"/><path class="cls-3" d="M101.84,6.52a64,64,0,0,1,25.47,51.14V59A64.08,64.08,0,0,1,63.23,123H53.65a63.86,63.86,0,0,1-28.18-6.52,63.79,63.79,0,0,0,38.61,12.94h9.58a64.08,64.08,0,0,0,64.08-64.08V64.08A64.08,64.08,0,0,0,101.84,6.52Z"/><path class="cls-4" d="M68.87,101.19a26.62,26.62,0,0,1-25.1-16.68,3.21,3.21,0,0,1,6-2.16A20.08,20.08,0,0,0,68.87,94.77a20.08,20.08,0,0,0,19-12.42,3.21,3.21,0,0,1,6,2.16A26.59,26.59,0,0,1,68.87,101.19Z"/><path class="cls-4" d="M40.12,47.16v5.45a7,7,0,0,0,7,7h.14a7,7,0,0,0,7-7V47.16Z"/><path class="cls-4" d="M51,50.36H35.57a3.21,3.21,0,1,1,0-6.41H51a3.21,3.21,0,1,1,0,6.41Z"/><path class="cls-4" d="M88.08,47.16v5.45a7,7,0,0,0,7,7h.14a7,7,0,0,0,7-7V47.16Z"/><path class="cls-4" d="M99,50.36H83.53a3.21,3.21,0,1,1,0-6.41H99a3.21,3.21,0,1,1,0,6.41Z"/></g></g></svg>