<svg width="14" height="18" viewBox="0 0 14 18" fill="none" xmlns="http://www.w3.org/2000/svg">
<path fill-rule="evenodd" clip-rule="evenodd" d="M14 17.6C14 17.8209 13.8209 18 13.6 18H12.4C12.1791 18 12 17.8209 12 17.6V16.4C12 16.1791 12.1791 16 12.4 16H13.6C13.8209 16 14 16.1791 14 16.4V17.6ZM14 13.6C14 13.8209 13.8209 14 13.6 14H12.4C12.1791 14 12 13.8209 12 13.6V0.4C12 0.179085 12.1791 0 12.4 0H13.6C13.8209 0 14 0.179085 14 0.4V13.6ZM8 13.6C8 13.8209 7.82091 14 7.6 14H6.4C6.17909 14 6 13.8209 6 13.6V0.4C6 0.179085 6.17909 0 6.4 0H7.6C7.82091 0 8 0.179085 8 0.4V13.6ZM1.6 14C1.82091 14 2 13.8209 2 13.6V0.4C2 0.179087 1.82091 0 1.6 0H0.4C0.179086 0 0 0.179087 0 0.4V13.6C0 13.8209 0.179086 14 0.4 14H1.6ZM7.6 18C7.82091 18 8 17.8209 8 17.6V16.4C8 16.1791 7.82091 16 7.6 16H6.4C6.17909 16 6 16.1791 6 16.4V17.6C6 17.8209 6.17909 18 6.4 18H7.6ZM2 17.6C2 17.8209 1.82091 18 1.6 18H0.4C0.179086 18 0 17.8209 0 17.6V16.4C0 16.1791 0.179086 16 0.4 16H1.6C1.82091 16 2 16.1791 2 16.4V17.6Z" fill="#7E7F9A"/>
</svg>
