<svg xmlns="http://www.w3.org/2000/svg" xmlns:xlink="http://www.w3.org/1999/xlink" viewBox="0 0 390.19 127.64"><defs><style>.cls-1{fill:none;}.cls-2{clip-path:url(#clip-path);}.cls-3{fill:url(#linear-gradient);}.cls-4{fill:url(#linear-gradient-2);}.cls-5{fill:url(#linear-gradient-3);}.cls-6{fill:url(#linear-gradient-4);}.cls-7{fill:#f9f9f9;}.cls-8{fill:#f9f9fa;}</style><clipPath id="clip-path"><path class="cls-1" d="M84.56,56.18,67,46,33,26.43c-1.89-1.09-3.76-.43-3.76,1.84v79.84c0,1.7,1.34,2.44,3,1.49L67,89.56,84.56,79.4l16.91-9.77c2-1.14,1.79-2.71.12-3.61S84.56,56.18,84.56,56.18Z"/></clipPath><linearGradient id="linear-gradient" x1="51.06" y1="24.57" x2="51.06" y2="111.01" gradientUnits="userSpaceOnUse"><stop offset="0" stop-color="#257cb0"/><stop offset="0.21" stop-color="#3c8fb3"/><stop offset="0.74" stop-color="#73bdba"/><stop offset="1" stop-color="#89cfbd"/></linearGradient><linearGradient id="linear-gradient-2" x1="29.27" y1="46.02" x2="84.56" y2="46.02" gradientUnits="userSpaceOnUse"><stop offset="0" stop-color="#52c1ad"/><stop offset="1" stop-color="#dee89a"/></linearGradient><linearGradient id="linear-gradient-3" x1="56.91" y1="67.79" x2="56.91" y2="111.32" gradientUnits="userSpaceOnUse"><stop offset="0" stop-color="#ec413d"/><stop offset="0.19" stop-color="#d74352"/><stop offset="0.74" stop-color="#a04888"/><stop offset="1" stop-color="#8a4a9d"/></linearGradient><linearGradient id="linear-gradient-4" x1="88.76" y1="56.18" x2="88.76" y2="79.4" gradientUnits="userSpaceOnUse"><stop offset="0" stop-color="#f58879"/><stop offset="0.62" stop-color="#fbb276"/><stop offset="1" stop-color="#fec874"/></linearGradient></defs><title>Asset 22</title><g id="Layer_2" data-name="Layer 2"><g id="Layer_1-2" data-name="Layer 1"><rect width="390.19" height="127.64" rx="17.25"/><g id="PLAY"><g class="cls-2"><polygon class="cls-3" points="29.27 24.57 29.27 67.79 29.27 111.01 72.85 67.79 29.27 24.57"/><polygon class="cls-4" points="84.56 56.18 66.97 46.02 29.27 24.26 29.27 24.57 72.85 67.79 84.56 56.18"/><polygon class="cls-5" points="29.27 111.01 29.27 111.32 66.97 89.56 84.56 79.4 72.85 67.79 29.27 111.01"/><polygon class="cls-6" points="84.56 56.18 72.85 67.79 84.56 79.4 104.67 67.79 84.56 56.18"/></g></g><path class="cls-7" d="M303.67,84.69a10.82,10.82,0,0,1-4.49-.91,8.37,8.37,0,0,1-3.4-2.78h-.28a34.21,34.21,0,0,1,.28,4.17V95.51H292V59.09h3.1l.52,3.44h.19a8.85,8.85,0,0,1,3.41-3,10.45,10.45,0,0,1,4.48-.92,9.27,9.27,0,0,1,7.71,3.42q2.73,3.42,2.72,9.59t-2.76,9.62A9.32,9.32,0,0,1,303.67,84.69Zm-.55-22.82q-3.86,0-5.58,2.13t-1.76,6.79v.85q0,5.3,1.76,7.58t5.67,2.28a5.88,5.88,0,0,0,5.1-2.64,12.51,12.51,0,0,0,1.85-7.27c0-3.13-.62-5.54-1.85-7.21A6.05,6.05,0,0,0,303.12,61.87Z"/><path class="cls-7" d="M322.92,84.23h-3.81V48.54h3.81Z"/><path class="cls-7" d="M344.81,84.23l-.76-3.58h-.18a10.59,10.59,0,0,1-3.76,3.2,11.36,11.36,0,0,1-4.66.84,8.41,8.41,0,0,1-5.86-1.93,7,7,0,0,1-2.12-5.48q0-7.62,12.17-8l4.27-.14V67.6a6.37,6.37,0,0,0-1.27-4.37,5.24,5.24,0,0,0-4.07-1.41,16.48,16.48,0,0,0-7.11,1.93l-1.17-2.92a18.27,18.27,0,0,1,8.51-2.15q4.49,0,6.66,2c1.44,1.33,2.17,3.47,2.17,6.4V84.23Zm-8.6-2.68a7.73,7.73,0,0,0,5.58-2,7.23,7.23,0,0,0,2-5.46V71.87L340,72q-4.54.15-6.55,1.41a4.26,4.26,0,0,0-2,3.89,3.91,3.91,0,0,0,1.25,3.14A5.18,5.18,0,0,0,336.21,81.55Z"/><path class="cls-7" d="M349.84,59.09h4.08l5.5,14.34a54.24,54.24,0,0,1,2.25,7.08h.19c.19-.78.61-2.11,1.24-4s2.72-7.69,6.23-17.42h4.09L362.61,87.71a14.34,14.34,0,0,1-3.75,6,8,8,0,0,1-5.26,1.77,15.31,15.31,0,0,1-3.44-.39V92.07a12.83,12.83,0,0,0,2.82.28c2.61,0,4.48-1.47,5.59-4.41l1.4-3.57Z"/><path class="cls-7" d="M233.14,61.43a8.86,8.86,0,0,1,3.73,7.1c0,3.88-2.21,5.73-4.42,7.46A3.7,3.7,0,0,0,231,78.57a2.89,2.89,0,0,0,1.37,2.26l1.89,1.47c2.32,1.94,4.42,3.73,4.42,7.36,0,4.94-4.79,9.94-13.83,9.94-7.62,0-11.3-3.63-11.3-7.52a7.58,7.58,0,0,1,4.05-6.42c3.25-2,7.67-2.25,10-2.42A5.47,5.47,0,0,1,226,79.67a4.62,4.62,0,0,1,.53-2c-.58,0-1.16.1-1.69.1a8.3,8.3,0,0,1-8.72-8.25,9.43,9.43,0,0,1,3.36-7,14.35,14.35,0,0,1,9.41-2.9h10.83l-3.36,1.9Zm-3.73,23.34a9,9,0,0,0-1.21,0,20.78,20.78,0,0,0-5.52.84c-1.16.42-4.53,1.68-4.53,5.42s3.63,6.41,9.26,6.41c5,0,7.73-2.42,7.73-5.68C235.14,89,233.4,87.61,229.41,84.77Zm1.52-10a5.3,5.3,0,0,0,1.31-3.84c0-3.78-2.26-9.67-6.62-9.67A4.88,4.88,0,0,0,221.94,63a6.08,6.08,0,0,0-1.16,3.89c0,3.52,2.05,9.35,6.58,9.35A5.38,5.38,0,0,0,230.93,74.78Z"/><path class="cls-7" d="M200,83.93a12.39,12.39,0,0,1-12.81-12.39c0-6.88,5.62-12.75,13.6-12.75a12.27,12.27,0,0,1,12.54,12.38C213.37,77.37,208.6,83.93,200,83.93Zm6.56-4.25a9.51,9.51,0,0,0,1.58-5.83c0-4.62-2.21-13.44-8.72-13.44a7.33,7.33,0,0,0-4.72,1.79c-2.05,1.84-2.42,4.15-2.42,6.41,0,5.19,2.58,13.74,8.93,13.74A6.68,6.68,0,0,0,206.6,79.68Z"/><path class="cls-7" d="M171.59,83.93a12.39,12.39,0,0,1-12.81-12.39c0-6.88,5.62-12.75,13.6-12.75a12.27,12.27,0,0,1,12.54,12.38C184.92,77.37,180.15,83.93,171.59,83.93Zm6.56-4.25a9.51,9.51,0,0,0,1.58-5.83c0-4.62-2.21-13.44-8.72-13.44a7.33,7.33,0,0,0-4.72,1.79c-2,1.84-2.42,4.15-2.42,6.41,0,5.19,2.57,13.74,8.93,13.74A6.71,6.71,0,0,0,178.15,79.68Z"/><path class="cls-7" d="M154.77,83.11l-7.55,1.74a55.34,55.34,0,0,1-8.7.89c-14.57,0-20.11-10.71-20.11-19.1,0-10.24,7.86-19.73,21.32-19.73A30.67,30.67,0,0,1,147.8,48a20.43,20.43,0,0,1,7,3.28l-4.38,4.16-1.85.42,1.32-2.11a15.08,15.08,0,0,0-11.29-5c-8.34,0-14.62,6.34-14.62,15.57,0,9.92,7.18,19.26,18.68,19.26a15.61,15.61,0,0,0,6.7-1.32V73.82l-8,.42L145.58,72h11.19l-1.37,1.32a1.25,1.25,0,0,0-.53.84c-.05.48-.1,2-.1,2.54Z"/><path class="cls-7" d="M249.82,81.59c-1.74-.16-2.11-.48-2.11-2.54V49.18l0-.34c.21-1.84.74-2.16,2.38-3.11h-7.55l-4,1.9h4V80.22c0,1-.21,1.21-1.42,2.79h9.34l1.95-1.16C251.62,81.74,250.72,81.69,249.82,81.59Z"/><path class="cls-7" d="M271.29,82.07c-.57.32-1.15.69-1.72,1a12.31,12.31,0,0,1-5.09,1,11.16,11.16,0,0,1-7-2,13.55,13.55,0,0,1-5.34-11.06,11.88,11.88,0,0,1,12-12.11,10.17,10.17,0,0,1,5.4,1.47,8.64,8.64,0,0,1,3.66,5.19l-12.31,5-4,.31c1.31,6.66,5.82,10.53,10.8,10.53a13.53,13.53,0,0,0,6.39-1.83Zm-4.92-15.62c1-.36,1.52-.68,1.52-1.41,0-2.1-2.36-4.51-5.19-4.51-2.1,0-6,1.63-6,7.29,0,.89.11,1.83.16,2.78Z"/><path class="cls-7" d="M276.35,59.16v3.46h-.42V59.16h-1.14V58.8h2.71v.36Z"/><path class="cls-7" d="M281.07,62.62V59.13h0L280,62.62h-.33l-1.07-3.49h0v3.49h-.38V58.8h.65l1,3.09h0l.95-3.09h.67v3.82Z"/><path class="cls-8" d="M128.89,36.63h-2.62a17.42,17.42,0,0,0-.75-3.07h-3.78a15.36,15.36,0,0,0-.77,3.07H118.5q0-.32,1.91-5.25A41.1,41.1,0,0,0,122.33,26h3.09a45.52,45.52,0,0,0,1.74,5.35A47.24,47.24,0,0,1,128.89,36.63ZM125.1,32a47.5,47.5,0,0,1-1.4-4.57h-.13q0,.32-1.45,4.57Z"/><path class="cls-8" d="M139.46,36.63h-2a19.68,19.68,0,0,0-2.25-3.55,19.86,19.86,0,0,1-2.69-4.63h-.13a28.08,28.08,0,0,1,.2,3.25c0,1.34,0,3,.12,4.93h-2c.09-1.69.13-3.55.13-5.58s0-3.69-.13-5.09h2.44a15.46,15.46,0,0,0,2,3.47,20.65,20.65,0,0,1,2.48,4.36h.12a31.16,31.16,0,0,1-.2-3.27c0-1.48,0-3-.11-4.56h2.05c-.08,1.35-.12,3.05-.12,5.09S139.38,35,139.46,36.63Z"/><path class="cls-8" d="M151.33,30.93A6,6,0,0,1,149.84,35a5.19,5.19,0,0,1-4.18,1.74c-.81,0-1.92,0-3.34-.1.07-1.65.11-3.51.11-5.58s0-3.69-.11-5.09h1.43l1.05,0,.91,0A5.51,5.51,0,0,1,150,27.39,5.08,5.08,0,0,1,151.33,30.93Zm-2.23.35a4,4,0,0,0-.92-2.65,3.48,3.48,0,0,0-2.8-1.08,8.24,8.24,0,0,0-1,.07c.05,1.1.08,2.24.08,3.43s0,2.6.08,3.88a5.55,5.55,0,0,0,1.07.11,3.11,3.11,0,0,0,2.61-1.1A4.21,4.21,0,0,0,149.1,31.28Z"/><path class="cls-8" d="M162.29,36.63h-2.43a15.59,15.59,0,0,0-1.46-3.58,1.89,1.89,0,0,0-1.64-.68h-.91c0,1.4,0,2.82.08,4.25h-2.28c.07-1.65.11-3.51.11-5.58s0-3.69-.11-5.09h1.42l1,0,1.44,0q3.77,0,3.76,2.57a2.89,2.89,0,0,1-2.14,2.85v.12a2.56,2.56,0,0,1,1.45,1.29A29.73,29.73,0,0,1,162.29,36.63Zm-3.08-7.54c0-1.09-.7-1.63-2.09-1.63a7.71,7.71,0,0,0-1.36.11c.06.85.09,1.95.09,3.31.3,0,.55,0,.76,0C158.34,30.9,159.21,30.3,159.21,29.09Z"/><path class="cls-8" d="M174,31.1a5.87,5.87,0,0,1-1.54,4.17,5,5,0,0,1-3.81,1.65,4.79,4.79,0,0,1-3.62-1.52,5.35,5.35,0,0,1-1.46-3.86,5.86,5.86,0,0,1,1.54-4.17A5,5,0,0,1,169,25.71a4.81,4.81,0,0,1,3.62,1.52A5.32,5.32,0,0,1,174,31.1Zm-2.26.24a4.19,4.19,0,0,0-.88-2.78,2.69,2.69,0,0,0-2.16-1.07,2.49,2.49,0,0,0-2,1.08,4.24,4.24,0,0,0-.84,2.71,4.26,4.26,0,0,0,.88,2.77,2.72,2.72,0,0,0,2.16,1.07,2.51,2.51,0,0,0,2-1.08A4.32,4.32,0,0,0,171.77,31.34Z"/><path class="cls-8" d="M178.67,36.63h-2.32c.07-1.69.1-3.55.1-5.58s0-3.69-.1-5.09h2.32c-.07,1.38-.11,3.07-.11,5.09S178.6,35,178.67,36.63Z"/><path class="cls-8" d="M190.55,30.93a6,6,0,0,1-1.5,4.06,5.19,5.19,0,0,1-4.18,1.74c-.8,0-1.92,0-3.34-.1.07-1.65.11-3.51.11-5.58s0-3.69-.11-5.09H183l1,0,.91,0a5.48,5.48,0,0,1,4.29,1.48A5.09,5.09,0,0,1,190.55,30.93Zm-2.24.35a4,4,0,0,0-.92-2.65,3.48,3.48,0,0,0-2.8-1.08,8.24,8.24,0,0,0-1,.07c0,1.1.08,2.24.08,3.43s0,2.6.08,3.88a5.55,5.55,0,0,0,1.07.11,3.11,3.11,0,0,0,2.61-1.1A4.16,4.16,0,0,0,188.31,31.28Z"/><path class="cls-8" d="M206.3,36.63h-2.62a17.42,17.42,0,0,0-.75-3.07h-3.78a15.36,15.36,0,0,0-.77,3.07h-2.47q0-.32,1.91-5.25A41.1,41.1,0,0,0,199.74,26h3.1a44.23,44.23,0,0,0,1.73,5.35A47.24,47.24,0,0,1,206.3,36.63ZM202.52,32a46.12,46.12,0,0,1-1.41-4.57H201q0,.32-1.45,4.57Z"/><path class="cls-8" d="M215.86,28.75a3.21,3.21,0,0,1-1.45,2.9,6.5,6.5,0,0,1-3.57.93,3.81,3.81,0,0,1-.55,0c0,1,0,2.39.09,4.07h-2.3c.07-1.58.1-3.44.1-5.58,0-2,0-3.66-.1-5.09h1.42l1.17,0,1.49,0a4.69,4.69,0,0,1,2.63.7A2.4,2.4,0,0,1,215.86,28.75Zm-2.11.45c0-1.16-.78-1.75-2.33-1.75a6.73,6.73,0,0,0-1.23.12q.09,1.56.09,3.51l.48,0C212.75,31.1,213.75,30.47,213.75,29.2Z"/><path class="cls-8" d="M225.69,28.75a3.21,3.21,0,0,1-1.45,2.9,6.5,6.5,0,0,1-3.57.93,3.81,3.81,0,0,1-.55,0c0,1,0,2.39.09,4.07h-2.3c.07-1.58.1-3.44.1-5.58,0-2,0-3.66-.1-5.09h1.42l1.16,0,1.5,0a4.71,4.71,0,0,1,2.63.7A2.4,2.4,0,0,1,225.69,28.75Zm-2.11.45c0-1.16-.78-1.75-2.33-1.75a6.73,6.73,0,0,0-1.23.12q.09,1.56.09,3.51l.48,0C222.58,31.1,223.58,30.47,223.58,29.2Z"/><path class="cls-8" d="M241.76,31.1a5.87,5.87,0,0,1-1.54,4.17,5,5,0,0,1-3.81,1.65,4.79,4.79,0,0,1-3.62-1.52,5.31,5.31,0,0,1-1.46-3.86,5.86,5.86,0,0,1,1.54-4.17,5,5,0,0,1,3.81-1.66,4.82,4.82,0,0,1,3.62,1.52A5.36,5.36,0,0,1,241.76,31.1Zm-2.26.24a4.19,4.19,0,0,0-.88-2.78,2.69,2.69,0,0,0-2.16-1.07,2.48,2.48,0,0,0-2,1.08,4.24,4.24,0,0,0-.84,2.71,4.2,4.2,0,0,0,.88,2.77,2.72,2.72,0,0,0,2.16,1.07,2.49,2.49,0,0,0,2-1.08A4.27,4.27,0,0,0,239.5,31.34Z"/><path class="cls-8" d="M252.87,36.63h-2a19.68,19.68,0,0,0-2.25-3.55,19.86,19.86,0,0,1-2.69-4.63h-.13A28.25,28.25,0,0,1,246,31.7c0,1.34,0,3,.11,4.93h-2c.09-1.69.13-3.55.13-5.58s0-3.69-.13-5.09h2.44a15.46,15.46,0,0,0,2,3.47A20.65,20.65,0,0,1,251,33.79h.12a31.16,31.16,0,0,1-.2-3.27c0-1.48,0-3-.11-4.56h2.05c-.08,1.35-.12,3.05-.12,5.09S252.79,35,252.87,36.63Z"/></g></g></svg>