<svg width="24" height="24" viewBox="0 0 24 24" fill="none" xmlns="http://www.w3.org/2000/svg">
<path fill-rule="evenodd" clip-rule="evenodd" d="M19.0429 13.7995C18.9225 13.7366 18.7871 13.7033 18.6514 13.7033C18.3323 13.7033 18.0429 13.8794 17.8958 14.1634C16.918 16.0569 14.6038 17.1428 12.0001 17.1428C9.33581 17.1428 6.97299 16.0412 6.12029 14.1965C5.9816 13.8971 5.67865 13.7037 5.34849 13.7037C5.2256 13.7037 5.10629 13.7297 4.99181 13.7821C4.5672 13.9789 4.38126 14.4848 4.57749 14.9101C5.70281 17.3445 8.68572 18.857 12.0001 18.857C15.2326 18.857 18.1396 17.3956 19.4059 14.9434C19.6207 14.5276 19.4571 14.0141 19.0429 13.7995V13.7995ZM20.3995 10.67C19.8381 9.94241 19.1262 9.4285 18.0073 9.4285C16.8883 9.4285 16.1825 9.94134 15.6174 10.6669C15.3226 11.0452 15.375 11.558 15.8181 11.8566C15.9742 11.9617 16.1581 11.9999 16.3499 11.9999C16.6389 11.9999 16.9128 11.8869 17.0822 11.6689C17.2671 11.4313 17.4951 11.1428 18.0073 11.1428C18.5221 11.1428 18.7483 11.43 18.9303 11.6666C19.1006 11.8864 19.3753 11.9999 19.6652 11.9999C19.857 11.9999 20.0406 11.962 20.1967 11.8562C20.6012 11.5813 20.6923 11.049 20.3995 10.67V10.67ZM8.39949 10.67C7.83806 9.94241 7.12621 9.4285 6.00726 9.4285C4.88831 9.4285 4.18245 9.94134 3.61733 10.6669C3.32263 11.0452 3.37492 11.558 3.81806 11.8566C3.97417 11.9617 4.15803 11.9999 4.34987 11.9999C4.63888 11.9999 4.91274 11.8869 5.08213 11.6689C5.26701 11.4313 5.49506 11.1428 6.00726 11.1428C6.52208 11.1428 6.74826 11.43 6.93029 11.6666C7.10049 11.8864 7.37515 11.9999 7.66508 11.9999C7.85697 11.9999 8.04046 11.962 8.19662 11.8562C8.60124 11.5813 8.69226 11.049 8.39949 10.67V10.67ZM12 0C5.37257 0 0 5.37257 0 12C0 18.6274 5.37257 24 12 24C18.6274 24 24 18.6274 24 12C24 5.37257 18.6274 0 12 0V0ZM19.2731 19.2731C17.3303 21.2158 14.7474 22.2857 12 22.2857C9.25255 22.2857 6.6696 21.2158 4.72683 19.2731C2.78417 17.3303 1.71425 14.7474 1.71425 12C1.71425 9.25255 2.78417 6.66961 4.72683 4.72684C6.6696 2.78418 9.25255 1.71425 12 1.71425C14.7474 1.71425 17.3303 2.78418 19.2731 4.72684C21.2157 6.66961 22.2857 9.25255 22.2857 12C22.2857 14.7474 21.2157 17.3303 19.2731 19.2731V19.2731Z" fill="#0E9080"/>
<mask id="mask0" mask-type="alpha" maskUnits="userSpaceOnUse" x="0" y="0" width="24" height="24">
<path fill-rule="evenodd" clip-rule="evenodd" d="M19.0429 13.7995C18.9225 13.7366 18.7871 13.7033 18.6514 13.7033C18.3323 13.7033 18.0429 13.8794 17.8958 14.1634C16.918 16.0569 14.6038 17.1428 12.0001 17.1428C9.33581 17.1428 6.97299 16.0412 6.12029 14.1965C5.9816 13.8971 5.67865 13.7037 5.34849 13.7037C5.2256 13.7037 5.10629 13.7297 4.99181 13.7821C4.5672 13.9789 4.38126 14.4848 4.57749 14.9101C5.70281 17.3445 8.68572 18.857 12.0001 18.857C15.2326 18.857 18.1396 17.3956 19.4059 14.9434C19.6207 14.5276 19.4571 14.0141 19.0429 13.7995V13.7995ZM20.3995 10.67C19.8381 9.94241 19.1262 9.4285 18.0073 9.4285C16.8883 9.4285 16.1825 9.94134 15.6174 10.6669C15.3226 11.0452 15.375 11.558 15.8181 11.8566C15.9742 11.9617 16.1581 11.9999 16.3499 11.9999C16.6389 11.9999 16.9128 11.8869 17.0822 11.6689C17.2671 11.4313 17.4951 11.1428 18.0073 11.1428C18.5221 11.1428 18.7483 11.43 18.9303 11.6666C19.1006 11.8864 19.3753 11.9999 19.6652 11.9999C19.857 11.9999 20.0406 11.962 20.1967 11.8562C20.6012 11.5813 20.6923 11.049 20.3995 10.67V10.67ZM8.39949 10.67C7.83806 9.94241 7.12621 9.4285 6.00726 9.4285C4.88831 9.4285 4.18245 9.94134 3.61733 10.6669C3.32263 11.0452 3.37492 11.558 3.81806 11.8566C3.97417 11.9617 4.15803 11.9999 4.34987 11.9999C4.63888 11.9999 4.91274 11.8869 5.08213 11.6689C5.26701 11.4313 5.49506 11.1428 6.00726 11.1428C6.52208 11.1428 6.74826 11.43 6.93029 11.6666C7.10049 11.8864 7.37515 11.9999 7.66508 11.9999C7.85697 11.9999 8.04046 11.962 8.19662 11.8562C8.60124 11.5813 8.69226 11.049 8.39949 10.67V10.67ZM12 0C5.37257 0 0 5.37257 0 12C0 18.6274 5.37257 24 12 24C18.6274 24 24 18.6274 24 12C24 5.37257 18.6274 0 12 0V0ZM19.2731 19.2731C17.3303 21.2158 14.7474 22.2857 12 22.2857C9.25255 22.2857 6.6696 21.2158 4.72683 19.2731C2.78417 17.3303 1.71425 14.7474 1.71425 12C1.71425 9.25255 2.78417 6.66961 4.72683 4.72684C6.6696 2.78418 9.25255 1.71425 12 1.71425C14.7474 1.71425 17.3303 2.78418 19.2731 4.72684C21.2157 6.66961 22.2857 9.25255 22.2857 12C22.2857 14.7474 21.2157 17.3303 19.2731 19.2731V19.2731Z" fill="white"/>
</mask>
<g mask="url(#mask0)">
<rect width="24" height="24" fill="#0E9080"/>
</g>
</svg>
