<svg xmlns="http://www.w3.org/2000/svg" viewBox="0 0 170.35 40.1">
    <defs>
        <style>.cls-1{fill:#0a0a0a;}</style>
    </defs>
    <title>signAsset 2</title>
    <g id="Layer_2" data-name="Layer 2">
        <g id="Layer_1-2" data-name="Layer 1">
            <path class="cls-1"
                  d="M167.42,29.85c-.69,3.32-6.35-1.92-8-2.09a3.05,3.05,0,0,0-1.64.27,17.54,17.54,0,0,0,6.48-7.44c.37-.77.14-2-.9-2.2a56,56,0,0,0-8.56-.58c-.6-1.42-1.5-2.43-2.92-2.5-1.79-.09-2.82,1.56-3.71,2.81-6.61.56-13.2,1.76-19.77,2.61-3.46.45-6.93.86-10.4,1.26-1.81-5-3.45-10.12-6.24-14.68S105.07-.61,99.56.09C94.23.77,89.37,4.71,85.92,8.6c-2.68,3-5.88,7.41-6.68,11.79-.13.23-.27.45-.4.67h-.65a44.51,44.51,0,0,0-3-11.33c-.51-1.25-2.52-1.58-2.89,0a80.9,80.9,0,0,1-3.41,11.54c-3.58.12-7.15.28-10.72.46l-2.32.11c-3-2.89-4-8.75-5.47-12.08-.92-2-2-4.22-4.6-4s-4.43,3-5.76,4.84-2.45,3.93-3.66,5.91c-1.92,3.12-4.09,6.85-7.1,1.61-2-3.54-3.76-15.81-10.43-11.58C15.15,8.89,13.3,13.93,10.28,17c-.73.75-2.56,3-3.91,2.32C5.72,19,5.16,16.19,4.91,15.4A49.36,49.36,0,0,1,3,5.93C2.8,4-.2,4,0,5.93c.46,4.22,2.29,21.63,10,16,2.55-1.87,8.8-14.61,12.78-11.84,1.74,1.22,2.82,7.23,3.75,9.25a11,11,0,0,0,2.44,4A125,125,0,0,0,14,25.5a1.51,1.51,0,0,0,0,2.89c10.71,2.14,22,1.51,32.89,1.27a52.75,52.75,0,0,1-14.62,1.86,28.76,28.76,0,0,0-5.94-.37,1.5,1.5,0,0,0,0,3,57.11,57.11,0,0,0,6,.38c9,1.42,18.13,5.92,26.94,2.16A20.7,20.7,0,0,0,68.32,29q3.9-.18,7.8-.4a1.57,1.57,0,0,0,2-.11l3.54-.23a15.56,15.56,0,0,0,7.74,3.07c8.48,1.28,16.77-.1,25-2A11.56,11.56,0,0,0,117,30.83c.39.16.78.28,1.17.41,2.61,5,6.11,8.74,11.25,8.28,3.53-.32,6.7-2.63,9.45-5.32l0,0c2.81,3.38,5.66,7.45,10.56,5.23,2.32-1,4.65-3.37,6.35-5.21.56-.6,1.77-2.85,2.6-3.09,1.47-.44,3.05,1.39,4.14,2,3,1.69,7,1.24,7.76-2.54C170.7,28.76,167.81,28,167.42,29.85ZM160.57,21A15.09,15.09,0,0,1,156,25.57a47.13,47.13,0,0,0-.45-4.84C157.24,20.76,158.91,20.86,160.57,21Zm-21.72,8.79a20.48,20.48,0,0,0-3.56-2.56c1.73-1.14,3.39-2.38,4.93-3.57a1.4,1.4,0,0,0,.18-1.85c1.85-.26,3.7-.49,5.56-.67a85,85,0,0,1-5.34,6.66C140.05,28.46,139.46,29.14,138.85,29.83Zm-18.1-1.07c-.14-.3-.28-.59-.41-.89l4.1-1c1.29.25,2.56.54,3.81.9A14.34,14.34,0,0,1,120.75,28.76Zm-6-3.18,1,.1c0,.1.07.19.1.28l-.58.14C115.08,25.93,114.91,25.76,114.74,25.58Zm-31.49-.44A5.14,5.14,0,0,1,82.7,24q3.49,0,7,.05c.08.19.15.39.22.58C87.69,24.84,85.47,25,83.25,25.14ZM83.52,20c2.69-.88,4.41-.51,5.2,1.07-2,0-3.9,0-5.85,0Zm21.41,1.71q-3-.21-6-.34L99,21.2c1.31-2.46.9-2.77,4.24-2.71s3.48.84,5.12,3.28l.09.15C107.26,21.85,106.06,21.79,104.93,21.71Zm26.28,3.65c.77-.15,1.53-.3,2.29-.43-.42.28-.84.55-1.27.81C131.9,25.6,131.55,25.48,131.21,25.36ZM89.1,9.58c2.78-2.85,6.58-6,10.66-6.42,5.8-.66,8.79,4.11,11,8.65a104.75,104.75,0,0,1,3.74,10.47l-2.31-.15A26.61,26.61,0,0,0,107.6,16c-5.69-5-9.46,0-12.2,5.26-1.21,0-2.42-.09-3.63-.11-1.13-2.95-2.4-5.8-5.9-6a4.2,4.2,0,0,0-1.37.19A35.4,35.4,0,0,1,89.1,9.58ZM74,15.44a42.61,42.61,0,0,1,1.18,5.67l-3,.08C72.88,19.3,73.47,17.37,74,15.44Zm-6.44,8.89c-.3.59-.62,1.16-1,1.72l-4.26.19.07,0a1.38,1.38,0,0,0,.66-1.69L66,24.38ZM44.89,9.51C48.16,8.31,49,14.8,49.74,17a20.26,20.26,0,0,0,2.41,4.95l.06.08c-5.43.22-10.94.4-16.43.75C39.28,19,41.67,10.7,44.89,9.51Zm8.28,17c-9,.22-18.38.85-27.53.3,5-.45,10-.65,15-1s9.66-.65,14.5-.92a9.7,9.7,0,0,0,1.74.93l-1.29.61ZM54.09,35c-4,.52-8-.21-12-1.17a55.61,55.61,0,0,0,14.19-4.35q4.05-.12,8.11-.29A15.74,15.74,0,0,1,54.09,35ZM70.94,24.22l4.51-.1c0,.49.06,1,.08,1.49-1.8.1-3.6.2-5.39.28C70.42,25.35,70.69,24.79,70.94,24.22Zm16.39,3.64,4.1-.32a7.84,7.84,0,0,0,1.1,1.14A23.3,23.3,0,0,1,87.33,27.86Zm7.67.92a1.18,1.18,0,0,0,.13-.18c.24-.47.49-.94.74-1.4q7.59-.64,15.18-1.45c.27.38.56.74.85,1.1A72.85,72.85,0,0,1,95,28.78Zm27.44,3.13a20.6,20.6,0,0,0,9.68-2.75,20,20,0,0,1,4.63,2.9,15.3,15.3,0,0,1-5.44,3.79C127.12,37.31,124.4,35,122.44,31.91Zm27.05,4c-4.49,2.21-6.44-1.1-8.56-3.87,1-1.16,2-2.31,2.92-3.34,1.91-2.19,3.47-4.7,5.39-6.86a3.6,3.6,0,0,1,.61-1c.78-.05,1.57-.08,2.35-.11l.1.68c.89,1.67.73,5.07,1,7,.15,1,1.44,1.25,2.21.89.45-.21.89-.44,1.31-.68-.18.14-.36.28-.53.43C153.9,31.1,152.46,34.46,149.49,35.92Z"/>
        </g>
    </g>
</svg>