<svg width="40" height="39" viewBox="0 0 40 39" fill="none" xmlns="http://www.w3.org/2000/svg">
<path fill-rule="evenodd" clip-rule="evenodd" d="M35.1938 26.1514H27.4966C27.5739 25.3497 27.8753 24.7303 28.6046 24.5336C28.6141 24.5312 28.6224 24.5249 28.6306 24.5187C28.6386 24.5127 28.6465 24.5067 28.6553 24.5044C29.1366 24.3671 29.4811 24.2051 29.4811 23.6788V22.8532C29.4811 21.8295 30.3038 21 31.3248 21C32.3465 21 33.1693 21.8295 33.1693 22.8532V23.6788C33.1693 24.2051 33.5304 24.3747 34.0116 24.5119C34.0207 24.5143 34.0321 24.5186 34.0434 24.5229C34.0545 24.5271 34.0656 24.5313 34.0744 24.5336C34.8037 24.7303 35.1261 25.3497 35.1938 26.1514ZM31.8978 22.8533C31.8978 22.5471 31.6503 22.2988 31.345 22.2988C31.0397 22.2988 30.7929 22.5471 30.7929 22.8533C30.7929 23.1602 31.0397 23.4085 31.345 23.4085C31.6503 23.4085 31.8978 23.1601 31.8978 22.8533ZM34.3319 22.2629H37.3029C37.9098 22.2629 38.3809 22.7663 38.3809 23.3884V37.8357C38.3809 38.4572 37.9098 38.98 37.3029 38.98H31.3449H25.3868C24.7807 38.98 24.2695 38.4572 24.2695 37.8357V23.3884C24.2695 22.7663 24.7807 22.2629 25.3867 22.2629H28.3185V22.8237C28.3185 23.2479 27.99 23.5858 27.5766 23.5858H26.084C25.8175 23.5858 25.5956 23.804 25.5826 24.075L25.5861 37.1847C25.599 37.4425 25.797 37.652 26.046 37.6708L36.6462 37.6696C36.8952 37.6507 37.0949 37.4457 37.1078 37.1879L37.1044 24.0747C37.0907 23.8037 36.873 23.5858 36.6057 23.5858H35.1139C34.7004 23.5858 34.3319 23.2479 34.3319 22.8237V22.2629ZM26.835 27.4343H31.325V28.7171H26.835V27.4343ZM33.2493 35.1314H26.835V36.4143H33.2493V35.1314ZM26.835 32.5657H32.0065V33.8486H26.835V32.5657ZM35.1735 30H26.835V31.2829H35.1735V30Z" fill="#D07979"/>
<mask id="mask0" mask-type="alpha" maskUnits="userSpaceOnUse" x="24" y="21" width="15" height="18">
<path fill-rule="evenodd" clip-rule="evenodd" d="M35.1938 26.1514H27.4966C27.5739 25.3497 27.8753 24.7303 28.6046 24.5336C28.6141 24.5312 28.6224 24.5249 28.6306 24.5187C28.6386 24.5127 28.6465 24.5067 28.6553 24.5044C29.1366 24.3671 29.4811 24.2051 29.4811 23.6788V22.8532C29.4811 21.8295 30.3038 21 31.3248 21C32.3465 21 33.1693 21.8295 33.1693 22.8532V23.6788C33.1693 24.2051 33.5304 24.3747 34.0116 24.5119C34.0207 24.5143 34.0321 24.5186 34.0434 24.5229C34.0545 24.5271 34.0656 24.5313 34.0744 24.5336C34.8037 24.7303 35.1261 25.3497 35.1938 26.1514ZM31.8978 22.8533C31.8978 22.5471 31.6503 22.2988 31.345 22.2988C31.0397 22.2988 30.7929 22.5471 30.7929 22.8533C30.7929 23.1602 31.0397 23.4085 31.345 23.4085C31.6503 23.4085 31.8978 23.1601 31.8978 22.8533ZM34.3319 22.2629H37.3029C37.9098 22.2629 38.3809 22.7663 38.3809 23.3884V37.8357C38.3809 38.4572 37.9098 38.98 37.3029 38.98H31.3449H25.3868C24.7807 38.98 24.2695 38.4572 24.2695 37.8357V23.3884C24.2695 22.7663 24.7807 22.2629 25.3867 22.2629H28.3185V22.8237C28.3185 23.2479 27.99 23.5858 27.5766 23.5858H26.084C25.8175 23.5858 25.5956 23.804 25.5826 24.075L25.5861 37.1847C25.599 37.4425 25.797 37.652 26.046 37.6708L36.6462 37.6696C36.8952 37.6507 37.0949 37.4457 37.1078 37.1879L37.1044 24.0747C37.0907 23.8037 36.873 23.5858 36.6057 23.5858H35.1139C34.7004 23.5858 34.3319 23.2479 34.3319 22.8237V22.2629ZM26.835 27.4343H31.325V28.7171H26.835V27.4343ZM33.2493 35.1314H26.835V36.4143H33.2493V35.1314ZM26.835 32.5657H32.0065V33.8486H26.835V32.5657ZM35.1735 30H26.835V31.2829H35.1735V30Z" fill="white"/>
</mask>
<g mask="url(#mask0)">
<rect x="22" y="21" width="18" height="18" fill="#D07979"/>
</g>
<path fill-rule="evenodd" clip-rule="evenodd" d="M23.8038 17.2494C23.6533 17.1707 23.484 17.1291 23.3144 17.1291C22.9156 17.1291 22.5538 17.3492 22.37 17.7042C21.1477 20.0711 18.2549 21.4284 15.0003 21.4284C11.6699 21.4284 8.71641 20.0515 7.65054 17.7456C7.47717 17.3713 7.09849 17.1296 6.68579 17.1296C6.53217 17.1296 6.38304 17.162 6.23994 17.2275C5.70918 17.4736 5.47675 18.1059 5.72204 18.6376C7.12869 21.6805 10.8573 23.5713 15.0003 23.5713C19.041 23.5713 22.6747 21.7444 24.2576 18.6792C24.526 18.1595 24.3216 17.5176 23.8038 17.2494V17.2494ZM25.4996 13.3375C24.7978 12.4281 23.9079 11.7857 22.5093 11.7857C21.1106 11.7857 20.2283 12.4267 19.5219 13.3337C19.1535 13.8066 19.2189 14.4475 19.7728 14.8208C19.9679 14.9522 20.1978 15 20.4376 15C20.7989 14.9999 21.1412 14.8587 21.353 14.5862C21.584 14.2892 21.8691 13.9285 22.5093 13.9285C23.1528 13.9285 23.4356 14.2875 23.6631 14.5832C23.8759 14.8581 24.2193 15 24.5817 15C24.8215 15 25.0509 14.9526 25.2461 14.8203C25.7517 14.4766 25.8655 13.8113 25.4996 13.3375V13.3375ZM10.4996 13.3375C9.79777 12.4281 8.90794 11.7857 7.50926 11.7857C6.11058 11.7857 5.22826 12.4267 4.52185 13.3337C4.15348 13.8066 4.21884 14.4475 4.77276 14.8208C4.9679 14.9522 5.19772 15 5.43752 15C5.79879 14.9999 6.14111 14.8587 6.35285 14.5862C6.58395 14.2892 6.86902 13.9285 7.50926 13.9285C8.15279 13.9285 8.43551 14.2875 8.66306 14.5832C8.8758 14.8581 9.21913 15 9.58154 15C9.8214 15 10.0508 14.9526 10.246 14.8203C10.7517 14.4766 10.8655 13.8113 10.4996 13.3375V13.3375ZM15 0C6.71571 0 0 6.71571 0 15C0 23.2843 6.71571 30 15 30C23.2843 30 30 23.2843 30 15C30 6.71571 23.2843 0 15 0V0ZM24.0915 24.0913C21.663 26.5196 18.4344 27.857 15.0001 27.857C11.5658 27.857 8.33715 26.5196 5.90869 24.0913C3.48037 21.6628 2.14296 18.4341 2.14296 14.9999C2.14296 11.5656 3.48037 8.33691 5.90869 5.90845C8.33715 3.48013 11.5658 2.14272 15.0001 2.14272C18.4344 2.14272 21.663 3.48013 24.0915 5.90845C26.5198 8.33691 27.8572 11.5656 27.8572 14.9999C27.8572 18.4341 26.5198 21.6628 24.0915 24.0913V24.0913Z" fill="#D07979"/>
<mask id="mask1" mask-type="alpha" maskUnits="userSpaceOnUse" x="0" y="0" width="30" height="30">
<path fill-rule="evenodd" clip-rule="evenodd" d="M23.8038 17.2494C23.6533 17.1707 23.484 17.1291 23.3144 17.1291C22.9156 17.1291 22.5538 17.3492 22.37 17.7042C21.1477 20.0711 18.2549 21.4284 15.0003 21.4284C11.6699 21.4284 8.71641 20.0515 7.65054 17.7456C7.47717 17.3713 7.09849 17.1296 6.68579 17.1296C6.53217 17.1296 6.38304 17.162 6.23994 17.2275C5.70918 17.4736 5.47675 18.1059 5.72204 18.6376C7.12869 21.6805 10.8573 23.5713 15.0003 23.5713C19.041 23.5713 22.6747 21.7444 24.2576 18.6792C24.526 18.1595 24.3216 17.5176 23.8038 17.2494V17.2494ZM25.4996 13.3375C24.7978 12.4281 23.9079 11.7857 22.5093 11.7857C21.1106 11.7857 20.2283 12.4267 19.5219 13.3337C19.1535 13.8066 19.2189 14.4475 19.7728 14.8208C19.9679 14.9522 20.1978 15 20.4376 15C20.7989 14.9999 21.1412 14.8587 21.353 14.5862C21.584 14.2892 21.8691 13.9285 22.5093 13.9285C23.1528 13.9285 23.4356 14.2875 23.6631 14.5832C23.8759 14.8581 24.2193 15 24.5817 15C24.8215 15 25.0509 14.9526 25.2461 14.8203C25.7517 14.4766 25.8655 13.8113 25.4996 13.3375V13.3375ZM10.4996 13.3375C9.79777 12.4281 8.90794 11.7857 7.50926 11.7857C6.11058 11.7857 5.22826 12.4267 4.52185 13.3337C4.15348 13.8066 4.21884 14.4475 4.77276 14.8208C4.9679 14.9522 5.19772 15 5.43752 15C5.79879 14.9999 6.14111 14.8587 6.35285 14.5862C6.58395 14.2892 6.86902 13.9285 7.50926 13.9285C8.15279 13.9285 8.43551 14.2875 8.66306 14.5832C8.8758 14.8581 9.21913 15 9.58154 15C9.8214 15 10.0508 14.9526 10.246 14.8203C10.7517 14.4766 10.8655 13.8113 10.4996 13.3375V13.3375ZM15 0C6.71571 0 0 6.71571 0 15C0 23.2843 6.71571 30 15 30C23.2843 30 30 23.2843 30 15C30 6.71571 23.2843 0 15 0V0ZM24.0915 24.0913C21.663 26.5196 18.4344 27.857 15.0001 27.857C11.5658 27.857 8.33715 26.5196 5.90869 24.0913C3.48037 21.6628 2.14296 18.4341 2.14296 14.9999C2.14296 11.5656 3.48037 8.33691 5.90869 5.90845C8.33715 3.48013 11.5658 2.14272 15.0001 2.14272C18.4344 2.14272 21.663 3.48013 24.0915 5.90845C26.5198 8.33691 27.8572 11.5656 27.8572 14.9999C27.8572 18.4341 26.5198 21.6628 24.0915 24.0913V24.0913Z" fill="white"/>
</mask>
<g mask="url(#mask1)">
<rect width="30" height="30" fill="#D07979"/>
</g>
</svg>
