<svg width="18" height="14" viewBox="0 0 18 14" fill="none" xmlns="http://www.w3.org/2000/svg">
<path fill-rule="evenodd" clip-rule="evenodd" d="M17.6 0C17.8209 0 18 0.179086 18 0.4V1.6C18 1.82091 17.8209 2 17.6 2H16.4C16.1791 2 16 1.82091 16 1.6V0.4C16 0.179086 16.1791 0 16.4 0H17.6ZM13.6 0C13.8209 0 14 0.179086 14 0.4V1.6C14 1.82091 13.8209 2 13.6 2H0.4C0.179085 2 0 1.82091 0 1.6V0.4C0 0.179086 0.179085 0 0.4 0H13.6ZM13.6 6C13.8209 6 14 6.17909 14 6.4V7.6C14 7.82091 13.8209 8 13.6 8H0.4C0.179085 8 0 7.82091 0 7.6V6.4C0 6.17909 0.179085 6 0.4 6H13.6ZM14 12.4C14 12.1791 13.8209 12 13.6 12H0.4C0.179087 12 0 12.1791 0 12.4V13.6C0 13.8209 0.179087 14 0.4 14H13.6C13.8209 14 14 13.8209 14 13.6V12.4ZM18 6.4C18 6.17909 17.8209 6 17.6 6H16.4C16.1791 6 16 6.17909 16 6.4V7.6C16 7.82091 16.1791 8 16.4 8H17.6C17.8209 8 18 7.82091 18 7.6V6.4ZM17.6 12C17.8209 12 18 12.1791 18 12.4V13.6C18 13.8209 17.8209 14 17.6 14H16.4C16.1791 14 16 13.8209 16 13.6V12.4C16 12.1791 16.1791 12 16.4 12H17.6Z" fill="#7E7F9A"/>
</svg>
