<svg width="20" height="19" viewBox="0 0 20 19" fill="none" xmlns="http://www.w3.org/2000/svg">
<path fill-rule="evenodd" clip-rule="evenodd" d="M11.0159 1.5835H5.54685C4.23384 1.5835 3.16943 2.64682 3.16943 3.9585V15.0418C3.16943 16.3535 4.23384 17.4168 5.54685 17.4168H13.4716C14.7846 17.4168 15.849 16.3535 15.849 15.0418V6.49831C15.849 5.88268 15.6097 5.2911 15.1816 4.8483L12.7258 2.30849C12.2779 1.84516 11.6607 1.5835 11.0159 1.5835ZM5.54722 3.16687C5.10955 3.16687 4.75474 3.52131 4.75474 3.95854V15.0419C4.75474 15.4791 5.10955 15.8335 5.54722 15.8335H13.472C13.9096 15.8335 14.2644 15.4791 14.2644 15.0419V6.49835C14.2644 6.29314 14.1847 6.09595 14.0419 5.94835L11.5862 3.40853C11.4369 3.25409 11.2312 3.16687 11.0162 3.16687H5.54722ZM10.7002 4.02677L13.4035 6.72726C13.4946 6.81828 13.4946 6.96587 13.4035 7.05689C13.3597 7.10061 13.3003 7.12516 13.2385 7.12516H10.5352C10.4064 7.12516 10.3019 7.02081 10.3019 6.89208V4.19158C10.3019 4.06285 10.4064 3.9585 10.5352 3.9585C10.5971 3.9585 10.6564 3.98305 10.7002 4.02677ZM5.54706 11.8752C5.54706 11.4379 5.9015 11.0835 6.33872 11.0835H12.6801C13.1174 11.0835 13.4718 11.4379 13.4718 11.8752C13.4718 12.3124 13.1174 12.6668 12.6801 12.6668H6.33872C5.9015 12.6668 5.54706 12.3124 5.54706 11.8752ZM6.33872 13.4585C5.9015 13.4585 5.54706 13.8129 5.54706 14.2502C5.54706 14.6874 5.9015 15.0418 6.33872 15.0418H12.6801C13.1174 15.0418 13.4718 14.6874 13.4718 14.2502C13.4718 13.8129 13.1174 13.4585 12.6801 13.4585H6.33872Z" fill="#7E7F9A"/>
</svg>
