<svg xmlns="http://www.w3.org/2000/svg" viewBox="0 0 137.74 129.45"><defs><style>.cls-1{fill:#e83f64;}.cls-2{fill:#fff;}.cls-3{fill:#3d3813;}</style></defs><title>Asset 10</title><g id="Layer_2" data-name="Layer 2"><g id="objects"><rect class="cls-1" width="137.74" height="129.45" rx="64.08"/><path class="cls-2" d="M8.71,49.9a2.2,2.2,0,0,1-.61-.09,2.14,2.14,0,0,1-1.45-2.65A60.46,60.46,0,0,1,44.33,7.31a2.14,2.14,0,0,1,1.43,4,56.16,56.16,0,0,0-35,37A2.14,2.14,0,0,1,8.71,49.9Z"/><path class="cls-1" d="M101.84,6.52a64,64,0,0,1,25.47,51.14V59A64.08,64.08,0,0,1,63.23,123H53.65a63.86,63.86,0,0,1-28.18-6.52,63.79,63.79,0,0,0,38.61,12.94h9.58a64.08,64.08,0,0,0,64.08-64.08V64.08A64.08,64.08,0,0,0,101.84,6.52Z"/><path class="cls-3" d="M36.14,62.35a3.21,3.21,0,0,1-1.61-6l11.24-6.49L34.53,43.39a3.21,3.21,0,1,1,3.21-5.55l16,9.26a3.22,3.22,0,0,1,0,5.56l-16,9.26A3.1,3.1,0,0,1,36.14,62.35Z"/><path class="cls-3" d="M101.6,62.35a3.08,3.08,0,0,1-1.6-.43L84,52.66a3.21,3.21,0,0,1,0-5.56l16-9.26a3.21,3.21,0,0,1,3.21,5.55L92,49.88l11.24,6.49a3.21,3.21,0,0,1-1.61,6Z"/><path class="cls-3" d="M99.8,93.82H40.12a3.21,3.21,0,0,1,0-6.42H99.8a3.21,3.21,0,1,1,0,6.42Z"/></g></g></svg>