<svg width="31" height="31" viewBox="0 0 31 31" fill="none" xmlns="http://www.w3.org/2000/svg">
<path fill-rule="evenodd" clip-rule="evenodd" d="M21.369 30.034L6.36914 30.0937L6.24962 0.0939674L21.2495 0.034207L21.369 30.034ZM19.4754 25.3464L19.4491 18.7618C18.0795 19.9351 16.072 20.68 13.8318 20.689C11.5916 20.6979 9.57818 19.969 8.19922 18.8066L8.22175 24.4613C10.2928 24.4531 11.9784 26.1253 11.9867 28.1964L16.6666 28.1777C16.6604 26.6203 17.9178 25.3527 19.4754 25.3464ZM16.5854 13.1838C16.4288 12.9377 16.2277 12.7395 15.982 12.5892C15.7366 12.4391 15.4408 12.3645 15.0952 12.366C14.9339 12.3666 14.7725 12.3936 14.6114 12.4466C14.4504 12.4998 14.2995 12.5806 14.1586 12.689C14.0179 12.7977 13.8931 12.9324 13.7842 13.0933C13.6755 13.2542 13.5898 13.4427 13.5272 13.659C13.5046 13.7455 13.4691 13.8892 13.4209 14.0898C13.3857 14.2367 13.3495 14.3869 13.3126 14.5387L11.5333 14.5458C11.5732 14.4025 11.6283 14.2722 11.7009 14.1567C11.8521 13.9159 12.105 13.773 12.4564 13.7275L12.4517 12.5635C12.1588 12.5756 11.9094 12.6439 11.6866 12.7684C11.4424 12.9051 11.2374 13.0895 11.0711 13.3216C10.905 13.5536 10.7809 13.8225 10.6985 14.1284C10.6618 14.2647 10.634 14.4052 10.6139 14.5495L10.0573 14.5517L10.0615 15.6064L10.614 15.6042C10.6322 15.7315 10.6568 15.8583 10.6886 15.9844C10.7619 16.2742 10.8738 16.533 11.0245 16.7606C11.1753 16.9883 11.3647 17.1711 11.5928 17.309C11.821 17.447 12.0905 17.5154 12.4017 17.5141C12.5631 17.5135 12.7213 17.4897 12.8768 17.4427C13.0321 17.3958 13.1788 17.3166 13.3166 17.205C13.4544 17.0934 13.5791 16.9434 13.6908 16.7546C13.8023 16.5659 13.8922 16.3296 13.9602 16.0454C14.0001 15.8846 14.0373 15.7333 14.0719 15.5904L16.0851 15.5824C16.0368 15.7777 15.9612 15.9515 15.8575 16.1026C15.7517 16.2574 15.6332 16.3781 15.4664 16.4651C15.3113 16.5462 15.1045 16.5899 14.9288 16.5962L14.9334 17.7525C15.2263 17.7397 15.5884 17.6616 15.8551 17.5187C16.134 17.3696 16.3533 17.1713 16.5309 16.9236C16.7086 16.6762 16.8354 16.3855 16.9205 16.0519C16.9596 15.8988 16.9886 15.7408 17.0089 15.5786L17.5614 15.5764L17.5572 14.5217L17.0165 14.5238C16.9975 14.3558 16.969 14.1893 16.9306 14.0247C16.8574 13.7103 16.7419 13.4301 16.5854 13.1838ZM19.393 4.72917C17.8354 4.73537 16.5678 3.45135 16.5617 1.92793L11.8818 1.94657C11.8901 4.01767 10.2179 5.70323 8.1468 5.71148L8.16933 11.3663C9.53898 10.1928 11.5465 9.44796 13.7867 9.43904C16.0269 9.43011 18.0403 10.159 19.4192 11.3214L19.393 4.72917ZM13.8393 22.5639C14.8748 22.5597 15.7176 23.3959 15.7217 24.4314C15.7258 25.4669 14.8897 26.3097 13.8542 26.3138C12.8187 26.318 11.9759 25.4819 11.9718 24.4463C11.9676 23.4108 12.8037 22.568 13.8393 22.5639ZM15.6468 5.68162C15.6427 4.6461 14.7999 3.80998 13.7644 3.81411C12.7288 3.81824 11.8927 4.66104 11.8969 5.69656C11.901 6.73209 12.7438 7.56821 13.7793 7.56408C14.8148 7.55995 15.651 6.71715 15.6468 5.68162ZM14.3239 14.5346C14.3684 14.3666 14.4143 14.2121 14.462 14.0716C14.5077 13.9358 14.5863 13.8105 14.6981 13.6958C14.81 13.5813 14.9841 13.5235 15.2203 13.5226C15.3357 13.5221 15.4495 13.5463 15.562 13.5952C15.6746 13.6441 15.7744 13.7239 15.8612 13.8346C15.948 13.9454 16.0192 14.0902 16.0746 14.2689C16.099 14.3477 16.118 14.4342 16.1318 14.5274L14.3239 14.5346ZM11.8781 16.2434C11.9822 16.3203 12.1119 16.3582 12.2675 16.3576C12.4865 16.3567 12.6576 16.2836 12.7808 16.1381C12.8995 15.9983 12.9895 15.8168 13.0518 15.5945L11.5075 15.6006C11.5344 15.7282 11.575 15.846 11.6307 15.9529C11.6916 16.0699 11.7741 16.1667 11.8781 16.2434ZM23.1245 0.0267578L23.244 30.0265L25.119 30.019L24.9995 0.0192877L23.1245 0.0267578Z" fill="#3AC1B0"/>
<mask id="mask0" mask-type="alpha" maskUnits="userSpaceOnUse" x="6" y="0" width="20" height="31">
<path fill-rule="evenodd" clip-rule="evenodd" d="M21.369 30.034L6.36914 30.0937L6.24962 0.0939674L21.2495 0.034207L21.369 30.034ZM19.4754 25.3464L19.4491 18.7618C18.0795 19.9351 16.072 20.68 13.8318 20.689C11.5916 20.6979 9.57818 19.969 8.19922 18.8066L8.22175 24.4613C10.2928 24.4531 11.9784 26.1253 11.9867 28.1964L16.6666 28.1777C16.6604 26.6203 17.9178 25.3527 19.4754 25.3464ZM16.5854 13.1838C16.4288 12.9377 16.2277 12.7395 15.982 12.5892C15.7366 12.4391 15.4408 12.3645 15.0952 12.366C14.9339 12.3666 14.7725 12.3936 14.6114 12.4466C14.4504 12.4998 14.2995 12.5806 14.1586 12.689C14.0179 12.7977 13.8931 12.9324 13.7842 13.0933C13.6755 13.2542 13.5898 13.4427 13.5272 13.659C13.5046 13.7455 13.4691 13.8892 13.4209 14.0898C13.3857 14.2367 13.3495 14.3869 13.3126 14.5387L11.5333 14.5458C11.5732 14.4025 11.6283 14.2722 11.7009 14.1567C11.8521 13.9159 12.105 13.773 12.4564 13.7275L12.4517 12.5635C12.1588 12.5756 11.9094 12.6439 11.6866 12.7684C11.4424 12.9051 11.2374 13.0895 11.0711 13.3216C10.905 13.5536 10.7809 13.8225 10.6985 14.1284C10.6618 14.2647 10.634 14.4052 10.6139 14.5495L10.0573 14.5517L10.0615 15.6064L10.614 15.6042C10.6322 15.7315 10.6568 15.8583 10.6886 15.9844C10.7619 16.2742 10.8738 16.533 11.0245 16.7606C11.1753 16.9883 11.3647 17.1711 11.5928 17.309C11.821 17.447 12.0905 17.5154 12.4017 17.5141C12.5631 17.5135 12.7213 17.4897 12.8768 17.4427C13.0321 17.3958 13.1788 17.3166 13.3166 17.205C13.4544 17.0934 13.5791 16.9434 13.6908 16.7546C13.8023 16.5659 13.8922 16.3296 13.9602 16.0454C14.0001 15.8846 14.0373 15.7333 14.0719 15.5904L16.0851 15.5824C16.0368 15.7777 15.9612 15.9515 15.8575 16.1026C15.7517 16.2574 15.6332 16.3781 15.4664 16.4651C15.3113 16.5462 15.1045 16.5899 14.9288 16.5962L14.9334 17.7525C15.2263 17.7397 15.5884 17.6616 15.8551 17.5187C16.134 17.3696 16.3533 17.1713 16.5309 16.9236C16.7086 16.6762 16.8354 16.3855 16.9205 16.0519C16.9596 15.8988 16.9886 15.7408 17.0089 15.5786L17.5614 15.5764L17.5572 14.5217L17.0165 14.5238C16.9975 14.3558 16.969 14.1893 16.9306 14.0247C16.8574 13.7103 16.7419 13.4301 16.5854 13.1838ZM19.393 4.72917C17.8354 4.73537 16.5678 3.45135 16.5617 1.92793L11.8818 1.94657C11.8901 4.01767 10.2179 5.70323 8.1468 5.71148L8.16933 11.3663C9.53898 10.1928 11.5465 9.44796 13.7867 9.43904C16.0269 9.43011 18.0403 10.159 19.4192 11.3214L19.393 4.72917ZM13.8393 22.5639C14.8748 22.5597 15.7176 23.3959 15.7217 24.4314C15.7258 25.4669 14.8897 26.3097 13.8542 26.3138C12.8187 26.318 11.9759 25.4819 11.9718 24.4463C11.9676 23.4108 12.8037 22.568 13.8393 22.5639ZM15.6468 5.68162C15.6427 4.6461 14.7999 3.80998 13.7644 3.81411C12.7288 3.81824 11.8927 4.66104 11.8969 5.69656C11.901 6.73209 12.7438 7.56821 13.7793 7.56408C14.8148 7.55995 15.651 6.71715 15.6468 5.68162ZM14.3239 14.5346C14.3684 14.3666 14.4143 14.2121 14.462 14.0716C14.5077 13.9358 14.5863 13.8105 14.6981 13.6958C14.81 13.5813 14.9841 13.5235 15.2203 13.5226C15.3357 13.5221 15.4495 13.5463 15.562 13.5952C15.6746 13.6441 15.7744 13.7239 15.8612 13.8346C15.948 13.9454 16.0192 14.0902 16.0746 14.2689C16.099 14.3477 16.118 14.4342 16.1318 14.5274L14.3239 14.5346ZM11.8781 16.2434C11.9822 16.3203 12.1119 16.3582 12.2675 16.3576C12.4865 16.3567 12.6576 16.2836 12.7808 16.1381C12.8995 15.9983 12.9895 15.8168 13.0518 15.5945L11.5075 15.6006C11.5344 15.7282 11.575 15.846 11.6307 15.9529C11.6916 16.0699 11.7741 16.1667 11.8781 16.2434ZM23.1245 0.0267578L23.244 30.0265L25.119 30.019L24.9995 0.0192877L23.1245 0.0267578Z" fill="white"/>
</mask>
<g mask="url(#mask0)">
<rect x="0.119141" y="30.1191" width="30" height="30" transform="rotate(-90.2283 0.119141 30.1191)" fill="#3AC1B0"/>
</g>
</svg>
