<svg width="30" height="30" viewBox="0 0 30 30" fill="none" xmlns="http://www.w3.org/2000/svg">
<path fill-rule="evenodd" clip-rule="evenodd" d="M14.9992 0C6.71551 0 0 6.71638 0 15C0 23.2845 6.71551 30 14.9992 30C23.2837 30 30 23.2845 30 15C30 6.71638 23.2837 0 14.9992 0V0ZM24.0914 24.0914C23.4151 24.7676 22.6767 25.3589 21.8892 25.8606L20.8214 24.0111L19.8936 24.5468L20.962 26.3974C19.2987 27.2699 17.4549 27.7672 15.5361 27.8454V25.7143H14.4646V27.8454C12.5457 27.7674 10.7018 27.2702 9.03851 26.3977L10.1071 24.5467L9.17927 24.011L8.11126 25.8609C7.32369 25.3592 6.58514 24.7678 5.90887 24.0914C5.2326 23.4151 4.64124 22.6767 4.13954 21.889L5.98936 20.821L5.45365 19.8932L3.60269 20.9618C2.73014 19.2985 2.233 17.4546 2.15485 15.5357H4.28599V14.4643H2.15485C2.233 12.5454 2.73021 10.7016 3.60282 9.03824L5.45358 10.1069L5.9893 9.179L4.13954 8.11106C4.64124 7.32356 5.23253 6.58514 5.90867 5.90894C6.58501 5.23253 7.32356 4.6411 8.11113 4.13934L9.17914 5.98916L10.107 5.45344L9.03838 3.60255C10.7018 2.72981 12.5457 2.2326 14.4646 2.15458V4.28572H15.536V2.15465C17.4548 2.23293 19.2986 2.73021 20.9618 3.60282L19.8935 5.45331L20.8213 5.98902L21.8891 4.13961C22.6766 4.6413 23.415 5.23266 24.0913 5.90887C24.7676 6.58514 25.359 7.32356 25.8607 8.11112L24.0113 9.17894L24.547 10.1068L26.3976 9.03831C27.2702 10.7016 27.7675 12.5454 27.8456 14.4642H25.7146V15.5357H27.8456C27.7675 17.4545 27.2703 19.2983 26.3977 20.9616L24.547 19.8931L24.0113 20.8209L25.8609 21.8888C25.3592 22.6766 24.7678 23.4151 24.0914 24.0914V24.0914ZM24.6428 13.9957H16.8928C16.7041 13.6409 16.4185 13.3456 16.0713 13.1447V8.5716H13.9285V13.1447C13.2882 13.5153 12.857 14.2072 12.857 15.0002C12.857 16.1836 13.8164 17.143 14.9999 17.143C15.765 17.143 16.4359 16.7418 16.815 16.1386H24.6428V13.9957V13.9957Z" fill="#5879CA"/>
<mask id="mask0" mask-type="alpha" maskUnits="userSpaceOnUse" x="0" y="0" width="30" height="30">
<path fill-rule="evenodd" clip-rule="evenodd" d="M14.9992 0C6.71551 0 0 6.71638 0 15C0 23.2845 6.71551 30 14.9992 30C23.2837 30 30 23.2845 30 15C30 6.71638 23.2837 0 14.9992 0V0ZM24.0914 24.0914C23.4151 24.7676 22.6767 25.3589 21.8892 25.8606L20.8214 24.0111L19.8936 24.5468L20.962 26.3974C19.2987 27.2699 17.4549 27.7672 15.5361 27.8454V25.7143H14.4646V27.8454C12.5457 27.7674 10.7018 27.2702 9.03851 26.3977L10.1071 24.5467L9.17927 24.011L8.11126 25.8609C7.32369 25.3592 6.58514 24.7678 5.90887 24.0914C5.2326 23.4151 4.64124 22.6767 4.13954 21.889L5.98936 20.821L5.45365 19.8932L3.60269 20.9618C2.73014 19.2985 2.233 17.4546 2.15485 15.5357H4.28599V14.4643H2.15485C2.233 12.5454 2.73021 10.7016 3.60282 9.03824L5.45358 10.1069L5.9893 9.179L4.13954 8.11106C4.64124 7.32356 5.23253 6.58514 5.90867 5.90894C6.58501 5.23253 7.32356 4.6411 8.11113 4.13934L9.17914 5.98916L10.107 5.45344L9.03838 3.60255C10.7018 2.72981 12.5457 2.2326 14.4646 2.15458V4.28572H15.536V2.15465C17.4548 2.23293 19.2986 2.73021 20.9618 3.60282L19.8935 5.45331L20.8213 5.98902L21.8891 4.13961C22.6766 4.6413 23.415 5.23266 24.0913 5.90887C24.7676 6.58514 25.359 7.32356 25.8607 8.11112L24.0113 9.17894L24.547 10.1068L26.3976 9.03831C27.2702 10.7016 27.7675 12.5454 27.8456 14.4642H25.7146V15.5357H27.8456C27.7675 17.4545 27.2703 19.2983 26.3977 20.9616L24.547 19.8931L24.0113 20.8209L25.8609 21.8888C25.3592 22.6766 24.7678 23.4151 24.0914 24.0914V24.0914ZM24.6428 13.9957H16.8928C16.7041 13.6409 16.4185 13.3456 16.0713 13.1447V8.5716H13.9285V13.1447C13.2882 13.5153 12.857 14.2072 12.857 15.0002C12.857 16.1836 13.8164 17.143 14.9999 17.143C15.765 17.143 16.4359 16.7418 16.815 16.1386H24.6428V13.9957V13.9957Z" fill="white"/>
</mask>
<g mask="url(#mask0)">
<rect width="30" height="30" fill="#5879CA"/>
</g>
</svg>
